<?xml version="1.0" encoding="UTF-8"?>
<svg id="Layer_1" data-name="Layer 1" xmlns="http://www.w3.org/2000/svg" viewBox="0 0 207.86 10.23">
  <defs>
    <style>
      .cls-1 {
        fill: #231f20;
      }
    </style>
  </defs>
  <g>
    <path class="cls-1" d="M89.75,8.6c-.17-.03-.08.39-.1.46.27-.11.08-.57.1-.46Z"/>
    <polygon class="cls-1" points="92.45 7.49 92.42 7.66 92.8 7.22 92.45 7.49"/>
    <path class="cls-1" d="M95.05,7.34c-.28-.7-.93.17-1.41-.06l-.09-.16-.17.59c.55-.12,1.26-.55,1.67-.37Z"/>
    <path class="cls-1" d="M96.5,8.8c-.1-.27.29-.26-.32-.07.03.03.04.05.06.07.06,0,.13-.01.26,0Z"/>
    <path class="cls-1" d="M96.24,8.8c-.27.04.19.22,0,0h0Z"/>
    <path class="cls-1" d="M97.49,8.59l-.35.26c.08.16.4.19.29.31.36-.15.28-.31.06-.57Z"/>
    <path class="cls-1" d="M97.8,8.05l-.18.11c.04.07.09.09.18-.11Z"/>
    <path class="cls-1" d="M97.24,8.4l.38-.24c-.06-.11-.07-.34-.18.09.02-.21-.05,0-.21.15Z"/>
    <path class="cls-1" d="M97.01,8.3c-.21-.15-.47-.24-.12-.5-.68.13-.56.62.12.5Z"/>
    <path class="cls-1" d="M95.14,6.6l-.28-.19-.22.25c.11-.13.53.16.5-.06Z"/>
    <path class="cls-1" d="M99.73,8.88c.02-.15-.14-.4-.17-.59l-.26.18c.14.1.4.19.43.41Z"/>
    <path class="cls-1" d="M99.56,8.28l.39-.27c-.36-.02-.42.11-.39.27Z"/>
    <polygon class="cls-1" points="97.83 7.26 97.21 7.83 97.96 7.25 97.83 7.26"/>
    <polygon class="cls-1" points="101.25 8.84 101.03 9.2 101.42 8.66 101.25 8.84"/>
    <path class="cls-1" d="M102.25,8.75c-.16.3.24.48.07.67.27-.06.5-.32.7-.55-.22.13-.46.11-.77-.12Z"/>
    <path class="cls-1" d="M103.36,8.52c-.11.07-.22.2-.34.34.12-.07.23-.17.34-.34Z"/>
    <path class="cls-1" d="M100.63,8.06c.03.09.1.33.33.42l-.17-.42s-.1,0-.16,0Z"/>
    <path class="cls-1" d="M100.78,8.05h0c.17.02.29.02.34.03-.04,0-.15-.01-.34-.03Z"/>
    <path class="cls-1" d="M100.59,8.06h.04s-.03-.05-.04,0Z"/>
    <path class="cls-1" d="M98.89,7.61c.22-.25.7-.52.22-.87-.16.3.12.5-.22.87Z"/>
    <path class="cls-1" d="M100.38,7.53l-.43-.08c.01.11.09.27-.02.4l.44-.31Z"/>
    <polygon class="cls-1" points="100.58 7.39 100.38 7.53 100.54 7.56 100.58 7.39"/>
    <path class="cls-1" d="M102.63,8.15c.18-.19.38-.22.6-.25-.24-.08-.49-.11-.73-.1-.03.14-.13.38.13.36Z"/>
    <path class="cls-1" d="M101.73,8.06l.04-.03s-.05-.05-.04.03Z"/>
    <path class="cls-1" d="M105.45,7.86s-.02-.05-.04-.08v.07s.04,0,.04,0Z"/>
    <path class="cls-1" d="M102.46,7.72c-.18-.08-.29.03-.39.17.13-.05.28-.08.43-.09.01-.06.02-.1-.04-.08Z"/>
    <path class="cls-1" d="M103.97,8.31c-.1-.09-.21-.16-.32-.23.1.13.29.34.32.23Z"/>
    <path class="cls-1" d="M101.83,8.15s-.02.02-.03.02c.06.09.05.05.03-.02Z"/>
    <path class="cls-1" d="M101.83,8.15c.09-.06.16-.17.23-.27-.11.04-.21.09-.3.15.02.03.05.07.06.12Z"/>
    <path class="cls-1" d="M106.07,5.1c-.03.4-.5.77-.92.35-.4.3-.11,1.6.26,2.32,0-.17,0-.33.42-.57-.15-.21-.94-.49-.59-.86.55-.21.46.13.73.34-.24-.49.69-.73.56-1.45l-.48.26c-.01-.11.16-.3.03-.4Z"/>
    <path class="cls-1" d="M104.61,7.75l-.17.05c.2.07.34.22.61.53.28-.2.34-.35.35-.48l-.85-.04.06-.06Z"/>
    <path class="cls-1" d="M103.67,7.82c.12-.44.53-.62.27-1.09-.5.04-.35.37-.64.57.81-.14-.23.25.37.47-.16.08-.3.11-.44.13.15.05.29.11.42.18l-.02-.03h0s0,0,0,0c-.04-.05-.05-.08,0-.05,0,0,.02,0,.02,0,0-.06.02-.11.03-.16.24.08.04.11-.03.16v.06s0,0,0,0l.81-.25c-.17-.06-.39-.04-.77.02Z"/>
    <path class="cls-1" d="M99.51,5.8s.03.07.03.1c.05-.05.07-.09-.03-.1Z"/>
    <path class="cls-1" d="M99.86,6.05c-.06.06-.1.24-.3.2-.17-.12,0-.21-.02-.35-.11.12-.4.32-.02.52l.06-.06c.33.14.78.66.72.72-.11-.38-.2-.66-.44-1.03Z"/>
    <path class="cls-1" d="M101.79,6.82l.67-.24-.36-.36.02.22c-.39-.07-.3.2-.34.37Z"/>
    <polygon class="cls-1" points="105.53 8.07 105.45 8.53 105.83 7.88 105.53 8.07"/>
    <polygon class="cls-1" points="106.41 8 106.38 8.4 106.61 8.16 106.41 8"/>
    <path class="cls-1" d="M156.49,4.22l.2-.11c-.1.03-.16.07-.2.11Z"/>
    <path class="cls-1" d="M155.04,4.14l-.04.19c.07-.11.1-.18.04-.19Z"/>
    <path class="cls-1" d="M128.09,8.11c.28.38.59.96.57.51l-.08-.44c-.21.07-.36.02-.49-.08Z"/>
    <path class="cls-1" d="M143.07,6.01s-.05-.09-.08-.13c-.08.15-.15.28-.21.41.09-.08.19-.18.29-.27Z"/>
    <path class="cls-1" d="M143.34,4.22l.37.29c-.08-.1-.2-.2-.37-.29Z"/>
    <path class="cls-1" d="M164.42,4.01l.25-.44c-.36,0-.21.22-.25.44Z"/>
    <path class="cls-1" d="M115.44,7.79c.25.17.45.24.62.26-.3-.25-.54-.62-.62-.26Z"/>
    <path class="cls-1" d="M155.76,8.8c.13-.07.18-.16.18-.26-.13.07-.2.15-.18.26Z"/>
    <path class="cls-1" d="M116.79,8.05s-.09-.07-.13-.1c-.18.07-.37.13-.59.1.22.19.48.3.72,0Z"/>
    <path class="cls-1" d="M193.01,4.39s.05.03.07.05c0-.06-.02-.06-.07-.05Z"/>
    <path class="cls-1" d="M201.59,8.36c-.08.03-.22.04-.34.05.06.03.17.02.34-.05Z"/>
    <path class="cls-1" d="M109.96,8.14c-.19.03-.03.05,0,0h0Z"/>
    <path class="cls-1" d="M109.03,6.44s.07-.11.07-.21c-.01.1-.04.17-.07.21Z"/>
    <path class="cls-1" d="M118.68,5.37h.02c-.05-.08-.05-.07-.02,0Z"/>
    <path class="cls-1" d="M109.67,7.95c.07.05.15.1.24.13-.04-.03-.11-.07-.24-.13Z"/>
    <path class="cls-1" d="M109.71,8.15c-.07-.02-.12-.03-.16-.04-.02.07,0,.12.16.04Z"/>
    <path class="cls-1" d="M110.22,8.11c-.11,0-.21-.01-.3-.04.04.03.05.05.04.07.05,0,.13-.01.26-.03Z"/>
    <path class="cls-1" d="M177.7,5.76s.03.02.04.04c.19-.18.11-.15-.04-.04Z"/>
    <path class="cls-1" d="M133.11,3.74s-.01.02-.02.02l.03.02v-.04Z"/>
    <path class="cls-1" d="M133.8,3.44c-.31.53-.47.46-.68.34l.18,1.26.5-1.59Z"/>
    <path class="cls-1" d="M159.97,4.21l-.46-.41c.59-.62,1-.39.57-.95-.11,1.36-1.84.08-1.95,1.43l-.3-.3c.09.02.11-.06.19-.05-.59-.67-.48.97-1.26.75-.27-.11-.45-.32-.26-.47l-.62.32c-.18-.03-.12-.27.05-.23l-.93.08v-.04c-.13.21-.44.53-.59.66-.23-.2.12-.14.07-.31l-.53.31c-.2-.36.24-.69.59-.62-.43-1.37-.44.33-1.44-.5l.49-.15c-.28-.78-.67-.52-1.2-1.02.12.26,1.05,1.25.48,1.57-.15-.11-.36-.16-.67.1.01-.48-.28-.38-.65-.36l.05-.64c-.4.17-.38.5-.63.78-.44-.08-.51-.58-.6-1-.7-.13.46.81-.38.9-.58-.27-1-.02-1.72.34-.4-.24.09-.39-.05-.58l-.38.5c-.09-.02-.05-.17-.04-.25-.32.19-.05.64-.54.79-.16.7-.96-1.07-1.59-.29-.14-.19.09-.39.05-.64-.84.49-.72.35-1.42,1.04l-.56-.44c.41.5-.16,1.04-.65,1.49.14.24.26.45.34.54l-.77.31c-.09-.11,0-.33.13-.59-.05.05-.1.1-.14.15-.26-.25-.11-.61.1-.96.08.13.17.27.26.4.2-.38.39-.8.37-1.18-.05.07-.15.13-.25.16.05-.1.09-.2.07-.26-.02-.07-.11.07-.24.23l-.15-.72-.05.28-.97-.48c-.73.69-1.39,1.72-2.52,1.98.3-.51.09-.85.13-1.47.28.67.88-.25,1.46-.09-.3-.08-.22-.37-.14-.47l-1.06.56c.04-.51-.21-.39-.47-.61.17,1.01-.8.64-1.23.93-.01-.34.1-.68.61-.58-.54-.77-.78,1.15-1.31.49.13,0,.19.05.25-.12-.3.29-1.02.03-.84-.26h.13c-.83-.15-2.55-.1-2.7.75,0-.11.14-1.02.2-1.19l-1.58,2.81c.15-.73-.3-2.48.41-2.87-.2-.11-.44-.24-.87,0,.13.11.31,1.07.12,1.13-.48-.83-.34-.44-.95-1.15.2.16-.06,1.3-.38,1.26.06-.17,0-1.13.13-1.25l-.83,1.1c.21-.2.06-.95-.11-1.27.08.22-.69-.04-.91.07l.33.27c-.9-.19-.94,1.56-1.83,1.47.11-.23.3-1.42-.15-1.58-.22.57-.99,2.74-1.8,3.17l-.14-.33-.62.36c.4-.86,1.5-2.65,2.1-3.35-.33-.27-.08-.39-.59-.37-.17-.31.29-.46.44-.47l-1.18-.23c.04.67-.92.65-.89,1.21l1.3-.66c.04.67-.79,1.88-1.62,1.75-.21-.27.18-1.19.17-1.42-.11.23-.8.43-.88.26l.36-.35c-.46-.26-.78.88-1.33.23-.19-.05-.56-.88-.6-.48.3.77.32,3.15.1,3.72-.07-.05-1-.75-1.21-1.13-.31-.61.5-1.43.24-1.95-.01.18-.19.41-.27.48-.2-.16.09-.57-.35-.49-.08.68-.9-.07-.22.57-.43.19-.46-.15-.96-.13.16.44-.47,1.49-.91,1.68.03-.17-.07-.4-.11-.5-.88-.08-1.35-.38-2.18-.39-.07-.17-.47-.37-.3-.66-.12.12-.23.35-.48.37-.49-.59.57-.09.2-.8-.03.4-.66.54-1.02.79.11.61.84.12,1.2-.13,0,.84-.64,1.73-1.5,2.11-.68.21-.29-.55-.41-.43-1.28-.15-1.09,1.47-2.15.86-.42-.54-.02-1.07-.12-1.46.56-.2.86.34,1.23.32l-.46-.26c.18-.18.55-.31.75-.16-.35-.48-2.17-.11-3.16-.54-.17.18-.48.37-.33.59l.31-.08c.29.43-.58.61-.19.8-.42.31-.88.8-1.47.56l-.12-.61c.01.18.39.36.55.17-.24.28-.92-.82-1.18,0l.42.42c-.42.31-.93.97-1.45.79.25.6.12-.07.5.63-.33-.88,1.33.02.81-.9.39.82.66.34,1.17,1.03-.02-.2-.18-.38.26-.29.02-.06.07-.14.09-.18.01,0,.02,0,.03.01l-.02-.02s.02-.04,0,0c-.1-.09-.19-.19-.23-.3.21-.47.91-.46,1.14-.71.26.09-.11.23.04.45l.35-.36c.04.45.69.75.08,1.01l.55.02c.33.25.77.35,1.05.17.26.1.66-.5.43-.14l.86-.28v.11c.86.06,1.77-.74,2.74.07.29-.11.59-.25,1.07-.12l.09.39c.37-.13,1.1.41,1.27,0,.38,1.05,1.79.26,2.43.45l.03-.51c.45.04.88-.1,1.43-.3l-.03-.45c.49-.36,1.22.34,1.98.31-.06.17-.25.12-.38.02.88,1.02,1.93-.69,2.73.07.21-.16.36-.1.5.02-.02,0-.04,0-.05.02.02,0,.05,0,.08,0,.09.08.18.17.28.25-.08-.11-.16-.2-.23-.25.16,0,.4-.05.64-.16l.09.48s.03,0,.05-.01c.23.18.19-.22.08-.59.12-.08.23-.17.32-.28.17.78.62-.25.85.59.17-.4,1.19-.27,1.34-1.12,0,.11.07.17-.05.17.26.1.52.21.76-.03l.09.61.6-.81c.34.38.47.61.11,1.07.85-.7.68-.25,1.41-.94l-.05.39c.25,0,.68-.52.82-.19.54.77,2.8.2,4.22.95-.24-1.17.66.55.75-.35.07.28.27.44.03.67.75-.24,1.1.48,1.64-.26.07.28-.17.4-.1.56.06-.06.24-.23.32-.06.07.17-.12.23-.24.34.76-.02.87-.86.95-1.66.37.39.56.35.86-.17.12.27.34.55-.14.62.26.05,1.6.44,1.65-.2.08.17.37.06.44-.01.59.06.64.12,1.23.08l-.16-.11c.26-.76.49-.15.97-.23l-.02.08c1.06.6.48-.25,1.52.42l-.04-.48c.14-1.03.92.64,1.55.27l-.21-.28c.35-.34.89,1.44,1.23,1.58.07.09-.12.14-.23.2.87.64.14-.62.8-.74.11.34-.19.86.25.93.21.28,1.33-1.05,1.92-.38-.12-.27-.25-.53.07-.72.47-.08,1.24,1.03,1.69.22.06.07.08.14.08.21.37-.2,1.18-.31,1.42-.75.28,1.67,2.27-.73,2.21.8l1.11-.04-.03.16c.71.12.97-.24,1.23-.6.16.11.04.25.02.33,1.03.34,1.13.27,2.02-.46l.08.5c.24-.28,1.48.82,2.51.27-.01.06-.03.15-.12.22,1.16-.55,2.71,1.44,3.17-.36l.76-.43c-.97-.16.16-.78-.24-1.09.39-.1.98.56.51.65l-.07-.09c-.19.94,1.21.35,1.17.99,1.92-.01,3.79.55,5.6.58l-.2-.73.63.04c.16.17.22.57-.23.54.23.42.75-.34.77-.5.88.3-.35.85-.08.87l.37-.05-.08-.09c.3-.3.33-.61.86-.58.34.15.17.45.31.48,0,.05.04.08.21.02l.79.06-.32-.58c.35-.28.74.03.38-.62.54,1.02,2.96.36,3.29.66.49-.43.97-.43,1.58-.38-.15-.12-.25-.77.27-.69-.17,1.34.96.57,1.39,1.53-.39-.63,1.47-.18.87-1.08.43.1.04.5.37.81,1.02-.52,2.28.28,3.55.06.01-.18-.21-.44.06-.71l.7.86c.25-.1.2-1.02.68-.43-.07-.15-.17-.37,0-.43,1.26.38,2.53.18,3.81.03,1.28-.16,2.56-.22,3.88.51-.36-.32-.14-.37.12-.4-.18-.07-.02-.43-.07-.67l1.1.6c.15-.67,1.14-.11,1.2-.75l-.33.13c.39-.77-.74-1.62-.73-2.58-.44.88-1.38-1.18-2.12.08-.19-.18.13-.32.03-.53-.18.42-.43.52-.9.36l.05-.1c-1.29.17-1.86-.18-3.33-.39l.13.47c-.32-.05-.39-.2-.54-.31-.33.73.88.01.59.81-.46-.95-2.21.06-2.53-1.02-.48.01.16.54-.32.55l-.14-.29-.11.39c-.32-.05-.49-.42-.51-.67.08.03.21-.08.3-.1-.42-.33-1.15.16-1.29.05l.47.17c-1.3.32-2.91,0-4.17.6l.1.22c-.96.43-.78-.23-1.84-.03l.04-.05c-.21.23-.49.34-.79.32.27-.27-.51-.5-.16-.8-1.05.46-.52.36-1.2,1.2l-.16-.37c-.23.34-.25.52-.78.62.43-.32-.34-.56.14-.99-1.12-.79-1.66.83-2.17-.36-.51,1.02.97.57.68.79.24.34-.42.77-.77.66-.36-.02-.61-1.31-1.51-1.3.09,0,.1-.07.18-.07-.34-.26-.66.35-1.07-.07-.23.62-.53-.04-.6.75l.82-.18c-.47.21-.91,1.13-1.68.68.06-.16.29-.37.45-.49-.22-.23-.43.15-.67-.09.07-.79,1-.17,1.5-.77-.24-.34-.95.57-.69-.29-.37,1.09-.88-.14-1.5.69l.04-.47c-.1.07-.3.3-.47.29l.33-.61c-.5.52-.94-.46-1.42-.18.99,0,.22.58.63.93-1.23.62-.69-1.25-2.05-1.05.19-.06.69.3.4.51-.26-.1-.6-.29-.75-.54-.9.08.13.49-.26.78-.3-.58-.45.23-.85.41v-.48c-1.02-.33-.29,1-1.21.61l.4-.66-.49.16.11-.55c-.53.4-.7.29-1.21.13.11.34-.08.87-.54.88-.31-.29.18-.46-.46-.4.15-.3.32-.68.59-.23.03-.16.15-.3.18-.46-.33-.34-.84-.09-1.07-.09.09.02.2.05.25.12l-.95.65c-.14-.19-.02-.33.1-.47-.19.05-.33.27-.61.3.08-.39.07-.8.47-.97l-.9.41c-.06-.17-.45-.48-.33-.62-.49-.24-1.23.73-1.88.41-.04.08-.11.15-.25.2-.62-.11-1.15-.6-1.9-.08l-.39-.71c-.58.14.54.9-.43,1.14-.68.21-.23-.61-.46-.81-.35.34-.96,1.04-1.56.45.21-.13.37-.02.56-.06ZM152.88,4.28c.14-.1.43-.4.52-.11-.18.55-.29.28-.52.11ZM142.06,5.04c.11-.16.26-.07.43.12-.13.03-.28.01-.43-.12ZM112,7.74v-.02c.32.19.21.11,0,.02ZM111.37,7.53c-.06.07-.06.13-.03.2.04-.12.19-.13.35-.1-.05-.13-.13-.21-.32-.11ZM179.7,9.01l-.12-.13c.28-.14.2-.01.12.13Z"/>
    <path class="cls-1" d="M143.31,4.43c.04.08.04.17.05.26.06-.08.06-.17-.05-.26Z"/>
    <path class="cls-1" d="M164.37,4.09s.01,0,.02,0c.01-.03.02-.06.02-.09l-.05.08Z"/>
    <path class="cls-1" d="M121.25,3.51c.13.07.2.16.25.25,0-.12-.05-.22-.25-.25Z"/>
    <path class="cls-1" d="M108.03,8.39l.4-.13c-.2.03-.27-.08-.37-.15.01.11.09.27-.04.28Z"/>
    <path class="cls-1" d="M104.45,5.45c-.06.06-.13,0-.18.07l.02.22c.25-.02.43-.2.16-.29Z"/>
    <path class="cls-1" d="M107.63,6.79c-.04-.41-.29-.26-.57-.18.02,0,.03,0,.05,0-.08.57.22.38.52.19Z"/>
    <path class="cls-1" d="M106.99,6.62c-.09.02-.18.03-.26.01-.03.23.11.05.26-.01Z"/>
    <path class="cls-1" d="M110.57,7.8c-.14-.1-.08.52-.16.36-.15.52.89-.64.16-.36Z"/>
    <polygon class="cls-1" points="107.38 5.46 107.49 5.96 107.64 5.55 107.38 5.46"/>
    <path class="cls-1" d="M109.64,5.79l-.46-.13c0,.08-.05.13-.12.17.28.01.59.11.58-.04Z"/>
    <path class="cls-1" d="M109.06,5.83c-.15,0-.29,0-.37.09.08,0,.25-.03.37-.09Z"/>
    <polygon class="cls-1" points="108 5.3 108.14 5.4 108.46 5.43 108 5.3"/>
    <path class="cls-1" d="M114.54,5.88l.5-.14c.05-.17-.08-.28-.27-.21-.12.12-.3.19-.23.35Z"/>
    <path class="cls-1" d="M113.03,4.5c.14.1.14.22.22.38l.02-.62-.24.24Z"/>
    <path class="cls-1" d="M114.49,4.36c.05-.17.73-.49.09-.46-.05.17-.55.31-.09.46Z"/>
    <polygon class="cls-1" points="122 5.22 121.87 5.23 121.87 6.25 122 5.22"/>
    <path class="cls-1" d="M128.68,2.93c-.59-.26-.16.62-.68.31-.15.24.43.26.28.46.36-.24.55-.1.4-.77Z"/>
    <path class="cls-1" d="M128.28,3.7c-.06.04-.12.09-.19.15.11-.06.15-.11.19-.15Z"/>
    <polygon class="cls-1" points="203.02 8.83 203.42 9.02 203.15 8.69 203.02 8.83"/>
    <path class="cls-1" d="M203.71,8.03l.14.64.19-.6c-.08.03-.25.1-.32-.04Z"/>
    <path class="cls-1" d="M151.87,2.93l-.03.16c.05.17.14.19.32.22l-.28-.38Z"/>
    <polygon class="cls-1" points="156.99 3.6 156.9 3.59 157.05 4.18 156.99 3.6"/>
    <path class="cls-1" d="M161.32,3c-.17-.03-.39.1-.56.06.39-.09.59.67.56-.06Z"/>
  </g>
  <g>
    <path class="cls-1" d="M1.16,9.62c-.17,0-.02.4-.03.48.26-.15,0-.58.03-.48Z"/>
    <polygon class="cls-1" points="3.7 8.07 3.69 8.24 4 7.75 3.7 8.07"/>
    <path class="cls-1" d="M6.29,7.53c-.39-.65-.92.3-1.43.15l-.11-.14-.09.61c.54-.21,1.19-.73,1.63-.62Z"/>
    <path class="cls-1" d="M7.96,8.77c-.14-.26.25-.29-.34-.02.04.02.05.04.07.06.05-.02.13-.03.26-.03Z"/>
    <path class="cls-1" d="M7.7,8.8c-.27.07.22.19,0,0h0Z"/>
    <path class="cls-1" d="M8.92,8.41l-.31.31c.1.15.43.12.33.26.34-.2.24-.35-.02-.57Z"/>
    <path class="cls-1" d="M9.16,7.84l-.17.14c.05.06.1.08.17-.14Z"/>
    <path class="cls-1" d="M8.64,8.26l.35-.29c-.07-.1-.12-.33-.17.11,0-.21-.05,0-.19.18Z"/>
    <path class="cls-1" d="M8.4,8.2c-.23-.12-.51-.16-.19-.47-.67.22-.47.7.19.47Z"/>
    <path class="cls-1" d="M6.27,6.78l-.31-.15-.19.28c.09-.14.56.08.5-.13Z"/>
    <path class="cls-1" d="M11.21,8.38c0-.15-.19-.38-.25-.57l-.23.22c.15.08.43.13.48.35Z"/>
    <path class="cls-1" d="M10.96,7.81l.35-.32c-.36.03-.4.16-.35.32Z"/>
    <polygon class="cls-1" points="9.08 7.04 8.53 7.7 9.21 7.01 9.08 7.04"/>
    <polygon class="cls-1" points="12.72 8.15 12.55 8.53 12.86 7.94 12.72 8.15"/>
    <path class="cls-1" d="M13.71,7.93c-.12.31.3.45.15.66.26-.09.46-.38.63-.63-.2.16-.44.16-.79-.03Z"/>
    <path class="cls-1" d="M14.8,7.59c-.1.08-.2.22-.3.37.11-.08.21-.19.3-.37Z"/>
    <path class="cls-1" d="M12,7.45c.05.09.14.31.38.38l-.22-.4s-.1.01-.16.02Z"/>
    <path class="cls-1" d="M12.15,7.42h0c.17,0,.29-.01.34-.02-.04,0-.15,0-.35.02Z"/>
    <path class="cls-1" d="M11.96,7.45h.04s-.03-.06-.04,0Z"/>
    <path class="cls-1" d="M10.19,7.24c.19-.27.64-.61.1-.89-.12.32.19.48-.1.89Z"/>
    <path class="cls-1" d="M11.68,6.96l-.44-.02c.03.11.13.26.03.4l.4-.37Z"/>
    <polygon class="cls-1" points="11.86 6.79 11.68 6.96 11.84 6.97 11.86 6.79"/>
    <path class="cls-1" d="M14.02,7.3c.15-.21.35-.26.57-.32-.25-.05-.51-.06-.75-.02-.01.14-.08.39.17.34Z"/>
    <path class="cls-1" d="M13.11,7.32l.04-.03s-.05-.04-.04.03Z"/>
    <polygon class="cls-1" points="16.82 6.68 16.77 6.61 16.77 6.68 16.82 6.68"/>
    <path class="cls-1" d="M13.79,6.89c-.19-.05-.29.07-.37.21.13-.06.27-.11.42-.14,0-.06,0-.1-.05-.07Z"/>
    <path class="cls-1" d="M15.39,7.3c-.11-.08-.22-.14-.35-.19.11.12.33.3.35.19Z"/>
    <path class="cls-1" d="M13.22,7.39s-.02.02-.02.02c.07.08.06.04.02-.02Z"/>
    <path class="cls-1" d="M13.22,7.39c.08-.08.14-.19.2-.29-.11.05-.2.11-.28.19.03.03.06.07.08.11Z"/>
    <path class="cls-1" d="M17.16,3.88c.01.4-.43.82-.9.45-.38.35.07,1.6.51,2.28,0-.17-.03-.33.36-.61-.17-.2-1-.39-.69-.79.54-.27.48.08.78.26-.29-.46.63-.8.42-1.5l-.47.31c-.02-.11.14-.31-.02-.4Z"/>
    <path class="cls-1" d="M15.97,6.67l-.17.07c.21.04.37.18.66.45.26-.23.3-.38.3-.52l-.85.06.05-.07Z"/>
    <path class="cls-1" d="M15.03,6.85c.07-.45.47-.68.15-1.11-.51.1-.31.41-.58.63.8-.22-.2.27.42.43-.15.09-.29.14-.42.17.15.03.3.08.45.14l-.02-.02h0s0,0,0,0c-.04-.05-.06-.08-.01-.05,0,0,.02-.01.02-.01,0-.06,0-.11.01-.17.25.06.05.11-.01.17v.06s0,0,0,0l.78-.35c-.18-.04-.4,0-.77.11Z"/>
    <path class="cls-1" d="M10.58,5.36s.04.06.04.09c.04-.06.06-.1-.04-.09Z"/>
    <path class="cls-1" d="M10.96,5.56c-.05.07-.07.25-.27.24-.19-.1-.03-.2-.07-.34-.1.13-.36.37.04.52l.05-.07c.36.09.87.55.82.62-.16-.37-.29-.62-.57-.96Z"/>
    <path class="cls-1" d="M13.01,6.08l.65-.31-.4-.32.05.22c-.4-.03-.28.23-.3.41Z"/>
    <polygon class="cls-1" points="16.92 6.88 16.89 7.35 17.2 6.66 16.92 6.88"/>
    <polygon class="cls-1" points="17.8 6.72 17.81 7.12 18.02 6.86 17.8 6.72"/>
    <path class="cls-1" d="M68.61,1.42l.21-.11c-.1.03-.16.07-.21.11Z"/>
    <path class="cls-1" d="M67.09,1.41l-.03.2c.07-.11.1-.19.03-.2Z"/>
    <path class="cls-1" d="M39.56,6.12c.27.39.56.99.55.54l-.06-.44c-.21.06-.37,0-.49-.1Z"/>
    <path class="cls-1" d="M54.97,4.13l-.09-.13c-.07.15-.13.29-.19.42.09-.09.18-.19.28-.29Z"/>
    <path class="cls-1" d="M55.13,2.33l.4.27c-.09-.09-.22-.18-.4-.27Z"/>
    <path class="cls-1" d="M76.91,1.26l.27-.42c-.38-.02-.23.21-.27.42Z"/>
    <path class="cls-1" d="M26.86,5.82c.26.16.46.22.64.23-.31-.24-.57-.6-.64-.23Z"/>
    <path class="cls-1" d="M68.05,6.03c.12-.08.17-.17.17-.27-.13.08-.2.16-.17.27Z"/>
    <path class="cls-1" d="M28.22,6.03s-.09-.06-.14-.1c-.18.08-.36.14-.59.13.23.17.49.28.73-.03Z"/>
    <path class="cls-1" d="M106.05,3.91s.05.03.06.05c0-.06-.02-.06-.06-.05Z"/>
    <path class="cls-1" d="M114.78,7.9c-.08.04-.22.05-.36.08.07.02.18,0,.36-.08Z"/>
    <path class="cls-1" d="M21.37,6.54c-.18.04-.03.05,0,0h0Z"/>
    <path class="cls-1" d="M20.29,4.92c.04-.05.06-.12.06-.22,0,.11-.03.17-.06.22Z"/>
    <path class="cls-1" d="M30.06,3.28h.02c-.06-.08-.05-.07-.02,0Z"/>
    <path class="cls-1" d="M21.07,6.36c.08.05.16.08.25.11-.04-.03-.12-.07-.25-.11Z"/>
    <path class="cls-1" d="M21.13,6.56c-.07-.01-.12-.02-.17-.03-.02.07,0,.12.17.03Z"/>
    <path class="cls-1" d="M21.63,6.49c-.11.02-.21,0-.31-.02.04.03.06.05.05.06.05,0,.13-.02.26-.04Z"/>
    <path class="cls-1" d="M90.45,4.03s.02.03.04.05c.21-.16.12-.14-.04-.05Z"/>
    <path class="cls-1" d="M44.87,2s-.01.01-.02.02l.03.02v-.04Z"/>
    <path class="cls-1" d="M45.57,1.72c-.32.52-.49.44-.7.31l.14,1.26.56-1.58Z"/>
    <path class="cls-1" d="M72.25,1.36l-.49-.4c.62-.63,1.05-.4.6-.96-.11,1.36-1.96.1-2.05,1.45l-.32-.29c.09.02.11-.06.2-.05-.63-.66-.48.97-1.3.78-.28-.1-.48-.3-.29-.46l-.63.34c-.18-.02-.14-.26.04-.24l-.97.12v-.04c-.13.22-.43.55-.58.69-.25-.19.12-.15.05-.31l-.52.34c-.23-.35.21-.7.58-.66-.53-1.34-.44.35-1.53-.41l.5-.19c-.35-.76-.73-.47-1.32-.93.14.25,1.18,1.18.61,1.53-.17-.1-.38-.14-.68.14-.02-.48-.32-.35-.7-.31v-.64c-.4.2-.36.52-.59.82-.46-.05-.57-.54-.7-.95-.73-.07.54.77-.32.93-.61-.22-1.03.06-1.73.47-.43-.2.06-.39-.1-.57l-.35.53c-.09,0-.07-.17-.06-.25-.31.21,0,.64-.49.83-.1.71-1.06-.99-1.63-.17-.16-.18.06-.39,0-.64-.82.55-.7.41-1.37,1.14l-.6-.4c.44.47-.09,1.05-.56,1.53.16.23.3.43.39.52l-.77.36c-.1-.1-.02-.32.1-.59-.05.05-.1.11-.14.16-.28-.23-.15-.6.04-.96.09.13.19.26.29.39.18-.39.35-.83.3-1.2-.05.07-.14.14-.25.18.05-.11.08-.2.05-.26-.03-.07-.1.08-.23.24l-.19-.71-.04.28-1.01-.43c-.7.73-1.32,1.79-2.47,2.08.29-.52.07-.85.09-1.47.31.66.88-.28,1.46-.15-.31-.07-.24-.36-.16-.47l-1.04.6c.03-.51-.22-.38-.49-.59.2,1-.78.66-1.22.95-.02-.34.09-.68.6-.58-.55-.77-.76,1.16-1.31.51.13,0,.19.05.25-.12-.3.29-1.02.03-.84-.26h.13c-.83-.15-2.55-.14-2.74.7,0-.11.18-1.02.24-1.18l-1.71,2.75c.18-.72-.2-2.49.53-2.85-.19-.12-.43-.26-.88-.03.13.11.27,1.08.07,1.13-.46-.85-.33-.46-.91-1.2.19.17-.12,1.3-.45,1.24.06-.17.06-1.13.19-1.24l-.9,1.06c.22-.19.11-.95-.05-1.28.07.23-.71-.07-.93.02l.33.29c-.91-.24-1.03,1.51-1.94,1.39.13-.22.37-1.41-.09-1.58-.26.56-1.13,2.7-1.95,3.1l-.14-.34-.63.35c.42-.86,1.61-2.61,2.26-3.28-.33-.28-.07-.39-.6-.4-.17-.32.32-.45.47-.46l-1.22-.27c.02.67-.98.63-.96,1.19l1.37-.63c.01.67-.87,1.86-1.72,1.71-.21-.28.22-1.19.21-1.41-.12.23-.84.41-.92.24l.38-.34c-.48-.27-.82.85-1.38.2-.2-.05-.58-.88-.62-.48.31.77.32,3.15.09,3.72-.07-.05-1.01-.75-1.23-1.13-.32-.61.51-1.42.23-1.95-.01.18-.2.41-.27.48-.21-.16.09-.57-.37-.49-.08.68-.93-.05-.22.58-.45.2-.47-.14-1-.11.17.44-.46,1.5-.89,1.7.02-.17-.08-.4-.13-.5-.9-.04-1.4-.34-2.24-.32-.08-.16-.5-.34-.34-.65-.12.13-.22.36-.48.39-.53-.57.58-.12.17-.81-.02.4-.66.58-1.02.84.14.61.86.08,1.23-.18.03.84-.58,1.75-1.42,2.18-.68.24-.33-.53-.44-.41-1.31-.06-1.01,1.54-2.13,1-.47-.5-.1-1.07-.22-1.45.55-.24.89.28,1.28.24l-.49-.22c.17-.19.54-.35.76-.21-.39-.47-2.22.05-3.27-.3-.16.19-.46.41-.29.61l.31-.1c.33.41-.55.65-.13.82-.4.33-.83.87-1.44.68l-.17-.6c.03.18.43.32.58.12-.22.3-1-.73-1.19.09l.46.38c-.39.35-.84,1.05-1.39.92.31.57.11-.08.56.58-.42-.85,1.34-.1.73-.97.47.78.7.28,1.26.93-.03-.2-.21-.37.23-.31.01-.06.05-.14.08-.19.01,0,.02,0,.03.01l-.03-.02s.02-.04,0,0c-.11-.08-.21-.17-.25-.28.17-.49.88-.53,1.1-.79.27.07-.09.24.07.44l.33-.39c.07.44.75.69.16,1l.55-.03c.34.22.8.29,1.06.09.27.08.63-.54.42-.17l.85-.33v.11c.87.01,1.75-.83,2.76-.06.28-.12.58-.27,1.07-.15l.1.39c.37-.15,1.11.36,1.27-.04.41,1.05,1.79.21,2.44.42l.03-.51c.45.04.88-.1,1.44-.29l-.02-.45c.49-.36,1.23.37,1.99.35-.06.17-.25.12-.38,0,.85,1.04,1.95-.64,2.74.15.22-.15.36-.08.5.04-.02,0-.04,0-.05.02.02,0,.05,0,.08.01.09.08.17.18.27.26-.08-.11-.16-.21-.22-.26.16,0,.41-.04.65-.13l.07.49s.04,0,.06,0c.22.19.2-.21.11-.58.13-.07.24-.16.34-.27.13.79.65-.21.84.63.19-.39,1.23-.21,1.42-1.05,0,.11.07.17-.06.17.26.12.52.23.78.01l.07.62.65-.78c.33.4.46.62.08,1.07.91-.66.72-.22,1.49-.89l-.06.39c.26,0,.71-.5.85-.17.54.79,2.9.25,4.41.94-.29-1.17.7.53.77-.38.09.28.3.43.05.67.77-.27,1.17.43,1.69-.34.09.28-.16.41-.08.57.06-.06.24-.24.33-.08.08.16-.11.23-.23.36.79-.06.85-.91.89-1.71.4.37.6.31.87-.22.14.26.38.52-.1.63.27.03,1.68.33,1.69-.31.09.16.38.03.45-.04.61.02.67.07,1.26-.01l-.17-.1c.21-.78.49-.19.97-.3v.08c1.12.51.46-.29,1.57.3l-.08-.48c.06-1.03.99.57,1.6.15l-.24-.26c.33-.37,1.02,1.36,1.36,1.48.08.09-.11.15-.21.22.92.58.09-.63.76-.8.13.33-.13.87.32.91.23.27,1.27-1.14,1.9-.5-.14-.26-.28-.52.03-.72.48-.11,1.3.97,1.72.14.06.07.08.14.09.2.36-.22,1.17-.35,1.4-.8.31,1.66,2.28-.76,2.23.77.37-.02.74-.04,1.12-.05l-.04.15c.71.14.97-.22,1.24-.57.16.11.03.25.02.33,1.03.36,1.13.29,2.05-.41l.06.5c.26-.27,1.45.87,2.52.38-.01.06-.04.15-.13.21,1.21-.48,2.63,1.6,3.22-.15l.81-.37c-.98-.23.22-.77-.16-1.1.4-.07.96.64.47.68l-.07-.1c-.26.92,1.2.45,1.11,1.08,1.95.15,3.8.86,5.62,1.09l-.14-.75.63.11c.15.19.17.59-.28.52.2.44.8-.27.83-.43.86.38-.43.81-.16.86l.38-.02-.08-.09c.33-.27.39-.58.93-.49.33.18.13.47.27.51,0,.05.04.08.21.04l.8.14-.27-.61c.38-.25.76.1.44-.58.45,1.05,2.98.63,3.29.97.54-.38,1.03-.34,1.65-.24-.14-.13-.19-.79.33-.67-.29,1.32.93.66,1.3,1.63-.35-.66,1.53-.07.97-1.01.44.13,0,.5.32.84,1.08-.45,2.33.43,3.66.3.02-.18-.19-.45.1-.7l.68.89c.26-.09.25-1.01.72-.4-.07-.15-.17-.37,0-.43.64.21,1.3.28,1.96.28.66-.02,1.32-.11,1.98-.17,1.33-.1,2.65-.24,4.05.48-.39-.31-.15-.36.12-.4-.19-.06-.04-.43-.1-.67l1.17.53c.12-.68,1.18-.19,1.21-.83l-.33.15c.36-.79-.85-1.57-.89-2.53-.41.89-1.43-1.07-2.13.18-.2-.18.13-.32.01-.53-.17.42-.42.53-.89.38l.04-.11c-1.29.21-1.88-.18-3.34-.4l.12.47c-.32-.05-.39-.2-.54-.31-.34.73.88.01.58.81-.44-.93-2.23.03-2.52-1.07-.48,0,.14.55-.34.54l-.13-.3-.12.38c-.32-.06-.47-.43-.48-.68.08.03.22-.07.3-.09-.4-.34-1.16.11-1.3-.01l.46.2c-1.33.23-2.93-.19-4.24.33l.09.23c-1.01.36-.77-.28-1.86-.16l.04-.05c-.23.21-.53.3-.82.25.29-.24-.48-.55-.1-.81-1.1.36-.55.31-1.32,1.08l-.13-.38c-.27.32-.3.49-.85.54.47-.28-.3-.59.23-.97-1.06-.91-1.76.67-2.17-.56-.62.98.93.65.62.85.22.36-.5.73-.85.59-.36-.05-.5-1.36-1.41-1.43.09.01.1-.06.19-.05-.32-.29-.7.29-1.08-.18-.3.59-.54-.09-.69.69l.86-.1c-.5.16-1.03,1.04-1.77.51.08-.15.33-.34.5-.44-.21-.26-.46.11-.67-.15.15-.78,1.04-.07,1.61-.62-.21-.36-1.02.48-.68-.35-.48,1.05-.89-.23-1.59.54l.09-.47c-.11.06-.33.27-.51.24l.39-.58c-.56.47-.92-.56-1.43-.32,1.01.09.17.59.56.98-1.31.5-.59-1.31-2.01-1.22.2-.05.68.36.36.54-.26-.12-.59-.34-.73-.61-.94,0,.09.5-.33.75-.26-.61-.48.19-.9.33l.04-.48c-1.03-.41-.38.97-1.29.51l.47-.63-.51.12.15-.54c-.58.35-.74.23-1.25.03.09.35-.15.86-.62.84-.29-.31.22-.44-.45-.43.18-.29.38-.65.63-.18.04-.15.18-.29.22-.44-.31-.36-.86-.15-1.11-.17.09.03.2.06.25.13l-1.03.58c-.14-.19,0-.33.13-.46-.2.04-.35.24-.65.26.11-.38.12-.79.55-.94l-.96.36c-.05-.18-.44-.51-.31-.64-.5-.27-1.32.67-1.98.32-.04.07-.12.14-.27.19-.63-.14-1.18-.65-1.98-.15l-.4-.72c-.61.13.55.91-.46,1.13-.71.19-.24-.61-.48-.82-.37.33-1,1.04-1.63.45.22-.13.39-.02.59-.07ZM64.86,1.68c.14-.11.41-.43.53-.14-.15.56-.28.3-.53.14ZM53.89,3.23c.1-.16.26-.08.45.09-.13.04-.28.03-.45-.09ZM23.4,5.97v-.02c.33.17.22.1,0,.02ZM22.75,5.82c-.06.07-.05.14-.02.2.03-.13.18-.15.34-.13-.05-.12-.14-.2-.33-.08ZM92.17,7.46l-.11-.14c.3-.11.21,0,.11.14Z"/>
    <path class="cls-1" d="M55.11,2.54c.04.08.05.17.07.26.05-.08.05-.18-.07-.26Z"/>
    <path class="cls-1" d="M76.86,1.33s.01,0,.02,0c.01-.03.02-.06.03-.09l-.05.08Z"/>
    <path class="cls-1" d="M32.67,1.37c.14.07.21.16.26.25,0-.12-.05-.22-.26-.25Z"/>
    <path class="cls-1" d="M19.46,6.94l.39-.17c-.19.04-.27-.05-.38-.12.02.11.12.27-.01.29Z"/>
    <path class="cls-1" d="M15.55,4.41c-.05.07-.13.02-.18.09l.05.22c.25-.05.41-.25.13-.31Z"/>
    <path class="cls-1" d="M18.91,5.39c-.08-.4-.32-.24-.6-.13.02,0,.03,0,.05,0-.02.58.26.35.55.13Z"/>
    <path class="cls-1" d="M18.24,5.29c-.09.03-.18.05-.26.04,0,.23.11.03.26-.04Z"/>
    <path class="cls-1" d="M21.96,6.15c-.14-.09-.04.52-.13.37-.11.53.85-.7.13-.37Z"/>
    <polygon class="cls-1" points="18.53 4.09 18.69 4.57 18.8 4.15 18.53 4.09"/>
    <path class="cls-1" d="M20.86,4.22l-.48-.09c.02.08-.04.14-.11.18.29-.01.61.06.58-.09Z"/>
    <path class="cls-1" d="M20.27,4.31c-.15,0-.29.03-.36.12.08-.01.25-.05.36-.12Z"/>
    <polygon class="cls-1" points="19.15 3.87 19.29 3.96 19.63 3.96 19.15 3.87"/>
    <path class="cls-1" d="M25.85,3.95l.5-.17c.04-.17-.1-.27-.29-.2-.12.12-.3.2-.21.36Z"/>
    <path class="cls-1" d="M24.23,2.68c.15.09.16.21.25.37l-.02-.62-.23.26Z"/>
    <path class="cls-1" d="M25.72,2.44c.04-.17.72-.53.07-.46-.04.17-.55.34-.07.46Z"/>
    <polygon class="cls-1" points="33.45 3.09 33.32 3.1 33.32 4.12 33.45 3.09"/>
    <path class="cls-1" d="M40.39.98c-.59-.29-.19.62-.72.27-.16.23.43.28.27.48.38-.23.57-.07.45-.75Z"/>
    <path class="cls-1" d="M39.94,1.73c-.06.04-.13.08-.2.14.11-.06.16-.1.2-.14Z"/>
    <polygon class="cls-1" points="116.31 8.27 116.74 8.43 116.43 8.12 116.31 8.27"/>
    <path class="cls-1" d="M116.97,7.43l.18.63.16-.61c-.09.04-.25.12-.34-.02Z"/>
    <path class="cls-1" d="M63.72.41l-.02.16c.07.17.16.18.34.2l-.32-.35Z"/>
    <polygon class="cls-1" points="69.11 .79 69.02 .78 69.19 1.36 69.11 .79"/>
    <path class="cls-1" d="M73.68.15c-.18-.03-.41.09-.59.05.41-.09.61.68.59-.05Z"/>
  </g>
  <g>
    <path class="cls-1" d="M27.96,2.37s.05-.38.06-.45c-.07.09-.07.56-.06.45Z"/>
    <polygon class="cls-1" points="27.22 3.27 27.25 3.1 27.12 3.51 27.22 3.27"/>
    <path class="cls-1" d="M26.6,3.22c0,.72.24-.1.33.16v.16s.1-.57.1-.57c-.14.08-.35.45-.43.24Z"/>
    <path class="cls-1" d="M26.37,1.65c0,.28-.09.23.07.09,0-.03,0-.05,0-.07-.01,0-.03,0-.06-.02Z"/>
    <path class="cls-1" d="M26.44,1.67c.07-.02-.03-.24,0,0h0Z"/>
    <path class="cls-1" d="M26.12,1.81l.1-.24c0-.16-.08-.21-.04-.32-.1.13-.09.29-.06.57Z"/>
    <path class="cls-1" d="M26,2.33l.05-.1c0-.07-.01-.09-.05.1Z"/>
    <path class="cls-1" d="M26.16,2.01l-.11.21c0,.12-.01.35.05-.08-.02.21.01,0,.06-.14Z"/>
    <path class="cls-1" d="M26.21,2.12c.04.16.09.26-.01.5.17-.09.18-.59.01-.5Z"/>
    <path class="cls-1" d="M26.51,3.95l.05.21.07-.23c-.04.12-.11-.2-.12.02Z"/>
    <path class="cls-1" d="M25.6,1.41c-.02.15,0,.41,0,.6l.08-.17c-.03-.11-.08-.21-.07-.43Z"/>
    <path class="cls-1" d="M25.6,2.01l-.11.25c.08.04.11-.09.11-.25Z"/>
    <polygon class="cls-1" points="25.93 3.12 26.13 2.58 25.9 3.12 25.93 3.12"/>
    <polygon class="cls-1" points="25.23 1.36 25.31 1.01 25.18 1.54 25.23 1.36"/>
    <path class="cls-1" d="M24.99,1.41c.06-.29-.02-.5.03-.67-.07.05-.14.29-.21.51.06-.12.12-.09.18.16Z"/>
    <path class="cls-1" d="M24.7,1.57c.03-.07.07-.19.11-.32-.03.07-.07.16-.11.32Z"/>
    <path class="cls-1" d="M25.32,2.17c0-.09,0-.33-.05-.44v.43s.05,0,.05,0Z"/>
    <path class="cls-1" d="M25.29,2.18h0s-.07-.04-.08-.04c0,0,.03.02.08.04Z"/>
    <path class="cls-1" d="M25.33,2.18h0s0,.05,0,0Z"/>
    <path class="cls-1" d="M25.7,2.71c-.07.23-.21.48-.12.85.06-.29,0-.5.12-.85Z"/>
    <path class="cls-1" d="M25.34,2.71l.1.1c0-.11,0-.28.03-.39l-.13.29Z"/>
    <polygon class="cls-1" points="25.28 2.84 25.34 2.71 25.31 2.67 25.28 2.84"/>
    <path class="cls-1" d="M24.85,1.98c-.06.18-.11.19-.16.22.05.09.11.14.17.14.02-.13.06-.37,0-.36Z"/>
    <path class="cls-1" d="M25.06,2.11v.02s0,.05,0-.02Z"/>
    <path class="cls-1" d="M24.15,2.16s0,.05,0,.08v-.07s0,0,0,0Z"/>
    <path class="cls-1" d="M24.86,2.42c.04.09.07-.02.11-.15-.04.04-.07.07-.11.07,0,.06-.01.1,0,.08Z"/>
    <path class="cls-1" d="M24.54,1.76c.02.09.04.17.06.24-.01-.14-.04-.35-.06-.24Z"/>
    <path class="cls-1" d="M25.04,2.02v-.02c0-.09,0-.05,0,.02Z"/>
    <path class="cls-1" d="M25.04,2.02c-.03.06-.05.16-.08.26.03-.03.06-.08.08-.14,0-.03,0-.08,0-.12Z"/>
    <path class="cls-1" d="M23.8,4.89c.03-.39.17-.75.24-.32.12-.29.14-1.59.1-2.33-.01.17-.03.33-.14.56.02.22.19.52.08.87-.15.19-.1-.15-.15-.36.02.5-.22.71-.24,1.43l.13-.25c0,.11-.06.29-.03.39Z"/>
    <path class="cls-1" d="M24.34,2.29l.04-.05c-.04-.07-.07-.23-.11-.55-.08.19-.11.33-.12.47l.2.07-.02.06Z"/>
    <path class="cls-1" d="M24.57,2.26c-.06.43-.17.6-.14,1.07.12-.02.11-.35.2-.53-.2.09.07-.24-.05-.49.04-.07.08-.09.11-.11-.03-.05-.06-.12-.09-.2v.03s0,0,0,0h0c0,.06,0,.09,0,.06,0,0,0,0,0,0,0,.06-.01.11-.02.16-.05-.09,0-.11.02-.16v-.06s0,0,0,0l-.21.22c.04.06.09.05.19.01Z"/>
    <path class="cls-1" d="M25.42,4.48s0-.07,0-.1c-.02.05-.02.09,0,.1Z"/>
    <path class="cls-1" d="M25.35,4.22c.02-.06.04-.23.09-.18.03.13-.01.21-.02.35.04-.11.12-.3.05-.52l-.02.06c-.07-.15-.13-.7-.12-.75,0,.39,0,.67.02,1.05Z"/>
    <path class="cls-1" d="M24.95,3.35l-.18.2.06.38v-.22c.1.09.1-.18.12-.35Z"/>
    <polygon class="cls-1" points="24.14 1.95 24.19 1.5 24.06 2.13 24.14 1.95"/>
    <polygon class="cls-1" points="23.92 1.99 23.96 1.59 23.89 1.83 23.92 1.99"/>
    <path class="cls-1" d="M11.78,6.51l-.04.11s.04-.07.04-.11Z"/>
    <path class="cls-1" d="M12.12,6.53v-.2c0,.11-.01.19,0,.2Z"/>
    <path class="cls-1" d="M18.63,1.74c-.06-.37-.11-.95-.12-.5v.43c.06-.08.09-.03.12.07Z"/>
    <path class="cls-1" d="M14.94,4.23s.01.09.02.13c.02-.15.04-.29.05-.41-.02.09-.05.18-.07.28Z"/>
    <path class="cls-1" d="M14.87,6.02l-.09-.28c.02.1.05.19.09.28Z"/>
    <path class="cls-1" d="M9.95,7.02l-.04.44c.08,0,.04-.23.04-.44Z"/>
    <path class="cls-1" d="M21.72,2.01c-.05-.17-.1-.25-.14-.27.06.25.1.63.14.27Z"/>
    <path class="cls-1" d="M11.84,1.9c-.03.08-.04.17-.04.26.03-.07.05-.16.04-.26Z"/>
    <path class="cls-1" d="M21.4,1.73s.02.07.03.1c.05-.07.1-.13.15-.09-.04-.19-.1-.31-.18,0Z"/>
    <path class="cls-1" d="M3.3,7.25s-.01-.03-.02-.05c0,.06.01.06.02.05Z"/>
    <path class="cls-1" d="M.62,3.25s.05-.04.08-.05c-.02-.03-.05-.02-.08.05Z"/>
    <path class="cls-1" d="M23.07,1.74s.01-.05,0,0h0Z"/>
    <path class="cls-1" d="M23.19,3.47s-.02.11-.03.21c.01-.1.02-.17.03-.21Z"/>
    <path class="cls-1" d="M20.8,4.4h0c0,.08,0,.07,0,0Z"/>
    <path class="cls-1" d="M23.13,1.94c-.01-.05-.03-.1-.05-.13,0,.03.02.08.05.13Z"/>
    <path class="cls-1" d="M23.13,1.74s.03.03.04.04c.01-.07,0-.12-.04-.04Z"/>
    <path class="cls-1" d="M23.01,1.76s.05.02.07.05c0-.03,0-.05,0-.07-.01,0-.03.01-.06.02Z"/>
    <path class="cls-1" d="M6.74,5.69s0-.02-.01-.04c-.03.18-.01.15.01.04Z"/>
    <path class="cls-1" d="M17.29,6.2s0-.02,0-.02c0,0,0-.01,0-.02v.04Z"/>
    <path class="cls-1" d="M17.12,6.52c.09-.54.12-.47.17-.35v-1.25s-.17,1.61-.17,1.61Z"/>
    <path class="cls-1" d="M10.97,6.65l.12.39c-.12.64-.22.42-.1.97-.02-1.36.42-.15.41-1.5l.08.28s-.02.07-.04.05c.16.65.08-.98.27-.79.07.1.11.3.07.46l.14-.34s.04.26,0,.24l.22-.11v.04c.03-.21.09-.54.13-.69.06.19-.03.14,0,.31l.12-.33c.05.35-.04.69-.13.65.13,1.35.1-.34.35.45l-.11.17c.08.77.17.49.3.97-.03-.25-.27-1.21-.14-1.55.04.1.09.15.16-.12,0,.48.07.36.16.34v.64c.09-.18.08-.51.13-.8.1.06.13.56.15.98.17.1-.12-.79.08-.92.14.24.24-.02.4-.4.1.22-.02.39.02.57l.09-.51s.01.17,0,.25c.07-.2,0-.64.12-.81.04-.71.23,1.03.38.23.03.18-.02.39-.01.64.2-.52.17-.38.34-1.08l.13.42c-.09-.48.04-1.05.16-1.51-.04-.23-.07-.44-.08-.53l.19-.34c.02.11,0,.32-.04.59.01-.05.02-.1.04-.15.06.24.02.61-.03.96-.02-.13-.04-.26-.06-.4-.05.39-.1.82-.09,1.19.01-.07.04-.14.06-.17-.01.11-.02.2-.02.26,0,.07.03-.07.06-.24l.03.71v-.28s.24.45.24.45c.18-.71.35-1.77.62-2.06-.08.52-.03.85-.05,1.47-.06-.66-.21.28-.35.14.07.07.05.36.03.47l.26-.59c-.02.51.04.38.1.59-.03-1,.2-.66.31-.97,0,.34-.03.68-.15.59.12.76.2-1.17.32-.53-.03,0-.04-.04-.06.13.08-.3.24-.06.19.24h-.03c.2.13.6.03.66-.82,0,.11-.06,1.02-.08,1.2l.45-2.85c-.06.73,0,2.47-.17,2.88.04.11.1.23.21-.03-.03-.11-.04-1.06,0-1.12.09.82.07.44.19,1.14-.04-.16.05-1.3.13-1.26-.02.17-.04,1.13-.07,1.25l.23-1.12c-.06.2-.04.95-.01,1.27-.01-.22.16.03.22-.08l-.07-.26c.21.18.28-1.57.49-1.5-.04.23-.12,1.43-.02,1.57.07-.57.34-2.76.55-3.19l.02.33.16-.37c-.13.86-.47,2.67-.64,3.38.07.26,0,.39.13.36.03.31-.09.47-.12.48l.27.21c.02-.67.24-.66.26-1.22l-.33.68c.02-.67.26-1.9.46-1.77.04.27-.09,1.19-.1,1.42.04-.23.21-.43.22-.27l-.1.35c.1.26.22-.88.32-.23.04.05.09.87.12.47-.04-.77.06-3.14.14-3.71.01.05.21.74.24,1.13.05.6-.19,1.43-.15,1.95.01-.18.07-.41.09-.48.04.16-.05.57.06.49.05-.68.21.07.08-.57.11-.19.1.15.22.12-.02-.44.19-1.49.3-1.68-.02.17,0,.4,0,.5.21.07.3.39.5.41,0,.17.09.37.04.66.04-.12.07-.35.14-.36.08.6-.14.08-.09.8.03-.39.19-.54.29-.78,0-.61-.19-.13-.29.11.05-.84.25-1.72.48-2.09.18-.2.04.55.08.43.3.17.35-1.46.57-.83.07.54-.06,1.07-.06,1.46-.15.2-.18-.35-.28-.34l.1.26c-.05.18-.15.31-.19.15.06.49.52.12.72.58.05-.18.14-.36.12-.58l-.08.07c-.04-.44.18-.59.1-.8.12-.3.26-.77.39-.51v.61c0-.18-.08-.37-.13-.19.08-.27.17.84.28.05l-.07-.43c.12-.3.29-.94.4-.74-.02-.61-.03.07-.08-.65.02.88-.32-.06-.26.87-.04-.83-.14-.36-.21-1.07,0,.2.02.39-.08.28-.01.06-.03.13-.03.18v-.02s0,.02,0,.02c0,.03,0,.04,0,0,.02.09.03.2.03.31-.08.46-.25.43-.32.67-.06-.1.04-.23.02-.45l-.11.35c.02-.45-.12-.75.04-1.01l-.13-.03c-.06-.26-.17-.36-.25-.18-.06-.1-.19.49-.11.14l-.23.27v-.11c-.2-.07-.47.72-.66-.11-.08.11-.16.24-.27.11v-.39c-.1.13-.25-.4-.31,0-.04-1.05-.43-.25-.58-.44l-.03.51c-.11-.03-.22.1-.36.3v.45c-.15.36-.3-.33-.48-.3.02-.17.07-.12.09-.02-.17-1.02-.5.72-.67-.03-.06.16-.09.1-.12-.01,0,0,0,0,.01-.02,0,0-.01,0-.02,0-.02-.08-.04-.17-.06-.24.02.11.03.2.05.24-.04,0-.1.06-.16.17v-.48s-.01,0-.02.01c-.05-.18-.05.23-.04.59-.03.08-.06.17-.09.29-.01-.78-.16.26-.19-.58-.05.4-.3.29-.36,1.14,0-.11-.01-.16.02-.17-.06-.1-.12-.2-.19.04v-.61s-.17.82-.17.82c-.07-.38-.1-.59,0-1.06-.23.72-.17.27-.37.98l.02-.4c-.06.01-.18.54-.2.21-.12-.76-.68-.12-1.02-.83.04,1.17-.15-.53-.19.38-.01-.28-.06-.43,0-.67-.19.27-.27-.44-.4.32-.02-.28.05-.4.03-.57-.02.06-.06.24-.08.07-.02-.16.03-.23.06-.35-.19.04-.22.89-.25,1.69-.09-.38-.14-.33-.21.2-.03-.26-.08-.53.04-.63-.06-.04-.39-.39-.4.25-.02-.16-.09-.05-.11.02-.14-.04-.16-.1-.3-.04l.04.11c-.06.77-.12.17-.23.26v-.08c-.26-.56-.11.27-.37-.37v.48c-.01,1.03-.22-.61-.37-.21l.05.27c-.08.35-.23-1.4-.32-1.53-.02-.09.03-.14.05-.21-.22-.61-.03.63-.19.77-.03-.34.03-.86-.08-.92-.06-.27-.31,1.1-.46.45.04.26.07.52,0,.72-.11.1-.33-.98-.42-.16-.02-.07-.02-.14-.02-.2-.08.21-.28.36-.32.81-.12-1.65-.53.82-.56-.71l-.27.09v-.16c-.17-.1-.23.27-.27.64-.04-.1-.02-.25-.02-.33-.26-.3-.29-.23-.47.54l-.04-.49c-.04.29-.4-.76-.62-.17,0-.06,0-.15.02-.22-.25.59-.75-1.34-.75.47l-.16.46c.25.12.01.78.12,1.08-.09.11-.27-.53-.16-.63l.02.09c-.01-.94-.31-.31-.35-.95-.47.08-.96-.42-1.41-.41l.11.72-.16-.03c-.05-.17-.1-.57.01-.55-.09-.41-.16.36-.14.52-.24-.28.01-.86-.06-.87l-.09.06.03.08c-.05.3-.03.62-.16.6-.1-.14-.08-.45-.12-.47,0-.05-.02-.07-.05-.02l-.2-.05.13.57c-.06.29-.18-.01-.03.63-.23-1-.75-.29-.87-.59-.08.43-.19.44-.34.4.05.12.14.76.01.69-.11-1.34-.3-.55-.51-1.5.17.62-.34.2-.09,1.08-.12-.1-.07-.5-.19-.8-.19.54-.6-.26-.89-.04.02.17.11.43.08.7l-.29-.85c-.05.09.09,1.01-.11.43.04.14.09.36.06.42-.74-.77-1.12.88-2.01-.6.14.32.09.36.03.39.06.07.08.43.13.66l-.38-.61c.07.66-.27.09-.18.72l.06-.13c.03.75.46,1.6.61,2.55-.04-.86.53,1.18.5-.04.08.19.02.31.08.53-.02-.41.02-.51.16-.34v.1c.29-.15.48.22.86.44l-.1-.46c.08.05.12.2.17.31-.03-.72-.21-.01-.26-.8.25.94.52-.06.74,1.01.11-.01-.11-.54,0-.55l.07.29-.03-.38c.08.05.17.41.21.66-.02-.03-.04.08-.06.1.14.33.25-.16.3-.05l-.13-.17c.27-.32.68.01.9-.62l-.05-.22c.18-.44.21.22.44,0v.05c.02-.23.08-.35.15-.33-.03.27.17.49.13.79.2-.47.08-.36.16-1.2l.08.36c.02-.34,0-.52.12-.63-.07.33.14.55.07.98.34.77.31-.85.54.32.02-1.03-.28-.55-.24-.77-.09-.33.03-.77.12-.68.09.02.27,1.29.47,1.26-.02,0-.02.07-.04.07.1.25.12-.37.26.05,0-.62.13.02.08-.77l-.18.2c.09-.22.12-1.15.34-.72,0,.16-.04.37-.07.49.07.23.09-.16.16.07.05.79-.22.19-.29.8.08.33.17-.59.19.27,0-1.09.22.12.29-.72l.03.47c.02-.08.05-.3.09-.3l-.03.62c.07-.53.25.44.34.15-.23.03-.09-.57-.22-.91.24-.65.26,1.23.55.98-.04.07-.18-.27-.13-.5.07.09.16.27.21.52.2-.11-.06-.49,0-.78.11.57.09-.24.17-.43l.03.48c.26.29,0-1.01.24-.65l-.05.67.1-.18v.55c.11-.41.15-.31.28-.17-.05-.34-.03-.88.07-.9.09.28-.02.46.13.38-.02.3-.04.68-.12.24,0,.16-.01.3-.02.46.1.32.2.06.25.06-.02-.02-.05-.04-.06-.11l.19-.68c.04.18.02.33,0,.47.04-.05.06-.28.13-.32,0,.39.03.8-.06.98l.19-.44c.02.17.13.46.11.61.12.23.25-.77.41-.47,0-.08.02-.15.05-.21.15.08.29.56.44.01l.12.7c.13-.17-.16-.88.05-1.15.15-.23.08.6.14.79.07-.36.19-1.08.35-.51-.04.13-.09.03-.13.08ZM12.62,6.31c-.03.1-.09.41-.12.13.03-.55.06-.29.12-.13ZM15.18,5.16c-.03.16-.06.08-.1-.1.03-.04.07-.02.1.1ZM22.55,2.1s0,.01,0,.02c-.06-.19-.04-.12,0-.02ZM22.69,2.32c.02-.07.02-.13.02-.2-.02.12-.05.13-.09.09,0,.13.02.22.07.11ZM5.97,2.5l.04.12c-.06.14-.05.02-.04-.12Z"/>
    <path class="cls-1" d="M14.88,5.82c0-.08,0-.17-.01-.26-.01.08-.02.17.01.26Z"/>
    <polygon class="cls-1" points="9.95 6.94 9.95 6.93 9.95 7.02 9.95 6.94"/>
    <path class="cls-1" d="M20.09,6.27c-.03-.07-.04-.16-.05-.25,0,.12,0,.22.05.25Z"/>
    <path class="cls-1" d="M23.56,1.56l-.11.12s.06.09.08.16c0-.11,0-.28.03-.28Z"/>
    <path class="cls-1" d="M24.22,4.59c.02-.06.03,0,.05-.06v-.22c-.05.01-.11.19-.05.29Z"/>
    <path class="cls-1" d="M23.55,3.16c-.02.41.05.27.13.2,0,0,0,0-.01,0,.06-.57-.03-.38-.11-.2Z"/>
    <path class="cls-1" d="M23.69,3.35s.04-.03.06,0c.02-.23-.02-.05-.06,0Z"/>
    <path class="cls-1" d="M22.9,2.07c.03.11.05-.52.06-.35.07-.51-.26.61-.06.35Z"/>
    <polygon class="cls-1" points="23.52 4.5 23.52 4 23.46 4.4 23.52 4.5"/>
    <path class="cls-1" d="M23,4.1l.1.15c0-.08.02-.13.04-.17-.07-.02-.13-.13-.14.02Z"/>
    <path class="cls-1" d="M23.14,4.07s.07,0,.09-.08c-.02,0-.06.02-.09.08Z"/>
    <polygon class="cls-1" points="23.36 4.64 23.33 4.53 23.26 4.49 23.36 4.64"/>
    <path class="cls-1" d="M21.83,3.93l-.13.14c-.02.17,0,.28.05.21.04-.12.08-.18.08-.35Z"/>
    <path class="cls-1" d="M22.11,5.32c-.03-.11-.02-.22-.03-.38l-.04.62.07-.24Z"/>
    <path class="cls-1" d="M21.75,5.45c-.02.17-.2.48-.05.45.02-.17.15-.31.05-.45Z"/>
    <polygon class="cls-1" points="20 4.56 20.03 4.56 20.07 3.54 20 4.56"/>
    <path class="cls-1" d="M18.31,6.93c.13.25.06-.63.17-.32.04-.24-.09-.25-.05-.46-.09.25-.13.11-.12.78Z"/>
    <path class="cls-1" d="M18.43,6.15s.03-.09.05-.15c-.03.06-.04.11-.05.15Z"/>
    <polygon class="cls-1" points=".18 2.77 .05 2.58 .17 2.9 .18 2.77"/>
    <path class="cls-1" d="M.14,3.54l-.14-.63.05.59s.05-.09.09.05Z"/>
    <path class="cls-1" d="M12.88,7.62v-.16c0-.17-.03-.18-.07-.21l.07.36Z"/>
    <polygon class="cls-1" points="11.68 7.14 11.7 7.16 11.65 6.57 11.68 7.14"/>
    <path class="cls-1" d="M10.7,7.91s.09-.11.13-.08c-.09.11-.16-.65-.13.08Z"/>
  </g>
  <g>
    <path class="cls-1" d="M207.86,3.91s0-.38,0-.46c-.01.09.01.57,0,.46Z"/>
    <polygon class="cls-1" points="207.72 4.86 207.72 4.69 207.71 5.11 207.72 4.86"/>
    <path class="cls-1" d="M207.56,4.86c.04.71.05-.12.09.14v.16s0-.57,0-.57c-.03.09-.06.47-.09.28Z"/>
    <path class="cls-1" d="M207.42,3.32c.01.28-.01.24.02.09,0-.03,0-.05,0-.07,0,0,0,0-.02-.02Z"/>
    <path class="cls-1" d="M207.44,3.34s-.02-.23,0,0h0Z"/>
    <path class="cls-1" d="M207.37,3.5v-.25c0-.16-.02-.2-.01-.32-.02.14,0,.3.01.57Z"/>
    <path class="cls-1" d="M207.37,4.02v-.11c0-.07,0-.09,0,.11Z"/>
    <path class="cls-1" d="M207.39,3.69l-.02.22c0,.12.01.35,0-.08,0,.21,0,0,0-.14Z"/>
    <path class="cls-1" d="M207.41,3.8c.02.15.04.25.02.5.04-.1.02-.6-.02-.5Z"/>
    <path class="cls-1" d="M207.58,5.6l.02.21v-.24c0,.12-.03-.19-.02.03Z"/>
    <path class="cls-1" d="M207.22,3.13c0,.15.02.4.03.6v-.17c0-.1-.02-.2-.03-.42Z"/>
    <path class="cls-1" d="M207.25,3.73l-.02.26s.02-.09.02-.26Z"/>
    <polygon class="cls-1" points="207.39 4.81 207.41 4.26 207.38 4.82 207.39 4.81"/>
    <polygon class="cls-1" points="207.13 3.12 207.13 2.77 207.13 3.3 207.13 3.12"/>
    <path class="cls-1" d="M207.07,3.18c0-.29-.02-.49-.02-.67-.01.05-.02.3-.03.53.01-.13.03-.09.05.14Z"/>
    <path class="cls-1" d="M207.01,3.37c0-.07,0-.2.01-.33,0,.07,0,.16-.01.33Z"/>
    <path class="cls-1" d="M207.19,3.92c0-.09-.02-.33-.03-.43l.02.43h0Z"/>
    <path class="cls-1" d="M207.18,3.93h0s-.02-.03-.02-.04c0,0,0,.01.02.04Z"/>
    <path class="cls-1" d="M207.19,3.92h0s0,.05,0,0Z"/>
    <path class="cls-1" d="M207.31,4.43c0,.24-.03.5.01.86,0-.29-.02-.5-.01-.86Z"/>
    <path class="cls-1" d="M207.22,4.46l.03.1c0-.11-.01-.28-.01-.4l-.02.3Z"/>
    <polygon class="cls-1" points="207.21 4.59 207.22 4.46 207.21 4.42 207.21 4.59"/>
    <path class="cls-1" d="M207.06,3.76c0,.19-.02.2-.03.23.02.08.03.13.05.13,0-.13,0-.38-.02-.36Z"/>
    <path class="cls-1" d="M207.12,3.88v.02s0,.05,0-.02Z"/>
    <path class="cls-1" d="M206.9,4s0,.05,0,.08v-.07s0,0,0,0Z"/>
    <path class="cls-1" d="M207.09,4.2c.01.08.02-.02.02-.15,0,.04-.02.07-.02.08,0,.06,0,.1,0,.08Z"/>
    <path class="cls-1" d="M206.98,3.57c0,.09.02.16.03.23,0-.14-.03-.35-.03-.23Z"/>
    <path class="cls-1" d="M207.11,3.79s0-.02,0-.02c0-.09,0-.05,0,.02Z"/>
    <path class="cls-1" d="M207.11,3.79c0,.06,0,.17,0,.26,0-.03.01-.08.01-.14,0-.03,0-.08,0-.12Z"/>
    <path class="cls-1" d="M206.92,6.74c0-.4.01-.76.05-.34.02-.3-.03-1.6-.07-2.33,0,.17,0,.33-.01.57.01.22.07.5.06.86-.03.2-.03-.14-.05-.35.03.49-.03.72,0,1.44l.02-.26c0,.11,0,.29,0,.4Z"/>
    <path class="cls-1" d="M206.95,4.11v-.05c0-.07-.02-.23-.04-.54-.01.19-.01.34-.01.47l.05.05v.06Z"/>
    <path class="cls-1" d="M207.01,4.06c0,.43-.02.61.01,1.08.03-.03.01-.36.03-.55-.05.11,0-.24-.03-.48,0-.07.02-.1.02-.11,0-.05-.02-.12-.03-.2v.03s0,0,0,0h0c0,.06,0,.09,0,.06,0,0,0,0,0,0,0,.06,0,.11,0,.16-.02-.09,0-.11,0-.16v-.06s0,0,0,0l-.04.24c.01.06.03.05.05,0Z"/>
    <path class="cls-1" d="M207.32,6.21s0-.07,0-.1c0,.05,0,.09,0,.1Z"/>
    <path class="cls-1" d="M207.29,5.96c0-.06,0-.23.01-.19.01.13,0,.21.01.35,0-.11.02-.31-.01-.52v.06c-.03-.15-.07-.68-.07-.74.02.39.04.66.06,1.04Z"/>
    <path class="cls-1" d="M207.15,5.12l-.04.21.03.37v-.22c.02.09,0-.19,0-.36Z"/>
    <polygon class="cls-1" points="206.89 3.78 206.88 3.33 206.87 3.97 206.89 3.78"/>
    <polygon class="cls-1" points="206.83 3.84 206.83 3.44 206.82 3.68 206.83 3.84"/>
    <path class="cls-1" d="M203.7,8.75l-.02.11s0-.07.02-.11Z"/>
    <path class="cls-1" d="M203.79,8.78v-.19c0,.11,0,.19,0,.19Z"/>
    <path class="cls-1" d="M205.51,3.9c-.02-.37-.04-.94-.04-.5v.43c.02-.08.03-.03.04.06Z"/>
    <path class="cls-1" d="M204.58,6.49s0,.09,0,.13c0-.15.01-.29.02-.41,0,.09-.01.18-.02.28Z"/>
    <path class="cls-1" d="M204.56,8.29l-.02-.28c0,.1.02.19.02.28Z"/>
    <path class="cls-1" d="M203.17,9.2l-.03.44s.02-.22.03-.44Z"/>
    <path class="cls-1" d="M206.29,4.01c-.02-.17-.03-.24-.04-.26.02.25.04.62.04.26Z"/>
    <path class="cls-1" d="M203.83,4.15c0,.08-.01.17-.02.26,0-.07.02-.16.02-.26Z"/>
    <path class="cls-1" d="M206.2,3.75s0,.07,0,.1c.01-.07.02-.13.03-.1-.02-.19-.03-.3-.04,0Z"/>
    <path class="cls-1" d="M201.3,8.76s0-.03,0-.05c0,.06,0,.06,0,.05Z"/>
    <path class="cls-1" d="M201.03,4.36s.01-.03.02-.03c0-.03,0-.03-.02.03Z"/>
    <path class="cls-1" d="M206.61,3.65s0-.05,0,0h0Z"/>
    <path class="cls-1" d="M206.71,5.37s0,.11,0,.21c0-.1,0-.17,0-.21Z"/>
    <path class="cls-1" d="M206.12,6.45h0c0,.08,0,.07,0,0Z"/>
    <path class="cls-1" d="M206.64,3.85c0-.05-.01-.1-.02-.13,0,.03.01.08.02.13Z"/>
    <path class="cls-1" d="M206.63,3.65s0,.03.01.04c0-.07,0-.12-.01-.04Z"/>
    <path class="cls-1" d="M206.6,3.68s.01.01.02.04c0-.03,0-.05,0-.07,0,0,0,.02-.02.02Z"/>
    <path class="cls-1" d="M202.35,7.65s0-.02,0-.04c-.02.18-.01.15,0,.04Z"/>
    <path class="cls-1" d="M205.22,8.41s0-.02,0-.02v-.02s0,.04,0,.04Z"/>
    <path class="cls-1" d="M205.17,8.73c.02-.54.03-.47.04-.36v-1.25s-.04,1.61-.04,1.61Z"/>
    <path class="cls-1" d="M203.47,8.87l.02.39c-.05.64-.08.42-.06.97.04-1.36.13-.14.16-1.49v.29s0,.07,0,.05c.03.65.05-.98.1-.79.02.1.02.3,0,.46l.05-.33s0,.26,0,.24l.06-.11v.04c.01-.21.04-.54.05-.68.01.2-.01.14,0,.31l.04-.33c0,.35-.03.69-.05.64,0,1.36.03-.34.09.45l-.03.17c0,.77.04.49.06.97,0-.25-.05-1.21,0-1.55,0,.1.02.15.05-.12,0,.48.01.36.04.34v.64c.02-.18.02-.51.04-.8.03.06.03.56.03.98.05.1-.02-.79.04-.91.03.25.07-.02.12-.4.02.22,0,.39,0,.57l.03-.51s0,.17,0,.25c.02-.2,0-.64.04-.81.02-.7.05,1.03.1.23,0,.18,0,.39,0,.64.06-.52.05-.38.1-1.09l.03.42c-.02-.48.02-1.05.05-1.52,0-.23-.01-.44-.02-.53l.05-.34c0,.11,0,.32-.01.59,0-.05,0-.1,0-.15.01.24,0,.61-.01.96,0-.13,0-.26-.01-.39-.01.39-.02.82-.03,1.19,0-.07.01-.14.02-.17,0,.11,0,.2,0,.26,0,.07,0-.07.02-.24v.71s.01-.28.01-.28l.06.45c.05-.72.1-1.77.17-2.07-.02.52,0,.85-.01,1.47-.02-.66-.06.28-.09.14.02.07.01.36,0,.47l.07-.6c0,.51.01.38.03.59,0-1,.05-.67.08-.97,0,.34,0,.68-.04.6.03.75.05-1.18.09-.54,0,0-.01-.04-.02.13.02-.3.07-.06.05.23h0c.05.13.16.01.17-.84,0,.11,0,1.03-.01,1.2l.09-2.86c0,.73.03,2.47-.02,2.88.01.1.03.23.06-.03,0-.1-.02-1.06-.01-1.12.03.81.02.43.06,1.13-.01-.16,0-1.3.02-1.27,0,.17,0,1.13,0,1.25l.05-1.12c-.01.2,0,.95.01,1.27,0-.22.04.02.06-.09l-.02-.26c.06.17.05-1.58.11-1.52,0,.23-.01,1.43.02,1.57.01-.58.04-2.77.09-3.21v.33s.05-.38.05-.38c-.03.87-.08,2.69-.11,3.4.02.26,0,.39.04.36.01.31-.02.47-.02.49l.08.2c0-.67.05-.67.05-1.23l-.08.7c0-.67.04-1.91.09-1.79.02.27,0,1.2,0,1.42,0-.23.05-.44.05-.28l-.02.36c.03.25.04-.89.08-.25.01.04.05.87.04.47-.03-.77-.05-3.14-.05-3.72,0,.05.07.73.09,1.11.03.6-.01,1.43,0,1.95,0-.18,0-.41.01-.48.01.16,0,.57.03.49,0-.68.06.06,0-.58.03-.2.03.14.06.11-.02-.44.01-1.5.03-1.69,0,.17.01.4.01.5.06.06.09.37.14.37,0,.16.04.36.03.66,0-.12,0-.35.02-.37.04.59-.03.09,0,.8,0-.4.03-.55.05-.79-.02-.61-.05-.12-.07.13-.01-.84.01-1.73.06-2.12.04-.21.03.55.03.42.08.15.04-1.47.12-.87.04.54.02,1.07.04,1.46-.03.2-.06-.34-.08-.32l.03.25c0,.18-.03.31-.04.16.03.48.14.09.21.53,0-.18.02-.37,0-.58l-.02.08c-.03-.43.02-.6,0-.8.02-.31.04-.78.08-.54l.02.61c0-.18-.03-.36-.04-.18,0-.27.08.83.07.03l-.04-.42c.02-.31.04-.96.07-.77-.03-.6,0,.07-.05-.64.04.88-.08-.04-.03.89-.04-.82-.05-.35-.09-1.05,0,.2.02.39,0,.29,0,.06,0,.13,0,.18v-.02s0,.02,0,.02c0,.03,0,.04,0,0,0,.09.01.19.02.31,0,.46-.05.45-.06.69-.02-.1,0-.23-.01-.45v.36c-.03-.45-.07-.75-.04-1.01l-.03-.02c-.02-.25-.05-.35-.07-.16-.02-.1-.03.5-.02.15l-.05.28v-.11c-.06-.06-.1.75-.17-.06-.02.11-.03.25-.06.13v-.39c-.03.14-.08-.39-.09.02-.04-1.05-.11-.23-.15-.41v.51s-.05.12-.08.32v.45c-.02.37-.07-.32-.12-.27,0-.17.01-.13.02-.02-.06-1.01-.11.74-.17,0-.01.16-.02.11-.03,0,0,0,0,0,0-.02,0,0,0,0,0,0,0-.08-.01-.17-.02-.24,0,.11.01.2.02.24,0,0-.02.07-.04.18v-.48s0,0-.01.01c-.01-.18-.01.23,0,.59,0,.08-.01.17-.02.29-.01-.78-.04.26-.06-.57,0,.4-.07.3-.08,1.16,0-.11,0-.16,0-.17-.02-.1-.03-.19-.05.05v-.61s-.04.82-.04.82c-.02-.37-.03-.59,0-1.06-.05.72-.04.27-.09.99v-.4s-.04.55-.05.22c-.03-.75-.17-.1-.26-.8.01,1.17-.04-.52-.05.38,0-.28-.01-.43,0-.67-.05.27-.06-.44-.1.32,0-.28,0-.4,0-.57,0,.06-.02.24-.02.08,0-.16,0-.23.02-.35-.05.05-.06.9-.07,1.69-.02-.38-.03-.32-.05.2,0-.26-.02-.53.01-.63-.02-.04-.1-.38-.1.26,0-.16-.02-.05-.03.03-.04-.04-.04-.1-.08-.04v.1c-.01.77-.02.17-.05.26v-.08c-.06-.56-.03.27-.09-.37v.48c-.02,1.03-.05-.61-.1-.22v.27c-.02.35-.03-1.4-.05-1.53,0-.09,0-.14.02-.21-.04-.61-.02.63-.06.77,0-.34.02-.86,0-.92,0-.27-.1,1.1-.12.45,0,.26,0,.52-.02.72-.03.09-.06-.99-.1-.17,0-.07,0-.14,0-.2-.03.21-.08.35-.1.8.02-1.66-.16.8-.12-.72l-.07.08v-.16c-.04-.1-.06.26-.08.63,0-.1,0-.25,0-.33-.06-.31-.06-.25-.14.51v-.5c-.01.29-.06-.78-.14-.2,0-.06,0-.15.01-.22-.09.58-.12-1.38-.21.42l-.06.44c.06.14-.04.78-.02,1.08-.03.11-.04-.55-.01-.64v.09c.04-.94-.06-.34-.04-.98-.12.04-.22-.48-.32-.53l-.02.73-.04-.04c0-.17,0-.57.04-.54,0-.41-.06.34-.07.5-.04-.3.06-.85.04-.87l-.02.05v.09c-.03.3-.04.61-.07.58-.01-.15,0-.45,0-.48,0-.05,0-.08-.01-.02l-.05-.06v.58c-.04.28-.05-.03-.06.62.01-1.01-.17-.37-.17-.68-.05.42-.08.41-.11.36,0,.12-.02.77-.05.69.08-1.34-.03-.58-.01-1.55,0,.64-.1.15-.11,1.06-.02-.11.02-.5.02-.82-.09.52-.12-.34-.21-.17-.01.18-.01.44-.04.71v-.88c-.01.09-.06,1.01-.06.4,0,.15-.01.37-.02.43-.1-.86-.35.68-.41-.93,0,.34-.02.37-.03.39,0,.08-.03.43-.04.67l-.02-.66c-.05.66-.07.04-.12.67l.03-.11c-.07.74-.07,1.66-.13,2.61.08-.85,0,1.26.13.05,0,.2-.03.31-.04.53.04-.41.06-.49.08-.31v.1c.08-.09.09.31.17.59l.02-.47c.02.06.01.21.02.33.06-.72-.05-.04.01-.83-.03.96.14.02.1,1.12.03,0,.02-.55.05-.54v.3s.02-.38.02-.38c.02.06,0,.43,0,.69,0-.03-.02.07-.02.09,0,.35.08-.11.08,0l-.02-.18c.1-.27.18.12.3-.48v-.22c.09-.41.04.25.12.06v.05c.02-.22.04-.33.06-.31-.03.26,0,.51-.03.8.09-.44.05-.35.13-1.17v.37c.02-.33.03-.51.07-.61-.04.32,0,.57-.05.98.04.81.14-.81.12.37.08-1.02-.04-.57,0-.79,0-.34.06-.77.08-.66.02.02-.02,1.31.04,1.3,0,0,0,.07-.01.07.01.26.06-.35.07.07.04-.62.03.04.07-.75l-.06.18c.04-.21.1-1.13.13-.68-.02.16-.04.37-.05.49,0,.23.03-.15.04.09-.04.79-.07.17-.13.77,0,.33.08-.57.03.29.07-1.09.05.14.12-.69l-.02.47c0-.07.03-.3.04-.29l-.04.61c.05-.52.04.46.09.18-.07.01,0-.57,0-.92.1-.63,0,1.24.1,1.02-.01.07-.04-.29,0-.51.01.1.03.28.03.53.06-.1,0-.49.04-.78,0,.58.04-.23.07-.42l-.02.48c.06.31.05-1,.1-.63l-.05.67.04-.17-.02.55c.05-.41.06-.3.08-.15,0-.34.03-.87.06-.89.01.29-.03.46.02.39-.02.3-.04.68-.05.23,0,.16-.02.3-.03.46.01.33.05.08.07.07,0-.02-.01-.04-.01-.11l.08-.67c0,.18,0,.33-.02.47.01-.05.03-.27.05-.31-.02.39-.03.8-.06.98l.07-.43c0,.17.02.47,0,.61.03.23.1-.76.14-.45,0-.08.01-.15.02-.2.04.09.06.57.12.04v.7c.05-.16,0-.89.06-1.15.05-.22,0,.6.01.8.03-.35.09-1.07.11-.5-.02.13-.02.03-.04.08ZM203.93,8.57c-.01.1-.03.41-.04.13.02-.55.02-.29.04-.13ZM204.64,7.42c0,.16-.02.08-.03-.1,0-.04.02-.02.03.1ZM206.5,4.05s0,.01,0,.02c-.02-.19-.01-.11,0-.02ZM206.54,4.26v-.2c0,.12-.01.13-.02.1,0,.13.01.21.02.11ZM202.36,4.4v.13c-.02.14-.01.01,0-.13Z"/>
    <path class="cls-1" d="M204.56,8.08c0-.08,0-.17,0-.26,0,.08,0,.17,0,.26Z"/>
    <polygon class="cls-1" points="203.17 9.12 203.17 9.11 203.17 9.2 203.17 9.12"/>
    <path class="cls-1" d="M205.98,8.36c0-.07-.01-.16-.02-.25,0,.12,0,.22.02.25Z"/>
    <path class="cls-1" d="M206.73,3.43l-.02.13s.02.08.03.16c0-.11-.01-.28,0-.28Z"/>
    <path class="cls-1" d="M207.02,6.41c0-.06,0,0,0-.07v-.22s-.03.2,0,.29Z"/>
    <path class="cls-1" d="M206.79,5.04c.01.41.02.27.04.19,0,0,0,0,0,0,0-.57-.02-.38-.04-.19Z"/>
    <path class="cls-1" d="M206.83,5.21s.01-.03.02-.01c0-.23,0-.05-.02.01Z"/>
    <path class="cls-1" d="M206.58,3.99c.01.1,0-.52,0-.35,0-.52-.04.63,0,.35Z"/>
    <polygon class="cls-1" points="206.83 6.37 206.81 5.87 206.81 6.28 206.83 6.37"/>
    <path class="cls-1" d="M206.68,6.01l.03.14c0-.08,0-.13,0-.17-.02-.02-.04-.12-.04.03Z"/>
    <path class="cls-1" d="M206.72,5.97s.02,0,.02-.08c0,0-.02.02-.02.08Z"/>
    <polygon class="cls-1" points="206.8 6.52 206.79 6.42 206.76 6.38 206.8 6.52"/>
    <path class="cls-1" d="M206.37,5.92l-.03.14c0,.17,0,.28.02.21,0-.12.02-.19,0-.35Z"/>
    <path class="cls-1" d="M206.49,7.29c0-.1-.01-.22-.02-.38v.62s.02-.24.02-.24Z"/>
    <path class="cls-1" d="M206.4,7.43c0,.17-.04.5,0,.46,0-.17.03-.31,0-.46Z"/>
    <polygon class="cls-1" points="205.92 6.65 205.92 6.65 205.91 5.63 205.92 6.65"/>
    <path class="cls-1" d="M205.51,9.09c.04.24,0-.63.04-.32,0-.24-.03-.25-.02-.46-.02.25-.03.11-.02.78Z"/>
    <path class="cls-1" d="M205.53,8.31s0-.09.01-.15c0,.06,0,.11-.01.15Z"/>
    <polygon class="cls-1" points="200.98 3.81 200.97 3.6 200.96 3.94 200.98 3.81"/>
    <path class="cls-1" d="M200.89,4.56l.04-.65-.05.59s.02-.08.02.06Z"/>
    <path class="cls-1" d="M203.98,9.88v-.16c0-.17,0-.18-.01-.21v.36Z"/>
    <polygon class="cls-1" points="203.65 9.39 203.66 9.4 203.66 8.81 203.65 9.39"/>
    <path class="cls-1" d="M203.35,10.13s.03-.11.04-.08c-.03.11-.02-.65-.04.08Z"/>
  </g>
</svg>