<?xml version="1.0" encoding="UTF-8"?>
<svg id="Layer_1" data-name="Layer 1" xmlns="http://www.w3.org/2000/svg" viewBox="0 0 104.81 156.17">
  <defs>
    <style>
      .cls-1 {
        fill: none;
        stroke: #603913;
        stroke-miterlimit: 10;
      }

      .cls-2 {
        fill: #603913;
      }
    </style>
  </defs>
  <path class="cls-1" d="M40.03,70.48c-.14-.78.24-2.34.48-1.22-.15-.75.13-.72.3-1.33.32.54.29.3.42.94-.13-.74-.22-1.12-.16-1.88-.15.7.11.92.3,1.55"/>
  <path class="cls-1" d="M40.12,71.2c-.02-.64-.03-1.27-.08-1.91.06.59.05,1.16.06,1.76"/>
  <path class="cls-1" d="M42.74,68.01c.23-.88.46-1.77.69-2.65-.22.83-.45,1.65-.69,2.48"/>
  <path class="cls-1" d="M40.59,72.54c.56-2.01,1.29-3.97,2.19-5.85l-.34,1.99"/>
  <path class="cls-1" d="M39.97,71.01c.19-.82.44-1.63.76-2.42-.05,1.34-.13,2.68-.25,4.01"/>
  <path class="cls-1" d="M40.01,70.99c0-.9.04-1.8.11-2.69l-.13,2.78"/>
  <path class="cls-1" d="M41.72,34.4c-.22.43-.22-.57-.22-.57,4,1,5,6,4,9-2,3-7,4-11,4-5-1-9-4-9-9,1-18,24-25,39-20,9,4,10,16,6,24-5,9-14,13-22,20-2,2-4,4-5.28,5.54"/>
  <path class="cls-1" d="M23.93,49.93c-2.29.26-3.81-2.26-4.67-4.4-1.98-4.94-3.79-10.47-1.95-15.46,1.09-2.96,3.34-5.32,5.71-7.41,4.98-4.4,10.71-7.96,16.86-10.47,1.98-.81,4.08-1.56,5.56-3.1s2.08-4.18.69-5.8c-.66-.77-1.64-1.18-2.6-1.5-9.47-3.2-20.72-.3-27.45,7.1,3.17-1.44,6.44-2.63,9.7-3.83,3.95-1.44,8.79-2.75,12.03-.06.52.43.99,1.02.98,1.7-.01.51-.3.97-.6,1.39-4.69,6.46-13.66,8.43-18.92,14.43-3.97,4.53-5.32,10.89-4.95,16.9.17,2.69.69,5.46,2.27,7.65s4.42,3.63,7.02,2.9"/>
  <path class="cls-1" d="M41.63,33.87c-1.37,2.24,1.72,5.22.17,7.84-1.81,3.05-6.14,2.81-8.63.84-5.11-4.04-.25-11.06,3.84-13.75,4.76-3.14,12.81-5.17,18.22-2.77,7.51,3.33,4.55,12.24,1.29,17.59-4.38,7.2-11.54,12.31-15.45,19.83"/>
  <path class="cls-1" d="M15.17,44.39c-2.32-3.98-2.89-8.94-1.54-13.35.45-1.48,1.11-2.89,1.9-4.22,2.46-4.13,6.37-7.52,11.03-8.72"/>
  <path class="cls-1" d="M32.48,16.3c.37.43,1.1.28,1.53-.09s.71-.89,1.15-1.26c.61-.5,1.44-.62,2.22-.73,2.18-.29,4.36-.57,6.55-.86,1.65-.22,3.36-.45,4.79-1.31s2.52-2.52,2.19-4.15c-.37-1.81-2.2-2.86-3.85-3.68-1.23-.61-2.45-1.22-3.68-1.84"/>
  <path class="cls-1" d="M17.2,26.4c-.82,4.54-.68,9.25.42,13.73.26,1.08.59,2.15,1.17,3.09.44.7,1.02,1.3,1.61,1.89,2.5,2.46,5.3,4.61,8.32,6.38-4.11.09-8.24-1.47-11.27-4.24.3,1.26,1.35,2.24,2.53,2.79s2.49.72,3.78.89c.41.05.83.1,1.22-.05"/>
  <path class="cls-2" d="M63.3,29.75c.21.83.25,1.72-.11,2.53l4.57,1.93c.72-2.59.31-5.44-1.29-7.63-1.49-2.04-4.43-1.29-4.66,1.26-.16,1.8-.32,3.6-.48,5.4l4.91-.66-.9-2.14c-.44-1.04-1.21-1.84-2.41-1.84-1.02,0-2.23.77-2.41,1.84-1.16,7.03-4.14,13.55-8.8,18.96-4.45,5.17-9.85,9.74-12.68,16.09-.55,1.23-.36,2.69.9,3.42,1.12.66,2.8.31,3.42-.9,6.04-11.61,21.07-14.85,27.21-26.46,2.02-3.82,2.87-8.72.29-12.5-.97-1.41-3.45-1.82-4.32,0-2.83,5.93-6.05,11.65-9.66,17.13l4.32,2.52c.41-.7.87-1.16,1.57-1.57l-3.42-3.42c-1.32,2.06-2.64,4.12-3.97,6.18-.67,1.04-.31,2.51.64,3.23,1.07.8,2.28.61,3.28-.2,7.2-5.76,10.17-16.14,7.26-24.87-.92-2.75-4.66-2.13-4.91.66-.22,2.48-.55,4.94-1.01,7.39-.24,1.33.36,2.7,1.75,3.08,1.27.35,2.76-.43,3.08-1.75.94-4,.29-8.22-1.97-11.68-1.32-2.01-4.68-1.32-4.66,1.26.02,2.19.54,4.2,1.48,6.16,1.1,2.28,4.7,1.12,4.66-1.26-.06-3.57-1.63-7.06-4.45-9.3l-2.43,4.18c2.73.72,4.94,2.43,6.33,4.89.66,1.17,2.27,1.57,3.42.9,1.29-.75,1.43-2.17.9-3.42-.82-1.94-1.65-3.88-2.47-5.83l-3.42,3.42c1.39.91,2.16,2.25,2.49,3.85.25,1.2,1.59,1.96,2.74,1.79,1.29-.19,2.06-1.18,2.17-2.46.16-1.9-.26-3.64-1.02-5.36l-4.32,2.52c.82,1.17,1.47,2.39,1.92,3.75.87,2.66,4.83,2.22,4.91-.66l.08-2.71-4.91.66.8,3.08,4.82-1.33c-1.41-3.85-3.39-7.31-5.96-10.49-.85-1.05-2.65-.88-3.54,0-1.06,1.06-.83,2.46,0,3.54,1.5,1.95,3.01,3.89,4.51,5.84.75.97,2.41.89,3.28.2,1.04-.83,1.17-2.06.64-3.23-1.83-4.04-5.74-7.33-10.12-8.25-2.49-.52-5.56.53-5.33,3.56.21,2.8,3.73,3.91,6.04,4.35,1.05.2,2.29-.12,2.82-1.15.44-.85.87-1.7,1.31-2.55.67-1.31.23-2.57-.9-3.42-1.97-1.49-4.58-1.86-6.94-1.22-1.24.33-2.19,1.8-1.75,3.08,1,2.84,3.45,4.72,6.49,4.77.87.01,1.73-.48,2.16-1.24.82-1.46.55-3.12-.6-4.33-1.09-1.13-2.67-1.59-4.15-1.95-3.13-.76-6.31-.78-9.47-.22l2.43,4.18c.57-.53,1.56-.22,2.08.28.97.93.98,2.45.86,3.69l3.76-2.16c-2.41-1.85-5.24-2.81-8.24-3.1l.66,4.91c2.27-.65,4.47.07,6.48,1.16,1.09.59,2.14,1.27,3.16,1.99.84.59,1.88,1.18,2.41,2.08.97,1.65,3.34,1.59,4.32,0,1.78-2.88,1.28-6.74-1.17-9.07-1.83-1.75-4.75,0-4.18,2.43.45,1.89.63,3.77.59,5.71h5c0-2.48.02-4.96.03-7.44,0-1.23-.95-2.31-2.17-2.46-1.11-.13-2.56.55-2.74,1.79-.54,3.69-1.07,7.38-1.61,11.07-.18,1.23.2,2.45,1.45,2.95,1.16.47,2.46.06,3.12-1.02,1.83-3.01,2.77-6.46,2.71-9.99-.05-3.22-4.88-3.21-5,0-.18,4.87-1.54,9.58-3.95,13.82l4.66,1.26.29-2.38c.13-1.07-.87-2.15-1.84-2.41-1.14-.31-2.16.24-2.82,1.15-4.35,5.95-8.7,11.89-13.06,17.84-1.66,2.27,2.11,5.21,3.93,3.03,5.84-7,10.45-14.81,13.77-23.3.49-1.26-.54-2.74-1.75-3.08-1.42-.39-2.58.48-3.08,1.75-2.98,7.63-7.23,14.81-12.49,21.1l3.93,3.03c4.35-5.95,8.7-11.89,13.06-17.84l-4.66-1.26-.29,2.38c-.31,2.55,3.51,3.27,4.66,1.26,2.85-5.01,4.42-10.59,4.63-16.34h-5c.04,2.68-.64,5.17-2.03,7.46l4.57,1.93c.54-3.69,1.07-7.38,1.61-11.07l-4.91-.66c0,2.48-.02,4.96-.03,7.44-.01,3.22,4.93,3.22,5,0,.05-2.37-.22-4.74-.76-7.04l-4.18,2.43c.89.85,1.02,2,.39,3.01h4.32c-.85-1.46-2.16-2.4-3.5-3.37s-2.76-1.92-4.25-2.69c-3.1-1.6-6.52-2.45-9.95-1.46-2.84.82-2.05,4.65.66,4.91,2.13.21,4.03,1.12,5.71,2.41s3.6-.52,3.76-2.16c.3-3.04-.76-6.3-3.36-8.07s-5.9-1.49-8.12.56c-.81.74-.93,2.1-.39,3.03.59,1.01,1.72,1.34,2.82,1.15,1.66-.29,3.4-.33,5.08-.12.8.1,1.6.29,2.38.5.31.09.61.18.91.27.66.19.25.41.14-.09v-1.33l.07-.08,2.16-1.24c-.71-.01-1.42-.39-1.67-1.1l-1.75,3.08c1.18-.32,2.12,0,3.08.72l-.9-3.42c-.44.85-.87,1.7-1.31,2.55l2.82-1.15c-.63-.12-1.26-.27-1.87-.49-.21-.08-.39-.15-.59-.25-.12-.05-.23-.11-.34-.18-.32-.2-.22-.07.3.39v1.33c-.27,1.35-1.52.72-.68.97.47.14.95.25,1.41.43.81.32,1.61.78,2.31,1.3,1.45,1.09,2.49,2.54,3.23,4.18l3.93-3.03c-1.5-1.95-3.01-3.89-4.51-5.84l-3.54,3.54c2,2.47,3.58,5.3,4.67,8.28s5.64,1.84,4.82-1.33l-.8-3.08c-.72-2.77-4.83-2.12-4.91.66l-.08,2.71,4.91-.66c-.58-1.76-1.36-3.42-2.42-4.94-1.87-2.68-5.6-.4-4.32,2.52.4.91.42,1.87.33,2.84l4.91-.66c-.58-2.86-2.36-5.26-4.79-6.84-.92-.6-2.27-.37-3.03.39-.85.85-.83,1.99-.39,3.03.82,1.94,1.65,3.88,2.47,5.83l4.32-2.52c-2.01-3.55-5.38-6.15-9.32-7.19-2.24-.59-4.49,2.55-2.43,4.18,1.83,1.45,2.95,3.4,2.99,5.76l4.66-1.26c-.55-1.15-.79-2.37-.8-3.64l-4.66,1.26c1.54,2.34,2.11,5.08,1.47,7.83l4.82,1.33c.53-2.89.93-5.8,1.18-8.72l-4.91.66c2.41,7.21-.06,15.27-5.97,20l3.93,3.03c1.32-2.06,2.64-4.12,3.97-6.18s-1.32-4.65-3.42-3.42c-1.41.82-2.54,1.95-3.36,3.36-1.64,2.8,2.56,5.2,4.32,2.52,3.61-5.48,6.84-11.21,9.66-17.13h-4.32c1.77,2.58.74,5.81-.76,8.28s-3.63,4.59-5.84,6.47c-4.63,3.95-9.95,7.01-14.48,11.1-2.56,2.31-4.83,4.99-6.42,8.06l4.32,2.52c2.83-6.35,8.33-10.73,12.66-15.99,4.81-5.83,8.09-12.78,9.32-20.25h-4.82l.9,2.14c1.08,2.57,4.65,2.28,4.91-.66.16-1.8.32-3.6.48-5.4l-4.66,1.26c.85,1.16,1.17,2.37.78,3.77-.33,1.19.31,2.49,1.45,2.95,1.04.42,2.62.13,3.12-1.02.92-2.09,1.19-4.15.61-6.38-.8-3.11-5.62-1.79-4.82,1.33h0Z"/>
  <path class="cls-2" d="M42.03,22.88c3.15-.26,6.26-.83,9.29-1.75,1.34-.41,1.1-2.44-.33-2.46-2.86-.04-5.73.43-8.42,1.4l.96,2.28c2.2-.99,4.6-1.51,7-1.57l-.33-2.46c-1.88.3-3.77.6-5.65.9l.96,2.28c1.7-.8,3.55-1.25,5.43-1.32l-.63-2.33c-1.44.66-3.01,1-4.58,1.03l.33,2.46c1.6-.32,3.2-.65,4.8-.97,1.4-.28,1.05-2.46-.33-2.46-1.48,0-2.95,0-4.43.01v2.5c.98-.01,1.96-.03,2.93-.04l-.33-2.46c-1.53.24-3.06.49-4.59.73l.66,2.41c1.55-.46,3.14-.82,4.75-1.03.67-.09,1.25-.51,1.25-1.25,0-.64-.57-1.3-1.25-1.25-1.37.1-2.75.21-4.12.31l.33,2.46c1.52-.59,3.09-.87,4.72-.81l-.33-2.46c-1.73.35-3.47.7-5.2,1.05-1.38.28-1.07,2.53.33,2.46,1.78-.09,3.54-.38,5.25-.89,1.33-.4,1.11-2.47-.33-2.46s-3.01.3-4.41.87c-.63.25-1.07.83-.87,1.54s.87.98,1.54.87c1.56-.25,3.12-.51,4.69-.76l-.96-2.28c-1.8.92-3.59,1.85-5.39,2.77-1.27.65-.39,2.66.96,2.28,1.1-.31,2.2-.41,3.34-.33l-.33-2.46c-1.41.47-2.82.95-4.22,1.42-.59.2-.99.74-.9,1.37.09.59.6,1.11,1.23,1.08,1.48-.06,2.96-.3,4.38-.71l-.96-2.28c-1.1.47-2.3.76-3.49.88v2.5c1.26-.16,2.53-.32,3.79-.47l-.63-2.33c-.89.4-1.87.64-2.84.72-.67.05-1.25.54-1.25,1.25,0,.68.57,1.25,1.25,1.25,1.56,0,3.13,0,4.69-.01l-.33-2.46-3.7.66c-1.41.25-1.05,2.47.33,2.46l2.7-.02-.33-2.46c-.67.24-1.35.35-2.06.22v2.41c1.18-.23,2.4-.05,3.57-.38,1.03-.28,2.02-.9,2.56-1.85.59-1.06.42-2.3-.36-3.2s-2-1.18-3.03-.6l1.51,1.96c.44-.56.85-.74,1.52-.68,1.39.12,1.72-2.22.33-2.46-1.3-.22-2.59-.45-3.89-.67v2.41c.72-.16,1.49-.08,2.16.23l.63-2.33c-.58.06-1.07.01-1.58-.27v2.16c.36-.15.77-.12,1.16-.07v-2.5c-.51,0-1.02,0-1.53-.01-.62,0-1.16.48-1.23,1.08-.08.64.29,1.16.9,1.37l2.12.74c.64.22,1.37-.25,1.54-.87.19-.69-.23-1.31-.87-1.54l-2.12-.74-.33,2.46c.51,0,1.02,0,1.53.01.68,0,1.25-.58,1.25-1.25,0-.75-.58-1.16-1.25-1.25-.85-.11-1.64.08-2.42.41-.88.37-.75,1.75,0,2.16.87.48,1.85.72,2.85.61.56-.06,1.05-.35,1.21-.92.14-.5-.08-1.18-.57-1.41-1.3-.62-2.67-.79-4.08-.49-1.16.25-1.22,2.2,0,2.41,1.3.22,2.59.45,3.89.67l.33-2.46c-1.22-.1-2.52.44-3.28,1.41-.38.49-.52,1.12-.1,1.64.39.49,1.06.63,1.61.32-.12.03-.12.03.02,0-.06.03-.11.03-.17.02-.09-.01-.08,0,.05.03-.13-.05-.12-.04,0,.03-.08-.21.09.18-.03-.02.02.04.22.29.09.14.03.15.04.16.02.02,0,.15,0,.16.01.03-.03.19.03.03-.08.2-.09.15-.17.23-.36.35-.27.17-.34.2-.67.29-.3.08-.6.12-.91.14-.89.06-1.78.06-2.66.24-1.18.23-1.2,2.19,0,2.41,1.14.21,2.29.17,3.39-.22.58-.21.99-.73.9-1.37-.09-.6-.59-1.09-1.23-1.08l-2.7.02.33,2.46,3.7-.66c.6-.11.98-.81.9-1.37-.09-.61-.59-1.09-1.23-1.08-1.56,0-3.13,0-4.69.01v2.5c1.44-.12,2.78-.47,4.1-1.06,1.1-.49.58-2.48-.63-2.33s-2.53.32-3.79.47c-.67.08-1.25.51-1.25,1.25,0,.63.57,1.32,1.25,1.25,1.66-.16,3.21-.57,4.75-1.22.56-.24.73-1.05.51-1.56-.25-.56-.86-.9-1.47-.72-1.22.35-2.45.57-3.72.62l.33,2.46c1.41-.47,2.82-.95,4.22-1.42s1.09-2.36-.33-2.46-2.71.06-4.01.42l.96,2.28c1.8-.92,3.59-1.85,5.39-2.77.55-.28.75-1.02.51-1.56-.27-.61-.84-.83-1.47-.72-1.56.25-3.12.51-4.69.76l.66,2.41c1.2-.49,2.44-.76,3.74-.78l-.33-2.46c-1.5.45-3.02.72-4.58.8l.33,2.46c1.73-.35,3.47-.7,5.2-1.05,1.42-.29,1.03-2.41-.33-2.46-1.83-.06-3.68.24-5.39.9-.58.22-.99.72-.9,1.37.09.57.6,1.13,1.23,1.08,1.37-.1,2.75-.21,4.12-.31v-2.5c-1.83.24-3.64.59-5.41,1.11-.65.19-1.05.88-.87,1.54.2.71.87.98,1.54.87,1.53-.24,3.06-.49,4.59-.73.61-.1.98-.82.9-1.37-.09-.6-.59-1.09-1.23-1.08-.98.01-1.96.03-2.93.04-1.61.02-1.61,2.5,0,2.5,1.48,0,2.95,0,4.43-.01l-.33-2.46c-1.6.32-3.2.65-4.8.97-1.39.28-1.06,2.49.33,2.46,2.04-.04,3.99-.52,5.85-1.37,1.14-.52.56-2.38-.63-2.33-2.34.1-4.58.66-6.69,1.67-.56.26-.74,1.04-.51,1.56.27.61.84.82,1.47.72,1.88-.3,3.77-.6,5.65-.9.61-.1.98-.82.9-1.37-.09-.6-.59-1.1-1.23-1.08-2.87.07-5.65.73-8.26,1.91-1.28.58-.37,2.76.96,2.28,2.5-.9,5.1-1.34,7.75-1.31l-.33-2.46c-2.81.86-5.69,1.42-8.62,1.66-.67.05-1.25.54-1.25,1.25,0,.63.57,1.3,1.25,1.25h0Z"/>
  <path class="cls-2" d="M42.25,24.31c.87-.71.85-2.06.01-2.78-.43-.37-1.01-.49-1.51-.2l-4.01,2.3,1.26,2.16,2.75-1.66c1.38-.83.14-2.96-1.26-2.16l-4.58,2.63,1.26,2.16,4.59-2.96c1.35-.87.1-3.03-1.26-2.16l-5.13,3.25c-1.36.86-.16,2.93,1.26,2.16,1.66-.9,3.18-1.98,4.61-3.21,1.09-.94-.31-2.66-1.51-1.96l-5.8,3.33,1.51,1.96,3.47-2.68c1.12-.86-.35-2.76-1.51-1.96l-3.72,2.53,1.51,1.96,2.4-2.63c1.08-1.18-.61-2.9-1.77-1.77l-3.21,3.15c-1.15,1.13.61,2.89,1.77,1.77l.95-.93-1.77-1.77-1.83,1.94,2.09,1.22c.23-.65.61-1.12,1.12-1.57l-1.77-1.77-2.2,2.71,1.96,1.51c.58-.91,1.23-1.7,2.01-2.45l-1.77-1.77-2.44,2.46,1.77,1.77,1.75-2.16c.99-1.22-.62-2.95-1.77-1.77-1.27,1.31-2.41,2.74-3.41,4.28l2.28.96c.18-.7.45-1.3.91-1.85l-1.96-1.51-2.73,3.87c-.7,1,.71,2.45,1.71,1.71l1.93-1.42-1.71-1.71-1.89,3.09,2.16,1.26.82-1.74-2.28-.96-1.68,4.13,2.41.66c.19-1.12.58-2.06,1.23-2.99l-2.28-.96-1.34,4.44,2.41.66c.23-1.38.67-2.62,1.4-3.82l-2.28-.96c-.2,1.28-.55,2.5-1.11,3.67l2.28.96c.39-2.02,1.22-3.83,2.58-5.39l-2.09-1.22c-.62,1.55-1.41,3.01-2.32,4.4l2.16,1.26,4.14-6.34-2.16-1.26-3.64,7.61,2.16,1.26c1.16-2.44,2.51-4.76,4.06-6.97l-2.28-.96c-.61,1.48-1.4,2.87-2.29,4.2-.78,1.16,1.08,2.63,1.96,1.51,1.51-1.91,2.87-3.9,4.06-6.02l-2.28-.96c-.56,1.79-1.46,3.4-2.69,4.81l1.96,1.51,3.39-4.94-2.16-1.26c-1,1.6-2.13,3.08-3.42,4.47-1.09,1.18.64,2.93,1.77,1.77,2.26-2.33,4.55-4.65,7.56-5.99,3.18-1.41,6.7-2.17,10.02-3.15,1.32-.39,1.11-2.51-.33-2.46-2.55.09-5.08.44-7.56,1.05l.96,2.28c1.17-.89,2.42-1.48,3.86-1.79l-.66-2.41-6.96,2.7c-1.48.57-.94,2.75.66,2.41s3.02-.89,4.42-1.65l-1.26-2.16c-3.22,1.76-6.43,3.53-9.65,5.29l1.71.45c-.42-.92,4.16-3.09,4.77-3.44,1.97-1.15,3.94-2.3,5.91-3.45,1.19-.7.41-2.75-.96-2.28-3.13,1.06-6.09,2.51-8.83,4.37l1.71,1.71c1.84-3.26,5.92-4.09,9.31-4.76,1.37-.27,1.08-2.55-.33-2.46-5.52.37-9.76,4.05-13.61,7.68l2.09,1.22c.18-1.13,1.28-1.87,2.14-2.53.93-.7,1.92-1.33,2.94-1.87,2.03-1.08,4.21-1.8,6.47-2.21,1.42-.26,1.04-2.44-.33-2.46-5.89-.07-10.45,4.13-14.35,8.06l1.77,1.77c3.16-3.98,7.56-6.63,12.57-7.55,1.39-.25,1.07-2.51-.33-2.46-5.78.23-10.76,3.53-14.08,8.14-1.62,2.25-2.82,4.8-3.71,7.42s-1.37,5.67.04,8.3l2.16-1.26c-.43-.77-.63-1.52-.65-2.4-.02-1.41-2.07-1.7-2.46-.33s-.23,2.8.48,4.1,2.58.38,2.28-.96l-.68-3.1c-.25-1.12-1.72-1.13-2.28-.3s-.48,1.58-.11,2.43,1.75.77,2.16,0c.74-1.42,1.3-2.89,1.63-4.45l-2.46-.33v1.38c.02,1.13,1.35,1.59,2.15.88.43-.38.67-.79.81-1.34.4-1.56-1.96-2.21-2.41-.66-.19.63-.25,1.23-.17,1.88.16,1.22,1.58,1.71,2.33.63.19-.27.37-.54.56-.8.64-.92-.41-2.12-1.41-1.84-1.35.38-2.29,2.35-.71,3.17,1.35.7,2.85-.86,2.07-2.17-.44-.75-1.75-.88-2.16,0-.16.35-.33.7-.49,1.05l2.16,1.26c.48-1.07.96-2.13,1.44-3.2l-2.28-.96c-.26.68-.52,1.37-.78,2.05-.46,1.21,1.26,2.05,2.09,1.22.96-.97,1.43-2.08,1.59-3.42s-1.7-1.51-2.33-.63c-1.24,1.73-2.51,3.64-2.51,5.85,0,1.84.85,3.62,2.49,4.51.94.51,2.15-.33,1.84-1.41-.36-1.23-.59-2.47-.68-3.75l-2.33.63c.54,1.03.88,2.1,1.09,3.24l2.28-.96c-.88-1.27-2.21-1.6-3.6-.97-.58.26-.81,1.2-.45,1.71,1.65,2.34,4.32,3.43,7.14,2.92,1.49-.27.96-2.33-.33-2.46-.36-.02-.66-.16-.91-.42-1.21-1.08-2.81.55-1.77,1.77,1.29,1.51,3.29,1.87,5.19,1.69,2.03-.2,4.53-.6,6.08-2.03s1.86-3.42,1.8-5.35c-.05-1.72-.11-4.33-2.33-4.48-.76-.05-1.49.85-1.21,1.58.53,1.38.86,2.78.96,4.26.06.94,1.02,1.57,1.88,1.08,1.36-.77,1.46-2.33.56-3.49-.66-.85-2.2-.14-2.13.88.1,1.54-.08,2.98-.58,4.44-.45,1.33,1.66,2.24,2.28.96.56-1.15.84-2.33.72-3.62l-2.46.33c.8,2.4-3.65,2.91-5.16,3.16-2.03.34-4.41.46-6-1.07l-1.22,2.09c.99.27,1.98.55,2.96.81,1.32.36,2.29-1.68.96-2.28l-2.43-1.12-.96,2.28,2.12.68c1.14.36,2.19-1.29,1.22-2.09l-1.56-1.28c-1.23-1.01-3.01.75-1.77,1.77l1.56,1.28,1.22-2.09-2.12-.68c-1.32-.42-2.26,1.69-.96,2.28l2.43,1.12.96-2.28c-.99-.27-1.98-.54-2.96-.81-1.19-.33-2.12,1.22-1.22,2.09,2.48,2.4,5.99,2.21,9.15,1.58,2.93-.58,7.51-2.16,6.19-6.11-.42-1.26-2.59-1.15-2.46.33.08.84,0,1.59-.38,2.36l2.28.96c.56-1.65.78-3.37.67-5.11l-2.13.88-.05-.44,1.88,1.08c-.11-1.7-.44-3.33-1.05-4.93l-1.21,1.58c-.55-.04-.34.07-.28.58.03.23.05.47.07.7.05.64.07,1.29,0,1.93-.13,1.33-.69,2.36-1.97,2.88-1.89.76-5.28,1.59-6.8-.19l-1.77,1.77c.8.72,1.61,1.05,2.68,1.15l-.33-2.46c-1.64.3-3.36-.41-4.32-1.77l-.45,1.71.18.08c.82,1.18,2.54.45,2.28-.96s-.71-2.62-1.34-3.84c-.56-1.08-2.41-.6-2.33.63.1,1.5.35,2.97.76,4.41l1.84-1.41c-2.83-1.54-.3-5.23.92-6.94l-2.33-.63c-.08.66-.4,1.19-.86,1.65l2.09,1.22c.26-.68.52-1.37.78-2.05.5-1.31-1.7-2.26-2.28-.96-.48,1.07-.96,2.13-1.44,3.2-.65,1.45,1.48,2.73,2.16,1.26.16-.35.33-.7.49-1.05h-2.16l.09.15v-1.26l.3-.26.96.13-.16-.11.57.75-.05-.26-.13.96-.13.06-1.41-1.84c-.19.27-.37.54-.56.8l2.33.63c-.06-.46-.05-.77.08-1.21l-2.41-.66-.16.24,2.13.88v-1.38c-.02-1.37-2.16-1.75-2.47-.33s-.74,2.63-1.38,3.86h2.16l.11.09-2.28-.3.68,3.1,2.28-.96c-.39-.72-.45-1.39-.23-2.17l-2.46-.33c.02,1.32.34,2.52.99,3.66.79,1.4,2.92.16,2.16-1.26-1.17-2.18-.37-4.78.42-6.96s1.88-4.33,3.25-6.24c2.78-3.86,7.08-6.71,11.92-6.9l-.33-2.46c-5.37.98-10.28,3.92-13.67,8.19-.98,1.23.61,2.94,1.77,1.77,3.4-3.44,7.4-7.39,12.58-7.33l-.33-2.46c-2.74.5-5.38,1.46-7.79,2.86-2.02,1.17-5.1,2.98-5.52,5.5-.2,1.19,1.12,2.13,2.09,1.22,3.31-3.12,7.06-6.63,11.84-6.95l-.33-2.46c-4.08.81-8.61,2.02-10.81,5.91-.58,1.03.63,2.44,1.71,1.71,2.56-1.73,5.3-3.12,8.23-4.11l-.96-2.28c-2.81,1.64-5.62,3.29-8.44,4.93-1.96,1.15-4.3,2.83-3.13,5.38.29.63,1.17.75,1.71.45l9.65-5.29c1.41-.77.15-2.93-1.26-2.16-1.22.66-2.47,1.11-3.82,1.39l.66,2.41c2.32-.9,4.64-1.8,6.96-2.7,1.48-.57.94-2.75-.66-2.41s-3.13,1.03-4.46,2.04c-1.07.82-.51,2.64.96,2.28,2.27-.56,4.56-.87,6.89-.96l-.33-2.46c-3.54,1.05-7.24,1.89-10.62,3.4-3.19,1.43-5.67,3.9-8.07,6.38l1.77,1.77c1.43-1.54,2.7-3.19,3.81-4.97.86-1.38-1.26-2.57-2.16-1.26l-3.39,4.94c-.8,1.16,1.03,2.58,1.96,1.51,1.52-1.74,2.64-3.71,3.33-5.92.43-1.35-1.59-2.2-2.28-.96-1.08,1.93-2.29,3.78-3.67,5.51l1.96,1.51c1.02-1.52,1.84-3.11,2.54-4.8.58-1.39-1.53-2.04-2.28-.96-1.55,2.21-2.9,4.53-4.06,6.97-.68,1.44,1.46,2.72,2.16,1.26l3.64-7.61c.69-1.44-1.27-2.62-2.16-1.26l-4.14,6.34c-.88,1.35,1.28,2.6,2.16,1.26,1.04-1.58,1.88-3.24,2.58-4.99.46-1.16-1.3-2.13-2.09-1.22-1.63,1.87-2.74,4.05-3.22,6.49-.25,1.3,1.64,2.33,2.28.96s1.12-2.77,1.36-4.27c.21-1.33-1.51-2.25-2.28-.96-.83,1.37-1.38,2.84-1.65,4.42s1.94,2.24,2.41.66l1.34-4.44c.43-1.43-1.51-2.08-2.28-.96s-1.26,2.28-1.48,3.59c-.28,1.6,1.81,2.15,2.41.66l1.68-4.13c.53-1.3-1.68-2.24-2.28-.96l-.82,1.74c-.68,1.44,1.31,2.65,2.16,1.26l1.89-3.09c.62-1.01-.68-2.47-1.71-1.71l-1.93,1.42,1.71,1.71,2.73-3.87c.81-1.15-1.05-2.6-1.96-1.51-.75.88-1.27,1.83-1.56,2.96-.36,1.4,1.51,2.14,2.28.96.89-1.36,1.89-2.6,3.01-3.77l-1.77-1.77-1.75,2.16c-.99,1.22.61,2.94,1.77,1.77l2.44-2.46c1.14-1.14-.61-2.89-1.77-1.77-.92.89-1.71,1.88-2.4,2.95-.75,1.17,1.06,2.63,1.96,1.51l2.2-2.71c1-1.24-.54-2.85-1.77-1.77-.84.74-1.39,1.63-1.76,2.68-.42,1.19,1.26,2.09,2.09,1.22l1.83-1.94c1.1-1.17-.61-2.89-1.77-1.77l-.95.93,1.77,1.77,3.21-3.15-1.77-1.77-2.4,2.63c-.91,1,.29,2.8,1.51,1.96l3.72-2.53-1.51-1.96-3.47,2.68c-1.14.88.32,2.65,1.51,1.96l5.8-3.33-1.51-1.96c-1.27,1.1-2.63,2.02-4.1,2.82l1.26,2.16,5.13-3.25-1.26-2.16-4.59,2.96c-1.35.87-.14,2.97,1.26,2.16l4.58-2.63-1.26-2.16-2.75,1.66c-1.38.83-.14,2.96,1.26,2.16l4.01-2.3-1.51-.2v-.75c-1.26,1.02.51,2.77,1.75,1.77h0Z"/>
  <path class="cls-2" d="M42.09,6.69l-.06,1.22,1.16-.32c-.08-.11-.15-.22-.2-.34.04.09-.02-.08-.03-.1-.02-.07-.04-.15-.05-.23,0-.04,0-.04,0,0,0-.03,0-.07,0-.1,0-.07,0-.13,0-.2,0-.04,0-.04,0,0,0-.03.01-.07.02-.1.02-.08.04-.15.06-.22l-1.21-.33c-.14.96-.52,1.85-1.1,2.57l.98.13c-.36-.73-.44-1.59-.26-2.38l-1.23-.17c-.03.9-.05,1.8-.08,2.69l1.23-.17c-.34-1.04-.42-2.14-.21-3.19h-1.21c.34.96.34,1.92.01,2.89h1.21c-.15-1.08-.3-2.16-.46-3.24l-1.14.48c.22.38.32.78.33,1.2s-.1.83-.31,1.21h1.08c-.15-.26-.27-.63-.28-.89-.02-.39.02-.63.17-1.01h-1.21c.18,1,.04,2.13-.4,3.06l1.16.32c.11-.96.22-1.92.33-2.88h-1.25c0,.99,0,1.98-.01,2.97l1.23-.17c-.05-.28-.08-.62-.08-.97s.03-.62.1-.93c.15-.7.38-1.25.77-1.85l-1.16-.32c.07,1.4.13,2.8.2,4.21.01.28.19.53.46.6.26.07.58-.04.71-.29.37-.71.74-1.43,1.11-2.14h-1.08c.25.45.36.93.36,1.44,0,.34.29.62.62.62s.62-.29.62-.62c.02-1.02.05-2.04.07-3.07l-1.23.17c.26.66.36,1.29.33,2-.01.31.25.58.54.61.33.04.57-.15.69-.45.27-.69.37-1.44.3-2.17l-1.07.44c.09.11.16.21.26.39.08.15.12.25.17.47.07.3.07.65,0,.94-.08.33.1.68.44.77.32.09.69-.11.77-.44.25-1.08-.03-2.18-.75-3.01-.34-.39-1.12-.09-1.07.44.06.65-.02,1.23-.26,1.84l1.23.17c.03-.79-.09-1.59-.38-2.33-.11-.29-.36-.5-.69-.45-.31.05-.53.3-.54.61-.02,1.02-.05,2.04-.07,3.07h1.25c0-.73-.18-1.43-.53-2.07-.22-.4-.86-.41-1.08,0-.37.71-.74,1.43-1.11,2.14l1.16.32c-.07-1.4-.13-2.8-.2-4.21-.03-.63-.82-.84-1.16-.32-.92,1.38-1.22,3.09-.92,4.71.06.3.4.49.69.45.3-.05.54-.3.54-.61,0-.99,0-1.98.01-2.97,0-.34-.29-.62-.62-.62-.37,0-.59.29-.62.62-.11.96-.22,1.92-.33,2.88-.07.61.91.86,1.16.32.59-1.27.77-2.65.52-4.03-.05-.27-.35-.46-.6-.46-.3,0-.5.2-.6.46-.37.93-.26,2.01.24,2.87.23.4.85.41,1.08,0,.64-1.13.63-2.55-.02-3.67-.15-.27-.5-.38-.78-.26-.31.14-.41.42-.36.74.15,1.08.3,2.16.46,3.24.04.27.35.46.6.46.29,0,.51-.2.6-.46.39-1.14.39-2.42-.01-3.55-.09-.26-.31-.46-.6-.46-.26,0-.55.19-.6.46-.25,1.28-.19,2.61.21,3.86.22.67,1.21.55,1.23-.17.03-.9.05-1.8.08-2.69.02-.7-1.06-.86-1.23-.17-.27,1.13-.13,2.3.38,3.34.17.34.74.43.98.13.74-.9,1.25-1.96,1.42-3.12.05-.33-.08-.67-.44-.77s-.66.11-.77.44c-.24.74-.12,1.61.34,2.24.16.23.42.37.71.29s.44-.33.46-.6l.06-1.22c.02-.34-.3-.62-.62-.62-.35,0-.61.29-.62.62h0Z"/>
  <path class="cls-2" d="M42.36,7.16l.92.6,1.26-2.16c-1.03-.48-1.9-1.12-2.66-1.96l-1.51,1.96c1.08.47,2.06,1.15,2.78,2.09l1.41-1.84c-1.01-.37-1.98-.83-2.92-1.36l-.96,2.28c.89.25,1.74.64,2.47,1.21l1.22-2.09c-1.58-.42-2.9-1.27-3.97-2.5l-.88,2.13c.64.05,1.11.45,1.4.99l1.41-1.84c-.56-.16-.79-.56-.88-1.11l-2.09,1.22,1.94,1.72,1.51-1.96-2.4-1.82-.96,2.28,3.58,1.29.66-2.41c-.42-.1-.55-.37-.51-.79l-1.88,1.08,2.99,2.27,1.26-2.16c-.62-.27-1.21-.76-1.29-1.48l-1.88,1.08c1.09.83,2.09,1.83,2.92,2.93l1.08-1.88c-.13.01-.43.05-.44-.16l-1.88,1.08c.8.45,1.52,1.02,2.06,1.77l1.71-1.71c-.86-.43-1.36-1.11-1.54-2.05l-1.84,1.41c1.45,1.06,2.54,2.58,3.12,4.27l2.28-.96-2.66-4.63-1.96,1.51c1.26,1.06,2.17,2.39,2.66,3.97s2.84.89,2.41-.66c-.66-2.39-2.2-4.41-4.3-5.71-1.18-.73-2.65,1.08-1.51,1.96,1.33,1.03,2.34,2.29,3.06,3.81l1.71-1.71c-1.06-.78-1.67-1.97-1.9-3.25l-2.28.96c.49.66.98,1.32,1.47,1.98.35.48.88,1,1.11,1.55.27.65-.02,1.47-.65,1.81l1.84,1.41c.43-1.28.87-2.56,1.3-3.84h-2.41c.26.65.35,1.26.28,1.96-.08.85.86,1.37,1.58,1.21,1.7-.4,1.33-2.37.49-3.37-.25-.3-.84-.48-1.22-.32-.61.25-1.06.62-1.27,1.28-.12.38-.03,1.02-.22,1.3s-.73.42-1.03.52c-.65.24-1.32.45-1.99.64-2.68.73-5.43.97-8.2.76l.88,2.13c1.63-1.3,2.8-3.07,3.44-5.04.21-.64-.24-1.36-.87-1.54-.7-.19-1.3.24-1.54.87-.55,1.46-1.55,2.76-2.82,3.66s-.21,2.81,1.26,2.16l6.32-2.82-1.26-2.16-2.6,1.98c-1.12.85-.49,2.55.96,2.28,1.32-.24,2.62-.75,3.74-1.51.53-.36,1.34-.85,1.59-1.46.26-.65-.06-1.5.08-2.21h-2.41c.21.71.25,1.39.16,2.13h2.5c-.02-.45.14-.68.49-.95l-1.96-.25c.04.08-.05.2-.1.26l2.09.55c-.18-.49-.25-.89-.13-1.41l-2.09.55c.26.31.32.71.22,1.09l2.46.33.09-1.55-2.33.63c.16.23.06.2.13.06-.58,1.25.88,2.54,1.96,1.51,1.01-.96.55-2.61-.63-3.17-.67-.32-1.44-.22-2.1.08-.57.26-1.04.77-1.66.91-1.57.35-.91,2.76.66,2.41.6-.13,1.07-.44,1.57-.78.07-.05.59-.3.6-.33-.14,0-.25-.08-.34-.23-.1-.21-.06-.43.12-.66l1.96,1.51c.39-.84.44-1.8-.13-2.58-.72-1-2.26-.66-2.33.63l-.09,1.55c-.08,1.41,2.12,1.69,2.46.33s0-2.52-.86-3.53c-.61-.71-1.88-.32-2.09.55-.22.92-.2,1.85.13,2.73.32.84,1.39,1.29,2.09.55.88-.93,1.01-2.14.49-3.29-.37-.81-1.4-.69-1.96-.25-.83.64-1.26,1.69-1.22,2.72.03.67.56,1.25,1.25,1.25.74,0,1.17-.58,1.25-1.25.11-.94.02-1.89-.25-2.8-.33-1.12-2.17-1.26-2.41,0-.18.93-.18,1.8-.02,2.73l.32-1.22c-1.12,1.03-2.47,1.66-3.97,1.93l.96,2.28,2.6-1.98c1.28-.97.22-2.82-1.26-2.16l-6.32,2.82,1.26,2.16c1.84-1.31,3.17-3.04,3.97-5.16l-2.41-.66c-.51,1.59-1.49,2.91-2.79,3.94-.93.74-.07,2.06.88,2.13,2.89.22,5.82-.05,8.63-.78,1.23-.32,2.66-.68,3.74-1.38.58-.38,1.07-.92,1.26-1.59.07-.26.1-.53.13-.79,0-.07.03-.29.03-.31-.04-.27.57-.13-.42.27l-1.22-.32c-.08-.09.04.16.03.09-.01-.16-.17-.13.04-.41l.45-.45.09-.04,1.58,1.21c.09-.89-.04-1.79-.37-2.62-.45-1.13-1.99-1.23-2.41,0s-.87,2.56-1.3,3.84c-.36,1.07.93,1.91,1.84,1.41,1.47-.81,2.19-2.53,1.91-4.17-.12-.74-.5-1.31-.94-1.89-.67-.9-1.34-1.8-2.01-2.7-.85-1.14-2.53-.47-2.28.96.34,1.95,1.47,3.58,3.04,4.74.44.32,1.15.17,1.51-.2.42-.42.43-1.01.2-1.51-.79-1.68-1.98-3.18-3.45-4.32l-1.51,1.96c1.56.96,2.66,2.46,3.15,4.22l2.41-.66c-.6-1.97-1.73-3.74-3.3-5.08-1.04-.89-2.71.22-1.96,1.51l2.66,4.63c.69,1.2,2.75.41,2.28-.96-.81-2.35-2.27-4.3-4.27-5.76-.97-.71-2.01.46-1.84,1.41.28,1.52,1.31,2.86,2.69,3.55.5.25,1.1.22,1.51-.2.36-.36.52-1.07.2-1.51-.8-1.1-1.77-2-2.96-2.66-.77-.43-1.97.1-1.88,1.08.13,1.5,1.36,2.81,2.94,2.66.82-.08,1.71-1.04,1.08-1.88-1.11-1.46-2.36-2.72-3.82-3.83-.72-.55-1.99.19-1.88,1.08.18,1.57,1.04,3,2.53,3.64s2.55-1.18,1.26-2.16l-2.99-2.27c-.83-.63-1.8.26-1.88,1.08-.14,1.47.93,2.86,2.34,3.2,1.58.37,2.17-1.87.66-2.41l-3.58-1.29c-.58-.21-1.26.19-1.47.72-.25.62,0,1.17.51,1.56l2.4,1.82c1.13.86,2.57-1.03,1.51-1.96l-1.94-1.72c-.99-.88-2.28,0-2.09,1.22.21,1.38,1.3,2.48,2.63,2.85,1.08.3,1.92-.89,1.41-1.84-.72-1.35-2.06-2.12-3.56-2.23-1.17-.09-1.53,1.38-.88,2.13,1.33,1.54,3.11,2.62,5.07,3.14,1.12.3,2.24-1.28,1.22-2.09s-2.24-1.49-3.57-1.86-2.21,1.58-.96,2.28c1.13.64,2.3,1.17,3.51,1.62.97.36,2.06-.97,1.41-1.84-.98-1.29-2.18-2.34-3.68-2.99-1.26-.55-2.52.85-1.51,1.96.89.98,1.97,1.79,3.17,2.35,1.44.68,2.63-1.28,1.26-2.16l-.92-.6c-1.36-.87-2.61,1.29-1.26,2.16h0Z"/>
  <path class="cls-2" d="M39.09,13.72l1.62.16-.33-2.46c-4.95.92-9.49,3.37-13,6.97-1.14,1.17.55,2.78,1.77,1.77,2.8-2.34,5.85-4.34,9.08-6.04,1.26-.66.39-2.67-.96-2.28-3.23.92-6.14,2.53-8.66,4.75l1.77,1.77c3.65-3.29,8.29-5.32,13.19-5.74l-.63-2.33c-6.77,3.47-13.98,6.36-19.85,11.33-5.18,4.39-9.18,10.52-9.36,17.47h2.5c.03-4.92,1.95-9.62,5.38-13.14l-1.96-1.51c-1.41,2.38-2.82,4.75-4.22,7.13l2.28.96c.66-1.75,1.31-3.49,1.97-5.24.54-1.45-1.5-1.98-2.28-.96-2.55,3.32-3.85,7.43-3.73,11.61l2.46-.33c-.48-1.71-.66-3.39-.58-5.16.08-1.63-2.34-1.57-2.5,0-.21,2.02-.42,4.04-.63,6.05-.14,1.39,2.26,1.73,2.46.33.4-2.76.56-5.52.43-8.31-.08-1.64-2.32-1.57-2.5,0-.31,2.72-.4,5.44-.28,8.17.08,1.65,2.31,1.56,2.5,0,.39-3.14,1.18-6.22,2.31-9.18l-2.41-.66c-1.08,4.21-1.57,8.53-1.44,12.88.05,1.61,2.44,1.61,2.5,0,.13-3.42.8-6.73,1.96-9.95l-2.41-.66c-.6,3.54-.84,7.1-.68,10.68l2.33-.63c-.25-.49-.49-.98-.74-1.48-.67-1.33-2.55-.36-2.28.96.43,2.16,1.61,4.09,3.35,5.45l1.51-1.96c-.44-.21-.88-.43-1.32-.64-1.14-.55-2.28.56-1.71,1.71s1.4,2.23,2.4,3.11,2.82-.28,1.96-1.51c-1.08-1.56-1.71-3.26-1.82-5.16l-2.33.63c.55,1.3,1.11,2.59,1.66,3.89.63,1.47,2.78.2,2.16-1.26-.55-1.3-1.11-2.59-1.66-3.89-.49-1.15-2.39-.55-2.33.63.13,2.32.83,4.5,2.16,6.42l1.96-1.51c-.86-.75-1.5-1.58-2.01-2.61l-1.71,1.71c.44.21.88.43,1.32.64,1.18.57,2.71-1.03,1.51-1.96-1.45-1.12-2.35-2.54-2.71-4.34l-2.28.96c.25.49.49.98.74,1.48.55,1.11,2.39.58,2.33-.63-.16-3.36.02-6.7.59-10.02.27-1.58-1.86-2.19-2.41-.66-1.24,3.41-1.92,6.98-2.05,10.61h2.5c-.12-4.13.32-8.21,1.35-12.21.41-1.59-1.85-2.14-2.41-.66-1.21,3.18-1.98,6.46-2.39,9.84h2.5c-.13-2.73-.03-5.45.28-8.17h-2.5c.12,2.56.03,5.11-.34,7.65l2.46.33c.21-2.02.42-4.04.63-6.05h-2.5c-.09,1.97.13,3.92.67,5.83.37,1.34,2.5,1.1,2.46-.33-.11-3.79,1.08-7.35,3.39-10.35l-2.28-.96c-.66,1.75-1.31,3.49-1.97,5.24-.51,1.35,1.58,2.15,2.28.96,1.41-2.38,2.82-4.75,4.22-7.13.72-1.21-.96-2.54-1.96-1.51-3.89,3.99-6.08,9.34-6.11,14.91,0,1.61,2.46,1.61,2.5,0,.18-6.55,4.28-12.22,9.24-16.2,5.6-4.49,12.4-7.19,18.74-10.44,1.07-.55.61-2.43-.63-2.33-5.59.48-10.79,2.71-14.96,6.47-1.2,1.08.57,2.82,1.77,1.77,2.19-1.93,4.75-3.3,7.55-4.1l-.96-2.28c-3.42,1.8-6.61,3.95-9.58,6.43l1.77,1.77c3.24-3.32,7.35-5.48,11.9-6.33,1.48-.28.97-2.33-.33-2.46l-1.62-.16c-1.6-.16-1.59,2.35,0,2.5h0Z"/>
  <path class="cls-2" d="M18.21,47.02c.56,1.58,1.64,2.93,3.12,3.73.55.3,1.23.18,1.61-.32.34-.44.39-1.26-.1-1.64-.21-.16-.4-.33-.59-.52-.07-.07-.13-.14-.2-.22-.04-.05-.08-.1-.13-.15.09.12.1.13.02.02-.13-.19-.25-.38-.36-.58-.06-.11-.13-.23-.17-.35.11.31-.03-.1-.05-.16l-2.41.66c.51,1.51,1.57,2.82,3.01,3.53l1.26-2.16c-.12-.05-.25-.11-.36-.18-.05-.03-.1-.06-.15-.1-.03-.02-.17-.15-.05-.04.13.13-.05-.05-.08-.08-.04-.04-.09-.08-.13-.13-.01-.01-.11-.14-.12-.14.02,0,.16.23,0,0-.07-.1-.13-.2-.18-.31-.01-.03-.03-.05-.04-.08-.04-.08-.03-.05.03.09,0-.03-.05-.14-.06-.17-.04-.11-.06-.23-.09-.35-.07-.28,0,.18,0,.02,0-.07,0-.15-.01-.23l-2.46.33c.5,2.07,2.53,3.61,4.65,3.55.65-.02,1.28-.56,1.25-1.25s-.55-1.21-1.25-1.25c-.06,0-.13,0-.19-.01.17.03.19.03.04,0-.09-.02-.19-.04-.28-.07s-.18-.06-.28-.09c-.24-.08.19.1-.1-.04-.16-.08-.42-.19-.54-.33.19.21,0,0-.05-.05-.1-.09-.19-.18-.27-.28l-1.51,1.96c1.32.62,2.63,1.24,3.95,1.86.59.28,1.38.18,1.71-.45.29-.56.18-1.41-.45-1.71-1.32-.62-2.63-1.24-3.95-1.86-.57-.27-1.21-.2-1.61.32s-.33,1.18.1,1.64c.89.98,2.14,1.51,3.44,1.59v-2.5c-.09,0-.17,0-.26,0-.06,0-.12,0-.17-.01l.16.02c-.07.05-.43-.1-.5-.12-.06-.02-.11-.04-.16-.06l.14.06c-.08-.01-.16-.08-.23-.11-.08-.04-.15-.08-.23-.13-.03-.02-.32-.21-.16-.1s-.08-.07-.11-.1c-.06-.06-.13-.12-.19-.18s-.11-.13-.17-.19c-.06-.07-.04-.04.06.08-.03-.03-.05-.07-.07-.11-.1-.15-.17-.3-.25-.45-.04-.09-.03-.05.04.1-.02-.04-.03-.08-.04-.12-.03-.1-.06-.19-.08-.29-.15-.61-.78-.98-1.37-.9s-1.1.6-1.08,1.23c.03,1.59.99,3.19,2.48,3.83.32.14.61.22.96.13.29-.08.6-.3.75-.57.3-.57.18-1.4-.45-1.71-.14-.07-.27-.14-.41-.22-.05-.03-.1-.07-.16-.1-.03-.02-.25-.17-.1-.06s-.08-.07-.09-.08c-.05-.04-.09-.08-.14-.12-.11-.1-.22-.22-.32-.33-.04-.05-.08-.09-.12-.14-.19-.23.09.14,0,0-.07-.12-.16-.23-.23-.35-.08-.13-.15-.27-.22-.41-.09-.19.02.04.02.04,0,0-.09-.25-.09-.26-.21-.62-.87-1.09-1.54-.87-.61.2-1.1.87-.87,1.54.4,1.2,1.11,2.29,2.11,3.07l1.51-1.96c-.14-.07-.27-.15-.4-.24-.07-.04-.13-.09-.19-.13-.13-.09-.14-.06,0,0-.12-.05-.25-.22-.35-.31-.11-.11-.22-.22-.32-.34-.02-.02-.12-.12-.12-.14.09.12.11.14.05.07-.03-.04-.06-.08-.08-.11-.08-.11-.16-.23-.23-.35-.08-.13-.15-.27-.22-.41s-.08-.13,0,0c-.05-.08-.07-.18-.1-.26-.22-.62-.86-1.09-1.54-.87-.61.2-1.11.88-.87,1.54h0Z"/>
  <path class="cls-2" d="M18.52,28.91c.7-1.35,1.71-2.44,3.02-3.23l-1.51-1.96c-.8.65-1.6,1.3-2.4,1.94l1.96,1.51c.99-1.31,2.07-2.57,3.19-3.77s-.66-2.94-1.77-1.77c-.82.87-1.63,1.73-2.45,2.6-1.11,1.18.57,2.83,1.77,1.77,1.46-1.3,2.92-2.59,4.38-3.89l-1.77-1.77c-1.26,1.22-2.66,2.23-4.21,3.04l1.71,1.71c1.45-2.21,3.66-3.87,6.18-4.66l-1.54-1.54c-.44,1.1-1.42,1.99-2.53,2.37l1.22,2.09c1.32-1.39,2.73-2.68,4.23-3.86l-1.77-1.77c-.45.46-.95.78-1.54,1.05-1.28.59-.37,2.74.96,2.28,1.04-.35,2.07-.71,3.11-1.06,1.55-.53.91-2.66-.66-2.41-.63.1-1.26.2-1.89.3l1.41,1.84c.38-.71.95-1.27,1.73-1.54l-1.54-1.54c-.28.68-.88,1.13-1.52,1.43l1.71,1.71c.46-.72,1.06-1.26,1.8-1.67l-1.51-1.96c-.34.4-.69.8-1.03,1.21l1.96,1.51c.32-.6.72-1.16,1.28-1.57s.82-1.08.45-1.71c-.31-.53-1.17-.85-1.71-.45-.9.67-1.65,1.47-2.17,2.47-.63,1.2,1,2.64,1.96,1.51.34-.4.69-.8,1.03-1.21.9-1.05-.22-2.68-1.51-1.96-1.11.61-2.02,1.49-2.7,2.56-.3.47-.19,1.13.2,1.51.42.42,1,.43,1.51.2,1.28-.58,2.15-1.64,2.67-2.92.36-.87-.7-1.83-1.54-1.54-1.38.48-2.52,1.39-3.22,2.69-.55,1.03.36,2.01,1.41,1.84.63-.1,1.26-.2,1.89-.3l-.66-2.41c-1.04.35-2.07.71-3.11,1.06l.96,2.28c.77-.35,1.45-.85,2.04-1.44.48-.48.48-1.29,0-1.77-.52-.52-1.23-.42-1.77,0-1.51,1.18-2.92,2.47-4.23,3.86-.81.85-.02,2.52,1.22,2.09,2.01-.7,3.48-2.15,4.28-4.12.36-.89-.7-1.8-1.54-1.54-3.16,1-5.86,3.04-7.68,5.81-.72,1.1.67,2.26,1.71,1.71,1.73-.91,3.31-2.07,4.71-3.44,1.16-1.13-.57-2.83-1.77-1.77-1.46,1.3-2.92,2.59-4.38,3.89l1.77,1.77c.82-.87,1.63-1.73,2.45-2.6l-1.77-1.77c-1.27,1.36-2.46,2.79-3.58,4.28-.37.49-.13,1.28.32,1.61.53.4,1.14.31,1.64-.1.8-.65,1.6-1.3,2.4-1.94,1.12-.9-.32-2.68-1.51-1.96-1.66.99-3.02,2.41-3.92,4.12-.74,1.42,1.41,2.69,2.16,1.26h0Z"/>
  <path class="cls-2" d="M45.64,10.1c.69-.36,1.22-1.04,1.37-1.81.13-.66-.19-1.35-.87-1.54s-1.35.22-1.54.87c-.26.88-.26,1.78-.06,2.68.24,1.03,1.79,1.24,2.28.3l.53-1.02c.5-.97-.33-2.1-1.41-1.84s-1.48,1.21-1.77,2.16c-.03.1-.06.19-.09.29-.03.08-.02.08.02-.03l-.06.12c-.07.12-.12.2-.32.36.09-.08-.05.03-.07.05-.1.06-.2.12-.3.18-.16.09-.44.22-.55.26-2.08.87-4.4,1.72-6.59,2.52-.63.23-1.06.85-.87,1.54.17.61.9,1.11,1.54.87,2.24-.82,4.47-1.65,6.67-2.55.98-.4,1.93-.88,2.54-1.79.26-.38.39-.83.53-1.27.03-.1.06-.19.09-.29.01-.04.03-.07.04-.11.03-.09.03-.07-.01.04-.06-.19.12.04-.02,0,.12-.1.09-.1-.07.01-.18.09-.19.11-.04.06l-1.41-1.84-.53,1.02,2.28.3c-.11-.46-.08-.89.06-1.35l-2.41-.66c-.04.22-.01.21-.22.32-.6.31-.78,1.15-.45,1.71.35.6,1.11.76,1.71.45h0Z"/>
  <path class="cls-2" d="M37.42,14.76c2.56-.75,5.01-1.87,7.24-3.34.55-.36.83-1.12.45-1.71-.35-.54-1.13-.83-1.71-.45-2.18,1.44-4.22,2.37-6.64,3.08-.63.18-1.08.89-.87,1.54s.87,1.07,1.54.87h0Z"/>
  <path class="cls-2" d="M43.27,8.63c.62.86,1.53,1.21,2.57,1.02.81-.15,1.56-.68,1.99-1.38,1.12-1.85-.32-4.05-1.99-4.93-1.27-.68-2.47.9-1.51,1.96.03.03.32.39.18.21.09.13.18.26.26.39s.16.27.23.42c.04.07.07.14.1.22-.05-.12-.05-.11,0,.03.1.3.18.6.25.92.02.15.03.16,0,.02,0,.08.02.16.02.24.01.16.01.32.01.47,0,1.21,1.73,1.74,2.33.63,1-1.85.39-4.19-1.37-5.34-.44-.29-1.16-.2-1.51.2-.4.44-.44.99-.2,1.51.06.14.07.15.02.04.03.08.06.15.08.23.05.15.1.31.13.47.01.04.09.52.06.27.02.16.03.32.04.49.02.68-.03.98-.29,1.7-.21.58.19,1.25.72,1.47s1.28.05,1.56-.51c.57-1.12,1.14-2.31,1.13-3.6s-.57-2.44-1.62-3.17c-.6-.42-1.33-.06-1.71.45-1.25,1.68-1.81,4.1-1.24,6.14.19.68.62,1.25,1.31,1.49.78.27,1.58-.14,2.14-.67.78-.73,1.54-1.69,1.8-2.74.32-1.33-.12-2.74-1.28-3.5-.44-.29-1.16-.2-1.51.2-1.03,1.15-1.74,2.71-1.71,4.28.02.96.5,1.84,1.44,2.16.74.25,1.56,0,2.16-.46,1.44-1.11,1.06-3.21.38-4.65-.34-.72-.96-1.35-1.78-1.46-.97-.13-1.78.46-2.23,1.29-.81,1.48-.75,3.44.25,4.82.5.69,1.3.81,1.96.25.96-.81,1.95-1.79,2.2-3.07s-.39-2.71-1.64-3.28c-.68-.31-1.42-.37-2.1-.02s-1.08,1.04-1.3,1.76c-.43,1.45-.45,2.98-.21,4.47.13.83,1.2,1.1,1.84.75,1.08-.6,1.99-1.46,2.68-2.48.74-1.1,1.14-2.66.39-3.87s-2.31-1.78-3.5-.94c-.53.37-.88.89-1.14,1.47-.31.69-.59,1.36-.65,2.12-.1,1.39.94,2.89,2.44,2.84.77-.03,1.39-.47,1.97-.94.45-.37.86-.81,1.16-1.31.64-1.07.73-2.48-.03-3.52-.8-1.09-2.27-1.57-3.47-.78s-1.54,2.16-1.69,3.48c-.16,1.45.02,2.95.48,4.33.29.87,1.4,1.26,2.09.55,2.04-2.11,2.84-5.27,2.01-8.08-.25-.85-1.1-1.06-1.84-.75-1.29.55-2.22,1.71-2.72,2.99s-.43,2.77.14,4.07c.22.49.93.72,1.41.57,1.25-.37,2.27-1.15,3.02-2.2.68-.95,1.2-2.45.8-3.6-.32-.92-1.21-1.46-2.18-1.28-.74.14-1.34.7-1.73,1.33-.74,1.19-.95,2.84-.84,4.2.05.65.54,1.28,1.25,1.25.63-.03,1.31-.55,1.25-1.25-.02-.26-.03-.52-.03-.78,0-.11,0-.22.02-.32,0-.06,0-.13.02-.19.02-.14.02-.17,0-.09-.02.13.04-.19.04-.22.03-.13.05-.25.09-.38.06-.23.13-.46.21-.68.03-.08.13-.26.04-.09.05-.09.11-.18.16-.27-.12.21.03-.02.07-.07.18-.2-.13.15.06-.04l-.13.05c.11-.03.11-.03,0,0-.19-.04-.42,0-.57-.17-.05-.05-.18-.36-.11-.14-.08-.25-.02-.06-.01.06,0,.24.04-.14,0,.01-.02.1-.04.2-.06.3-.04.18-.11.36-.17.53.1-.28-.02.03-.04.07-.04.08-.08.15-.12.22-.05.09-.11.17-.17.26-.07.1-.13.16-.02.03-.13.15-.27.31-.42.44-.06.06-.13.11-.19.17-.11.09.17-.1-.03.02-.17.11-.34.21-.53.31-.23.12.2-.05-.08.03-.1.03-.19.07-.29.09l1.41.57c.14.31-.02-.07-.04-.14-.04-.12-.06-.24-.09-.36-.02-.14-.02-.12,0,.06,0-.06-.01-.12-.02-.18,0-.12-.01-.25,0-.37,0-.1-.02-.27.02-.37-.03.18-.03.2,0,.06.01-.06.02-.12.04-.18.03-.12.06-.24.1-.36.01-.03.12-.38.06-.2s.07-.15.09-.19c.06-.11.12-.22.18-.32s.14-.21.21-.31c-.2.27.06-.05.1-.1.08-.09.17-.17.27-.26.05-.04.09-.08.14-.12-.13.1-.14.11-.03.03.21-.13.42-.25.65-.35l-1.84-.75c.08.28.14.56.2.85.02.15.02.14,0,0,0,.07.02.14.02.22.01.14.02.29.02.43,0,.29-.01.58-.04.87-.02.15-.02.14,0,0-.01.07-.02.14-.04.22-.03.14-.06.29-.09.43-.07.28-.17.56-.26.83-.05.13-.05.14,0,0-.03.07-.06.13-.09.2-.06.13-.13.26-.2.39-.14.26-.3.5-.46.74-.09.11-.09.12,0,0-.05.06-.09.11-.14.17-.09.11-.19.22-.3.32l2.09.55c-.51-1.52-.63-3.06-.2-4.51.09-.3-.08.15,0-.02.04-.07.07-.15.11-.22.03-.06.07-.11.1-.16.14-.25-.18.15.03-.04.04-.04.09-.08.13-.13-.19.19-.09.06,0,.02.16-.06-.29.05-.02,0s-.26-.04.03,0c-.31-.04-.1-.02-.02,0h.04c-.16-.06-.18-.06-.06,0l.08.05-.11-.08c.05.06.2.28.05.03.03.05.06.11.1.16.16.23-.03-.15,0,0,.01.07.04.16.06.23-.08-.23-.02-.08-.01.05.02.27.06-.15,0,.02-.03.08-.05.18-.07.26.05-.2.04-.07,0,0-.05.09-.11.19-.16.28-.02.04-.14.19,0,.01-.06.07-.12.14-.18.21-.14.15-.29.29-.45.42-.26.23.12-.07-.05.04-.08.05-.15.11-.23.16-.03.02-.2.11-.2.11,0-.07.3-.03.15-.04s.2.07.22.08c-.19-.1-.02,0,.02.04-.07-.06-.19-.27-.06-.04-.05-.08-.1-.31-.05-.06-.01-.06-.04-.13-.05-.19.04.29.03-.12.03-.16,0,.07-.04.17.02-.06.03-.11.06-.21.09-.32s.08-.21.12-.31c-.06.15.02-.06.03-.07.08-.19.17-.39.28-.57.04-.06.07-.12.11-.18-.16.23.03-.01.07-.05-.13.12-.01.06,0,.03l-.12.05c.12-.03.12-.03.02,0h-.07c.14.02.12.02-.06,0,.19.02.02,0-.04-.03.07.04.28.21.06.02.06.05.22.27.07.03.04.05.07.11.1.16-.06-.15-.06-.16-.01-.03.02.11.03.12.02.05-.04-.16,0,.19,0,.19,0,.31.06-.16-.02.14-.02.08-.05.16-.07.23-.05.14-.05.15,0,.04-.03.06-.05.11-.08.17-.1.2-.22.39-.35.57.01-.02-.22.29-.11.16.05-.07.03-.05-.05.06-.05.06-.1.12-.15.18-.13.14-.27.28-.41.41-.09.08-.18.15-.27.23.16-.13-.08.06-.12.09-.19.13-.39.26-.6.37l1.84.75c-.07-.42.01.23-.03-.2-.01-.13-.02-.27-.03-.4-.01-.24-.02-.49-.01-.73s.02-.49.05-.73c.03-.27-.02.05.03-.2.03-.13.05-.26.08-.39.05-.24.11-.47.19-.7-.06.17,0,.06.03-.04.05-.08.03-.06-.04.04.1-.09.1-.1.01-.03-.08.06-.08.06.01,0l-.15.06c.24-.08-.26-.01-.03,0,.27.01-.29.02-.02,0,.1.03.1.03,0,0-.1-.04-.1-.04,0,0l.07.04c.11.08.1.06-.04-.04.05.01.12.12.16.15.03.03.06.06.09.1-.09-.12-.11-.15-.06-.07.01.04.12.15.11.19-.06-.16-.07-.18-.03-.05l.02.08c.08.25,0-.25,0,.01s.08-.23,0,.08c-.03.1-.06.21-.09.31.06-.17.02-.06-.03.04s-.11.19-.17.28c-.05.08-.14.19-.03.06-.07.09-.14.17-.22.25-.31.33-.65.63-1,.92l1.96.25c-.08-.12-.16-.23-.23-.36-.03-.06-.07-.13-.1-.19.05.13.06.13,0,0-.04-.14-.08-.28-.12-.41-.07-.25,0,.19-.02-.09,0-.14-.02-.29-.01-.43,0-.07,0-.14.02-.21-.02.15-.02.16,0,.01.03-.12.06-.24.09-.36.02-.05.03-.1.05-.15-.06.13-.06.13,0,0,.03-.05.27-.41.09-.19.04-.05.09-.1.14-.15-.05.06-.12.11-.2.14-.16.06-.32.02-.47-.06.11.07.1.06-.05-.04.04.04.09.09.12.13-.21-.24.03.09.06.15.13.21-.06-.19.04.11s.17.59.24.89c.03.15.03.17.01.05,0,.08.01.17.01.25.03.3,0-.1-.01.16-.05.16-.05.16.01.02-.07.11-.05.1.05-.04-.04.04-.08.08-.12.12.14-.1.16-.12.05-.04-.12.06-.1.06.07-.02-.05.02-.1.04-.16.05l.17-.02c-.05,0-.11,0-.16,0,.12,0,.23.02.34.09-.11-.07-.09-.05.06.06.06.06.1.12.12.2-.03-.14-.04-.14-.01,0-.05-.57.04-.83.26-1.49.12-.34-.11.19.06-.13.07-.14.14-.28.22-.41s.17-.26.26-.39c-.13.19.14-.17.17-.2l-1.51.2c.12.08.11.07-.02-.02l.07.07c.14.28-.11-.24.03.06s-.05-.25.03.06c.02.1.05.19.07.29-.04-.22-.01-.07-.02.07,0,.09-.07.35,0,.06-.02.08-.04.17-.06.25-.02.06-.04.11-.06.17.04-.1.05-.11,0-.03-.12.2-.23.4-.36.6-.08.11.09-.09-.06.07-.08.09-.15.18-.23.27-.16.17-.32.36-.5.51.08-.06.08-.06,0-.02-.15.08-.06.06.26-.05.2,0,.35.07.46.23.14.16.17.18.08.05l.05.13c-.02-.06-.04-.12-.05-.18-.03-.11-.04-.21-.06-.32-.04-.24,0,.08,0-.07,0-.12-.02-.23-.02-.35,0-.21,0-.42,0-.64,0-.12.02-.23.03-.35-.03.27.01-.07.03-.13.04-.23.1-.45.17-.67.03-.11.07-.22.11-.33,0-.02.16-.35.05-.13.2-.42.43-.82.71-1.19l-1.71.45c-.23-.16.02.03.06.06.17.15-.04-.09.03.02.04.07.09.14.13.22.16.25-.05-.21.04.08.05.17.1.33.13.5-.05-.3,0,.03,0,.08,0,.09,0,.17,0,.26,0,.04-.03.27,0,.07-.02.1-.04.21-.06.31-.05.23-.13.44-.21.66l-.05.12c.04-.08.04-.09,0,0-.04.1-.09.19-.13.29-.11.23-.22.46-.34.68l2.28.96c.61-1.69.44-3.51-.3-5.12l-1.71,1.71c.19.13-.09-.11.01,0,.05.06.12.1.17.16.04.04.08.09.13.14-.11-.11-.08-.12,0,0,.07.12.14.24.21.37-.07-.14-.05-.14,0,0,.02.07.05.15.07.22.02.06.03.12.04.18.06.26.02-.14,0,0-.02.13,0,.29,0,.42,0,.26.06-.13,0,0-.03.06-.04.16-.05.23-.02.06-.04.12-.06.18.08-.27.01-.04-.03.04l2.33.63c0-1.74-.65-3.39-1.82-4.68l-1.51,1.96c.13.07.24.15.37.22.12.08.12.08,0,0,.06.04.11.09.16.14.11.1.2.2.3.31.09.11.09.11,0,0,.04.06.08.12.11.18.04.07.18.44.1.17.02.07.09.48.07.16,0,.08-.04.48.03.18,0,.04-.07.36-.03.15.05-.27-.07.17-.09.12.12-.15.13-.17.04-.07-.04.04-.07.07-.11.11.15-.11.17-.13.06-.05-.04.03-.09.06-.14.08-.17.11.26-.07-.06.02s.16.03-.04.02c-.1,0-.44-.03-.03.02-.05-.01-.09-.02-.14-.04.19.09.22.1.11.03-.11-.07-.08-.05.08.06-.09-.09-.07-.07.05.08-.38-.53-1.11-.84-1.71-.45-.52.34-.86,1.14-.45,1.71h0Z"/>
  <path class="cls-2" d="M32.66,3.28c1.89.03,3.4.7,4.93,1.75,1.27.87,2.78,1.46,4.19.53,1.17-.78,1.6-2.44.57-3.52-.94-.98-2.2-.41-3.21-1.02l-.63,2.33c.82-.05,1.65-.1,2.47-.15,1.61-.1,1.61-2.41,0-2.5-2.04-.12-4.09-.23-6.13-.35-1.88-.11-3.75-.24-5.57.35s-3.43,1.57-5.08,2.44c-1.75.92-3.5,1.84-5.25,2.76-1.26.66-.39,2.67.96,2.28,1.85-.52,3.7-1.05,5.49-1.78s3.19-1.47,5.08-1.61,3.73-.3,5.49.19c1.48.41,3.1,1.53,2.52,3.26l2.46.33c-.02-.79.19-2.02-.22-2.73-.37-.64-1.38-.98-2.03-1.28-1.56-.72-3.2-1.24-4.9-1.51-3.36-.53-6.79-.22-9.96,1.02-1.19.47-1.19,2.62.33,2.46,2.84-.3,5.68-.93,8.55-.78,1.12.06,2.38.22,3.34.87,1.26.84.82,1.82.12,2.94-.85,1.37,1.31,2.63,2.16,1.26.9-1.44,1.54-3.1.63-4.7-.7-1.23-2.01-2-3.33-2.41-3.69-1.15-7.74-.07-11.47.33l.33,2.46c4.76-1.86,10.09-1.51,14.51,1.06l-.62-1.08c.02.7.03,1.4.05,2.1.03,1.43,2.01,1.67,2.46.33.64-1.93-.2-3.95-1.78-5.14-1.78-1.35-4.12-1.62-6.29-1.58s-4.43.16-6.49,1.07c-2.33,1.03-4.66,1.82-7.11,2.51l.96,2.28c1.63-.85,3.25-1.71,4.88-2.56s3.16-1.83,4.86-2.38,3.55-.34,5.34-.23c1.9.11,3.79.22,5.69.33V.69c-.82.05-1.65.1-2.47.15-1.21.08-1.74,1.66-.63,2.33.65.39,1.55.61,2.31.55.1,0,.31.1.38.07l-.09-.39c-.07.1-.16.15-.28.13-.52-.11-.9-.37-1.35-.67-1.88-1.3-3.89-2.05-6.19-2.09-1.61-.03-1.61,2.47,0,2.5h0Z"/>
  <path class="cls-2" d="M42.04,8.6c1.61,0,1.61-2.5,0-2.5s-1.61,2.5,0,2.5h0Z"/>
  <path class="cls-2" d="M41.52,22.94c-.11.13-.23.27-.32.42s-.15.32-.22.49c-.09.24-.12.51-.14.77,0,.08,0,.16,0,.23.02.18.04.36.08.53.07.25.17.5.32.71.08.15.19.26.32.35.12.11.26.19.43.22.17.05.33.06.5.02.17,0,.32-.06.46-.15.27-.17.5-.43.57-.75l.04-.33c0-.23-.06-.44-.17-.63-.06-.08-.1-.16-.14-.24l.13.3c-.05-.11-.08-.22-.09-.34l.04.33c-.02-.12-.02-.25,0-.37l-.04.33c.02-.12.05-.24.1-.36l-.13.3c.04-.09.09-.18.15-.26l-.2.25s.03-.04.04-.05c.12-.11.21-.25.26-.4.08-.15.11-.31.11-.48,0-.17-.03-.33-.11-.48-.05-.15-.14-.29-.26-.4-.24-.22-.55-.38-.88-.37s-.67.12-.88.37h0Z"/>
  <path class="cls-2" d="M4.03,80.74c9.09-4.25,18.94-7.12,28.91-8.33,5.3-.64,10.64-.81,15.97-.71s10.74.07,15.96.89c5.67.9,10.47,3.61,15.24,6.67,2.72,1.74,5.23-2.59,2.52-4.32-4.39-2.81-8.99-5.53-14.12-6.72-5.48-1.28-11.28-1.28-16.89-1.45-11.07-.34-22.06.48-32.8,3.32-5.95,1.58-11.74,3.73-17.32,6.34-1.22.57-1.53,2.33-.9,3.42.73,1.25,2.19,1.47,3.42.9h0Z"/>
  <path class="cls-2" d="M81.07,82.11c.99-.23,1.96-.54,2.91-.92.33-.08.61-.23.85-.45.27-.18.49-.41.64-.7.18-.29.28-.6.3-.93.07-.33.06-.66-.04-1-.2-.6-.57-1.19-1.15-1.49l-.6-.25c-.44-.12-.89-.12-1.33,0-.94.38-1.92.69-2.91.92-.33.08-.61.23-.85.45-.27.18-.49.41-.64.7-.18.29-.28.6-.3.93-.07.33-.06.66.04,1,.2.6.57,1.19,1.15,1.49l.6.25c.44.12.89.12,1.33,0h0Z"/>
  <path class="cls-2" d="M77.04,89.54c-2.53,8.59-3.28,17.65-2.35,26.55.77,7.35,2.99,14.61,2.61,22.06-.19,3.71-1.25,7.43-3.64,10.35-.85,1.04-1.02,2.51,0,3.54.88.88,2.68,1.05,3.54,0,4.98-6.08,5.68-13.72,4.76-21.28-.46-3.79-1.23-7.52-1.83-11.29-.7-4.39-.95-8.87-.79-13.32.19-5.19,1.05-10.29,2.52-15.26.91-3.09-3.91-4.41-4.82-1.33h0Z"/>
  <path class="cls-2" d="M81.65,78.08c-1.68,3.3-3.11,6.75-4.24,10.28-.4,1.25.47,2.78,1.75,3.08,1.37.31,2.65-.41,3.08-1.75.53-1.63,1.11-3.25,1.76-4.84.05-.13.31-.78.06-.15.08-.2.17-.39.25-.58.17-.39.34-.77.52-1.15.37-.79.75-1.58,1.15-2.36.59-1.16.34-2.77-.9-3.42-1.14-.6-2.79-.35-3.42.9h0Z"/>
  <path class="cls-2" d="M79,102.52c1.26-1.36,2.63-2.52,4.22-3.48,1.15-.69,3.24-2.07,4.65-1.68,3.06.84,2.16,6.79,1.85,8.99-1.02,7.2-4.67,13.82-10.1,18.62-2.42,2.14,1.13,5.66,3.54,3.54,5.38-4.76,9.25-11.26,10.89-18.26.83-3.56,1.32-7.5.64-11.12-.72-3.83-3.92-7.27-8.06-6.75s-8.36,3.58-11.18,6.61c-2.19,2.35,1.34,5.9,3.54,3.54h0Z"/>
  <path class="cls-2" d="M80.48,91.24c2.51-.81,4.93-1.86,7.43-2.7,2.13-.71,4.84-1.56,6.97-1.19.57.1,1.08.37,1.39.67.58.55.85.98,1.27,1.88.62,1.32,1.05,3.48,1.35,5.18,1.71,9.85,1.34,20.36-3.42,29.38-2.21,4.19-6.28,9.1-11.63,8.31-1.33-.2-2.69.33-3.08,1.75-.32,1.18.4,2.88,1.75,3.08,13.52,2,20.15-13.72,21.74-24.61.89-6.11.63-12.1-.37-18.17-.68-4.12-1.62-9.24-5.62-11.48-2.82-1.58-6.35-1.09-9.33-.32-3.35.86-6.5,2.34-9.79,3.4-3.05.99-1.74,5.82,1.33,4.82h0Z"/>
  <path class="cls-2" d="M15.22,152.93c15.51,1.5,31.13,4.28,46.75,2.82,4.37-.41,8.71-1.13,12.93-2.32,3.09-.87,1.78-5.69-1.33-4.82-14.75,4.14-30.37,2.42-45.35.73-4.33-.49-8.66-1-13-1.41-1.35-.13-2.5,1.24-2.5,2.5,0,1.46,1.15,2.37,2.5,2.5h0Z"/>
  <path class="cls-2" d="M2.76,82.19c5.63,1.72,11.24,3.52,16.9,5.13s11.65,2.53,17.64,2.92c10.13.66,20.55.64,30.44-1.94,5.39-1.41,10.59-3.65,15.14-6.88,1.1-.78,1.62-2.18.9-3.42-.64-1.09-2.31-1.68-3.42-.9-7.72,5.48-17.04,7.69-26.37,8.29-4.91.31-9.83.23-14.74-.03-5.63-.3-11.16-.95-16.61-2.4-6.23-1.66-12.37-3.7-18.54-5.58-3.08-.94-4.4,3.88-1.33,4.82h0Z"/>
  <path class="cls-2" d="M.1,79.49c5.05,18.04,6.09,36.89,3.75,55.44-.17,1.34,1.27,2.5,2.5,2.5,1.49,0,2.33-1.15,2.5-2.5,2.39-18.97,1.24-38.34-3.93-56.77-.87-3.09-5.69-1.78-4.82,1.33H.1Z"/>
  <path class="cls-2" d="M14.31,93.01l-.61-1.02c-1.08-1.79-4.03-.63-3.43,1.44,3.42,11.76,4.57,24.03,3.45,36.22h3.75c.05-12.32,1.44-24.59,4.15-36.61.22-.96-.29-2.07-1.31-2.31-2.63-.61-5.31-.84-8-.61-1.44.12-2.3,1.49-1.62,2.82.92,1.8,1.84,3.6,2.76,5.41.69,1.34,3.19,1.16,3.43-.45.12-.82.24-1.65.36-2.47h-3.62c.17,1.14.17,2.3.1,3.45h3.75c-.03-1.31.22-2.49.73-3.7l-3.68-.5c-.13,2.06-.49,4.07-1.04,6.06l3.62,1c.22-1.44.43-2.89.65-4.33.15-1.01-.25-2-1.31-2.31-.88-.25-2.16.31-2.31,1.31-.22,1.44-.43,2.89-.65,4.33-.35,2.32,2.95,3.39,3.62,1s1.02-4.67,1.18-7.06c.06-.92-.76-1.74-1.63-1.84-1-.12-1.69.46-2.06,1.34-.63,1.49-.9,3.08-.86,4.7.06,2.43,3.6,2.4,3.75,0,.09-1.5-.02-2.96-.23-4.45-.26-1.79-3.36-1.79-3.62,0-.12.82-.24,1.65-.36,2.47l3.43-.45c-.92-1.8-1.84-3.6-2.76-5.41l-1.62,2.82c2.37-.2,4.68-.06,7,.48l-1.31-2.31c-2.79,12.34-4.23,24.96-4.29,37.61-.01,2.45,3.53,2.36,3.75,0,1.15-12.5-.08-25.16-3.59-37.21l-3.43,1.44.61,1.02c1.24,2.07,4.49.18,3.24-1.89h0Z"/>
  <path class="cls-2" d="M15.78,96.63c.16,10.99-.34,21.98-1.49,32.91h3.75c.49-12.29.98-24.62,3.07-36.76l-3.68-.5c-1.52,12.82-3.04,25.64-4.56,38.46h3.75c.35-10.72.5-21.45.43-32.17h-3.75c.26,10.62.53,21.25.79,31.87.06,2.41,3.8,2.42,3.75,0-.03-1.37-.06-2.74-.09-4.11-.04-2.02-3.34-2.66-3.68-.5-.26,1.64-.43,3.28-.48,4.94l3.68-.5c-.45-3.05-.44-6.2.01-9.25.15-1.01-.25-2-1.31-2.31-.88-.25-2.16.31-2.31,1.31-.56,3.77-.56,7.47-.01,11.24.31,2.15,3.63,1.54,3.68-.5.03-1.32.13-2.64.34-3.94l-3.68-.5c.03,1.37.06,2.74.09,4.11h3.75c-.26-10.62-.53-21.25-.79-31.87-.06-2.41-3.76-2.42-3.75,0,.07,10.73-.08,21.45-.43,32.17-.03,1.01.89,1.88,1.88,1.88,1.11,0,1.76-.86,1.88-1.88,1.52-12.82,3.04-25.64,4.56-38.46.25-2.08-3.32-2.58-3.68-.5-2.15,12.48-2.7,25.13-3.21,37.76-.1,2.45,3.5,2.35,3.75,0,1.15-10.93,1.64-21.92,1.49-32.91-.03-2.41-3.78-2.42-3.75,0h0Z"/>
  <path class="cls-2" d="M8.82,81.36c17.74-3.94,36.06-4.99,54.14-3.15,5.12.52,10.21,1.3,15.26,2.29,2.36.46,3.37-3.15,1-3.62-18.31-3.6-37.16-4.29-55.67-1.9-5.28.68-10.53,1.59-15.73,2.75-2.35.52-1.36,4.14,1,3.62h0Z"/>
  <path class="cls-2" d="M17.58,81.78c1.13-.15,2.47.26,3.6.42l.5-3.68c-1.82-.19-3.63-.38-5.45-.57-2.22-.23-2.38,3.03-.5,3.68,1.03.36,2.08.5,3.16.4,2.13-.18,2.52-2.94.5-3.68-1.84-.67-3.73-.74-5.63-.34-.91.19-1.46,1.19-1.34,2.06.13.99.9,1.52,1.84,1.63,3.84.44,7.62,1.23,11.34,2.28,2.07.59,3.24-2.31,1.44-3.43l-2.75-1.71-.95,3.49,10.18-.79c2.38-.18,2.43-3.88,0-3.75-3.09.17-6.18.33-9.28.5v3.75l11.35-1.41-.5-3.68c-2.19.63-4.38.97-6.66,1.02l.5,3.68c3.95-.69,7.93-1.14,11.94-1.36l-.5-3.68c-2.11.55-4.28.69-6.44.33v3.62c5-.94,10.1-1.04,15.15-.39l-.5-3.68c-1.7.54-3.46.78-5.24.53l-.5,3.68c4.26-.2,8.52-.14,12.77.17v-3.75l-6.63-.11.5,3.68c3.64-.53,7.37-.44,10.98.24v-3.62c-2.13.47-4.33.58-6.49.26l-.5,3.68c4.44-.05,8.88.13,13.3.55v-3.75c-2.27.04-4.53.07-6.8.11-2.42.04-2.41,3.67,0,3.75,4.59.16,9.17.32,13.76.48l-.5-3.68c-7.35,2.44-14.8,4.92-22.6,5.23-7.73.31-15.35-1.17-22.73-3.37l-.5,3.68c11.55-.78,23.14-.77,34.7.05v-3.75c-5.77-.19-11.53.02-17.26.65l.5,3.68c3.58-.49,7.25-.35,10.79.34l1-3.62c-4.53-.73-9.09-1.2-13.68-1.38v3.75l2.52-.09c2.41-.08,2.42-3.83,0-3.75l-2.52.09c-2.41.08-2.41,3.66,0,3.75,4.25.17,8.48.57,12.68,1.25,2.34.38,3.39-3.15,1-3.62-4.26-.84-8.49-.93-12.78-.34-2.07.28-1.6,3.91.5,3.68,5.73-.63,11.5-.84,17.26-.65,2.43.08,2.39-3.58,0-3.75-11.55-.81-23.14-.83-34.7-.05-2.07.14-2.6,3.06-.5,3.68,7.67,2.29,15.69,3.83,23.72,3.5,8.15-.33,15.92-2.81,23.6-5.37,2-.66,1.66-3.61-.5-3.68-4.59-.16-9.17-.32-13.76-.48v3.75c2.27-.04,4.53-.07,6.8-.11,2.45-.04,2.37-3.53,0-3.75-4.42-.42-8.86-.6-13.3-.55-2.03.02-2.66,3.36-.5,3.68,2.86.43,5.65.37,8.49-.26,1.76-.39,1.82-3.27,0-3.62-4.32-.81-8.62-.87-12.97-.24-2.14.31-1.54,3.65.5,3.68l6.63.11c2.44.04,2.38-3.57,0-3.75-4.25-.31-8.51-.37-12.77-.17-1.98.09-2.7,3.38-.5,3.68,2.46.34,4.85.23,7.24-.53,2.14-.68,1.53-3.42-.5-3.68-5.39-.69-10.81-.48-16.15.53-1.77.33-1.81,3.31,0,3.62,2.84.48,5.64.4,8.43-.33,2.01-.52,1.65-3.8-.5-3.68-4.34.24-8.66.74-12.94,1.49-2.1.37-1.58,3.73.5,3.68,2.59-.05,5.16-.43,7.65-1.15,1.95-.56,1.67-3.95-.5-3.68l-11.35,1.41c-1,.12-1.88.77-1.88,1.88,0,.97.86,1.93,1.88,1.88,3.09-.17,6.18-.33,9.28-.5v-3.75l-10.18.79c-1.82.14-2.6,2.47-.95,3.49l2.75,1.71,1.44-3.43c-4.05-1.14-8.16-1.93-12.34-2.41l.5,3.68c1.26-.26,2.44-.1,3.64.34l.5-3.68c-.79.07-1.42,0-2.17-.27l-.5,3.68c1.82.19,3.63.38,5.45.57,2.08.22,2.59-3.38.5-3.68-1.43-.21-3.17-.74-4.6-.56-1,.13-1.88.77-1.88,1.88,0,.91.86,2.01,1.88,1.88h0Z"/>
  <path class="cls-2" d="M43.33,83.4c-1.63-2.52-4.32-4.08-7.31-4.27v3.75c3.12,0,6.24,0,9.36.01.98,0,1.92-.86,1.88-1.88s-.82-1.87-1.88-1.88c-3.12,0-6.24,0-9.36-.01-.98,0-1.92.86-1.88,1.88.05,1.07.82,1.81,1.88,1.88.02,0,.42.04.43.04-.02.04-.42-.07,0,0,.26.05.51.11.76.19.14.04.27.09.41.14.34.12-.19-.1.01,0,.23.12.47.23.7.36.21.12.4.25.6.39.39.27-.28-.26.07.06.11.1.21.19.32.29.17.16.33.34.49.52.32.34-.21-.32.06.07.08.12.16.23.24.35.53.82,1.69,1.24,2.57.67.82-.53,1.24-1.68.67-2.57h0Z"/>
  <path class="cls-2" d="M3.56,134.66c.06.25.12.5.16.76-.05-.35,0,.11,0,.24.03.48.03.97.02,1.45-.02.97-.11,1.94-.13,2.92-.05,2.05.22,4.24,1.38,5.98,1.04,1.56,2.52,2.68,4.13,3.6.72.41,1.46.79,2.17,1.22.32.19.64.39.95.6.05.03.6.47.21.14.17.14.33.29.5.44.98.93,2.56.97,3.54,0s.99-2.61,0-3.54c-1.26-1.19-2.74-2.02-4.24-2.86-.65-.36-1.28-.75-1.91-1.15-.39-.25.11.11-.1-.07-.14-.12-.27-.23-.41-.36-.16-.15-.3-.31-.45-.46-.31-.33.07.14-.07-.1-.1-.17-.2-.33-.3-.51l-.11-.23c.07.17.08.17.02.01-.06-.2-.12-.4-.17-.6,0,.01-.12-.66-.09-.41.04.27-.03-.37-.03-.43-.01-.26-.02-.52-.02-.77,0-.44.02-.88.04-1.31.09-1.99.2-3.95-.27-5.91-.32-1.31-1.8-2.1-3.08-1.75-1.34.37-2.07,1.76-1.75,3.08h0Z"/>
  <path class="cls-2" d="M15.35,78.43c10.13-1.35,20.33-2.22,30.55-2.57,8.89-.3,18.61-.84,26.81,3.22,2.87,1.42,5.41-2.89,2.52-4.32-6.73-3.33-14.2-4.06-21.62-4.06-8.13,0-16.28.46-24.37,1.18-4.64.41-9.28.93-13.9,1.55-1.34.18-2.5,1.02-2.5,2.5,0,1.21,1.15,2.68,2.5,2.5h0Z"/>
</svg>