<?xml version="1.0" encoding="UTF-8"?>
<svg id="Layer_1" data-name="Layer 1" xmlns="http://www.w3.org/2000/svg" viewBox="0 0 219.77 28.22">
  <defs>
    <style>
      .cls-1 {
        fill: #231f20;
      }
    </style>
  </defs>
  <path class="cls-1" d="M4.33,11.69c13,2.46,26.04,4.42,39.15,6.19,13.39,1.81,26.47,5.07,39.63,8.07,7.52,1.72,10.73-9.85,3.19-11.57-13.05-2.98-26.03-6.2-39.3-8.03C33.79,4.54,20.63,2.6,7.52.12-.03-1.31-3.26,10.26,4.33,11.69h0Z"/>
  <path class="cls-1" d="M86.33,25.66c22.41-4.55,44.97-8.29,67.66-11.11,7.56-.94,7.66-12.95,0-12-23.76,2.95-47.39,6.77-70.85,11.54-7.56,1.54-4.36,13.11,3.19,11.57h0Z"/>
  <path class="cls-1" d="M155.15,14.57c19.25,1.17,38.29,3.82,57.13,7.94,7.53,1.65,10.74-9.92,3.19-11.57-19.86-4.34-40.03-7.13-60.32-8.37-7.71-.47-7.69,11.53,0,12h0Z"/>
  <path class="cls-1" d="M7.1,21.6c10.75-1.25,21.45-2.79,32.11-4.65,7.59-1.32,4.37-12.89-3.19-11.57-9.6,1.67-19.24,3.09-28.92,4.22-7.58.88-7.67,12.89,0,12h0Z"/>
  <path class="cls-1" d="M65.58,7.3c6.27,1.26,12.56,2.45,18.86,3.56,1.33.24,2.69-.36,3.08-1.75.33-1.21-.41-2.84-1.75-3.08-6.3-1.12-12.59-2.3-18.86-3.56-1.32-.27-2.7.38-3.08,1.75-.34,1.23.42,2.81,1.75,3.08h0Z"/>
  <path class="cls-1" d="M85.31,10.92c3.1-.2,5.97-1.22,8.95-2.01s5.78-1.16,8.75-1.22c1.35-.03,2.5-1.13,2.5-2.5s-1.14-2.53-2.5-2.5c-3.17.07-6.35.47-9.42,1.23-2.74.68-5.5,1.82-8.28,2-1.35.09-2.5,1.09-2.5,2.5,0,1.28,1.15,2.59,2.5,2.5h0Z"/>
  <path class="cls-1" d="M67.03,7.14c12.37-.66,24.76-.88,37.15-.66,3.22.06,3.22-4.94,0-5-12.39-.22-24.78,0-37.15.66-3.2.17-3.22,5.17,0,5h0Z"/>
  <path class="cls-1" d="M192.9,5.22c4.66.35,8.66.93,13.33,1.93,1.28.27,2.76-.38,3.08-1.75.29-1.26-.38-2.78-1.75-3.08-4.83-1.03-9.73-1.73-14.66-2.11-1.31-.1-2.56,1.22-2.5,2.5.06,1.44,1.1,2.39,2.5,2.5h0Z"/>
  <path class="cls-1" d="M137.64,25.45c5.48-.71,10.89-1.77,16.2-3.28,1.26-.36,2.16-1.78,1.75-3.08s-1.73-2.13-3.08-1.75c-4.83,1.37-10.12,2.49-14.87,3.1-1.29.17-2.57,1.03-2.5,2.5.05,1.21,1.11,2.68,2.5,2.5h0Z"/>
  <path class="cls-1" d="M152.73,22.35l18.88,3.06c1.33.22,2.69-.35,3.08-1.75.33-1.19-.41-2.86-1.75-3.08l-18.88-3.06c-1.33-.22-2.69.35-3.08,1.75-.33,1.19.41,2.86,1.75,3.08h0Z"/>
  <path class="cls-1" d="M137.46,25.67c11.86-.67,23.74-.66,35.6.03,3.21.19,3.2-4.81,0-5-11.86-.69-23.74-.7-35.6-.03-3.2.18-3.22,5.18,0,5h0Z"/>
  <path class="cls-1" d="M12.06,28.18c7.98-1.17,15.95-2.34,23.93-3.51,1.34-.2,2.07-1.89,1.75-3.08-.39-1.43-1.73-1.94-3.08-1.75-7.98,1.17-15.95,2.34-23.93,3.51-1.34.2-2.07,1.89-1.75,3.08.39,1.43,1.73,1.94,3.08,1.75h0Z"/>
</svg>