<?xml version="1.0" encoding="UTF-8"?>
<svg id="Layer_1" data-name="Layer 1" xmlns="http://www.w3.org/2000/svg" viewBox="0 0 234.39 201">
  <defs>
    <style>
      .cls-1 {
        fill: #231f20;
      }

      .cls-2 {
        fill: #827f32;
        stroke: #231f20;
        stroke-miterlimit: 10;
      }
    </style>
  </defs>
  <rect class="cls-2" x=".5" y=".5" width="200" height="200"/>
  <g>
    <path class="cls-1" d="M95.47,89.56c.08,0-.11-.37-.13-.44-.08.14.18.54.13.44Z"/>
    <polygon class="cls-1" points="94.83 90.93 94.76 90.77 94.81 91.22 94.83 90.93"/>
    <path class="cls-1" d="M93.89,91.47c.47.54.27-.31.57-.19l.11.12-.21-.54c-.17.2-.23.68-.47.61Z"/>
    <path class="cls-1" d="M92.49,90.56c.2.2.02.28.18-.02-.03-.02-.04-.03-.06-.04-.02.02-.05.04-.12.06Z"/>
    <path class="cls-1" d="M92.61,90.49c.1-.1-.21-.14,0,0h0Z"/>
    <path class="cls-1" d="M92.2,91v-.31c-.14-.11-.29-.03-.32-.16-.07.23.07.33.32.47Z"/>
    <path class="cls-1" d="M92.4,91.51v-.14c-.05-.04-.09-.05,0,.14Z"/>
    <path class="cls-1" d="M92.42,91.07v.29c.08.07.22.25,0-.12.12.18.02,0,0-.18Z"/>
    <path class="cls-1" d="M92.57,91.09c.17.07.32.08.34.37.19-.26-.13-.65-.34-.37Z"/>
    <path class="cls-1" d="M94.24,92.12l.2.12-.05-.25c.03.12-.28-.05-.15.13Z"/>
    <path class="cls-1" d="M91.08,91.5c.1.12.33.24.48.37l-.02-.22c-.12-.03-.29,0-.46-.15Z"/>
    <path class="cls-1" d="M91.56,91.87l.04.33c.15-.11.08-.22-.04-.33Z"/>
    <path class="cls-1" d="M92.88,92.14l-.11-.61c.02.22.04.44.07.65l.04-.04Z"/>
    <path class="cls-1" d="M90.42,92.22l-.18-.34c.08.18.16.37.25.54l-.07-.2Z"/>
    <path class="cls-1" d="M90.07,92.8c-.18-.25-.51-.13-.59-.32-.07.2.06.46.19.69-.03-.19.09-.32.4-.37Z"/>
    <path class="cls-1" d="M89.84,93.53c-.03-.09-.1-.22-.18-.36.02.1.07.22.18.36Z"/>
    <path class="cls-1" d="M91.28,92.43c-.08-.05-.29-.18-.46-.13l.39.2s.04-.04.07-.07Z"/>
    <path class="cls-1" d="M91.23,92.51h-.01c-.07.07-.13.12-.15.14.02-.02.07-.06.16-.14Z"/>
    <path class="cls-1" d="M91.3,92.42l-.02.02s.05.03.02-.02Z"/>
    <path class="cls-1" d="M92.27,92.16c.08.25.1.58.5.7-.15-.26-.38-.33-.5-.7Z"/>
    <path class="cls-1" d="M91.77,92.69l.22-.09c-.08-.08-.23-.16-.27-.29l.05.38Z"/>
    <polygon class="cls-1" points="91.8 92.86 91.77 92.69 91.69 92.73 91.8 92.86"/>
    <path class="cls-1" d="M90.42,93.32c.1.19.05.29.02.43.14-.09.26-.19.33-.3-.11-.08-.28-.26-.35-.12Z"/>
    <path class="cls-1" d="M90.83,92.93v.03s.06,0,0-.03Z"/>
    <path class="cls-1" d="M89.93,94.94s.05,0,.08,0l-.07-.02v.02Z"/>
    <path class="cls-1" d="M90.86,93.46c.13-.04.07-.15,0-.27,0,.09-.03.17-.08.25.05.04.08.06.08.02Z"/>
    <path class="cls-1" d="M89.84,93.96c.11-.02.21-.05.3-.08-.15,0-.4.02-.3.08Z"/>
    <path class="cls-1" d="M90.72,92.92s0-.02,0-.02c-.1-.02-.06,0,0,.02Z"/>
    <path class="cls-1" d="M90.72,92.92c.02.08.08.18.14.26,0-.07,0-.15-.02-.23-.03,0-.08-.02-.12-.04Z"/>
    <path class="cls-1" d="M92.53,95.86c-.4-.08-.7-.35-.25-.39-.22-.22-1.51-.55-2.27-.52.17.05.32.1.49.37.23-.04.62-.32.91-.06.13.29-.19.16-.43.24.51.01.62.44,1.37.49-.08-.07-.15-.14-.22-.22.11.02.28.11.4.09Z"/>
    <path class="cls-1" d="M90.2,94.52v-.11c-.12.08-.3.11-.65.17.12.22.26.3.39.34.06-.16.15-.3.22-.45l.04.05Z"/>
    <path class="cls-1" d="M90.38,94c.35.25.43.51.92.57.09-.23-.25-.3-.34-.52-.11.44-.16-.22-.53-.03-.02-.11,0-.2.02-.28-.09.05-.19.1-.29.14h.03s0,0,0,0h0c.06,0,.09.01.05.02,0,0,0,.01,0,.01.05.03.1.06.14.09-.14.09-.11-.03-.14-.09l-.06-.03h0c0,.18,0,.35.02.53.09-.07.12-.19.19-.41Z"/>
    <path class="cls-1" d="M93.29,93.65s-.05-.04-.08-.06c.02.05.04.08.08.06Z"/>
    <path class="cls-1" d="M93.02,93.56c-.03-.06-.14-.19-.05-.22.14.04.14.15.25.24-.05-.11-.1-.34-.35-.38l.02.06c-.19-.01-.72-.24-.75-.29.32.23.55.39.88.59Z"/>
    <path class="cls-1" d="M91.82,93.67v.38s.4.07.4.07l-.19-.11c.17-.1-.08-.22-.21-.33Z"/>
    <path class="cls-1" d="M89.71,94.94l-.43-.17c.18.14.37.27.56.39l-.13-.22Z"/>
    <polygon class="cls-1" points="89.63 95.47 89.24 95.38 89.46 95.56 89.63 95.47"/>
    <path class="cls-1" d="M102.93,95.55l-.1-.07s.06.05.1.07Z"/>
    <path class="cls-1" d="M102.8,95.87l.18.07c-.1-.05-.17-.09-.18-.07Z"/>
    <path class="cls-1" d="M96.78,103.43c.09.39.19.98.22.53v-.44c-.09.07-.17,0-.22-.1Z"/>
    <path class="cls-1" d="M102.34,99.95l-.09-.1c.05.14.1.27.15.39-.02-.09-.04-.19-.06-.29Z"/>
    <path class="cls-1" d="M101.44,98.4l.24.18c-.07-.07-.15-.13-.24-.18Z"/>
    <path class="cls-1" d="M102.56,93.85l-.44.04c.01.06.23,0,.44-.04Z"/>
    <path class="cls-1" d="M91.14,100.44c-.04.22,0,.36.05.45.05-.3.26-.64-.05-.45Z"/>
    <path class="cls-1" d="M107.3,97.04c-.06-.08-.13-.13-.23-.16.06.08.12.14.23.16Z"/>
    <path class="cls-1" d="M91.51,101.21c.01-.05,0-.08.01-.13-.13-.03-.26-.07-.33-.19-.04.22,0,.42.32.31Z"/>
    <path class="cls-1" d="M97.89,90.34s-.01-.03-.02-.05c0,.06.02.06.02.05Z"/>
    <path class="cls-1" d="M93.61,87.39s.07-.08.12-.11c-.04-.01-.08.02-.12.11Z"/>
    <path class="cls-1" d="M89.41,97.62c-.05-.11-.05-.01,0,0h0Z"/>
    <path class="cls-1" d="M91.06,96.93c.05.01.11.02.21.02-.1,0-.17,0-.21-.02Z"/>
    <path class="cls-1" d="M93.93,99.69h0c.03-.08.03-.06,0,0Z"/>
    <path class="cls-1" d="M89.58,97.42s-.09.1-.11.16c.03-.03.07-.08.11-.16Z"/>
    <path class="cls-1" d="M89.38,97.47s.02-.08.03-.11c-.07,0-.12.01-.03.11Z"/>
    <path class="cls-1" d="M89.47,97.77c-.02-.06-.01-.13,0-.19-.02.03-.05.04-.06.04.01.03.03.08.06.15Z"/>
    <path class="cls-1" d="M102.01,90.26s0-.02.02-.04c-.15.11-.12.1-.02.04Z"/>
    <path class="cls-1" d="M98.81,99.03s0,.02,0,.02h0s0-.02,0-.02Z"/>
    <path class="cls-1" d="M98.98,98.69c-.04.55-.1.48-.17.37l.13,1.25c.02-.54.03-1.08.03-1.62Z"/>
    <path class="cls-1" d="M102.95,94.75l-.4.07c-.62-.17-.41-.2-.95-.17,1.35.12.11.3,1.44.54l-.29.02s-.06-.03-.04-.05c-.66,0,.95.29.71.46-.12.04-.32.03-.46-.05.09.08.2.16.28.24-.04.03-.26-.05-.22-.08l.03.25-.04-.02c.19.1.47.3.58.39-.21-.01-.12-.08-.28-.13l.25.26c-.34-.09-.62-.33-.53-.39-1.3-.41.28.24-.55.14l-.11-.17c-.72-.26-.51-.08-.98-.22.22.12,1.18.35,1.42.61-.11-.01-.17,0,.03.21-.42-.23-.36-.12-.38-.03l-.55-.33c.12.16.4.33.61.53-.11.06-.54-.2-.89-.42-.17.06.72.36.71.59-.27-.02-.13.19.05.59-.24-.07-.28-.27-.45-.36l.32.4s-.13-.1-.19-.16c.09.19.47.44.5.66.46.54-.91-.56-.48.14-.15-.11-.24-.31-.41-.49.18.53.12.39.39,1.08-.13-.08-.25-.17-.37-.26.37.33.57.88.67,1.38.17.17.32.31.4.37-.02.15-.04.31-.08.45-.09-.07-.17-.28-.26-.53.01.05.02.11.03.16-.21-.15-.34-.5-.47-.84.09.09.19.19.28.29-.15-.37-.34-.76-.55-1.07.03.07.04.14.03.19-.04-.1-.09-.18-.13-.23-.04-.05.02.08.07.24l-.41-.59.13.25c-.15-.09-.29-.18-.43-.27.17.71.42,1.77.12,2.19-.08-.53-.26-.81-.46-1.4.31.59.14-.35.32-.28-.1-.03-.2-.31-.22-.41,0,.22,0,.44-.03.65-.17-.48-.18-.33-.32-.51.37.93,0,.7-.04,1.03-.09-.32-.15-.66,0-.62-.34-.69.11,1.19-.23.61.04-.02.07.03.04-.14-.02.31-.29.13-.29-.17h.03c-.26-.07-.72.09-.71.94,0-.11-.05-1.02-.06-1.2-.05.96-.17,1.93-.33,2.89.01-.73-.19-2.46,0-2.89-.06-.1-.13-.22-.25.04.04.1.12,1.05.06,1.12-.17-.81-.13-.43-.31-1.13.06.16-.03,1.3-.14,1.26.02-.17.03-1.13.07-1.25-.09.37-.19.74-.3,1.11.08-.2.06-.95.03-1.27.01.22-.2-.03-.28.07l.08.27c-.25-.19-.44,1.55-.76,1.44.08-.22.29-1.4.18-1.56-.13.57-.77,2.68-1.24,3.03l.02-.34-.35.29c.42-.78,1.21-2.47,1.47-3.14-.04-.28.05-.39-.09-.38.02-.31.16-.44.2-.45-.08-.09-.15-.16-.22-.25-.15.66-.39.59-.54,1.13.18-.19.35-.38.51-.59-.12.66-.66,1.8-.91,1.61.02-.28.4-1.13.45-1.35-.09.22-.34.35-.31.19l.21-.31c-.02-.28-.5.78-.42.11-.04-.06.19-.86.03-.49-.24.73-1.1,2.94-1.41,3.44-.02-.06-.1-.85,0-1.22.18-.58.78-1.22.92-1.72-.08.16-.23.35-.28.4.02-.17.28-.5.13-.48-.34.59-.19-.18-.32.48-.21.1-.05-.19-.2-.24-.18.41-.91,1.2-1.17,1.25.11-.14.2-.34.25-.44-.23-.24-.16-.57-.34-.76.1-.13.16-.35.42-.51-.11.06-.31.19-.37.15.37-.48.18.05.65-.49-.31.26-.53.23-.8.3-.48.38.08.29.33.18-.63.58-1.46.99-2.05.87-.36-.16.38-.41.25-.39-.17-.51-1.59.22-1.27-.54.43-.38,1-.37,1.35-.54.26.12-.17.43-.08.57l.14-.27c.2,0,.38.05.28.19.37-.32-.3-.76.1-1.21-.19-.02-.42-.1-.62-.01l.1.1c-.4.2-.64-.13-.81.07-.34-.12-.83-.33-.61-.64l.61-.07c-.06,0-.12.02-.17.05-.1.06-.13.16,0,.2-.11-.04-.01-.12.11-.21.18-.13.39-.24-.09-.33-.14.06-.29.12-.43.19-.31-.2-.94-.54-.7-.82-.62.07.06.07-.67.22.88-.12-.08.81.86.52-.36.09-.48.18-.55.28-.08.12-.1.24-.47.46.2-.03.37-.15.3.13.06,0,.14.02.18.04v.02s0-.02,0-.02c.03,0,.04,0,0,0,.08-.07.18-.13.29-.17.46.07.52.43.79.5-.06.15-.24,0-.43.11l.39.1c-.44.12-.6.57-.97.3l.09.32c-.18.26-.16.58.09.65-.02.19.63.15.25.18.16.12.33.22.51.32l-.09.06c.11.23.42.35.66.49.24.15.41.33.33.82.2.05.43.05.57.33l-.2.34c.27.06.29.69.6.41-.38,1.02.72.71.93,1l.23-.45c.19.13.45.08.77-.01l.15-.42c.33-.26.42.49.79.56-.07.16-.15.09-.18-.03.06.55.35.43.61.28.27-.17.52-.37.64.03.12-.15.18-.08.23.04,0,0-.02,0-.03.02,0,0,.02,0,.04.01.03.08.06.18.1.26-.03-.11-.05-.21-.08-.25.08,0,.2-.04.32-.13v.48s0,0,.02-.01c.09.19.11-.22.09-.58.06-.07.11-.16.16-.28,0,.78.28-.24.33.6.1-.4.54-.28.61-1.13,0,.11.03.16-.02.17.11.1.22.2.31-.04l.05.61.22-.83c.15.37.23.58.1,1.06.33-.74.29-.29.53-1.03l.02.4c.11-.02.22-.57.32-.25.35.72,1.18-.07,2.03.36-.51-1.06.48.38.19-.48.13.24.29.35.27.62.23-.38.7.18.6-.62.16.23.11.4.22.53,0-.07,0-.27.11-.14.11.13.06.24.05.37.35-.24-.04-1-.42-1.7.34.25.4.15.21-.36.19.19.43.36.3.56.12-.02.86-.12.46-.64.13.1.16-.07.14-.14.23-.14.28-.12.43-.34l-.12-.03c-.46-.63.03-.26.1-.48l.05.06c.73.03-.06-.31.72-.26l-.39-.28c-.78-.66.73.07.57-.4l-.28-.08c-.22-.3,1.4.44,1.6.34.1.01.09.12.12.2.75-.08-.51-.37-.48-.71.32.11.72.49.88.32.31,0-.69-1.05,0-1.06-.27-.04-.53-.09-.66-.29,0-.21,1.13-.23.42-.68.08,0,.14,0,.21.02-.16-.23-.2-.62-.62-.81.82.11.68-.21.5-.47-.19-.27-.4-.49.36-.42,0-.18-.04-.36-.05-.53l.16.02c.12-.34-.27-.46-.64-.55.1-.08.25-.03.33-.03.28-.5.19-.59-.61-.84l.48-.12c-.29-.03.62-.87-.09-1.18.05-.01.15-.03.23-.02-.37-.16-.14-.58-.09-.92.06-.35-.03-.6-.87-.26-.19-.03-.36-.06-.55-.08.07.43-.71.33-.89.62-.16-.06.27-.6.45-.49l-.06.07c.85-.42.02-.61.55-.95-.51-.67-.71-1.66-1.36-2.25l-.39.62-.19-.21c.05-.18.27-.52.42-.36.17-.4-.49.05-.59.19-.15-.47.63-.6.55-.68l-.18-.06-.02.09c-.29.16-.48.41-.66.25-.05-.2.18-.42.14-.48.03-.04.02-.08-.07-.07l-.3-.25-.16.58c-.28.16-.28-.18-.45.46.28-1.02-1.03-.89-1.05-1.19-.34.32-.53.27-.78.16.04.13-.09.77-.27.64.36-1.29-.27-.65-.32-1.63.08.65-.7.08-.52,1.01-.17-.13.04-.5-.08-.83-.49.49-1.04-.38-1.65-.14.01.18.13.44.04.71-.13-.29-.26-.56-.41-.83-.11.1.05,1.02-.26.45.05.14.13.36.07.42-.61-.32-1.16,0-1.65.27-.51.29-.98.48-1.92.12.32.21.24.29.14.37.11.03.23.37.37.56-.25-.11-.5-.2-.76-.29.31.58-.4.35-.04.88l.04-.18c.33.7,1.21,1.15,1.74,1.96-.19-.39.09-.19.32-.03.24.16.44.31.24-.28.14.14.12.29.25.47-.16-.38-.13-.5.08-.4l.03.1c.29-.26.62.05,1.05.18l-.17-.44c.1.03.17.17.24.27-.11-.72-.25.03-.4-.75.4.87.65-.17.96.89.12-.02-.14-.53-.01-.55l.09.29-.03-.38c.1.05.2.41.23.66-.02-.03-.04.08-.06.1.15.33.26-.16.31-.05l-.13-.17c.33-.31.72.07,1.1-.5v-.23c.32-.37.19.26.5.13l-.02.05c.1-.21.21-.31.28-.26-.13.24.01.53-.15.79.37-.36.21-.31.65-1.04l-.07.37c.17-.3.24-.46.43-.5-.24.26-.11.56-.39.91-.05.85.76-.57.36.56.6-.84.02-.63.18-.79.07-.34.45-.63.51-.48.1.08-.46,1.24-.26,1.34-.02-.02-.06.05-.08.03-.07.26.34-.21.19.21.41-.47.09.11.58-.52h-.3c.22-.09.9-.75.82-.23-.12.11-.3.23-.41.29-.1.22.2-.04.1.19-.52.6-.33-.06-.8.36-.15.3.54-.31-.03.33.75-.79.08.23.74-.28l-.33.34c.07-.04.26-.17.28-.13l-.48.39c.45-.3-.16.48.11.35-.16-.16.38-.44.55-.76.69-.18-.76.98-.41,1.06-.08.01.12-.31.33-.4-.03.11-.12.29-.3.47.2.1.37-.32.66-.43-.42.41.25-.05.47-.06l-.4.27c-.11.39.88-.49.71-.07l-.62.26.21.02-.48.26c.42-.1.35,0,.27.18.29-.18.78-.39.86-.28-.22.2-.43.16-.3.28-.29.09-.64.22-.28-.04-.15.06-.29.11-.43.17-.26.21.01.2.04.25,0-.03.02-.06.08-.1.23-.03.47-.04.71-.05-.16.1-.3.12-.44.15.06.02.28-.03.34.03-.37.12-.76.25-.95.24.15,0,.31.02.47.03-.15.07-.42.23-.56.25-.2.14.8.03.53.25.08,0,.15,0,.21.01-.06.16-.53.3.02.41-.23.04-.47.08-.7.11.16.11.88-.16,1.15.05.23.16-.6.06-.8.11.35.06,1.08.26.48.35-.13-.06-.02-.09-.07-.13ZM102.79,96.44c-.07-.08-.33-.27-.06-.17.48.27.23.19.06.17ZM101.58,99.32c-.05-.16.03-.11.17.02-.02.05-.06.06-.17-.02ZM90.13,98.71s.01,0,.02,0c-.11.23-.07.15-.02,0ZM90.2,98.3c-.08-.01-.14,0-.2.04.13-.01.16.06.16.16.11-.06.18-.13.04-.2ZM103.24,87.17l-.02.14c-.18.05-.09-.04.02-.14Z"/>
    <path class="cls-1" d="M101.54,98.58c.05.06.1.14.15.21-.03-.08-.08-.16-.15-.21Z"/>
    <polygon class="cls-1" points="102.64 93.84 102.65 93.84 102.56 93.85 102.64 93.84"/>
    <path class="cls-1" d="M95.57,98.46c0,.08-.02.17-.05.25.05-.11.08-.2.05-.25Z"/>
    <path class="cls-1" d="M89.12,96.42l.12.26c-.02-.12.09-.17.16-.23-.11,0-.28.05-.28-.03Z"/>
    <path class="cls-1" d="M92.39,95.24s.01-.04-.04-.09l-.21-.07c-.02.1.12.22.25.16Z"/>
    <path class="cls-1" d="M90.73,96.27c.4,0,.28-.12.22-.26,0,0,0,.02,0,.02-.56-.1-.4.08-.22.23Z"/>
    <path class="cls-1" d="M90.94,95.98s-.02-.09,0-.12c-.22-.05-.05.05,0,.12Z"/>
    <path class="cls-1" d="M89.82,97.92c.08-.1-.52.06-.37-.02-.52.03.73.39.37.02Z"/>
    <path class="cls-1" d="M92.07,96.25h-.5s.4.09.4.09c.03-.03.06-.06.1-.09Z"/>
    <path class="cls-1" d="M91.72,97.13l.12-.19c-.08.01-.13,0-.17-.03,0,.11-.09.25.05.23Z"/>
    <path class="cls-1" d="M91.67,96.9c0-.06-.01-.11-.1-.14,0,.03.03.1.1.14Z"/>
    <polygon class="cls-1" points="92.21 96.49 92.1 96.53 92.06 96.65 92.21 96.49"/>
    <path class="cls-1" d="M92.4,98.97c.08.03.17.05.25.07.15-.09.2-.19.1-.2-.13.04-.23.01-.35.13Z"/>
    <path class="cls-1" d="M93.32,97.85c-.08.08-.18.13-.32.23l.57-.28-.25.05Z"/>
    <path class="cls-1" d="M93.67,98.11c.15-.08.52-.15.4-.24-.15.09-.35.06-.4.24Z"/>
    <polygon class="cls-1" points="95.05 100.1 95.01 100.09 94.59 101.02 95.05 100.1"/>
    <path class="cls-1" d="M97.58,98.3c-.11-.26-.11.62-.21.3-.07.23.08.26.01.46.12-.24.16-.09.19-.76Z"/>
    <path class="cls-1" d="M97.38,99.06s-.04.09-.07.15c.04-.06.06-.11.07-.15Z"/>
    <polygon class="cls-1" points="92.75 87.33 92.47 87.28 92.78 87.48 92.75 87.33"/>
    <path class="cls-1" d="M92.95,88.14l-.45-.47.29.52s.04-.14.15-.04Z"/>
    <path class="cls-1" d="M101.53,96.02l.13.08c.15.07.17.07.21.05l-.35-.13Z"/>
    <polygon class="cls-1" points="102.35 95.29 102.33 95.3 102.91 95.41 102.35 95.29"/>
    <path class="cls-1" d="M101.7,94.47s.1.06.08.08c-.1-.05.66-.09-.08-.08Z"/>
  </g>
  <g>
    <path class="cls-1" d="M108,78.14c-.12.12.26.3.31.36.07-.28-.41-.41-.31-.36Z"/>
    <polygon class="cls-1" points="108.56 75.42 108.68 75.55 108.5 75.01 108.56 75.42"/>
    <path class="cls-1" d="M109.71,73.3c-.73-.12-.29.83-.73,1.09l-.18-.02.41.45c.18-.51.17-1.27.5-1.52Z"/>
    <path class="cls-1" d="M111.67,72.8c-.29-.04-.09-.36-.21.24.04-.01.06-.01.09-.02.02-.05.05-.12.13-.22Z"/>
    <path class="cls-1" d="M111.54,73.02c-.1.25.29-.05,0,0h0Z"/>
    <path class="cls-1" d="M111.91,71.86l.09.42c.18,0,.33-.27.4-.11.02-.38-.16-.38-.49-.3Z"/>
    <path class="cls-1" d="M111.56,71.35l.03.2c.08,0,.12-.03-.03-.2Z"/>
    <path class="cls-1" d="M111.64,71.99l-.06-.44c-.12,0-.34-.09,0,.19-.18-.11-.02.04.05.25Z"/>
    <path class="cls-1" d="M111.45,72.14c-.23.11-.42.29-.5-.12-.19.62.3.75.5.12Z"/>
    <path class="cls-1" d="M109.1,72.86l-.29.13.12.3c-.06-.15.38-.34.17-.43Z"/>
    <path class="cls-1" d="M113.08,70.02c-.13-.08-.42-.04-.61-.09l.07.3c.15-.08.33-.28.54-.21Z"/>
    <path class="cls-1" d="M112.47,69.93l-.11-.45c-.14.3-.05.41.11.45Z"/>
    <polygon class="cls-1" points="110.85 70.98 111.11 71.76 110.89 70.87 110.85 70.98"/>
    <polygon class="cls-1" points="113.6 68.65 113.85 68.97 113.49 68.43 113.6 68.65"/>
    <path class="cls-1" d="M113.86,67.71c.23.25.53-.06.65.16.03-.27-.14-.57-.3-.83.06.24-.04.46-.36.66Z"/>
    <path class="cls-1" d="M114,66.62c.04.12.12.27.21.42-.03-.13-.09-.27-.21-.42Z"/>
    <path class="cls-1" d="M112.65,68.9c.1,0,.34.03.51-.13h-.45s-.04.08-.06.13Z"/>
    <path class="cls-1" d="M112.69,68.77h.01c.07-.15.11-.25.13-.29-.02.04-.06.13-.15.29Z"/>
    <path class="cls-1" d="M112.63,68.94v-.03s-.05,0,0,.03Z"/>
    <path class="cls-1" d="M111.59,70.23c-.14-.29-.2-.8-.71-.54.21.25.5.1.71.54Z"/>
    <path class="cls-1" d="M112.07,68.93l-.23.34c.11.03.29.02.36.17l-.13-.51Z"/>
    <polygon class="cls-1" points="112.01 68.7 112.07 68.93 112.15 68.8 112.01 68.7"/>
    <path class="cls-1" d="M113.42,67.16c-.13-.22-.09-.41-.05-.62-.15.19-.26.41-.33.62.12.07.32.24.38,0Z"/>
    <path class="cls-1" d="M113.04,67.94v-.04c-.05.01-.07.02,0,.04Z"/>
    <path class="cls-1" d="M113.94,64.53s-.06,0-.08.01l.07.03v-.04Z"/>
    <path class="cls-1" d="M112.96,67.18c-.13.14-.06.27.04.4,0-.14.01-.27.05-.41-.05-.03-.09-.05-.09.01Z"/>
    <path class="cls-1" d="M113.99,66c-.11.06-.21.14-.31.22.16-.04.41-.16.31-.22Z"/>
    <path class="cls-1" d="M113.17,67.88s0,.02,0,.03c.11-.02.06-.03,0-.03Z"/>
    <path class="cls-1" d="M113.17,67.88c-.03-.1-.1-.2-.17-.3,0,.11,0,.22.04.32.04-.01.09-.02.13-.02Z"/>
    <path class="cls-1" d="M111.44,63.26c.38.12.63.63.12.88.2.43,1.51.54,2.3.4-.16-.05-.32-.1-.45-.53-.24.08-.7.71-.97.3-.07-.54.24-.37.5-.56-.53.08-.54-.79-1.27-.85l.14.48c-.11-.02-.25-.21-.38-.12Z"/>
    <path class="cls-1" d="M113.64,65.26v.17c.12-.16.3-.25.66-.4-.12-.31-.25-.41-.37-.46l-.25.76-.04-.07Z"/>
    <path class="cls-1" d="M113.43,66.12c-.38-.25-.44-.66-.96-.57-.11.45.25.41.35.74.12-.76.16.28.56-.18.03.17,0,.3-.01.43.09-.12.19-.23.31-.32h-.03s0,.01,0,.01h0c-.06.01-.1.01-.05-.01,0,0,0-.02,0-.02-.06-.02-.1-.05-.15-.08.15-.19.12,0,.15.08l.06.03h0s0-.8,0-.8c-.11.14-.15.34-.21.7Z"/>
    <path class="cls-1" d="M110.17,68.99s.07,0,.1.01c-.03-.06-.06-.09-.1-.01Z"/>
    <path class="cls-1" d="M110.52,68.8c.04.07.18.18.08.32-.17.1-.19-.08-.33-.12.07.14.15.46.47.23l-.04-.07c.24-.23.88-.4.91-.33-.39-.05-.68-.08-1.1-.03Z"/>
    <path class="cls-1" d="M111.9,67.45c0-.22,0-.44,0-.66l-.45.19.22.06c-.19.31.09.32.24.42Z"/>
    <polygon class="cls-1" points="114.17 64.51 114.59 64.7 114.06 64.18 114.17 64.51"/>
    <polygon class="cls-1" points="114.32 63.68 114.7 63.8 114.52 63.53 114.32 63.68"/>
    <path class="cls-1" d="M95.42,38.84l-.05.18c.03-.07.05-.13.05-.18Z"/>
    <path class="cls-1" d="M96.3,38.16l-.09-.17c.02.12.05.19.09.17Z"/>
    <path class="cls-1" d="M114.55,43.29c.3-.35.8-.78.37-.65l-.4.18c.12.17.1.33.04.47Z"/>
    <path class="cls-1" d="M104.8,33.67s.03.1.04.14c.1-.13.19-.25.28-.35-.1.06-.21.13-.32.21Z"/>
    <path class="cls-1" d="M104.24,35.38c-.07-.11-.13-.23-.21-.33.05.1.11.22.21.33Z"/>
    <path class="cls-1" d="M91.96,43.9l.3.37c.14-.24-.12-.24-.3-.37Z"/>
    <path class="cls-1" d="M115.38,55.2c.18-.23.26-.42.29-.58-.26.28-.65.49-.29.58Z"/>
    <path class="cls-1" d="M92.85,34.98c-.05.14-.03.24.04.31.05-.14.05-.25-.04-.31Z"/>
    <path class="cls-1" d="M115.7,53.94s-.07.08-.11.12c.06.18.11.35.08.56.2-.2.32-.45.03-.69Z"/>
    <path class="cls-1" d="M91.31,66.54s-.01.05-.03.07c.06-.02.05-.04.03-.07Z"/>
    <path class="cls-1" d="M90.32,75.09c-.06-.05-.11-.16-.17-.27,0,.06.04.15.17.27Z"/>
    <path class="cls-1" d="M115.17,60.41c0,.18.04.04,0,0h0Z"/>
    <path class="cls-1" d="M113.34,60.96s-.1-.08-.19-.1c.1.03.16.07.19.1Z"/>
    <path class="cls-1" d="M113,52.2s0,0,0-.01c-.08.05-.07.04,0,.01Z"/>
    <path class="cls-1" d="M114.94,60.65c.06-.06.12-.13.16-.2-.04.03-.09.09-.16.2Z"/>
    <path class="cls-1" d="M115.15,60.64c-.03.06-.05.1-.06.15.07.03.12.02.06-.15Z"/>
    <path class="cls-1" d="M115.19,60.16c0,.1-.04.19-.09.28.03-.03.06-.04.07-.03,0-.05,0-.13.01-.25Z"/>
    <path class="cls-1" d="M87.79,53.98s-.02.02-.04.03c.17.16.15.09.04-.03Z"/>
    <path class="cls-1" d="M109.04,40.37s.02,0,.03,0v-.03s-.03.02-.03.02Z"/>
    <path class="cls-1" d="M108.54,40.01c.58-.01.57.14.53.34l1.09-.64c-.55.09-1.09.19-1.62.3Z"/>
    <path class="cls-1" d="M93.62,40.84l.54-.02c.19.73-.14.83.47.92-1-.9.77-1.1-.15-2.05l.38.03c-.06.04-.01.1-.07.14.79.15-.44-.95.15-1.24.24-.06.48,0,.47.21l.15-.56c.12-.07.24.14.12.2.17-.18.32-.38.5-.53l.02.04c-.04-.23-.04-.63-.02-.82.27.05,0,.17.14.28l.15-.51c.33.2.24.68-.01.79,1.07.93.07-.51,1.18-.23l-.23.33c.61.54.7.17,1.26.4-.18-.18-1.29-.65-1.1-1.15.16.03.31,0,.39-.37.23.42.36.21.6.07l.26.58c.17-.29.02-.57.06-.91.33-.08.58.37.79.73.5-.08-.61-.61-.09-.95.49.09.68-.25,1.11-.74.35.15.03.39.18.55l.15-.56c.07,0,.08.16.08.24.19-.23-.11-.63.24-.87,0-.36.24-.13.5.09.26.21.52.44.74.03.11.18-.04.39,0,.64.58-.52.48-.38,1.05-1.04.13.16.25.32.37.48-.23-.52.24-1.03.77-1.39-.07-.25-.15-.48-.21-.59.25-.06.52-.13.79-.16.06.13-.08.31-.26.54.06-.04.12-.08.16-.11.17.3-.07.61-.32.91-.04-.14-.08-.29-.12-.44-.26.34-.47.73-.52,1.11.05-.06.13-.11.22-.13-.06.09-.1.18-.1.25,0,.07.09-.06.22-.19l-.07.72.11-.26c.18.2.33.42.47.64.67-.48,1.66-1.19,2.64-.78-.51.25-.58.63-.98,1.1.23-.66-.67-.16-.92-.45.14.17-.05.4-.14.46.29-.07.59-.09.91-.11-.32.39-.11.39-.11.67.55-.86.86-.14,1.29-.1-.24.24-.54.4-.73.1-.28.78,1.24-.4,1.04.36-.06-.07-.06-.15-.22-.07.38-.01.53.59.2.65l-.06-.07c.29.55.98,1.68,1.8,1.44-.1.05-.97.35-1.14.39,1.03-.06,2.08-.03,3.13.06-.72.16-2.2,1.16-2.78.79-.04.19-.08.41.27.64.07-.14.9-.62,1.02-.5-.63.68-.31.43-.81,1.14.1-.21,1.25-.38,1.3-.09-.18,0-1.08.35-1.22.29.43.1.84.21,1.27.34-.24-.11-.93.23-1.19.45.19-.12.13.56.27.71l.19-.34c0,.78,1.7.39,1.82,1.18-.25-.05-1.45.07-1.5.48.61.05,2.89.25,3.43.92l-.3.19.46.49c-.92-.23-2.85-.86-3.65-1.2-.2.33-.36.15-.26.57-.28.2-.49-.15-.54-.26l-.04,1c.66-.15.79.64,1.33.52l-.86-.96c.65-.17,1.98.31,1.98,1.06-.24.22-1.21.03-1.43.08.25.06.53.61.37.7l-.39-.25c-.21.42.95.54.37,1.08-.03.17-.81.57-.41.56.74-.33,3.09-.62,3.69-.48-.04.07-.64.99-1.02,1.21-.59.32-1.45-.32-1.96-.05.18,0,.42.13.49.19-.15.18-.57-.03-.47.34.68.02-.02.77.59.15.21.36-.12.4-.06.84.44-.16,1.52.35,1.71.74-.17-.02-.4.07-.5.11-.07.79-.35,1.21-.39,1.93-.17.06-.38.4-.67.24.12.11.34.21.35.44-.61.4-.07-.5-.79-.2.39.04.52.59.75.93.62-.06.15-.73-.08-1.05.84.03,1.7.63,2.05,1.45.17.64-.57.23-.45.35-.26,1.14,1.37,1.14.67,2.06-.58.32-1.06-.11-1.46-.07-.15-.52.41-.73.43-1.07l-.29.39c-.16-.18-.26-.52-.09-.69-.26.14-.33.61-.4,1.16-.08.55-.2,1.16-.48,1.56.16.18.3.48.53.39l-.03-.29c.47-.19.51.62.77.3.25.43.65.94.29,1.43l-.62-.02c.18.02.43-.28.27-.46.22.28-.98.65-.24,1.05l.49-.29c.22.44.77,1.06.47,1.5.65-.08-.04-.12.72-.31-.92.11.29-1.23-.72-.94.88-.19.46-.54,1.25-.88-.2-.02-.41.1-.24-.3-.06-.03-.12-.09-.16-.12,0-.01.01-.02.02-.03l-.03.02s-.03-.03,0,0c-.1.08-.22.14-.34.16-.43-.28-.32-.92-.52-1.17.13-.22.21.13.45.04l-.31-.38c.45.03.83-.54,1.01.07l.1-.51c.3-.27.44-.69.28-.97.12-.24-.43-.67-.1-.42l-.2-.84h.11c.14-.81-.65-1.69.21-2.58-.09-.28-.25-.56-.12-1.01l.39-.09c-.14-.35.39-1.06-.02-1.21,1.05-.41.14-1.73.3-2.35h-.51c.01-.41-.19-.81-.45-1.31l-.44.08c-.42-.4.22-1.18.04-1.88.18.02.16.21.08.35.86-1-.99-1.66-.43-2.54-.2-.16-.17-.3-.09-.46,0,.02.02.03.03.04,0-.02,0-.05-.01-.08.06-.1.13-.2.18-.31-.09.1-.16.2-.19.27-.04-.14-.14-.35-.3-.54l.45-.2s-.01-.03-.02-.05c.13-.25-.26-.12-.59.07-.1-.09-.21-.17-.34-.22.72-.35-.38-.5.36-.94-.42-.04-.6-1.02-1.45-.88.1-.04.13-.12.18,0,.02-.26.04-.53-.26-.67l.54-.3c-.32-.09-.64-.16-.96-.23.23-.44.38-.66.94-.51-.98-.49-.5-.53-1.44-.85l.37-.14c-.12-.22-.77-.33-.55-.61.21-.42-.12-1.06-.59-1.75-.47-.7-1.12-1.42-1.52-2.2-.26.55-.31.33-.38.05-.08-.27-.21-.6-.49-.24.09-.28-.02-.55.34-.58-.84-.25-.93-1.08-1.8-.63.02-.29.33-.3.32-.48-.09.02-.35.12-.38-.07-.02-.19.21-.17.39-.22-.9-.32-1.24.5-1.53,1.24-.27-.48-.51-.48-.89-.02-.07-.28-.27-.6.25-.59-.25-.14-1.68-.62-1.73.03-.08-.17-.38-.05-.45.02-.6-.04-.66-.08-1.24.03l.17.09c-.15.8-.45.21-.9.39v-.08c-1.15-.34-.38.33-1.55-.03l.18.45c.21,1.01-1.05-.33-1.49.28l.3.18c-.15.43-1.38-.95-1.78-.9-.11-.05.05-.18.12-.29-1.11-.14.16.62-.38,1.05-.27-.24-.26-.84-.69-.67-.35-.1-.6,1.58-1.43,1.4.26.14.51.28.37.62-.32.32-1.63-.06-1.43.87-.09-.02-.15-.06-.19-.1-.15.38-.65,1.01-.48,1.49-.68-.49-.96.03-1.13.56-.17.52-.29,1.01-.87.51-.23.28-.41.59-.61.89l-.11-.12c-.51.49-.36.9-.18,1.31-.17.07-.23-.1-.29-.16-.8.66-.83.8-.57,1.89l-.47-.17c.13.31-1.38.91-1.27,2.06-.05-.03-.13-.09-.16-.19.06.63-.52,1.09-.9,1.57-.37.48-.57.95.23,1.41.06.27.15.54.23.81.38-.83.72.35,1.1.08.01.35-.76.72-.74.28l.11-.04c-.87-.41-.62,1-1.22.83-.38,1.77-1.11,3.47-1.21,5.23l.74-.17-.07.59c-.18.15-.58.2-.53-.23-.43.22.33.72.49.73-.29.83-.86-.32-.87-.07l.06.35.08-.08c.3.28.62.3.59.81-.14.32-.45.18-.47.31-.05,0-.07.05,0,.2l-.02.76.56-.33c.3.31.01.69.64.31-1,.57-.08,2.76-.33,3.09.47.39.57.82.62,1.37.09-.16.71-.36.72.11-1.36.1-.38.96-1.23,1.57.53-.48.49,1.29,1.23.54,0,.41-.48.15-.7.52.74.78.26,2.12.81,3.19.17-.04.36-.31.69-.16l-.62.88c.16.19,1.03-.15.6.46.12-.11.3-.27.4-.14.01,2.48,2.39,3.99,1.99,6.75.16-.43.29-.26.41-.05,0-.17.39-.19.59-.33l-.15,1.16c.67-.15.52.89,1.13.68l-.24-.21c.85,0,1.2-1.27,2.08-1.66-.96,0,.59-1.59-.81-1.69.11-.23.34-.02.5-.19-.45.02-.62-.14-.63-.59h.11c-.58-.99-.42-1.6-.67-2.86l-.4.27c-.05-.28.06-.39.12-.55-.79,0,.27.72-.57.77.73-.7-.73-1.8.21-2.42-.14-.39-.47.31-.61-.08l.24-.21-.39.04c-.04-.28.26-.53.5-.63,0,.07.13.15.18.21.2-.44-.45-.89-.37-1.04l-.05.43c-.63-.98-.67-2.39-1.52-3.28l-.19.14c-.62-.71.08-.71-.32-1.55l.06.02c-.26-.13-.42-.35-.44-.6.3.17.42-.52.76-.28-.6-.79-.43-.36-1.35-.81l.35-.2c-.36-.15-.54-.14-.7-.59.37.33.52-.37,1-.01.66-1.03-.97-1.32.15-1.86-1.07-.35-.48.87-.73.65-.31.24-.8-.29-.73-.61,0-.32,1.28-.62,1.21-1.37,0,.08.08.08.08.15.24-.29-.37-.54.05-.89-.62-.19.03-.45-.76-.51l.19.7c-.21-.39-1.16-.78-.67-1.44.16.06.36.26.47.4.24-.18-.14-.37.11-.56.79.09.13.85.75,1.27.33-.2-.58-.79.28-.57-1.08-.32.17-.71-.64-1.25l.47.07c-.08-.08-.28-.26-.25-.41l.59.31c-.48-.44.53-.72.29-1.12-.06.79-.59.11-.96.42-.53-1.09,1.29-.43,1.23-1.53.04.15-.37.5-.55.24.13-.19.35-.44.62-.52.06-.73-.5.02-.72-.34.62-.13-.15-.4-.26-.77l.47.1c.48-.75-.94-.46-.37-1.12l.56.48-.06-.43.51.22c-.27-.52-.15-.63.13-.98-.36,0-.82-.32-.71-.69.36-.15.39.28.5-.24.24.22.56.46.07.53.14.07.25.21.39.28.4-.15.29-.61.34-.79-.04.06-.09.13-.17.15-.14-.32-.24-.63-.35-.95.21-.04.31.1.41.24,0-.16-.15-.34-.11-.57.34.21.72.35.77.71l-.13-.82c.17.02.58-.13.67,0,.38-.23-.29-1.2.25-1.51-.05-.06-.09-.14-.08-.27.31-.4.94-.49.81-1.26l.76.13c.12-.46-.98-.14-.76-.91.15-.56.6.2.87.17-.13-.41-.41-1.26.36-1.24,0,.21-.17.23-.23.38ZM97.58,37.07c-.04.14-.06.51-.28.31-.18-.53.04-.35.28-.31ZM105.35,34.81c-.13.12-.21,0-.29-.21.11-.01.22.04.29.21ZM115.07,58.43l-.02-.02c.22-.26.13-.17.02.02ZM114.78,59c.06.07.12.07.2.06-.11-.06-.1-.19-.05-.34-.13.03-.23.09-.15.28ZM84.56,55.83l.12-.12c.15.26.02.19-.12.12Z"/>
    <path class="cls-1" d="M104.3,35.18c0-.09,0-.18.01-.27-.06.07-.07.16-.01.27Z"/>
    <path class="cls-1" d="M91.91,43.84s0,0-.01.01c.02.02.04.04.07.06l-.05-.07Z"/>
    <path class="cls-1" d="M111.01,50.07c.06-.12.15-.18.24-.23-.12,0-.21.06-.24.23Z"/>
    <path class="cls-1" d="M115.05,62.27l-.05-.4c-.01.19-.13.23-.22.31.11.01.29-.03.27.09Z"/>
    <path class="cls-1" d="M111.39,64.74c.04.07-.03.11.02.18l.22.05c.05-.22-.09-.43-.24-.22Z"/>
    <path class="cls-1" d="M113.41,62.29c-.4-.06-.31.2-.29.47,0-.02,0-.03,0-.05.54.2.41-.12.28-.43Z"/>
    <path class="cls-1" d="M113.12,62.83c0,.08,0,.16-.05.24.21.08.07-.08.05-.24Z"/>
    <path class="cls-1" d="M114.93,59.79c-.12.11.5.16.33.2.49.22-.49-.94-.33-.2Z"/>
    <polygon class="cls-1" points="112.06 62.21 112.57 62.23 112.2 62 112.06 62.21"/>
    <path class="cls-1" d="M112.81,60.3c-.06.13-.13.25-.21.38.08,0,.12.07.15.14.07-.24.21-.5.06-.52Z"/>
    <path class="cls-1" d="M112.75,60.82c-.04.13-.05.25.02.34,0-.07.02-.23-.02-.34Z"/>
    <polygon class="cls-1" points="112.02 61.64 112.15 61.54 112.24 61.27 112.02 61.64"/>
    <path class="cls-1" d="M113.43,55.93l-.12-.46c-.17-.06-.28.06-.22.23.11.11.17.29.34.23Z"/>
    <path class="cls-1" d="M111.94,57.14c.12-.11.23-.1.4-.15l-.62-.07.22.23Z"/>
    <path class="cls-1" d="M111.92,55.87c-.17-.06-.46-.66-.45-.11.17.05.28.5.45.11Z"/>
    <polygon class="cls-1" points="112.67 49.27 112.69 49.38 113.7 49.29 112.67 49.27"/>
    <path class="cls-1" d="M109.4,44.02c-.14.53.64-.02.43.48.26.07.17-.41.39-.34-.31-.24-.2-.43-.83-.14Z"/>
    <path class="cls-1" d="M110.23,44.16s.11.08.18.12c-.08-.07-.14-.1-.18-.12Z"/>
    <polygon class="cls-1" points="90.42 76.47 90.39 76.88 90.59 76.52 90.42 76.47"/>
    <path class="cls-1" d="M91.4,76.71l-.53.38.61-.1c-.06-.06-.18-.16-.08-.28Z"/>
    <path class="cls-1" d="M98.88,37.84l-.05-.15c-.11-.13-.17-.12-.3-.08.12.07.23.15.35.23Z"/>
    <polygon class="cls-1" points="95.56 39.55 95.62 39.51 95.13 39.16 95.56 39.55"/>
    <path class="cls-1" d="M94,42.41c.1-.09.08-.28.18-.37-.08.28-.79-.03-.18.37Z"/>
  </g>
  <g>
    <path class="cls-1" d="M120.84,104.2c-.15-.04-.09.38-.11.46.24-.09.11-.57.11-.46Z"/>
    <polygon class="cls-1" points="123.23 103.22 123.19 103.4 123.54 102.97 123.23 103.22"/>
    <path class="cls-1" d="M125.47,103.17c-.23-.71-.81.15-1.21-.1l-.07-.16-.17.58c.48-.1,1.1-.5,1.45-.32Z"/>
    <path class="cls-1" d="M126.73,104.67c-.09-.27.25-.25-.28-.07.03.03.04.05.05.07.05,0,.12,0,.23,0Z"/>
    <path class="cls-1" d="M126.5,104.67c-.24.03.17.23,0,0h0Z"/>
    <path class="cls-1" d="M127.59,104.45l-.3.26c.07.16.35.18.26.31.32-.15.24-.31.05-.57Z"/>
    <path class="cls-1" d="M127.86,103.92l-.16.11c.03.07.08.09.16-.11Z"/>
    <path class="cls-1" d="M127.37,104.27l.33-.24c-.05-.11-.07-.34-.15.09.02-.21-.04,0-.18.15Z"/>
    <path class="cls-1" d="M127.17,104.17c-.18-.15-.41-.23-.11-.5-.59.13-.48.62.11.5Z"/>
    <path class="cls-1" d="M125.56,102.43l-.24-.2-.19.25c.1-.12.45.18.43-.05Z"/>
    <path class="cls-1" d="M129.57,104.72c.01-.15-.13-.4-.17-.59l-.22.19c.12.1.36.18.39.4Z"/>
    <path class="cls-1" d="M129.4,104.13l.33-.28c-.31-.01-.36.12-.33.28Z"/>
    <polygon class="cls-1" points="127.88 103.13 127.34 103.7 127.99 103.11 127.88 103.13"/>
    <polygon class="cls-1" points="130.89 104.65 130.72 105.01 131.03 104.46 130.89 104.65"/>
    <path class="cls-1" d="M131.76,104.52c-.12.3.24.48.1.67.24-.07.42-.33.59-.57-.18.14-.4.12-.68-.09Z"/>
    <path class="cls-1" d="M132.73,104.26c-.09.08-.18.21-.28.35.1-.08.19-.18.28-.35Z"/>
    <path class="cls-1" d="M130.32,103.88c.03.09.1.33.3.41l-.16-.42s-.09,0-.14,0Z"/>
    <path class="cls-1" d="M130.45,103.87h0c.15.01.25.02.29.02-.04,0-.13,0-.3-.02Z"/>
    <path class="cls-1" d="M130.29,103.88h.03s-.02-.05-.03,0Z"/>
    <path class="cls-1" d="M128.8,103.46c.19-.25.59-.53.17-.87-.13.3.12.49-.17.87Z"/>
    <path class="cls-1" d="M130.08,103.36l-.37-.08c.01.11.09.27,0,.4l.37-.32Z"/>
    <polygon class="cls-1" points="130.25 103.21 130.08 103.36 130.22 103.39 130.25 103.21"/>
    <path class="cls-1" d="M132.07,103.92c.14-.2.32-.23.51-.27-.22-.06-.44-.09-.64-.08-.02.14-.09.38.13.35Z"/>
    <path class="cls-1" d="M131.28,103.85l.03-.03s-.04-.04-.03.03Z"/>
    <path class="cls-1" d="M134.49,103.47s-.03-.05-.04-.07v.07s.04,0,.04,0Z"/>
    <path class="cls-1" d="M131.89,103.49c-.16-.07-.25.04-.33.18.11-.05.24-.09.37-.1,0-.06,0-.1-.04-.08Z"/>
    <path class="cls-1" d="M133.25,104.02c-.09-.08-.19-.15-.29-.21.09.13.27.32.29.21Z"/>
    <path class="cls-1" d="M131.37,103.94s-.01.02-.02.02c.06.09.05.04.02-.02Z"/>
    <path class="cls-1" d="M131.37,103.94c.08-.07.13-.18.19-.28-.09.04-.18.09-.25.16.02.03.04.07.06.11Z"/>
    <path class="cls-1" d="M134.8,100.68c.01.4-.36.8-.75.41-.32.33.03,1.61.4,2.3,0-.17-.02-.33.32-.6-.15-.2-.84-.42-.58-.81.45-.25.4.1.65.29-.24-.47.53-.78.35-1.49l-.39.3c-.02-.11.11-.31-.01-.4Z"/>
    <path class="cls-1" d="M133.76,103.42l-.14.06c.18.05.31.2.56.49.23-.22.27-.37.27-.5h-.74s.05-.05.05-.05Z"/>
    <path class="cls-1" d="M132.95,103.54c.08-.44.42-.65.16-1.1-.43.07-.27.39-.52.59.69-.17-.18.26.35.46-.13.08-.25.12-.37.15.13.04.26.09.38.16l-.02-.03h0s0,0,0,0c-.03-.05-.05-.08-.01-.05,0,0,.01-.01.01-.01,0-.06,0-.11.02-.16.21.07.04.11-.02.16v.06s0,0,0,0l.68-.3c-.15-.05-.34-.02-.67.06Z"/>
    <path class="cls-1" d="M129.28,101.65s.02.07.03.1c.04-.06.06-.09-.03-.1Z"/>
    <path class="cls-1" d="M129.58,101.89c-.05.06-.08.24-.25.2-.15-.12-.01-.21-.03-.35-.09.12-.33.33,0,.52l.05-.06c.29.13.69.65.64.71-.11-.38-.2-.65-.41-1.02Z"/>
    <path class="cls-1" d="M131.27,102.61l.57-.25-.32-.35.03.22c-.34-.06-.25.21-.27.38Z"/>
    <polygon class="cls-1" points="134.58 103.68 134.55 104.14 134.82 103.47 134.58 103.68"/>
    <polygon class="cls-1" points="135.34 103.55 135.35 103.95 135.53 103.69 135.34 103.55"/>
    <path class="cls-1" d="M153.19,81.14h-.18c.08.02.13.01.18,0Z"/>
    <path class="cls-1" d="M154.01,81.78l.14-.14c-.11.05-.17.1-.14.14Z"/>
    <path class="cls-1" d="M154.02,100.32c.37.28.87.72.7.3l-.22-.38c-.17.14-.33.13-.48.08Z"/>
    <path class="cls-1" d="M160.05,88.54s-.08.05-.13.08c.15.06.29.11.42.16-.09-.07-.19-.15-.3-.23Z"/>
    <path class="cls-1" d="M158.25,88.47l.27-.3c-.09.07-.18.17-.27.3Z"/>
    <path class="cls-1" d="M147.69,79.19l-.28.39c.26.06.2-.18.28-.39Z"/>
    <path class="cls-1" d="M143.1,102.39c.24.13.42.18.58.18-.3-.21-.57-.54-.58-.18Z"/>
    <path class="cls-1" d="M156.24,77.65c-.14,0-.24.04-.29.12.14,0,.25-.02.29-.12Z"/>
    <path class="cls-1" d="M144.3,102.46s-.09-.05-.13-.08c-.15.1-.29.18-.49.19.22.15.46.23.62-.1Z"/>
    <path class="cls-1" d="M126.23,82.79s-.05,0-.07-.02c.03.05.05.04.07.02Z"/>
    <path class="cls-1" d="M117.95,83.31c.04-.07.13-.14.22-.22-.06.01-.13.07-.22.22Z"/>
    <path class="cls-1" d="M138.43,103.39c-.16.05-.02.05,0,0h0Z"/>
    <path class="cls-1" d="M137.44,101.78c.03-.05.05-.12.04-.22,0,.11-.02.17-.04.22Z"/>
    <path class="cls-1" d="M145.43,99.53s0,0,.01,0c-.06-.08-.05-.06-.01,0Z"/>
    <path class="cls-1" d="M138.16,103.23c.07.05.14.08.22.1-.04-.03-.11-.06-.22-.1Z"/>
    <path class="cls-1" d="M138.22,103.43c-.06,0-.1-.02-.15-.02-.01.07.01.12.15.02Z"/>
    <path class="cls-1" d="M138.65,103.34c-.09.02-.18,0-.27-.01.04.03.05.05.04.06.05-.01.11-.03.22-.05Z"/>
    <path class="cls-1" d="M137.38,77.37s-.03-.02-.04-.03c-.12.21-.06.16.04.03Z"/>
    <path class="cls-1" d="M155.76,94.54s0,.02,0,.03h.02s-.03-.03-.03-.03Z"/>
    <path class="cls-1" d="M155.87,94.03c.23.5.1.53-.08.53.3.3.6.58.91.87-.26-.48-.54-.95-.83-1.4Z"/>
    <path class="cls-1" d="M150.91,79.99l.14.5c-.64.39-.81.09-.76.71.63-1.22,1.19.44,1.89-.71l.05.36s-.1.02-.15-.02c.04.78.79-.68,1.19-.19.11.2.11.44-.09.5l.56-.02c.09.1-.08.27-.16.17l.6.33-.03.03c.21-.11.59-.21.77-.25,0,.26-.16.05-.24.21h.51c-.12.37-.59.42-.75.21-.64,1.24.48-.06.46,1.03l-.36-.11c-.39.7,0,.67-.14,1.25.16-.22.39-1.36.89-1.32,0,.16.06.29.41.27-.36.32-.13.39.04.57l-.51.39c.3.09.55-.13.88-.18.13.29-.24.63-.55.92.18.43.47-.71.89-.32,0,.48.38.57.92.83-.08.34-.38.12-.5.29.19,0,.38,0,.57,0,.01.06-.14.11-.22.13.26.12.59-.24.88.03.34-.08.19.18.01.48-.17.29-.31.58.12.7-.16.15-.39.04-.63.13.63.44.49.38,1.25.77-.12.16-.23.32-.36.47.45-.36,1.05-.02,1.54.36.22-.14.42-.26.51-.34.13.21.26.43.38.66-.11.08-.32.01-.59-.09.05.04.11.08.15.12-.24.24-.61.11-.96-.04.12-.08.25-.15.38-.23-.4-.14-.83-.25-1.21-.2.08.03.14.1.18.18-.11-.03-.2-.05-.27-.03-.07.02.08.07.25.16l-.71.14.28.03-.46.68c.67.51,1.69,1.16,1.72,2.16-.44-.36-.81-.26-1.41-.44.71-.06-.13-.68.07-1.04-.1.2-.39.11-.48.04.15.26.31.53.44.82-.49-.14-.41.06-.66.17.5.07.62.24.65.46,0,.21-.09.44,0,.65-.32-.11-.61-.31-.41-.61-.83.08.92.93.14,1.05.03-.09.1-.11-.04-.21.18.32-.27.69-.47.42l.04-.08c-.36.46-.98,1.36-.49,2.04-.08-.08-.67-.78-.78-.92.48.91.8,1.86,1,2.93-.37-.64-1.65-1.84-1.56-2.45-.16,0-.34,0-.43.36.13.05.79.74.71.88-.76-.48-.47-.21-1.19-.6.2.07.62,1.15.37,1.24-.04-.17-.53-1-.51-1.14.01.42,0,.84-.05,1.27.06-.25-.37-.88-.61-1.12.14.18-.46.17-.57.32l.32.16c-.67.07-.13,1.73-.88,1.89.03-.25-.19-1.43-.57-1.47.01.59-.04,2.88-.63,3.46l-.2-.29-.43.48c.14-.92.63-2.89.88-3.69-.32-.19-.17-.36-.55-.23-.21-.27.1-.51.21-.55l-.95.02c.19.65-.58.82-.43,1.36.3-.3.6-.6.88-.91.2.64-.17,2-.89,2.03-.23-.23-.12-1.2-.18-1.41-.04.24-.56.57-.66.42l.22-.41c-.43-.17-.44,1-1.03.47-.17-.01-.64-.76-.59-.36.41.7.93,3.02.86,3.62-.07-.04-.99-.55-1.25-.89-.38-.54.13-1.48-.2-1.95.03.18-.08.43-.12.52-.2-.12-.04-.57-.38-.42.07.68-.75.08-.07.6-.32.26-.4-.07-.82.04.21.41-.11,1.54-.44,1.8,0-.17-.13-.38-.19-.48-.75.07-1.2-.17-1.88-.06-.09-.15-.45-.3-.36-.61-.08.13-.13.38-.34.43-.5-.52.46-.16.03-.81.04.4-.46.62-.73.92.19.59.72,0,.98-.28.14.83-.25,1.79-.93,2.29-.55.3-.33-.5-.41-.37-1.1.01-.72,1.59-1.71,1.12-.43-.48-.16-1.06-.29-1.43.44-.27.77.24,1.08.17l-.43-.2c.12-.2.42-.38.61-.25-.37-.43-1.84.17-2.73-.18-.13.2-.36.42-.21.61l.26-.11c.3.4-.42.66-.06.82-.32.35-.66.87-1.2.68l-.16-.6c.03.18.37.33.49.12-.18.29-.86-.74-1,.09l.4.38c-.32.35-.7,1.05-1.17.9.27.58.1-.08.49.59-.37-.84,1.16-.09.61-.96.42.78.61.28,1.12.93-.04-.2-.2-.37.19-.31,0-.06.04-.14.06-.19.01,0,.02,0,.03.01l-.02-.02s.01-.04,0,0c-.1-.08-.19-.17-.23-.28.13-.48.73-.55.9-.81.23.07-.06.24.08.44l.26-.39c.09.44.69.66.2.99l.48-.04c.31.21.71.26.92.04.24.06.5-.57.35-.2l.7-.38.02.11c.74-.06,1.39-.96,2.35-.3.23-.15.46-.33.89-.28l.15.37c.29-.18,1.02.22,1.08-.21.53.97,1.58-.05,2.16.02l-.08-.5c.39-.05.72-.26,1.16-.55l-.12-.43c.33-.44,1.1.1,1.74-.08,0,.18-.18.17-.32.09.98.83,1.47-1.07,2.37-.54.14-.2.29-.19.45-.12-.02,0-.03.02-.04.04.02,0,.05,0,.08-.02.1.05.21.11.33.15-.11-.08-.21-.14-.29-.17.14-.05.34-.17.52-.34l.24.43s.03-.02.05-.03c.27.1.1-.27-.13-.58.08-.11.15-.23.19-.37.44.67.45-.44.99.23,0-.42.97-.77.66-1.59.06.09.14.11.04.17.27-.03.54-.08.61-.41l.42.46c.02-.33.02-.67,0-1,.48.1.75.15.75.77.21-1.14.42-.66.4-1.69l.26.3c.17-.2.05-.83.38-.75.47.02.93-.54,1.35-1.25.39-.72.77-1.56,1.28-2.19-1.2-.02.7-.54-.19-.81.28-.02.48-.2.67.08-.11-.79.61-1.11-.09-1.7.28-.07.39.19.56.13-.05-.07-.22-.26-.05-.33.16-.07.23.13.34.26,0-.82-.87-.9-1.66-.95.39-.36.3-.57-.23-.79.25-.14.51-.38.63.07.05-.25.21-1.63-.44-1.54.14-.11-.03-.36-.11-.4-.07-.56-.06-.62-.27-1.14l-.06.18c-.79.03-.29-.38-.55-.76l.08-.02c.12-1.17-.4-.28-.28-1.48l-.39.28c-.95.44.11-1.06-.58-1.33l-.11.32c-.44-.04.64-1.54.5-1.9.02-.12.19,0,.3.04-.1-1.09-.56.29-1.09-.1.17-.31.76-.45.5-.83.04-.38-1.67-.17-1.67-1.02-.07.28-.15.56-.5.51-.37-.22-.33-1.55-1.15-1.13,0-.09.02-.16.05-.21-.4-.03-1.11-.33-1.52-.04.31-.79-.26-.89-.78-.92-.52-.03-1.01,0-.68-.69-.32-.13-.65-.23-.97-.35l.09-.13c-.57-.35-.93-.08-1.26.18-.1-.15.05-.24.09-.32-.79-.6-.93-.57-1.88-.06l.05-.5c-.14.11-.42-.16-.8-.42-.38-.24-.88-.46-1.39-.26.02-.05.05-.14.14-.2-.28.09-.56.03-.83-.1-.28-.11-.55-.27-.81-.4-.52-.25-1-.34-1.25.54-.24.12-.47.27-.7.41.85.17-.17.78.16,1.09-.33.1-.83-.57-.41-.65l.06.09c.2-.94-1.05-.37-1.02-1.01-.86,0-1.71-.04-2.57-.15-.84-.03-1.7-.1-2.51.01l.3.69-.55.06c-.17-.14-.29-.53.11-.57-.28-.37-.61.46-.59.62-.83-.15.15-.89-.09-.87l-.32.11.09.07c-.21.34-.17.66-.65.71-.33-.08-.25-.4-.37-.4-.01-.05-.06-.06-.18.02l-.71.11.41.49c-.23.35-.65.13-.17.69-.72-.9-2.6.38-2.96.17-.28.53-.67.69-1.18.83.17.06.47.64.02.73-.33-1.3-.99-.26-1.7-.98.55.45-1.13.68-.28,1.3-.39.06-.23-.45-.62-.61-.61.83-1.96.59-2.88,1.28.07.16.36.3.28.65l-.95-.47c-.15.19.34.98-.32.66.13.1.31.25.21.37-1.16.19-2.02.96-2.88,1.67-.43.36-.88.7-1.38.96-.5.28-1.06.46-1.75.51.45.07.32.23.14.38.17-.03.27.34.45.5-.38.02-.76.06-1.14.1.31.61-.72.7-.37,1.23l.14-.28c.21.81,1.51.88,2.09,1.65-.24-.93,1.62.25,1.37-1.1.24.06.09.32.3.44-.13-.42-.02-.62.39-.71l.03.11c.78-.74,1.41-.67,2.52-1.13l-.34-.34c.25-.09.38,0,.54.04-.15-.76-.62.36-.85-.44.83.62,1.54-.99,2.31-.17.34-.19-.38-.41-.04-.6l.24.2-.11-.38c.26-.08.55.18.69.39-.07,0-.12.15-.16.2.46.14.74-.57.89-.53l-.41.03c.38-.4.93-.63,1.44-.91.51-.29,1.01-.58,1.36-1.06l-.16-.17c.56-.7.67-.05,1.4-.55v.06c.07-.27.25-.46.48-.52-.11.32.57.33.4.7.64-.72.26-.48.52-1.46l.25.31c.08-.38.04-.55.43-.77-.24.41.44.45.19.97,1.09.5,1.05-1.2,1.78-.15.14-1.09-.91-.36-.74-.62-.29-.27.13-.83.44-.8.3-.05.82,1.15,1.5.95-.07.01-.06.09-.13.1.31.18.44-.46.85-.1.06-.64.43-.04.34-.83l-.62.3c.32-.27.52-1.25,1.23-.92-.02.17-.18.41-.28.55.22.2.32-.22.55-.02.07.79-.77.32-1.05.98.25.29.64-.7.59.18.1-1.13.7,0,1.06-.87l.03.47c.06-.08.19-.32.34-.33l-.18.64c.32-.56.78.37,1.11.05-.76.1-.22-.55-.59-.86.92-.75.66,1.17,1.69.89-.14.07-.55-.26-.34-.49.21.09.48.26.61.5.69-.13-.12-.48.17-.79.25.57.34-.27.66-.43v.48c.8.34.23-1,.97-.6l-.33.66.39-.16-.1.55c.42-.39.56-.3.94-.1-.07-.35.12-.87.49-.84.22.31-.18.44.33.43-.15.29-.31.65-.48.18-.04.15-.14.29-.17.44.22.36.63.15.81.16-.07-.03-.15-.06-.18-.13l.81-.58c.09.19-.02.33-.13.46.15-.04.29-.24.51-.24-.12.38-.17.77-.49.91.24-.11.49-.2.74-.3.02.18.25.53.14.65.3.3,1.06-.59,1.47-.15.04-.07.11-.12.23-.15.43.21.66.78,1.35.46l.05.76c.45,0-.08-.98.68-.97.57-.02-.05.63.04.87.35-.23,1.07-.72,1.24.02-.2.05-.26-.1-.41-.11ZM155.3,82.66c-.14,0-.5.09-.35-.16.47-.32.35-.06.35.16ZM159.13,89.38c-.16-.08-.08-.2.11-.34.04.1.02.22-.11.34ZM140.15,102.78v-.02c.3.15.19.09,0,.02ZM139.57,102.64c-.05.07-.03.14,0,.2.02-.13.14-.15.29-.13-.06-.12-.14-.2-.29-.07ZM135.05,74.51l.14.1c-.21.2-.17.06-.14-.1Z"/>
    <path class="cls-1" d="M158.46,88.48c.08-.03.17-.05.26-.06-.08-.04-.18-.03-.26.06Z"/>
    <path class="cls-1" d="M147.74,79.12s0,0-.01,0c-.02.03-.03.05-.04.08l.05-.07Z"/>
    <path class="cls-1" d="M147.19,97.27c.12.05.2.12.25.2-.02-.12-.08-.21-.25-.2Z"/>
    <path class="cls-1" d="M136.78,103.8l.34-.16c-.17.04-.24-.05-.33-.12.02.11.11.27,0,.29Z"/>
    <path class="cls-1" d="M133.46,101.14c-.05.06-.11.02-.15.08l.03.22c.21-.03.35-.23.12-.3Z"/>
    <path class="cls-1" d="M136.28,102.25c-.07-.4-.27-.24-.51-.14.01,0,.03,0,.04,0-.01.57.23.36.47.14Z"/>
    <path class="cls-1" d="M135.72,102.13c-.07.03-.15.04-.22.03,0,.23.1.04.22-.03Z"/>
    <path class="cls-1" d="M138.92,103c-.13-.09,0,.52-.09.37-.06.53.7-.72.09-.37Z"/>
    <polygon class="cls-1" points="135.94 100.94 136.08 101.43 136.17 101.01 135.94 100.94"/>
    <path class="cls-1" d="M137.89,101.09l-.4-.09c.02.08-.03.14-.08.18.24-.01.51.06.49-.09Z"/>
    <path class="cls-1" d="M137.4,101.18c-.13,0-.24.03-.3.12.07-.01.21-.05.3-.12Z"/>
    <polygon class="cls-1" points="136.45 100.73 136.57 100.82 136.85 100.83 136.45 100.73"/>
    <path class="cls-1" d="M142.04,100.62l.4-.21c.02-.18-.11-.26-.26-.17-.08.13-.23.22-.14.38Z"/>
    <path class="cls-1" d="M140.58,99.45c.13.09.15.2.24.35l-.08-.62-.16.27Z"/>
    <path class="cls-1" d="M141.77,99.13c.02-.18.53-.58,0-.46-.02.18-.41.38,0,.46Z"/>
    <polygon class="cls-1" points="148.15 98.82 148.05 98.85 148.26 99.84 148.15 98.82"/>
    <path class="cls-1" d="M152.85,95.25c-.48-.11.09.63-.38.45-.03.26.38.15.34.37.19-.32.35-.23.04-.83Z"/>
    <path class="cls-1" d="M152.81,96.07c-.03.05-.06.11-.09.19.06-.08.08-.14.09-.19Z"/>
    <polygon class="cls-1" points="116.66 83.71 116.26 83.78 116.65 83.89 116.66 83.71"/>
    <path class="cls-1" d="M116.68,84.7l-.5-.43.25.57c.04-.07.11-.21.25-.14Z"/>
    <path class="cls-1" d="M154.8,84.06l.13-.09c.11-.14.08-.19.02-.29-.05.13-.09.25-.15.38Z"/>
    <polygon class="cls-1" points="152.55 81.48 152.6 81.52 152.82 80.96 152.55 81.48"/>
    <path class="cls-1" d="M149.54,80.77c.1.07.29,0,.39.07-.28-.01-.15-.76-.39-.07Z"/>
  </g>
  <g>
    <path class="cls-1" d="M98.89,110.86c.02-.15-.39-.06-.47-.07.12.23.58.05.47.07Z"/>
    <polygon class="cls-1" points="100.1 113.11 99.93 113.09 100.38 113.38 100.1 113.11"/>
    <path class="cls-1" d="M100.4,115.3c.68-.31-.23-.77-.04-1.2l.15-.09-.59-.1c.16.46.63,1.02.48,1.38Z"/>
    <path class="cls-1" d="M99.07,116.71c.26-.12.28.22.04-.29-.03.03-.04.04-.06.06.01.05.02.11.02.23Z"/>
    <path class="cls-1" d="M99.05,116.49c-.06-.23-.2.19,0,0h0Z"/>
    <path class="cls-1" d="M99.39,117.53l-.3-.26c-.15.09-.13.37-.27.29.19.29.34.2.57-.03Z"/>
    <path class="cls-1" d="M99.96,117.73l-.13-.14c-.06.04-.08.09.13.14Z"/>
    <path class="cls-1" d="M99.54,117.3l.28.3c.11-.06.33-.11-.11-.14.21-.01,0-.04-.17-.16Z"/>
    <path class="cls-1" d="M99.62,117.09c.12-.2.18-.44.48-.17-.19-.56-.67-.4-.48.17Z"/>
    <path class="cls-1" d="M101.14,115.29l.17-.26-.27-.16c.13.08-.13.46.09.41Z"/>
    <path class="cls-1" d="M99.4,119.51c.15-.01.38-.18.56-.25l-.22-.19c-.08.14-.13.37-.34.44Z"/>
    <path class="cls-1" d="M99.96,119.27l.33.28c-.03-.3-.17-.33-.33-.28Z"/>
    <polygon class="cls-1" points="100.74 117.64 100.1 117.19 100.77 117.74 100.74 117.64"/>
    <polygon class="cls-1" points="99.65 120.8 99.27 120.69 99.86 120.91 99.65 120.8"/>
    <path class="cls-1" d="M99.91,121.64c-.32-.08-.44.31-.64.2.1.22.39.36.66.49-.17-.16-.19-.37-.01-.68Z"/>
    <path class="cls-1" d="M100.32,122.55c-.09-.08-.24-.14-.39-.22.09.08.21.16.39.22Z"/>
    <path class="cls-1" d="M100.33,120.13c-.08.05-.31.15-.37.36l.39-.22s-.01-.09-.02-.13Z"/>
    <path class="cls-1" d="M100.36,120.26h-.01c.02.15.03.25.04.3,0-.04-.01-.13-.03-.3Z"/>
    <path class="cls-1" d="M100.32,120.1v.03s.06-.03,0-.03Z"/>
    <path class="cls-1" d="M100.53,118.58c.27.15.61.5.89.04-.32-.08-.47.18-.89-.04Z"/>
    <path class="cls-1" d="M100.81,119.82l.02-.37c-.11.03-.26.13-.39.05l.37.32Z"/>
    <polygon class="cls-1" points="100.98 119.97 100.81 119.82 100.8 119.96 100.98 119.97"/>
    <path class="cls-1" d="M100.55,121.85c.22.11.28.27.35.45.03-.22.02-.44-.02-.64-.14,0-.39-.03-.33.19Z"/>
    <path class="cls-1" d="M100.5,121.07l.03.03s.04-.05-.03-.03Z"/>
    <polygon class="cls-1" points="101.38 124.15 101.45 124.1 101.37 124.11 101.38 124.15"/>
    <path class="cls-1" d="M100.95,121.61c.05-.17-.08-.24-.23-.29.07.1.12.22.16.35.06,0,.1,0,.07-.05Z"/>
    <path class="cls-1" d="M100.64,123.02c.07-.1.12-.21.16-.32-.11.11-.28.32-.16.32Z"/>
    <path class="cls-1" d="M100.42,121.17s-.02-.01-.02-.02c-.08.07-.04.05.02.02Z"/>
    <path class="cls-1" d="M100.42,121.17c.08.06.19.1.3.14-.05-.08-.12-.16-.2-.22-.03.03-.07.05-.1.08Z"/>
    <path class="cls-1" d="M104.17,123.97c-.39.08-.85-.21-.53-.65-.38-.25-1.58.3-2.2.78.17-.03.32-.08.64.21.18-.18.28-.89.71-.7.32.4-.04.41-.18.68.43-.32.85.38,1.52.08l-.35-.32c.11-.04.32.06.39-.08Z"/>
    <path class="cls-1" d="M101.31,123.43l-.08-.13c-.03.18-.15.34-.39.63.25.19.41.2.54.18l-.14-.72.07.03Z"/>
    <path class="cls-1" d="M101.06,122.65c.45,0,.71.3,1.11-.02-.13-.41-.42-.2-.67-.41.27.65-.28-.14-.4.41-.1-.12-.16-.23-.2-.34-.02.13-.05.27-.1.4l.02-.02h0s0,0,0,0c.04-.04.07-.06.05-.02,0,0,.01.01.01.01.06,0,.11-.01.17,0-.04.22-.1.06-.17,0h-.06s0,.01,0,.01l.4.62c.02-.16-.04-.33-.16-.64Z"/>
    <path class="cls-1" d="M102.4,118.8s-.06.03-.09.04c.06.03.1.04.09-.04Z"/>
    <path class="cls-1" d="M102.2,119.13c-.07-.04-.25-.04-.24-.21.1-.16.2-.04.34-.08-.13-.07-.37-.27-.52.07l.07.04c-.09.3-.54.76-.61.73.36-.16.62-.29.95-.54Z"/>
    <path class="cls-1" d="M101.72,120.87l.33.51.3-.37-.21.07c.01-.34-.24-.21-.42-.21Z"/>
    <polygon class="cls-1" points="101.19 124.27 100.73 124.31 101.44 124.47 101.19 124.27"/>
    <polygon class="cls-1" points="101.44 124.98 101.05 125.06 101.34 125.19 101.44 124.98"/>
    <path class="cls-1" d="M127.91,141.28l-.04-.16c0,.07.02.12.04.16Z"/>
    <path class="cls-1" d="M127.43,142.07l.15.12c-.07-.09-.12-.15-.15-.12Z"/>
    <path class="cls-1" d="M108.93,142.26c-.15.43-.42,1.02-.09.73l.3-.32c-.17-.11-.22-.25-.21-.41Z"/>
    <path class="cls-1" d="M121.02,147.26s-.04-.09-.06-.14c-.07.14-.14.27-.21.39.08-.08.17-.16.26-.25Z"/>
    <path class="cls-1" d="M121.34,145.48l.25.3c-.06-.1-.14-.2-.25-.3Z"/>
    <path class="cls-1" d="M128.56,135.95l-.45-.16c.01.25.23.14.45.16Z"/>
    <path class="cls-1" d="M104.06,132.3c-.08.26-.09.45-.05.6.13-.33.41-.66.05-.6Z"/>
    <path class="cls-1" d="M131.78,143.81c-.01-.15-.07-.23-.15-.28,0,.14.05.25.15.28Z"/>
    <path class="cls-1" d="M104.25,133.47c.03-.05.03-.09.05-.14-.13-.12-.24-.24-.29-.43-.1.25-.12.49.24.58Z"/>
    <path class="cls-1" d="M118.92,117.1s0-.05,0-.07c-.04.04-.03.06,0,.07Z"/>
    <path class="cls-1" d="M116.65,109.25c.07.02.16.1.25.16-.02-.06-.09-.11-.25-.16Z"/>
    <path class="cls-1" d="M102.15,127.97c-.08-.15-.05,0,0,0h0Z"/>
    <path class="cls-1" d="M103.55,126.7c.06.02.12.02.22,0-.1.02-.17.02-.22,0Z"/>
    <path class="cls-1" d="M107.35,133.89s0,0,0,.01c.06-.08.05-.06,0-.01Z"/>
    <path class="cls-1" d="M102.26,127.67c-.03.07-.05.15-.06.24.02-.04.04-.11.06-.24Z"/>
    <path class="cls-1" d="M102.08,127.77c0-.06,0-.1,0-.15-.08,0-.11.03,0,.15Z"/>
    <path class="cls-1" d="M102.24,128.17c-.03-.09-.04-.17-.04-.26-.02.04-.04.06-.05.06.02.04.05.11.09.21Z"/>
    <path class="cls-1" d="M127.27,126.01s.01-.03.02-.05c-.23-.05-.17,0-.02.05Z"/>
    <path class="cls-1" d="M114.99,142.41s-.02,0-.03,0v.02s.03-.03.03-.03Z"/>
    <path class="cls-1" d="M115.56,142.5c-.51.27-.56.13-.6-.05l-.72,1.04c.45-.32.88-.64,1.31-.98Z"/>
    <path class="cls-1" d="M128.55,139.05l-.45.22c-.54-.53-.27-.71-.87-.56.65.16.64.48.58.76-.06.29-.11.58.53.83l-.35.09s-.04-.09,0-.13c-.76.12.81.63.41,1.06-.18.12-.41.14-.5-.04l.12.51c-.08.09-.27-.05-.19-.14-.05.21-.14.38-.22.57l-.03-.03c.13.19.3.54.36.71-.26.01-.07-.15-.23-.22.02.16.03.31.05.47-.37-.11-.45-.53-.28-.68-.64-.26-.61-.19-.55,0,.06.17.14.46-.36.42.03-.1.04-.22.05-.33-.68-.35-.63-.05-1.15-.2.19.16,1.28.44,1.3.89-.14,0-.26.05-.21.38-.32-.35-.37-.15-.53,0l-.39-.51c-.05.27.16.53.22.85-.26.11-.58-.3-.84-.62-.38.11.66.53.31.89-.21,0-.33.06-.44.2-.11.14-.19.37-.34.61-.32-.12-.09-.38-.24-.52,0,.18-.02.37-.04.56-.06,0-.09-.15-.1-.23-.13.24.18.61-.1.87.04.35-.19.16-.45-.05-.26-.21-.51-.38-.67.02-.12-.17,0-.39-.05-.64-.48.57-.41.42-.88,1.13-.14-.13-.27-.28-.4-.43.28.5-.12,1.04-.57,1.48.1.24.19.45.26.55-.23.1-.46.2-.69.28-.07-.12.03-.32.17-.57-.05.05-.09.1-.14.14-.2-.27-.02-.61.18-.95.05.14.11.28.17.42.19-.37.36-.8.36-1.17-.04.07-.12.13-.19.16.05-.1.08-.2.07-.26-.01-.07-.08.07-.19.22l-.04-.72-.06.28c-.21-.18-.41-.35-.6-.55-.61.62-1.36,1.51-2.34,1.47.4-.41.35-.78.58-1.36,0,.68.69-.04,1.04.18-.19-.12-.06-.39.02-.48-.28.14-.57.24-.88.34.19-.47-.02-.4-.12-.67-.23.98-.77.42-1.18.54.13-.31.35-.58.64-.36-.03-.85-1,.84-1.08.06.09.04.11.11.22-.02-.33.16-.69-.32-.43-.51l.08.04c-.47-.39-1.5-1.03-2.13-.47.07-.09.72-.74.86-.85-.89.52-1.81.96-2.79,1.35.58-.46,1.51-1.97,2.17-1.93-.04-.17-.08-.38-.48-.42,0,.14-.56.93-.71.88.3-.85.11-.5.3-1.32-.01.22-.97.87-1.12.65.15-.09.83-.77.98-.78-.42.11-.83.19-1.25.27.26,0,.75-.59.91-.9-.13.19-.31-.41-.49-.47l-.05.36c-.28-.64-1.68.4-2.06-.24.24-.05,1.29-.64,1.22-1.01-.56.2-2.72.91-3.47.53l.22-.28-.59-.26c.92-.13,2.94-.32,3.76-.35.08-.36.29-.27.06-.58.19-.28.51-.07.58,0l-.29-.85c-.56.38-.93-.25-1.4.05.36.18.74.34,1.1.5-.54.39-1.94.5-2.17-.17.15-.28,1.11-.47,1.3-.59-.24.04-.69-.33-.57-.46l.45.07c.06-.44-1.07-.11-.7-.8-.03-.16.57-.79.2-.64-.58.56-2.67,1.67-3.27,1.77.02-.08.28-1.09.55-1.42.44-.49,1.46-.26,1.83-.68-.17.07-.43.04-.53.02.07-.21.54-.18.32-.47-.65.23-.25-.68-.59.09-.32-.24-.03-.4-.22-.76-.35.3-1.52.26-1.84,0,.17-.05.34-.21.42-.29-.24-.69-.1-1.18-.34-1.81.13-.12.19-.5.52-.48-.15-.05-.4-.04-.49-.23.4-.59.25.4.8-.15-.38.12-.7-.3-1.04-.49-.54.3.13.69.48.87-.79.32-1.8.15-2.42-.39-.4-.46.42-.42.27-.48-.23-1.06-1.7-.36-1.43-1.42.39-.51,1.01-.37,1.35-.57.34.37-.08.78.04,1.07l.11-.45c.22.08.45.32.36.53.35-.44-.52-1.73-.35-2.65-.22-.08-.47-.26-.64-.08l.15.22c-.34.36-.72-.28-.81.1-.4-.24-.97-.48-.89-1.03l.56-.27c-.17.06-.25.42-.03.5-.32-.12.56-.97-.26-.95l-.31.46c-.39-.25-1.14-.49-1.08-.98-.52.36.1.08-.5.58.77-.51.29,1.11,1.05.42-.7.55-.17.64-.71,1.26.19-.07.32-.26.34.13.06,0,.15.01.19.02,0,.01,0,.02,0,.03l.02-.03s.04,0,0,0c.06-.11.14-.21.24-.28.5.04.66.61.96.72-.02.24-.25-.01-.42.17l.44.17c-.42.17-.52.8-.94.38l.13.46c-.15.35-.12.75.14.9-.02.24.66.36.26.3l.51.6-.1.05c.21.71,1.22,1.14.79,2.21.2.19.42.37.46.8l-.33.22c.25.24.02,1.03.45,1-.83.73.42,1.52.5,2.11l.47-.2c.15.37.44.64.84.99l.39-.23c.51.2.21,1.1.59,1.67-.17.04-.22-.13-.18-.28-.49,1.22,1.49,1.09,1.26,2.09.24.06.27.2.25.38-.01-.01-.03-.02-.05-.02,0,.02.02.04.04.07-.02.11-.05.23-.05.35.04-.13.08-.24.07-.32.09.11.26.26.48.37l-.34.36s.02.02.04.03c-.02.28.28,0,.51-.3.13.04.26.06.4.05-.51.61.54.27.04.97.41-.14.93.64,1.65.14-.08.08-.07.16-.16.08.09.23.17.48.49.46l-.37.5.94-.22c-.04.48-.08.73-.64.86,1.06-.02.65.23,1.6.09l-.28.29c.19.14.8-.06.71.28-.02.46.5.87,1.15,1.26.64.41,1.41.77,1.93,1.35.16-1.18.43.71.79-.13-.01.29.13.5-.16.65.76-.04.96.74,1.62.1.03.29-.24.36-.2.54.07-.05.28-.19.32,0,.04.18-.15.21-.29.3.78.12.99-.74,1.15-1.52.3.42.5.4.79-.11.1.27.3.55-.16.62.23.08,1.57.43,1.56-.22.09.16.35.02.41-.06.56,0,.62.02,1.16-.13l-.17-.08c.07-.79.4-.25.81-.46v.08c.58.14.66,0,.74-.07.08-.1.17-.14.76-.08l-.25-.41c-.17-.49.08-.44.43-.35.34.08.8.16.95-.16l-.32-.12c.04-.23.41-.04.83.17.42.2.9.42,1.09.35.12.02,0,.19-.06.31,1.14-.13-.29-.57.14-1.11.32.16.45.76.84.47.18.01.25-.44.35-.87.09-.45.2-.89.65-.94-.3-.04-.58-.11-.55-.46.1-.21.46-.33.76-.51.31-.18.52-.42.24-.8.09-.02.16,0,.22.02-.01-.21.04-.5.05-.78,0-.29-.05-.57-.22-.74.83.17.85-.42.77-.94-.05-.52-.19-.99.55-.8.05-.34.11-.69.14-1.03l.15.05c.2-.64-.12-.92-.46-1.19.12-.13.25-.01.33,0,.39-.9.34-1.04-.41-1.83l.5-.07c-.27-.19.78-1.4.09-2.29.06,0,.15.01.23.08-.32-.49-.1-1.14,0-1.73.07-.58,0-1.07-.91-1.03l-.61-.52c.09.84-.79.08-.99.49-.19-.27.3-.95.49-.59l-.07.08c.95-.11.04-1.1.65-1.27-.59-1.56-.71-3.31-1.44-4.74l-.57.5-.21-.5c.09-.21.42-.44.57-.08.27-.38-.61-.43-.76-.35-.12-.81.9-.15.8-.36l-.21-.25-.04.1c-.39-.08-.68.06-.88-.37-.02-.33.31-.36.28-.48.04-.03.05-.07-.07-.17-.1-.21-.2-.42-.31-.62l-.34.54c-.41-.1-.32-.55-.71.06.3-.46.03-1.05-.31-1.56-.36-.5-.77-.93-.73-1.14-.58-.1-.84-.41-1.11-.85-.01.17-.48.63-.69.24,1.14-.71-.04-1,.45-1.88-.28.66-.95-.86-1.3.12-.16-.35.36-.35.42-.77-.97-.31-1.05-1.68-1.96-2.33-.14.11-.2.43-.55.45l.22-1.03c-.21-.09-.85.58-.7-.12-.06.14-.16.36-.3.3-.94-2.11-3.61-2.38-4.23-4.96,0,.45-.16.35-.34.22.06.15-.28.33-.41.54l-.27-1.08c-.54.42-.78-.56-1.24-.12l.29.09c-.75.36-.62,1.62-1.27,2.34.86-.41.04,1.65,1.33,1.13-.01.24-.29.16-.37.38.39-.21.61-.15.78.24l-.1.05c.86.62.96,1.21,1.65,2.2l.25-.41c.15.22.09.36.09.53.7-.34-.5-.51.23-.92-.39.93,1.32,1.23.72,2.19.28.27.3-.47.57-.2l-.13.28.34-.21c.14.22-.03.58-.2.76-.02-.06-.17-.07-.23-.1-.02.48.73.57.73.73l-.13-.39c.95.55,1.53,1.75,2.65,2.11l.12-.21c.82.33.23.63.92,1.16h-.06c.28,0,.51.11.63.31-.34,0-.15.63-.55.59.86.38.54.1,1.53.05l-.22.33c.38-.05.53-.14.86.16-.46-.1-.3.55-.87.48-.14,1.17,1.43.62.66,1.62,1.08-.22.06-.96.37-.89.17-.35.82-.14.9.16.13.26-.82,1.11-.46,1.7-.03-.06-.1-.03-.13-.09-.1.36.56.27.36.76.63-.15.18.38.9.04l-.49-.48c.36.21,1.36.08,1.24.85-.16.03-.43-.04-.59-.09-.13.27.29.24.16.51-.74.32-.49-.63-1.23-.67-.19.32.86.37.01.6,1.09-.26.18.67,1.14.72l-.44.18c.1.03.37.07.42.2l-.67.04c.65.11-.13.85.28,1.05-.31-.68.46-.38.65-.82.95.63-.9.98-.33,1.84-.11-.1.09-.59.37-.47-.02.22-.11.53-.3.73.32.6.42-.26.8-.09-.47.41.34.24.62.48l-.46.15c-.06.84,1.02-.1.87.7l-.72-.1.27.31-.55.08c.5.27.44.43.39.83.31-.17.86-.16.95.18-.23.29-.48-.03-.31.43-.32-.05-.71-.08-.32-.37-.16.01-.32-.03-.47-.02-.27.31.06.59.09.76.01-.07.02-.15.08-.2.27.18.51.37.77.56-.16.13-.32.07-.47,0,.07.13.31.19.38.39-.4,0-.8.06-1.02-.19.18.18.35.37.51.57-.17.06-.44.37-.59.3-.18.34.81.8.52,1.28.08.02.15.07.2.17-.09.45-.59.78-.11,1.33-.24.07-.48.14-.73.2.1.41.94-.28,1.1.42.15.51-.62.08-.84.21.33.28.92.84.27,1.13-.1-.17.03-.25,0-.39ZM126.77,143.27c0-.13-.13-.45.12-.32.36.45.1.33-.12.32ZM120.33,146.23c.1-.14.2-.05.31.15-.1.02-.21,0-.31-.15ZM103.08,129.51s.02,0,.03,0c-.09.31-.05.2-.03,0ZM103.1,128.93c-.08-.03-.14,0-.2.04.13,0,.17.11.19.25.11-.08.17-.17.01-.29ZM129.27,122.95l-.05.16c-.24-.14-.1-.15.05-.16Z"/>
    <path class="cls-1" d="M121.3,145.69c.02.08.02.17.02.26.05-.08.05-.17-.02-.26Z"/>
    <path class="cls-1" d="M128.64,135.98s0-.01,0-.02c-.03,0-.06-.01-.09-.01l.08.03Z"/>
    <path class="cls-1" d="M109.93,135c-.02.12-.07.22-.14.29.11-.05.18-.13.14-.29Z"/>
    <path class="cls-1" d="M101.44,126.43l.22.3c-.07-.15.01-.24.06-.35-.11.04-.24.15-.28.05Z"/>
    <path class="cls-1" d="M103.51,122.75c-.07-.03-.03-.1-.1-.13l-.21.07c.07.2.28.3.32.06Z"/>
    <path class="cls-1" d="M102.89,125.67c.38-.14.19-.31.05-.52,0,.01.01.03.01.04-.57.09-.31.29-.06.48Z"/>
    <path class="cls-1" d="M102.91,125.1c-.04-.07-.07-.14-.07-.21-.23.04-.02.1.07.21Z"/>
    <path class="cls-1" d="M102.63,128.36c.06-.14-.52.09-.38-.02-.53.04.84.54.38.02Z"/>
    <polygon class="cls-1" points="104.12 125.1 103.66 125.33 104.08 125.34 104.12 125.1"/>
    <path class="cls-1" d="M104.31,127l.02-.4c-.08.03-.14,0-.19-.05.05.23.04.5.18.45Z"/>
    <path class="cls-1" d="M104.14,126.55c-.03-.12-.07-.23-.17-.27.02.06.08.19.17.27Z"/>
    <polygon class="cls-1" points="104.41 125.56 104.34 125.69 104.38 125.96 104.41 125.56"/>
    <path class="cls-1" d="M105.57,130.89l.28.34c.18-.02.23-.17.11-.28-.15-.05-.26-.17-.4-.05Z"/>
    <path class="cls-1" d="M106.42,129.25c-.06.14-.16.18-.3.3l.59-.2-.29-.1Z"/>
    <path class="cls-1" d="M106.97,130.31c.18-.02.67.37.45-.09-.17.02-.45-.31-.45.09Z"/>
    <polygon class="cls-1" points="108.66 136.29 108.61 136.2 107.7 136.66 108.66 136.29"/>
    <path class="cls-1" d="M113.37,139.54c-.05-.49-.57.29-.55-.22-.26.05-.02.41-.25.44.37.07.33.27.8-.23Z"/>
    <path class="cls-1" d="M112.57,139.77c-.06-.01-.13-.02-.21-.02.1.03.16.03.21.02Z"/>
    <polygon class="cls-1" points="116.07 108.09 115.95 107.72 115.9 108.12 116.07 108.09"/>
    <path class="cls-1" d="M115.12,108.3l.34-.56-.51.34c.07.02.22.07.17.21Z"/>
    <path class="cls-1" d="M125.45,142.72l.09.13c.13.11.18.1.27.05-.12-.05-.24-.12-.36-.18Z"/>
    <polygon class="cls-1" points="127.47 140.74 127.44 140.78 128.01 140.93 127.47 140.74"/>
    <path class="cls-1" d="M127.48,137.96c-.04.1.07.26.03.36-.07-.25.7-.28-.03-.36Z"/>
  </g>
  <g>
    <path class="cls-1" d="M79.11,100.67c.14.04.1-.38.13-.46-.24.09-.12.57-.13.46Z"/>
    <polygon class="cls-1" points="76.92 101.7 76.94 101.53 76.67 101.98 76.92 101.7"/>
    <path class="cls-1" d="M74.94,102.02c.33.67.68-.27,1.09-.07l.08.15.07-.59c-.43.14-.9.64-1.24.5Z"/>
    <path class="cls-1" d="M73.49,100.79c.14.25-.17.29.28.02-.03-.02-.04-.04-.06-.06-.04.02-.11.03-.22.04Z"/>
    <path class="cls-1" d="M73.71,100.75c.21-.08-.2-.19,0,0h0Z"/>
    <path class="cls-1" d="M72.76,101.2l.21-.33c-.11-.14-.37-.09-.31-.24-.25.22-.14.36.11.56Z"/>
    <path class="cls-1" d="M72.66,101.78l.11-.15c-.05-.06-.09-.07-.11.15Z"/>
    <path class="cls-1" d="M73,101.32l-.23.31c.08.1.15.32.11-.12.04.21.04,0,.12-.19Z"/>
    <path class="cls-1" d="M73.21,101.37c.2.1.42.14.22.45.5-.24.29-.71-.22-.45Z"/>
    <path class="cls-1" d="M75,102.76l.24.16.12-.27c-.06.13-.42-.11-.36.1Z"/>
    <path class="cls-1" d="M70.92,101.47c.04.15.24.34.34.51l.13-.24c-.14-.06-.37-.07-.47-.27Z"/>
    <path class="cls-1" d="M71.26,101.98l-.19.36c.26-.08.27-.21.19-.36Z"/>
    <polygon class="cls-1" points="72.87 102.54 73.18 101.87 72.78 102.58 72.87 102.54"/>
    <polygon class="cls-1" points="69.79 101.94 69.81 101.55 69.74 102.17 69.79 101.94"/>
    <path class="cls-1" d="M69.09,102.35c0-.32-.38-.36-.34-.58-.18.14-.23.45-.27.73.1-.2.28-.25.61-.15Z"/>
    <path class="cls-1" d="M68.39,102.91c.04-.1.07-.26.09-.42-.05.1-.09.23-.09.42Z"/>
    <path class="cls-1" d="M70.55,102.48c-.06-.07-.2-.28-.4-.3l.29.34s.07-.03.11-.04Z"/>
    <path class="cls-1" d="M70.44,102.54h0c-.13.03-.21.06-.25.07.03,0,.11-.03.26-.07Z"/>
    <path class="cls-1" d="M70.58,102.47h-.03s.04.05.03,0Z"/>
    <path class="cls-1" d="M71.98,102.45c-.09.29-.33.66.13.87.01-.32-.25-.44-.13-.87Z"/>
    <path class="cls-1" d="M70.93,102.9l.33-.04c-.05-.1-.17-.23-.13-.38l-.2.41Z"/>
    <polygon class="cls-1" points="70.84 103.09 70.93 102.9 70.81 102.92 70.84 103.09"/>
    <path class="cls-1" d="M69.07,103.01c-.04.23-.17.32-.31.42.2-.01.39-.07.55-.14-.04-.13-.07-.38-.25-.28Z"/>
    <path class="cls-1" d="M69.75,102.81l-.02.04s.05.03.02-.04Z"/>
    <polygon class="cls-1" points="67.29 104.26 67.35 104.31 67.32 104.24 67.29 104.26"/>
    <path class="cls-1" d="M69.38,103.34c.16.01.19-.12.2-.27-.08.08-.16.16-.27.21.02.06.03.1.06.06Z"/>
    <path class="cls-1" d="M68.06,103.32c.11.04.22.07.33.09-.13-.09-.36-.2-.33-.09Z"/>
    <path class="cls-1" d="M69.64,102.76v-.03c-.07-.06-.05-.02,0,.03Z"/>
    <path class="cls-1" d="M69.64,102.76c-.04.09-.04.21-.05.32.06-.07.11-.14.15-.23-.03-.02-.06-.05-.09-.09Z"/>
    <path class="cls-1" d="M68.29,106.86c-.19-.35-.09-.85.38-.62.1-.4-.71-1.44-1.32-1.93.08.15.16.29.02.65.2.12.85.09.81.53-.24.38-.35.05-.63-.03.4.33-.06.88.4,1.45l.16-.4c.06.09.05.31.19.35Z"/>
    <path class="cls-1" d="M67.89,104.04l.09-.11c-.16.01-.33-.07-.66-.24-.09.28-.06.43,0,.55l.58-.27v.07Z"/>
    <path class="cls-1" d="M68.49,103.65c.11.43-.07.73.32,1.05.31-.2.06-.44.17-.71-.49.38.04-.3-.47-.3.07-.12.16-.19.24-.26-.12,0-.25,0-.38-.02l.03.02h0s0,0,0,0c.05.03.07.06.03.05,0,0,0,.01,0,.01.02.05.04.11.05.16-.2,0-.08-.08-.05-.16l-.02-.06h0c-.15.16-.29.33-.43.5.14-.01.28-.11.51-.29Z"/>
    <path class="cls-1" d="M72.16,104.3s-.04-.06-.05-.09c-.02.06-.02.1.05.09Z"/>
    <path class="cls-1" d="M71.84,104.15c.02-.07-.02-.25.13-.26.16.08.08.19.14.32.03-.14.16-.39-.17-.49l-.02.07c-.28-.05-.77-.41-.76-.49.22.33.39.56.68.85Z"/>
    <path class="cls-1" d="M70.22,103.95l-.36.41.39.22-.11-.2c.29-.04.12-.27.07-.44Z"/>
    <polygon class="cls-1" points="67.12 104.1 66.95 103.68 67.03 104.38 67.12 104.1"/>
    <polygon class="cls-1" points="66.58 104.5 66.4 104.15 66.37 104.45 66.58 104.5"/>
    <path class="cls-1" d="M65.4,129.43l.14-.09c-.06.03-.1.06-.14.09Z"/>
    <path class="cls-1" d="M64.56,129.23l-.07.18c.06-.1.1-.17.07-.18Z"/>
    <path class="cls-1" d="M54.69,116.01c-.43.05-1.08.08-.66.23l.43.11c0-.19.1-.29.23-.35Z"/>
    <path class="cls-1" d="M57.18,127.08l.08-.12c-.15.04-.29.08-.43.11.11,0,.23,0,.35,0Z"/>
    <path class="cls-1" d="M58.74,126.17l-.11.34c.05-.1.09-.21.11-.34Z"/>
    <path class="cls-1" d="M70.06,128.92l.06-.46c-.21.04-.08.24-.06.46Z"/>
    <path class="cls-1" d="M61.23,108.56c-.25-.01-.41.03-.53.1.33.05.71.22.53-.1Z"/>
    <path class="cls-1" d="M64.17,133.89c.11-.06.17-.14.19-.23-.11.06-.19.12-.19.23Z"/>
    <path class="cls-1" d="M60.29,109.02c.05.01.09,0,.14.01.06-.15.13-.28.27-.37-.25-.04-.47,0-.42.35Z"/>
    <path class="cls-1" d="M83.67,118.27s.04-.01.07-.01c-.05-.03-.06-.02-.07.01Z"/>
    <path class="cls-1" d="M90.16,114.92c0,.07-.04.15-.07.24.05-.03.07-.1.07-.24Z"/>
    <path class="cls-1" d="M64.25,105.82c.1-.1,0-.05,0,0h0Z"/>
    <path class="cls-1" d="M65.79,106.85c0,.06.02.12.08.2-.05-.09-.07-.16-.08-.2Z"/>
    <path class="cls-1" d="M61.06,111.94h0c.09.04.07.04,0,0Z"/>
    <path class="cls-1" d="M64.54,105.86c-.07-.01-.15-.02-.22,0,.04.01.11.01.22,0Z"/>
    <path class="cls-1" d="M64.4,105.71c.05-.01.09-.03.12-.04-.03-.07-.07-.1-.12.04Z"/>
    <path class="cls-1" d="M64.11,105.96c.06-.05.13-.08.21-.09-.04,0-.06-.02-.07-.04-.03.03-.07.07-.14.13Z"/>
    <path class="cls-1" d="M78.22,126.83s.03,0,.05.01c-.02-.22-.04-.16-.05-.01Z"/>
    <path class="cls-1" d="M57.8,120.75s-.01-.01-.02-.02h-.02s.04.02.04.02Z"/>
    <path class="cls-1" d="M58.06,121.18c-.51-.24-.43-.33-.29-.43l-1.26-.08c.51.19,1.03.36,1.55.52Z"/>
    <path class="cls-1" d="M67.45,129.5l-.27-.4c.34-.62.54-.41.31-.96-.05,1.36-.99.11-1.14,1.43l-.15-.3c.05.02.07-.06.12-.04-.27-.68-.37.96-.83.69-.15-.13-.23-.34-.09-.48-.14.09-.28.19-.42.27-.1-.05-.03-.28.07-.23l-.57-.02v-.04c-.11.19-.38.47-.5.57-.09-.23.11-.12.12-.29l-.4.22c-.02-.37.33-.63.51-.52.1-1.39-.35.26-.69-.68.1-.02.21-.05.32-.08.07-.78-.21-.59-.3-1.14-.05.25.14,1.35-.26,1.56-.05-.13-.15-.22-.41-.03.18-.45-.03-.39-.23-.46l.27-.58c-.27.08-.39.38-.64.58-.21-.16-.03-.63.12-1.03-.28-.28-.13.84-.6.71-.18-.37-.49-.26-1.05-.18-.07-.31.26-.3.29-.5l-.47.3s.07-.16.13-.22c-.25.05-.39.51-.72.46-.25.25-.21-.05-.2-.35.01-.3.05-.62-.36-.45.07-.19.31-.25.46-.44-.71.06-.53,0-1.34.15.04-.18.06-.35.11-.52-.24.5-.87.59-1.45.57-.13.22-.25.41-.29.52l-.61-.28c.05-.11.27-.18.54-.25-.07,0-.13,0-.19,0,.09-.29.47-.39.84-.48-.07.12-.15.24-.23.37.4-.11.81-.27,1.1-.5-.08.02-.16,0-.23-.02.1-.03.19-.07.24-.12.05-.05-.1,0-.27.02l.54-.47-.25.13c.02-.23.08-.47.13-.69-.42,0-.89.02-1.34-.05-.45-.07-.89-.23-1.13-.57.56.04.83-.2,1.43-.35-.59.37.42.4.42.72,0-.19.29-.26.4-.26-.25-.09-.52-.19-.76-.33.49-.14.33-.23.49-.42-.94.37-.76-.26-1.09-.46.34-.07.67-.06.65.23.68-.43-1.24-.22-.65-.66.01.08-.03.12.14.13-.32-.14-.12-.61.18-.52v.07c.08-.49.05-1.47-.78-1.67.11,0,1.01.19,1.18.23-.91-.39-1.81-.87-2.67-1.43.7.22,2.46.28,2.79.77.13-.1.27-.2.07-.5-.12.05-1.08-.04-1.12-.17.87-.12.48-.13,1.25-.3-.19.07-1.25-.37-1.15-.58.15.08,1.08.33,1.18.43-.31-.26-.62-.54-.91-.83.15.19.89.34,1.22.35-.23-.03.16-.38.11-.53l-.32.09c.36-.43-1.23-1.15-.89-1.7.17.18,1.19.8,1.45.62-.46-.36-2.14-1.88-2.16-2.66l.34.08-.05-.59c.53.75,1.66,2.36,2.13,2.99.33-.05.37.14.49-.13.31.07.32.38.3.46.16-.16.34-.31.52-.47-.59-.34-.26-.82-.73-1.12.03.35.08.7.15,1.04-.59-.31-1.36-1.43-.92-1.83.3.04.91.79,1.1.9-.15-.19-.06-.66.1-.6l.15.4c.36-.07-.41-.93.32-.8.12-.07.89.29.6.01-.7-.36-2.55-1.84-2.89-2.34.07-.01,1.05-.08,1.43.07.59.25.83,1.21,1.33,1.43-.13-.13-.22-.37-.24-.45.21,0,.38.43.51.16-.46-.51.46-.38-.32-.5.06-.34.32-.12.53-.38-.39-.24-.82-1.29-.73-1.65.11.14.31.26.4.31.5-.38.95-.36,1.39-.73.15.09.49.07.58.37-.02-.14-.11-.37.02-.5.63.24-.24.32.41.7-.24-.32,0-.71.04-1.06-.44-.43-.53.28-.56.63-.54-.64-.77-1.61-.52-2.31.26-.47.51.3.5.15.81-.45-.28-1.65.7-1.63.57.25.65.85.94,1.12-.19.4-.69.09-.89.27h.42c0,.22-.12.49-.32.45.49.23,1.27-.86,2.1-.9,0-.22.06-.49-.15-.61l-.14.19c-.42-.23,0-.73-.35-.73.07-.42.08-1.01.57-1.05l.41.46c-.11-.15-.44-.14-.43.08,0-.33,1,.32.72-.45l-.49-.19c.09-.42.05-1.19.49-1.23-.48-.42-.04.1-.66-.34.68.61-.86.52-.02,1.08-.7-.53-.6-.02-1.31-.38.12.16.33.24,0,.35.02.06.04.14.04.19-.01,0-.02,0-.03,0h.03s0,.05.01.01c.11.03.23.08.31.16.13.47-.29.75-.29,1.05-.21.03-.07-.23-.28-.35v.44c-.28-.35-.85-.3-.64-.78l-.34.23c-.34-.06-.67.06-.72.34-.21.04-.08.69-.16.31l-.33.61-.07-.08c-.53.35-.54,1.38-1.62,1.24-.09.23-.17.48-.53.62l-.31-.24c-.12.29-.9.29-.71.68-.95-.55-1.17.83-1.65,1.09l.36.36c-.26.24-.38.6-.51,1.07l.36.27c.05.51-.85.55-1.17,1.08-.12-.13,0-.24.16-.26-1.27.03-.24,1.66-1.19,1.86.06.23-.04.31-.19.36,0-.01,0-.03,0-.05-.01.01-.03.04-.04.06-.1.03-.22.06-.32.1.13-.02.24-.04.31-.07-.05.12-.09.32-.07.54l-.47-.13s0,.03,0,.05c-.24.1.14.23.51.29.03.12.08.24.16.35-.77-.16.05.55-.79.44.33.26-.04,1.02.76,1.36-.11-.03-.17.01-.15-.09-.16.16-.3.34-.11.58l-.62-.06c.23.22.46.42.7.62-.42.18-.66.27-1.06-.1.58.8.17.61.8,1.25l-.39-.07c0,.21.49.56.16.66-.39.2-.44.78-.41,1.46.02.68.15,1.43-.02,2.13,1.05-.55-.34.72.55.49-.23.15-.31.38-.62.26.5.51-.04,1.14.87,1.2-.21.19-.43.06-.54.19.08.02.31.08.2.22-.11.14-.25.02-.41-.02.38.62,1.15.23,1.85-.15-.15.45,0,.57.55.45-.15.24-.27.55-.57.29.06.22.55,1.31,1.04.89-.08.16.17.26.26.24.32.35.3.44.69.7l-.03-.16c.64-.47.4.1.75.26l-.06.06c.35.96.43-.01.77.99l.22-.43c.59-.83.3.88.93.78l-.02-.33c.36-.19.03,1.57.25,1.82.02.11-.15.09-.25.11.44.87.34-.52.89-.46-.03.35-.45.75-.12.94.04.16.4,0,.76-.11.37-.12.74-.2.88.18-.03-.28-.06-.56.23-.68.36.02.76,1.2,1.26.47.03.08.04.15.03.21.32-.16.97-.19,1.19-.62.02.83.5.68.91.5.42-.2.78-.42.76.34.29-.01.59-.05.88-.09l-.02.16c.58.09.74-.3.9-.68.13.09.06.24.05.32.82.23.92.15,1.44-.7l.15.48c.11-.3,1.3.56,1.93-.21,0,.06.02.15-.03.24.36-.39.95-.21,1.46-.18.5.03.9-.08.72-.98.12-.21.25-.41.36-.63-.72.15-.2-.76-.59-.93.2-.2.87.22.59.44l-.09-.06c.26.92.95-.06,1.21.52,1.28-.68,2.79-1.01,3.93-1.85l-.57-.49.4-.25c.2.05.49.34.2.53.41.22.23-.64.13-.76.7-.2.34.83.51.71l.18-.23-.1-.02c-.02-.38-.21-.63.13-.87.29-.06.4.25.5.2.03.04.08.03.13-.09l.48-.37-.57-.25c0-.39.42-.36-.23-.65,1.02.47,1.78-1.33,2.15-1.31-.09-.56.16-.81.46-1.13-.16.01-.71-.34-.42-.59.97.93.89-.19,1.84.12-.68-.15.5-.99-.49-1.15.27-.2.42.27.82.25,0-.92,1.21-1.22,1.54-2.13-.14-.1-.46-.1-.58-.41h1.01c.02-.19-.8-.63-.11-.63-.15-.03-.38-.08-.37-.21,1.65-1.2,1.05-3.56,3.24-4.58-.41.09-.38-.07-.31-.25-.12.08-.4-.18-.63-.25l.91-.44c-.56-.38.27-.77-.29-1.08v.26c-.56-.58-1.69-.22-2.55-.64.65.66-1.51.34-.62,1.34-.23.04-.24-.22-.47-.25.32.3.33.49.03.7l-.08-.07c-.28.86-.81,1.03-1.49,1.8l.46.15c-.15.16-.31.14-.46.17.53.54.31-.52.92.04-.99-.18-.7,1.35-1.77.99-.16.28.53.18.36.46l-.3-.07.29.26c-.16.16-.53.07-.76-.05.05-.03,0-.16.02-.22-.43.07-.28.72-.43.75l.31-.17c-.21.9-1.09,1.6-1.08,2.62l.22.07c-.04.77-.49.3-.77.97l-.03-.05c.09.25.06.47-.08.61-.1-.3-.6-.05-.69-.41-.09.82.06.48.4,1.37l-.35-.16c.15.34.28.47.11.81-.05-.44-.57-.2-.67-.73-1.09-.02-.15,1.37-1.24.78.49.97.85-.05.87.23.35.11.36.75.11.84-.2.16-1.22-.66-1.61-.25.04-.04,0-.1.04-.13-.33-.04-.09.54-.56.4.29.57-.28.19.19.83l.3-.49c-.1.34.27,1.28-.43,1.24-.06-.15-.07-.41-.06-.56-.26-.1-.14.29-.4.19-.44-.65.42-.53.27-1.21-.33-.16-.1.84-.51.06.5,1-.52.22-.33,1.12l-.26-.4c0,.1.02.35-.07.41l-.19-.62c.06.62-.74-.06-.82.34.5-.34.43.41.84.55-.32.95-1.04-.78-1.62-.18.06-.11.51.04.47.31-.19,0-.46-.06-.66-.23-.43.34.31.39.24.76-.44-.42-.13.34-.28.62l-.22-.43c-.71,0,.28.99-.43.9l-.05-.71-.21.28-.16-.53c-.13.5-.28.45-.63.42.19.29.28.84,0,.95-.29-.2-.05-.47-.42-.26,0-.32-.05-.71.27-.35-.04-.15-.02-.31-.06-.47-.31-.24-.5.11-.64.15.06,0,.13,0,.18.06-.11.27-.23.55-.35.81-.14-.15-.11-.31-.09-.46-.1.08-.11.32-.27.41-.06-.39-.18-.78-.01-1.02-.13.19-.26.38-.4.57-.08-.16-.38-.38-.35-.54-.33-.16-.54.91-.99.68,0,.08-.04.16-.11.23-.39-.02-.77-.46-1.15.12l-.31-.68c-.33.19.41.86-.15,1.17-.4.24-.18-.59-.33-.79-.16.36-.53,1.1-.89.51.13-.13.22-.02.33-.07ZM63.28,129.07c.11-.06.36-.3.33-.02-.26.5-.25.22-.33.02ZM57.61,126.01c.17-.02.14.1.04.29-.07-.05-.1-.14-.04-.29ZM63.26,107.04s0,.01,0,.03c-.29-.01-.18,0,0-.03ZM63.75,106.93c0-.08-.04-.13-.1-.18.05.12-.03.19-.15.23.1.08.2.11.25-.05ZM81.41,128.37l-.15-.03c.06-.25.1-.12.15.03Z"/>
    <path class="cls-1" d="M58.56,126.28c-.05.06-.12.12-.2.18.08-.02.16-.08.2-.18Z"/>
    <path class="cls-1" d="M70.05,129.01s0,0,.01,0c0-.03,0-.06,0-.09v.08Z"/>
    <path class="cls-1" d="M61.19,114.5c-.11.01-.21-.01-.29-.05.08.08.18.12.29.05Z"/>
    <path class="cls-1" d="M65.33,104.82l-.19.27c.11-.1.21-.04.32-.02-.07-.09-.21-.19-.13-.25Z"/>
    <path class="cls-1" d="M69.1,106c0-.07.07-.05.08-.12l-.12-.19c-.15.1-.17.32.04.31Z"/>
    <path class="cls-1" d="M66.45,106c.24.33.32.11.45-.07,0,0-.02.02-.03.02-.25-.51-.34-.23-.42.05Z"/>
    <path class="cls-1" d="M66.94,105.9s.09-.09.16-.11c-.1-.21-.09,0-.16.11Z"/>
    <path class="cls-1" d="M64.07,106.36c.14.03-.25-.46-.11-.36-.21-.48-.17.9.11.36Z"/>
    <polygon class="cls-1" points="67.32 107.03 66.98 106.65 67.11 107.05 67.32 107.03"/>
    <path class="cls-1" d="M65.79,107.62l.35-.07c-.05-.07-.05-.13-.03-.19-.17.1-.41.14-.32.26Z"/>
    <path class="cls-1" d="M66.11,107.36c.09-.05.17-.12.17-.22-.04.04-.13.12-.17.22Z"/>
    <polygon class="cls-1" points="67.03 107.4 66.9 107.36 66.69 107.46 67.03 107.4"/>
    <path class="cls-1" d="M62.95,109.63l-.19.33c.08.16.22.18.28.04,0-.15.05-.28-.09-.38Z"/>
    <path class="cls-1" d="M64.62,110.06c-.14-.02-.21-.11-.35-.21l.37.5-.02-.29Z"/>
    <path class="cls-1" d="M63.92,110.8c.08.16-.08.7.23.4-.08-.15.1-.48-.23-.4Z"/>
    <polygon class="cls-1" points="59.58 113.73 59.63 113.66 58.87 112.99 59.58 113.73"/>
    <path class="cls-1" d="M59.24,118.55c.36-.19-.54-.35-.12-.49-.18-.18-.34.12-.49-.05.14.31-.04.34.61.54Z"/>
    <path class="cls-1" d="M58.63,118.01s-.05-.1-.09-.17c.03.08.06.13.09.17Z"/>
    <polygon class="cls-1" points="91.05 114.2 91.36 114.03 90.97 114.06 91.05 114.2"/>
    <path class="cls-1" d="M90.56,113.43l.63.19-.48-.37c0,.07,0,.2-.14.19Z"/>
    <path class="cls-1" d="M63.2,127.65l-.07.14c-.04.17,0,.2.08.26v-.39Z"/>
    <polygon class="cls-1" points="65.77 128.85 65.73 128.83 65.73 129.43 65.77 128.85"/>
    <path class="cls-1" d="M68.15,128.22c-.09-.02-.2.11-.29.09.19-.11.36.64.29-.09Z"/>
  </g>
  <g>
    <path class="cls-1" d="M90.57,81.3c.05.13.36-.15.44-.18-.21-.13-.52.24-.44.18Z"/>
    <polygon class="cls-1" points="88.46 80.07 88.61 79.99 88.08 79.99 88.46 80.07"/>
    <path class="cls-1" d="M87.14,78.45c-.42.61.59.49.62.95l-.09.15.55-.23c-.35-.3-1.02-.5-1.08-.87Z"/>
    <path class="cls-1" d="M87.56,76.58c-.16.24-.34-.03.11.26,0-.04.01-.06.02-.08-.03-.03-.07-.08-.13-.18Z"/>
    <path class="cls-1" d="M87.69,76.75c.16.16.08-.27,0,0h0Z"/>
    <path class="cls-1" d="M86.87,76.09l.39.05c.08-.16-.08-.38.08-.39-.31-.13-.38.03-.46.34Z"/>
    <path class="cls-1" d="M86.3,76.24l.18.04c.03-.07.02-.11-.18-.04Z"/>
    <path class="cls-1" d="M86.86,76.37l-.38-.09c-.06.11-.22.27.16.05-.17.12.02.03.22.03Z"/>
    <path class="cls-1" d="M86.91,76.58c0,.23.07.45-.31.4.45.34.77-.05.31-.4Z"/>
    <path class="cls-1" d="M86.51,78.85l-.02.3.3-.02c-.15,0-.12-.44-.28-.28Z"/>
    <path class="cls-1" d="M85.85,74.5c-.12.09-.22.36-.34.51l.28.03c0-.15-.09-.37.06-.54Z"/>
    <path class="cls-1" d="M85.51,75.01l-.42-.05c.18.23.31.18.42.05Z"/>
    <polygon class="cls-1" points="85.68 76.75 86.45 76.76 85.61 76.68 85.68 76.75"/>
    <polygon class="cls-1" points="84.96 73.6 85.34 73.47 84.73 73.63 84.96 73.6"/>
    <path class="cls-1" d="M84.3,73.08c.3-.12.19-.49.42-.52-.2-.12-.52-.07-.8-.02.22.03.35.19.37.54Z"/>
    <path class="cls-1" d="M83.49,72.58c.12,0,.27-.02.43-.05-.12-.02-.25-.01-.43.05Z"/>
    <path class="cls-1" d="M84.75,74.52c.05-.08.18-.29.12-.49l-.2.4s.06.06.09.09Z"/>
    <path class="cls-1" d="M84.66,74.44h0c-.09-.12-.15-.19-.18-.22.02.03.08.09.18.22Z"/>
    <path class="cls-1" d="M84.77,74.54l-.02-.02s-.03.05.02.02Z"/>
    <path class="cls-1" d="M85.39,75.87c-.31.03-.76-.06-.76.46.3-.11.3-.41.76-.46Z"/>
    <path class="cls-1" d="M84.51,75.04l.17.31c.07-.08.15-.25.3-.26l-.47-.05Z"/>
    <polygon class="cls-1" points="84.3 75.02 84.51 75.04 84.45 74.92 84.3 75.02"/>
    <path class="cls-1" d="M83.67,73.28c-.24.04-.37-.06-.52-.16.09.2.21.37.35.5.11-.08.34-.2.17-.33Z"/>
    <path class="cls-1" d="M84.13,73.87h-.04s0,.06.04,0Z"/>
    <path class="cls-1" d="M81.77,71.94s-.02.05-.03.08l.05-.05-.02-.03Z"/>
    <path class="cls-1" d="M83.47,73.7c.05.16.19.14.34.1-.11-.04-.22-.1-.31-.19-.05.04-.08.06-.03.08Z"/>
    <path class="cls-1" d="M82.97,72.4c0,.12.02.23.04.35.03-.15.05-.41-.04-.35Z"/>
    <path class="cls-1" d="M84.13,73.75s.02,0,.03,0c.03-.1,0-.06-.03,0Z"/>
    <path class="cls-1" d="M84.13,73.75c-.1,0-.21.03-.32.06.09.04.18.06.28.06,0-.03.02-.08.04-.12Z"/>
    <path class="cls-1" d="M79.62,73.73c.27-.29.8-.35.77.19.43-.02,1.11-1.15,1.36-1.9-.12.13-.22.24-.63.22-.04.24.25.87-.2.96-.46-.13-.19-.34-.22-.63-.17.49-.89.21-1.26.84l.46.03c-.07.09-.29.15-.27.29Z"/>
    <path class="cls-1" d="M82.21,72.47l.14.05c-.08-.16-.06-.35-.02-.73-.3,0-.43.08-.53.17l.49.49h-.07Z"/>
    <path class="cls-1" d="M82.83,72.93c-.37.25-.74.18-.89.66.33.24.45-.09.76-.07-.57-.35.3-.06.1-.55.15.03.25.09.35.15-.05-.12-.1-.24-.13-.37v.03s0,0,0,0h0c-.01.06-.03.09-.03.05,0,0-.02,0-.02,0-.04.04-.09.07-.13.1-.09-.19.05-.1.13-.1l.05-.04h0s-.66-.26-.66-.26c.07.14.21.24.48.41Z"/>
    <path class="cls-1" d="M83.73,76.74s.04-.06.06-.09c-.07,0-.1.02-.06.09Z"/>
    <path class="cls-1" d="M83.73,76.37c.08,0,.22-.1.3.03,0,.18-.15.15-.24.25.14-.02.45,0,.39-.34h-.07c-.08-.28.06-.9.13-.91-.22.33-.36.58-.51.97Z"/>
    <path class="cls-1" d="M83.22,74.72l-.54-.21-.05.46.14-.17c.17.27.3.02.45-.08Z"/>
    <polygon class="cls-1" points="81.86 71.73 82.2 71.43 81.55 71.72 81.86 71.73"/>
    <polygon class="cls-1" points="81.26 71.32 81.53 71.03 81.23 71.1 81.26 71.32"/>
    <path class="cls-1" d="M52.67,76l.11.13c-.03-.06-.07-.1-.11-.13Z"/>
    <path class="cls-1" d="M52.74,75.05l-.19-.04c.1.05.18.08.19.04Z"/>
    <path class="cls-1" d="M65.66,62.95c-.13-.42-.25-1.05-.34-.62l-.05.44c.19-.03.3.06.39.18Z"/>
    <path class="cls-1" d="M54.07,66.69s.09.04.14.05c-.06-.15-.11-.29-.16-.41,0,.11.02.23.03.36Z"/>
    <path class="cls-1" d="M55.18,68.1c-.12-.02-.24-.03-.37-.03.11.03.23.04.37.03Z"/>
    <path class="cls-1" d="M53.97,81.03h.46c-.08-.23-.25-.06-.46,0Z"/>
    <path class="cls-1" d="M75.07,67.28c-.09-.25-.2-.39-.31-.48.09.34.08.76.31.48Z"/>
    <path class="cls-1" d="M48.08,75.42c.08.11.16.16.26.16-.07-.11-.15-.18-.26-.16Z"/>
    <path class="cls-1" d="M74.24,66.51c.01.06.03.09.05.14.17.01.33.03.47.15-.07-.25-.2-.46-.52-.29Z"/>
    <path class="cls-1" d="M68.66,91.29s.03.03.04.05c0-.06-.01-.06-.04-.05Z"/>
    <path class="cls-1" d="M74.91,95.87c-.06.03-.17.02-.26.03.05.03.13.03.26-.03Z"/>
    <path class="cls-1" d="M79.05,69.42c.14.07.05-.02,0,0h0Z"/>
    <path class="cls-1" d="M78.64,71.24c-.05.02-.11.06-.17.14.07-.08.13-.12.17-.14Z"/>
    <path class="cls-1" d="M71.66,68.2h-.01c0,.09,0,.07.01,0Z"/>
    <path class="cls-1" d="M79.12,69.71c-.02-.08-.04-.15-.08-.22,0,.05.03.12.08.22Z"/>
    <path class="cls-1" d="M79.21,69.53s.06.08.08.11c.06-.05.07-.09-.08-.11Z"/>
    <path class="cls-1" d="M78.86,69.31c.08.04.13.11.18.18,0-.04,0-.07.01-.08-.04-.02-.1-.05-.19-.11Z"/>
    <path class="cls-1" d="M58.08,89.15s0,.03,0,.05c.21-.06.15-.08,0-.05Z"/>
    <path class="cls-1" d="M61.03,66.57s.01-.01.02-.02l-.02-.02v.04Z"/>
    <path class="cls-1" d="M60.56,66.85c.22-.53.34-.45.47-.32l-.04-1.26c-.15.53-.3,1.05-.43,1.58Z"/>
    <path class="cls-1" d="M52.94,78.28l.34-.36c.7.28.52.55,1.02.2-.67.08-.77-.2-.82-.49-.05-.29-.11-.57-.79-.55l.27-.22c0,.06.07.06.06.12.62-.42-1.02-.25-.81-.8.11-.19.31-.31.47-.18l-.33-.42c.03-.12.26-.08.24.04-.04-.21-.06-.41-.07-.62h.04c-.2-.1-.51-.33-.63-.45.21-.14.13.1.31.08l-.29-.39c.36-.09.67.24.6.47,1.4-.14-.34-.34.58-.88l.1.33c.8-.06.58-.33,1.11-.55-.26,0-1.33.42-1.58,0,.12-.08.2-.2-.03-.46.47.11.39-.11.42-.34l.61.18c-.11-.28-.43-.36-.66-.59.15-.26.64-.16,1.05-.08.24-.37-.86.03-.79-.51.36-.27.21-.59.06-1.18.32-.14.33.21.54.21l-.35-.44s.17.04.23.09c-.08-.27-.56-.31-.56-.68-.56-.45,1.21-.04.76-.77.2.03.29.27.51.39-.12-.72-.06-.57-.3-1.37.19,0,.38,0,.56.02-.53-.13-.72-.79-.75-1.38-.24-.09-.46-.17-.58-.19.07-.22.15-.45.24-.67.13.03.22.24.32.51,0-.07,0-.13-.01-.19.32.04.46.41.58.77-.13-.05-.27-.11-.41-.16.15.39.36.78.64,1.03-.03-.07-.02-.16,0-.24.05.1.1.18.15.22.06.04,0-.1-.05-.28l.55.47-.16-.23c.25-.01.49-.02.73,0-.09-.8-.24-1.97.48-2.57,0,.57.27.81.48,1.39-.44-.54-.39.47-.75.51.2-.02.3.26.31.37.08-.26.17-.55.3-.8.18.47.27.3.48.44-.47-.9.23-.79.43-1.14.1.33.11.66-.21.68.5.62.17-1.25.68-.72-.08.02-.13-.01-.13.16.13-.34.66-.16.58.14l-.08.02c.54.02,1.65-.09,1.8-.92,0,.11-.12,1.02-.16,1.19.36-.95.8-1.86,1.32-2.77-.17.72-.04,2.48-.55,2.84.12.11.27.25.58.04-.07-.12-.09-1.08.05-1.13.25.86.2.46.51,1.22-.11-.18.25-1.28.48-1.2-.07.16-.2,1.11-.3,1.21.25-.34.52-.66.79-.98-.19.17-.23.92-.18,1.26,0-.23.46.14.64.07l-.17-.31c.57.32,1.05-1.36,1.69-1.1-.15.2-.61,1.3-.34,1.54.31-.51,1.53-2.42,2.29-2.6v.35s.58-.18.58-.18c-.6.7-2,2.12-2.61,2.66.15.33-.06.39.29.48.02.33-.34.38-.44.36l.72.47c.2-.65.85-.4,1.02-.93l-1.13.32c.19-.65,1.17-1.59,1.73-1.25.05.31-.55,1.07-.62,1.29.16-.19.71-.2.7-.03l-.38.24c.22.35.86-.61.99.14.12.1.05.96.23.61.1-.79.98-2.99,1.37-3.46.03.07.44.98.43,1.41-.03.65-.92,1.15-.95,1.71.08-.16.3-.31.38-.36.07.21-.29.49.04.56.34-.59.58.34.39-.45.38-.04.25.27.61.41.08-.45.98-1.2,1.36-1.21-.1.15-.13.38-.15.49.57.38.76.8,1.3,1.12-.03.17.13.5-.12.69.14-.06.32-.22.5-.14.03.7-.42-.13-.52.62.22-.33.7-.23,1.07-.31.24-.57-.5-.42-.86-.34.41-.73,1.28-1.27,2.07-1.25.57.11-.08.59.06.54.77.66,1.53-.8,1.91.19-.02.64-.58.9-.73,1.27-.47-.08-.37-.65-.63-.79l.17.41c-.21.08-.53.04-.58-.17-.02.54,1.36.99,1.74,1.79.22-.07.51-.08.55-.33l-.24-.08c.06-.49.72-.22.58-.57.44-.05,1.03-.22,1.26.26l-.29.54c.1-.15-.03-.47-.25-.4.32-.1.08,1.09.73.57v-.53c.45-.05,1.17-.3,1.39.11.22-.6-.12,0,.08-.75-.33.85-.84-.7-1.07.3.24-.84-.22-.59-.14-1.4-.11.17-.11.4-.34.11-.05.04-.12.08-.17.1,0-.01,0-.02-.01-.03v.03s-.03.02,0,.01c.02.12.01.25-.03.36-.41.27-.86-.07-1.15.02-.12-.2.2-.14.23-.38l-.44.14c.23-.39-.05-.93.52-.87l-.36-.27c-.08-.36-.33-.65-.63-.61-.13-.2-.72.13-.38-.06l-.75-.14.05-.1c-.56-.43-1.6-.08-1.9-1.19-.26-.02-.54-.01-.83-.3l.11-.38c-.33-.02-.63-.77-.93-.47.18-1.09-1.24-.85-1.64-1.24l-.23.45c-.32-.18-.71-.18-1.2-.17l-.15.42c-.49.18-.79-.69-1.39-.86.1-.15.23-.05.3.09-.33-1.21-1.7.13-2.1-.77-.21.1-.31.01-.39-.13.02,0,.03,0,.05,0-.02-.01-.04-.02-.07-.03-.05-.1-.1-.21-.16-.3.04.12.08.23.12.29-.13-.03-.34-.04-.56.02l.05-.49s-.03,0-.05,0c-.14-.23-.21.18-.21.55-.12.05-.23.11-.33.21.05-.79-.56.13-.57-.73-.23.36-1.06.07-1.31.9.01-.11-.03-.17.07-.16-.2-.13-.39-.27-.63-.06v-.62c-.2.25-.4.5-.59.75-.24-.4-.35-.63,0-1.07-.79.65-.62.21-1.26.9l.04-.39c-.22,0-.57.53-.7.21-.25-.37-.88-.39-1.61-.3-.74.07-1.55.28-2.32.2.67.99-.8-.25-.5.62-.18-.22-.44-.26-.33-.59-.53.56-1.23.15-1.24,1.08-.23-.18-.1-.43-.25-.52-.02.09-.06.33-.22.25-.16-.09-.04-.25,0-.42-.64.5-.13,1.23.33,1.87-.51-.08-.61.1-.43.64-.26-.11-.61-.16-.36-.52-.21.11-1.31.83-.81,1.26-.17-.04-.24.23-.22.32-.33.4-.41.4-.63.87l.16-.06c.55.57-.07.43-.18.83l-.06-.05c-.92.56.05.45-.9,1.01l.46.15c.92.47-.87.49-.66,1.14l.32-.09c.25.36-1.58.32-1.79.6-.1.04-.11-.14-.15-.25-.8.62.57.27.58.87-.35.03-.81-.34-.95.04-.31.17.82,1.34.15,1.76.27-.09.54-.16.71.12.05.39-1.12,1.02-.28,1.44-.07.05-.14.07-.21.07.21.32.33,1.02.78,1.18-.82.16-.58.65-.33,1.06.24.42.53.77-.22.87l.23.92h-.16c-.01.63.44.75.83.87-.07.16-.23.09-.31.1-.09.92,0,1.02.96,1.46l-.45.23c.17.05.09.41.07.84,0,.42.1.93.53,1.21-.05.02-.15.04-.24,0,.44.33.43.98.51,1.54.07.55.3.95,1.15.62l.71.28c-.32-.75.71-.34.79-.78.25.19-.02.96-.3.7l.04-.1c-.87.43.31.99-.21,1.36.49.64.96,1.29,1.41,1.97.5.63.96,1.31,1.6,1.78l.31-.68.39.35c0,.22-.19.58-.48.32-.08.46.73.11.82-.01.44.68-.73.53-.55.67.1.05.19.1.29.14v-.11c.38-.11.57-.36.94-.09.17.28-.11.46-.03.55-.03.04,0,.09.14.11.19.14.37.29.57.4l.04-.63c.4-.11.55.31.58-.4-.04.54.49.91,1.03,1.17.56.23,1.12.36,1.2.55.53-.27.89-.13,1.36.05-.09-.15.03-.79.4-.6-.5,1.26.59.76.72,1.77-.17-.68,1.23.09.93-.9.32.17-.07.5.14.86.92-.36,1.8.62,2.86.54.03-.17-.11-.46.13-.7l.47.92c.21-.07.26-.99.58-.36-.04-.15-.1-.38.03-.43,1.94.99,4.02-.56,5.92,1.1-.25-.35-.08-.38.12-.38-.13-.08.01-.43,0-.67l.79.68c.17-.66.86-.02.97-.64l-.26.1c.37-.73-.42-1.68-.34-2.63-.41.84-1-1.29-1.66-.08-.14-.2.13-.31.06-.53-.17.41-.37.49-.72.3l.04-.1c-1.01.08-1.43-.33-2.53-.63l.07.48c-.24-.07-.28-.22-.39-.34-.3.71.67.06.39.84-.29-.97-1.69-.08-1.83-1.19-.36-.03.07.55-.29.53l-.08-.3-.12.38c-.23-.08-.32-.46-.31-.71.05.03.16-.06.23-.07-.27-.37-.85.05-.95-.07l.32.21c-1,.19-2.09-.33-3.08.09l.03.23c-.78.28-.5-.36-1.29-.33l.04-.05c-.2.18-.43.23-.63.15.25-.2-.21-.59.11-.8-.84.22-.44.23-1.18.86v-.39c-.26.26-.34.43-.74.37.41-.18-.02-.62.45-.88-.41-1.02-1.4.28-1.21-.94-.78.76.35.81.08.92.02.38-.6.56-.79.35-.23-.14.21-1.34-.3-1.65.05.04.09-.03.14,0-.05-.34-.57.06-.57-.44-.49.44-.27-.24-.77.38.19.08.38.13.58.18-.39.02-1.18.55-1.37-.15.13-.1.39-.17.55-.19.01-.28-.34-.06-.33-.35.53-.6.67.29,1.29,0,.06-.36-.84.08-.2-.51-.85.72-.39-.45-1.23-.07l.33-.34c-.1.01-.34.09-.42,0l.56-.32c-.59.17-.15-.76-.57-.75.49.42-.29.51-.32.95-1.07-.11.51-1.22-.25-1.7.13.04.1.53-.19.54-.05-.2-.07-.48.05-.72-.47-.38-.31.39-.7.39.31-.53-.36-.09-.68-.2l.38-.3c-.18-.74-.92.46-1.01-.29l.71-.17c-.11-.05-.23-.1-.34-.17l.49-.26c-.52-.06-.5-.22-.56-.6-.24.25-.77.43-.96.16.13-.33.45-.12.17-.49.31-.06.68-.15.41.23.15-.06.31-.08.46-.14.15-.35-.22-.52-.29-.65.01.06.02.14-.02.2l-.89-.25c.11-.17.28-.17.44-.16-.11-.09-.35-.07-.48-.22.38-.13.74-.32,1.02-.17-.22-.1-.45-.21-.65-.34.14-.11.31-.47.47-.46.09-.37-1.03-.43-.87-.96-.08,0-.16-.01-.25-.08-.06-.42.3-.88-.33-1.22l.62-.43c-.25-.33-.77.57-1.19,0-.32-.41.55-.29.72-.48-.38-.14-1.16-.43-.66-.92.15.12.07.24.14.36ZM52.74,73.61c.08.11.35.34.06.35-.52-.19-.24-.23-.06-.35ZM55.24,66.93c.04.16-.09.17-.3.1.05-.08.13-.14.3-.1ZM77.44,68.79h-.02c-.1-.28-.07-.17.02,0ZM77.75,69.26c.08-.03.12-.08.13-.15-.1.08-.2.02-.29-.08-.04.13-.03.24.15.23ZM57.58,92.73l-.03-.16c.28,0,.15.08.03.16Z"/>
    <path class="cls-1" d="M55.05,67.94c-.07-.04-.14-.1-.21-.17.03.08.1.15.21.17Z"/>
    <path class="cls-1" d="M53.89,81.03s0,0,0,.02c.03,0,.06,0,.09-.02h-.09Z"/>
    <path class="cls-1" d="M69.1,69.07c-.06-.1-.07-.21-.07-.31-.05.11-.05.21.07.31Z"/>
    <path class="cls-1" d="M80.46,70.18l-.35-.1c.14.08.13.19.15.3.06-.09.11-.26.2-.21Z"/>
    <path class="cls-1" d="M80.79,74.28c.07-.02.08.06.15.04l.14-.18c-.16-.12-.38-.07-.29.14Z"/>
    <path class="cls-1" d="M79.73,71.64c-.23.34.02.35.24.43-.01,0-.02-.01-.03-.02.4-.41.1-.41-.21-.41Z"/>
    <path class="cls-1" d="M80.02,72.1c.07.03.13.06.17.12.16-.16-.04-.09-.17-.12Z"/>
    <path class="cls-1" d="M78.44,69.4c.03.15.35-.39.31-.22.4-.36-.97.1-.31.22Z"/>
    <polygon class="cls-1" points="79.06 72.81 79.3 72.37 78.96 72.61 79.06 72.81"/>
    <path class="cls-1" d="M77.87,71.47l.21.32c.05-.07.11-.08.18-.08-.17-.14-.3-.37-.38-.24Z"/>
    <path class="cls-1" d="M78.26,71.72c.09.08.18.13.28.1-.05-.03-.17-.1-.28-.1Z"/>
    <polygon class="cls-1" points="78.59 72.64 78.57 72.49 78.39 72.32 78.59 72.64"/>
    <path class="cls-1" d="M74.73,69.29l-.41-.07c-.12.13-.08.27.08.28.14-.05.3-.04.33-.21Z"/>
    <path class="cls-1" d="M74.99,71.07c-.03-.14.02-.24.06-.41l-.34.52.28-.11Z"/>
    <path class="cls-1" d="M73.98,70.61c-.12.13-.72.14-.29.35.12-.13.51-.05.29-.35Z"/>
    <polygon class="cls-1" points="69.27 67.28 69.37 67.31 69.77 66.37 69.27 67.28"/>
    <path class="cls-1" d="M63.84,67.83c.32.35.27-.58.54-.18.17-.2-.22-.33-.07-.5-.32.17-.4,0-.48.67Z"/>
    <path class="cls-1" d="M64.32,67.16c.05-.03.11-.06.17-.11-.09.04-.14.08-.17.11Z"/>
    <polygon class="cls-1" points="75.95 96.45 76.23 96.67 76.06 96.32 75.95 96.45"/>
    <path class="cls-1" d="M76.53,95.71l.04.65.2-.58c-.07.03-.19.08-.24-.07Z"/>
    <path class="cls-1" d="M54.15,73.26l-.15-.06c-.17,0-.19.04-.24.14l.39-.09Z"/>
    <polygon class="cls-1" points="53.3 76.31 53.32 76.26 52.73 76.37 53.3 76.31"/>
    <path class="cls-1" d="M54.32,78.89c0-.11-.14-.21-.13-.32.14.21-.58.5.13.32Z"/>
  </g>
</svg>