<?xml version="1.0" encoding="UTF-8"?>
<svg id="Layer_1" data-name="Layer 1" xmlns="http://www.w3.org/2000/svg" viewBox="0 0 115.14 86.5">
  <defs>
    <style>
      .cls-1 {
        fill: #5a5b1e;
      }
    </style>
  </defs>
  <g>
    <path class="cls-1" d="M37.92,44.6c.08-.04-.28-.27-.34-.32,0,.17.43.38.34.32Z"/>
    <polygon class="cls-1" points="38.06 46.17 37.92 46.07 38.2 46.42 38.06 46.17"/>
    <path class="cls-1" d="M37.56,47.18c.7.19.05-.42.38-.49l.16.04-.47-.34c-.04.27.19.71-.06.79Z"/>
    <path class="cls-1" d="M35.89,47.22c.28.05.18.22.13-.12-.03,0-.05,0-.08,0,0,.03-.02.06-.06.12Z"/>
    <path class="cls-1" d="M35.95,47.11c.03-.13-.25,0,0,0h0Z"/>
    <path class="cls-1" d="M35.9,47.74l-.18-.24c-.17-.02-.25.13-.35.03.08.22.24.23.53.21Z"/>
    <path class="cls-1" d="M36.35,48.05l-.08-.11c-.07,0-.1.01.08.11Z"/>
    <path class="cls-1" d="M36.12,47.69l.16.25c.12,0,.34.08-.05-.11.2.08.01-.02-.1-.14Z"/>
    <path class="cls-1" d="M36.26,47.62c.18-.04.31-.12.49.11,0-.33-.48-.46-.49-.11Z"/>
    <path class="cls-1" d="M38.22,47.51l.23-.02-.18-.18c.09.09-.26.12-.05.2Z"/>
    <path class="cls-1" d="M35.26,48.72c.15.04.41.03.6.06l-.14-.16c-.12.04-.24.14-.46.11Z"/>
    <path class="cls-1" d="M35.86,48.78l.22.24c.06-.16-.05-.21-.22-.24Z"/>
    <path class="cls-1" d="M37.11,48.3l-.44-.44c.14.17.29.33.43.49v-.05Z"/>
    <polygon class="cls-1" points="35.11 49.47 34.78 49.3 35.27 49.58 35.11 49.47"/>
    <path class="cls-1" d="M35.1,49.98c-.28-.12-.5.06-.67-.05.04.15.27.3.49.42-.12-.12-.07-.25.18-.37Z"/>
    <path class="cls-1" d="M35.24,50.56c-.07-.06-.19-.13-.32-.2.06.07.16.13.32.2Z"/>
    <path class="cls-1" d="M35.95,49.32c-.09,0-.33-.02-.45.08h.43s.01-.05.02-.08Z"/>
    <path class="cls-1" d="M35.94,49.39h-.01c-.02.08-.04.13-.05.15,0-.02.03-.07.06-.15Z"/>
    <path class="cls-1" d="M35.95,49.3v.02s.05,0,0-.02Z"/>
    <path class="cls-1" d="M36.61,48.65c.21.16.41.42.81.31-.27-.14-.5-.07-.81-.31Z"/>
    <path class="cls-1" d="M36.49,49.31l.13-.17c-.11-.02-.28-.02-.39-.09l.25.26Z"/>
    <polygon class="cls-1" points="36.61 49.42 36.49 49.31 36.45 49.37 36.61 49.42"/>
    <path class="cls-1" d="M35.66,50.24c.17.1.18.2.21.31.09-.11.14-.22.16-.33-.13-.03-.37-.1-.36.02Z"/>
    <path class="cls-1" d="M35.83,49.82l.02.02s.05-.01-.02-.02Z"/>
    <path class="cls-1" d="M35.84,51.59s.05-.01.08-.02h-.07s0,.02,0,.02Z"/>
    <path class="cls-1" d="M36.11,50.2c.09-.07,0-.13-.13-.2.04.07.06.14.05.21.06.01.1.02.08-.01Z"/>
    <path class="cls-1" d="M35.42,50.87c.09-.04.17-.09.24-.14-.14.04-.35.12-.24.14Z"/>
    <path class="cls-1" d="M35.73,49.86l-.02-.02c-.09.02-.05.02.02.02Z"/>
    <path class="cls-1" d="M35.73,49.86c.06.05.16.1.25.14-.03-.06-.07-.11-.13-.16-.03,0-.08.01-.12.01Z"/>
    <path class="cls-1" d="M38.59,51.76c-.4.01-.77-.16-.35-.33-.3-.15-1.6-.06-2.33.13.17,0,.33,0,.57.18.21-.08.49-.41.86-.27.21.22-.13.19-.34.31.49-.11.73.25,1.46.15l-.27-.16c.11,0,.29.05.4,0Z"/>
    <path class="cls-1" d="M35.96,51.2l-.05-.08c-.07.09-.23.15-.54.28.2.14.34.16.48.17.01-.13.03-.27.05-.4l.06.03Z"/>
    <path class="cls-1" d="M35.92,50.75c.42.09.6.27,1.07.18-.02-.21-.35-.17-.53-.31.08.37-.23-.12-.49.13-.07-.08-.09-.15-.1-.21-.06.07-.13.13-.21.19h.03s0,0,0,0h0c.05-.01.09-.02.06,0,0,0,0,0,0,0,.06,0,.11.02.16.03-.1.11-.11.01-.16-.03h-.06s0,0,0,0c.07.13.15.26.22.39.06-.08.05-.18.01-.36Z"/>
    <path class="cls-1" d="M38.29,49.33s-.07,0-.1-.01c.05.03.08.05.1.01Z"/>
    <path class="cls-1" d="M38.01,49.4c-.05-.03-.22-.09-.16-.16.14-.04.2.04.34.07-.1-.07-.27-.22-.5-.13l.05.04c-.17.09-.73.17-.79.13.39.03.67.05,1.06.04Z"/>
    <path class="cls-1" d="M37.05,50.02l.18.31.39-.1-.22-.02c.1-.15-.17-.15-.34-.19Z"/>
    <polygon class="cls-1" points="35.63 51.63 35.17 51.59 35.82 51.77 35.63 51.63"/>
    <polygon class="cls-1" points="35.7 52.05 35.31 52.06 35.55 52.16 35.7 52.05"/>
    <path class="cls-1" d="M48.71,51l-.11-.06s.07.04.11.06Z"/>
    <path class="cls-1" d="M48.63,51.32l.19.04c-.1-.04-.18-.06-.19-.04Z"/>
    <path class="cls-1" d="M43.31,59.35c.11.38.26.95.26.51l-.03-.43c-.1.07-.17.02-.23-.07Z"/>
    <path class="cls-1" d="M48.6,55.32l-.1-.09c.07.13.13.26.19.38-.03-.09-.05-.19-.08-.29Z"/>
    <path class="cls-1" d="M47.56,53.86l.26.15c-.08-.06-.17-.11-.26-.15Z"/>
    <path class="cls-1" d="M48.05,49.12l-.44.07c.03.08.23-.02.44-.07Z"/>
    <path class="cls-1" d="M37.36,56.49c-.05.23-.02.37.04.46.06-.31.28-.64-.04-.46Z"/>
    <path class="cls-1" d="M53.25,51.75c-.07-.07-.15-.11-.25-.12.07.07.14.12.25.12Z"/>
    <path class="cls-1" d="M37.71,57.29c.01-.05,0-.09.02-.13-.13-.03-.26-.08-.32-.2-.05.23-.01.43.31.33Z"/>
    <path class="cls-1" d="M43.3,45.3s-.01-.03-.03-.05c.01.06.02.06.03.05Z"/>
    <path class="cls-1" d="M38.72,42.96s.06-.1.11-.14c-.04,0-.08.04-.11.14Z"/>
    <path class="cls-1" d="M35.77,53.83c-.05-.09-.05,0,0,0h0Z"/>
    <path class="cls-1" d="M37.36,53.05c.05,0,.11,0,.21,0-.1.01-.17.01-.21,0Z"/>
    <path class="cls-1" d="M40.15,55.83h0c.03-.08.03-.06,0,0Z"/>
    <path class="cls-1" d="M35.93,53.65s-.08.1-.1.15c.03-.03.06-.07.1-.15Z"/>
    <path class="cls-1" d="M35.74,53.71s.02-.07.02-.09c-.07,0-.12.02-.02.09Z"/>
    <path class="cls-1" d="M35.83,53.96c-.02-.05-.01-.11,0-.17-.02.03-.05.04-.06.04.01.03.03.06.06.13Z"/>
    <path class="cls-1" d="M47.28,45.25s0-.02.02-.04c-.16.1-.12.1-.02.04Z"/>
    <path class="cls-1" d="M44.96,54.79s0,.02,0,.02h.01s0-.02,0-.02Z"/>
    <path class="cls-1" d="M45.09,54.44c.02.54-.05.49-.13.38l.26,1.23c-.03-.54-.08-1.08-.13-1.61Z"/>
    <path class="cls-1" d="M48.59,50.16l-.38.14c-.65-.09-.44-.17-.97-.04,1.36-.09.16.34,1.51.35l-.29.07s-.07-.02-.05-.04c-.66.11.98.14.77.34-.11.06-.31.08-.47.02l.32.19s-.26,0-.23-.04l.07.23h-.04c.2.06.51.2.64.28-.21.02-.13-.06-.3-.09l.29.21c-.35-.04-.66-.23-.59-.29-1.34-.22.31.19-.52.18l-.14-.14c-.75-.17-.51-.03-.98-.14.23.1,1.2.24,1.49.45-.11,0-.17.02.06.18-.45-.18-.36-.08-.37,0l-.58-.27c.14.14.43.27.67.45-.1.06-.55-.16-.92-.34-.15.06.74.3.76.51-.28-.01-.09.19.11.56-.24-.05-.31-.25-.47-.32l.35.38s-.14-.09-.2-.14c.11.18.5.4.55.61.5.5-.95-.47-.47.18-.16-.1-.26-.29-.45-.46.22.52.15.39.47,1.05-.14-.07-.27-.14-.4-.21.4.3.64.83.78,1.31.18.15.35.28.43.33,0,.15-.02.31-.04.46-.09-.06-.19-.26-.31-.5.02.05.03.11.05.16-.22-.13-.39-.47-.55-.79.1.08.21.17.31.26-.18-.35-.4-.73-.64-1.01.03.07.05.13.05.18-.05-.09-.1-.17-.15-.22-.05-.05.02.08.09.23l-.46-.55.16.24c-.16-.07-.32-.14-.47-.22.24.7.59,1.73.34,2.17-.13-.52-.35-.78-.61-1.34.37.55.1-.36.3-.32-.11-.02-.23-.29-.27-.38.02.21.03.44.03.66-.22-.46-.22-.32-.37-.47.47.89.07.7.06,1.03-.13-.31-.22-.64-.06-.62-.42-.64.23,1.17-.16.64.03-.02.07.02.03-.15.02.31-.28.16-.31-.14l.03-.02c-.26-.03-.71.18-.61,1.02-.02-.11-.15-1.01-.18-1.19.05.96.03,1.94-.05,2.91-.06-.73-.43-2.43-.28-2.87-.07-.1-.15-.21-.24.06.05.1.22,1.04.17,1.11-.25-.79-.17-.42-.41-1.1.07.15.09,1.3-.03,1.27,0-.17-.07-1.13-.05-1.25-.05.38-.12.76-.2,1.13.06-.2-.02-.95-.08-1.27.03.22-.2-.02-.26.09l.1.26c-.26-.17-.31,1.58-.65,1.5.06-.23.18-1.42.05-1.57-.09.57-.55,2.74-.97,3.12l-.02-.34-.32.33c.35-.82.97-2.57,1.19-3.27-.07-.27.01-.39-.14-.37-.01-.31.13-.46.17-.47-.1-.08-.19-.15-.27-.23-.08.67-.33.63-.43,1.18.16-.21.32-.42.46-.63-.06.67-.49,1.86-.76,1.69-.01-.28.29-1.16.32-1.38-.07.22-.31.39-.29.22l.17-.33c-.05-.27-.42.81-.39.15-.04-.06.14-.87,0-.49-.19.75-.86,3.02-1.13,3.54-.02-.06-.18-.84-.1-1.22.14-.59.7-1.26.81-1.78-.07.17-.2.36-.25.42.01-.17.24-.51.11-.48-.3.61-.19-.15-.29.5-.2.12-.05-.18-.18-.22-.17.41-.88,1.23-1.15,1.27.11-.14.2-.34.25-.44-.2-.21-.16-.49-.27-.69-.01-.03-.03-.06-.06-.09.1-.13.17-.35.43-.51-.11.06-.31.18-.37.13.38-.47.17.06.65-.47-.31.25-.53.22-.79.26-.49.38.07.3.32.2-.63.56-1.47.96-2.04.8-.35-.17.4-.4.26-.39-.13-.54-1.57.2-1.21-.54.44-.38,1-.38,1.35-.56.26.12-.19.44-.1.58l.15-.28c.19,0,.37.06.27.2.36-.32-.25-.79.1-1.26-.19-.01-.4-.08-.59.02l.1.1c-.39.22-.64-.08-.8.12-.34-.09-.85-.22-.66-.52l.6-.14c-.18.03-.33.22-.14.26-.29-.07.76-.5-.05-.49l-.4.23c-.33-.13-1.01-.31-.83-.57-.59.16.07.05-.62.29.85-.25.04.66.93.29-.79.3-.3.36-.94.74.2-.05.36-.17.31.08.06,0,.14,0,.18.01v.02s0-.02,0-.02c.03,0,.04,0,0,0,.08-.07.17-.13.28-.17.47,0,.54.33.8.37-.06.14-.24.01-.43.14l.39.06c-.43.14-.6.56-.95.33l.07.29c-.18.25-.18.54.06.61-.03.18.61.13.24.17.15.11.31.22.47.31l-.1.06c.1.23.39.35.63.52.23.16.39.36.3.85l.1.02c.18.04.34.09.46.33l-.2.34c.25.04.35.75.66.46-.18.51.05.72.35.81.3.1.64.07.78.23l.2-.47c.22.12.49.06.82-.05l.11-.43c.32-.29.49.46.86.49-.06.16-.14.1-.18-.01.27,1.09,1-.58,1.26.18.11-.15.17-.1.23.02,0,0-.02,0-.02.02,0,0,.02,0,.04,0,.04.08.07.17.12.25-.03-.11-.07-.2-.1-.25.07,0,.19-.05.3-.16l.03.48s.02,0,.03-.01c.1.18.09-.22.05-.59.06-.08.11-.17.14-.29.08.78.27-.26.39.57.07-.4.53-.32.52-1.18.01.11.04.16,0,.17.12.09.24.18.32-.07l.11.6c.06-.28.11-.56.15-.85.19.35.29.56.2,1.04.27-.77.27-.32.44-1.08l.06.39c.11-.04.16-.59.3-.29.43.68,1.19-.21,2.07.13-.62-1,.52.33.14-.49.16.23.32.32.33.58.19-.4.72.1.53-.68.18.21.15.38.27.5,0-.07-.03-.27.09-.15.12.12.08.22.09.36.32-.26-.15-.98-.59-1.64.36.21.41.11.17-.38.2.17.46.32.35.53.12-.03.83-.19.4-.68.14.09.15-.08.12-.15.21-.16.27-.14.4-.37l-.13-.02c-.51-.59,0-.27.07-.49l.06.05c.74-.04-.09-.31.7-.33l-.41-.24c-.85-.59.73-.01.53-.47l-.29-.05c-.25-.27,1.44.27,1.64.14.1,0,.11.12.14.2.75-.2-.55-.32-.55-.68.34.07.77.41.92.2.32-.05-.81-1-.12-1.11-.27,0-.54,0-.69-.19-.04-.21,1.1-.43.31-.76.07-.02.14-.02.21-.01-.19-.2-.3-.59-.74-.71.83-.03.64-.32.42-.55-.22-.23-.47-.41.29-.47l-.13-.5h.16c.06-.35-.33-.41-.71-.44.09-.09.24-.06.32-.07.22-.51.13-.57-.7-.73l.47-.17c-.3,0,.55-.89-.17-1.12.05-.02.15-.04.22-.03-.36-.14-.17-.54-.12-.88.05-.33-.03-.58-.87-.21l-.55-.06c.08.42-.7.35-.88.64-.16-.07.26-.61.44-.5l-.06.07c.84-.43,0-.6.55-.95-.5-.66-.68-1.64-1.32-2.24l-.41.61-.18-.21c.05-.18.28-.51.43-.35.18-.4-.49.04-.59.17-.14-.48.65-.58.56-.67l-.18-.06-.02.09c-.3.15-.49.4-.67.23-.05-.21.19-.42.15-.48.03-.04.02-.08-.07-.07-.1-.09-.19-.18-.29-.26l-.17.57c-.28.16-.28-.19-.47.45.31-1.02-1.02-.91-1.04-1.23-.36.32-.56.25-.81.13.04.13-.09.77-.28.65.38-1.29-.27-.66-.33-1.63.09.65-.73.07-.53,1.01-.18-.12.03-.5-.1-.82-.5.48-1.1-.35-1.73-.09.02.18.15.43.07.7-.14-.27-.3-.54-.47-.81-.11.11.1,1.02-.25.47.07.14.16.34.1.42-.66-.29-1.22.1-1.71.45-.51.36-.97.64-2.01.5.37.13.3.24.21.34.12,0,.29.32.47.48-.28-.06-.55-.08-.84-.09.42.5-.34.47.13.91v-.2c.49.6,1.46.82,2.16,1.5-.27-.33.04-.2.29-.08.26.12.47.24.16-.3.16.12.17.26.33.42-.23-.35-.22-.46-.01-.39l.05.09c.21-.28.57-.01.98.09l-.22-.42c.1.03.17.16.25.25-.18-.7-.22.05-.46-.71.47.84.61-.22.98.83.11-.02-.18-.52-.05-.54l.1.28-.06-.38c.1.04.21.39.26.64-.02-.03-.03.08-.05.11.15.32.23-.16.28-.06l-.13-.16c.29-.33.67.04,1.02-.53v-.22c.31-.38.18.26.48.12l-.02.05c.1-.21.2-.3.28-.26-.13.24,0,.52-.16.78.36-.35.2-.3.65-1.03l-.08.37c.18-.29.25-.45.45-.48-.24.25-.12.56-.41.9-.07.85.78-.55.36.57.63-.83.03-.64.2-.79.08-.34.47-.63.53-.47.1.08-.49,1.23-.29,1.34-.02-.02-.06.05-.08.03-.07.26.35-.2.19.22.42-.46.09.11.6-.5h-.31c.22-.09.92-.73.83-.21-.12.11-.31.22-.42.28-.1.22.2-.03.1.2-.54.59-.34-.07-.82.33-.16.3.56-.3-.04.33.77-.77.08.24.76-.26l-.33.34c.07-.04.26-.16.29-.12l-.49.38c.46-.29-.16.49.12.37-.17-.17.38-.43.55-.75.71-.17-.77.98-.4,1.08-.08.01.11-.31.33-.4-.03.12-.12.3-.29.48.21.12.37-.33.66-.42-.41.41.26-.04.48-.05l-.4.28c-.1.41.88-.49.72-.05l-.63.26.22.02-.48.27c.42-.1.35,0,.29.2.28-.19.78-.41.85-.29-.21.22-.43.17-.28.3-.29.1-.64.23-.29-.04-.14.06-.28.12-.42.17-.25.23.03.23.06.28,0-.03.02-.06.07-.11.24-.03.47-.04.71-.05-.15.11-.3.14-.44.17.07.03.29-.03.36.03-.37.13-.74.29-.95.28.16,0,.33.02.49.04-.15.08-.4.28-.54.3-.17.18.81.03.58.29.08-.01.15-.02.21,0-.04.19-.48.42.08.49l-.67.22c.18.11.85-.3,1.15-.09.25.15-.58.15-.77.24.36.02,1.1.12.54.32-.14-.04-.04-.09-.09-.13ZM48.72,51.83c-.08-.06-.37-.21-.09-.15.52.2.26.15.09.15ZM47.78,54.77c-.06-.15.02-.11.17,0-.01.06-.06.07-.17,0ZM36.47,54.76s.01,0,.02,0c-.11.22-.07.14-.02,0ZM36.55,54.38c-.07,0-.14.01-.2.05.12-.02.15.05.15.14.11-.06.18-.13.05-.19ZM48.59,42.18l-.02.14c-.19.04-.09-.04.02-.14Z"/>
    <path class="cls-1" d="M47.68,54.03c.06.06.12.13.17.2-.04-.07-.1-.15-.17-.2Z"/>
    <polygon class="cls-1" points="48.13 49.11 48.14 49.1 48.05 49.12 48.13 49.11"/>
    <path class="cls-1" d="M41.71,54.52c0,.08-.02.16-.04.25.05-.11.07-.21.04-.25Z"/>
    <path class="cls-1" d="M35.37,52.88l.15.19c-.04-.1.06-.15.13-.21-.11.02-.27.08-.28.02Z"/>
    <path class="cls-1" d="M38.26,51.18c-.06-.02,0-.05-.07-.07h-.22c.01.1.19.17.29.07Z"/>
    <path class="cls-1" d="M36.94,52.51c.4-.06.25-.15.17-.26,0,0,0,.01,0,.02-.57.01-.37.13-.17.24Z"/>
    <path class="cls-1" d="M37.09,52.22s-.04-.07-.02-.11c-.23,0-.04.05.02.11Z"/>
    <path class="cls-1" d="M36.18,54.06c.08-.09-.51.09-.36.01-.52.07.73.29.36-.01Z"/>
    <polygon class="cls-1" points="38.26 52.26 37.77 52.36 38.18 52.37 38.26 52.26"/>
    <path class="cls-1" d="M38.04,53.17l.1-.2c-.08.02-.13,0-.18-.01,0,.11-.07.25.08.22Z"/>
    <path class="cls-1" d="M37.96,52.95c0-.06-.02-.11-.11-.13.01.03.04.09.11.13Z"/>
    <polygon class="cls-1" points="38.44 52.47 38.34 52.54 38.32 52.66 38.44 52.47"/>
    <path class="cls-1" d="M38.67,55.02l.23.09c.15-.08.21-.18.11-.21-.12.03-.22,0-.35.12Z"/>
    <path class="cls-1" d="M39.62,53.9c-.08.08-.18.13-.31.23l.56-.27-.25.04Z"/>
    <path class="cls-1" d="M39.94,54.2c.16-.07.51-.12.4-.22-.15.09-.34.04-.4.22Z"/>
    <polygon class="cls-1" points="41.3 56.19 41.25 56.18 40.9 57.14 41.3 56.19"/>
    <path class="cls-1" d="M43.71,54.17c-.14-.25-.07.63-.2.31-.06.24.11.26.06.46.12-.25.16-.1.14-.78Z"/>
    <path class="cls-1" d="M43.57,54.95s-.04.09-.06.15c.03-.06.05-.11.06-.15Z"/>
    <polygon class="cls-1" points="37.82 43.15 37.52 43.19 37.87 43.29 37.82 43.15"/>
    <path class="cls-1" d="M38.18,43.92l-.56-.34.41.43c0-.05,0-.15.15-.09Z"/>
    <path class="cls-1" d="M47.43,51.54l.14.07c.16.06.18.05.21.03l-.35-.1Z"/>
    <polygon class="cls-1" points="48.08 50.84 48.07 50.85 48.66 50.86 48.08 50.84"/>
    <path class="cls-1" d="M47.3,50.01s.12.06.1.1c-.11-.06.63-.22-.1-.1Z"/>
  </g>
  <g>
    <path class="cls-1" d="M46.47,37.69c-.06.11.36.14.43.17-.06-.22-.54-.19-.43-.17Z"/>
    <polygon class="cls-1" points="45.89 35.57 46.05 35.63 45.69 35.27 45.89 35.57"/>
    <path class="cls-1" d="M46.22,33.73c-.73.05,0,.68-.31.97l-.17.03.54.25c-.02-.41-.3-1-.06-1.24Z"/>
    <path class="cls-1" d="M47.92,33.03c-.28.01-.2-.25-.13.21.03-.02.05-.02.08-.03,0-.04.01-.09.05-.18Z"/>
    <path class="cls-1" d="M47.87,33.21c-.01.2.25-.09,0,0h0Z"/>
    <path class="cls-1" d="M47.87,32.29l.2.3c.17-.02.25-.24.35-.14-.09-.28-.26-.26-.55-.16Z"/>
    <path class="cls-1" d="M47.4,31.96l.08.15c.07-.01.1-.04-.08-.15Z"/>
    <path class="cls-1" d="M47.65,32.43l-.17-.32c-.12.02-.35-.02.06.14-.2-.06-.01.03.11.18Z"/>
    <path class="cls-1" d="M47.51,32.57c-.18.12-.31.28-.51-.02,0,.5.52.52.51.02Z"/>
    <path class="cls-1" d="M45.51,33.51l-.24.15.21.21c-.1-.1.26-.33.03-.36Z"/>
    <path class="cls-1" d="M48.52,30.77c-.15-.04-.41.01-.61,0l.14.22c.12-.08.25-.24.47-.22Z"/>
    <path class="cls-1" d="M47.91,30.77l-.21-.33c-.08.25.04.31.21.33Z"/>
    <polygon class="cls-1" points="46.63 31.77 47.09 32.33 46.64 31.68 46.63 31.77"/>
    <polygon class="cls-1" points="48.73 29.7 49.05 29.92 48.57 29.55 48.73 29.7"/>
    <path class="cls-1" d="M48.8,28.98c.27.17.51-.07.67.08-.02-.2-.23-.41-.43-.6.1.18.03.34-.24.52Z"/>
    <path class="cls-1" d="M48.76,28.15c.05.09.16.2.28.31-.05-.1-.13-.2-.28-.31Z"/>
    <path class="cls-1" d="M47.86,29.98c.09,0,.34,0,.47-.14l-.44.04s-.02.07-.03.11Z"/>
    <path class="cls-1" d="M47.87,29.87h.01c.03-.12.06-.2.07-.24-.01.03-.03.1-.08.24Z"/>
    <path class="cls-1" d="M47.86,30.01v-.03s-.05,0,0,.03Z"/>
    <path class="cls-1" d="M47.14,31.11c-.21-.21-.4-.6-.81-.33.27.17.51.02.81.33Z"/>
    <path class="cls-1" d="M47.31,30.05l-.15.28c.11.01.28-.01.39.09l-.24-.37Z"/>
    <polygon class="cls-1" points="47.2 29.88 47.31 30.05 47.36 29.95 47.2 29.88"/>
    <path class="cls-1" d="M48.27,28.6c-.16-.16-.15-.31-.15-.47-.11.16-.19.32-.22.49.13.05.35.16.37-.02Z"/>
    <path class="cls-1" d="M48.04,29.21l-.02-.03s-.05.02.02.03Z"/>
    <path class="cls-1" d="M48.41,26.56s-.05,0-.08.01l.07.02v-.03Z"/>
    <path class="cls-1" d="M47.82,28.63c-.1.11-.02.21.1.31-.03-.1-.03-.21-.02-.32-.06-.02-.1-.03-.08.01Z"/>
    <path class="cls-1" d="M48.64,27.68c-.1.05-.19.11-.27.18.14-.04.38-.14.27-.18Z"/>
    <path class="cls-1" d="M48.15,29.15s.01.01.02.02c.1-.03.05-.03-.02-.02Z"/>
    <path class="cls-1" d="M48.15,29.15c-.05-.08-.14-.15-.23-.22.02.08.05.16.1.24.03-.01.08-.02.12-.02Z"/>
    <path class="cls-1" d="M45.79,25.6c.39.09.69.49.22.71.24.34,1.56.38,2.32.26-.17-.04-.33-.07-.5-.4-.23.07-.62.57-.92.25-.13-.43.2-.3.44-.45-.51.07-.62-.62-1.35-.67l.19.39c-.11-.01-.27-.17-.39-.09Z"/>
    <path class="cls-1" d="M48.18,27.12l.03.13c.09-.13.27-.2.6-.33-.15-.24-.29-.3-.42-.34l-.16.59-.05-.05Z"/>
    <path class="cls-1" d="M48.11,27.8c-.41-.17-.54-.49-1.03-.4-.03.36.31.31.46.56,0-.59.21.21.52-.16.05.13.06.23.06.33.07-.09.15-.18.25-.26h-.03s0,.01,0,.01h0c-.06.01-.09.02-.06,0,0,0,0-.01,0-.01-.06-.01-.11-.03-.16-.05.12-.15.11,0,.16.05l.06.02h0s-.13-.62-.13-.62c-.08.11-.1.27-.1.55Z"/>
    <path class="cls-1" d="M45.47,30.31s.07,0,.1,0c-.05-.05-.08-.07-.1,0Z"/>
    <path class="cls-1" d="M45.77,30.12c.05.05.22.12.15.25-.15.1-.2-.04-.34-.06.1.1.25.34.51.12l-.05-.05c.19-.21.77-.41.82-.36-.39,0-.68.01-1.08.1Z"/>
    <path class="cls-1" d="M46.84,28.92l-.12-.52-.41.18.22.03c-.14.26.15.25.31.31Z"/>
    <polygon class="cls-1" points="48.63 26.54 49.06 26.68 48.48 26.29 48.63 26.54"/>
    <polygon class="cls-1" points="48.68 25.91 49.07 26 48.86 25.79 48.68 25.91"/>
    <path class="cls-1" d="M33.71,6.15v.15c.01-.06,0-.11,0-.15Z"/>
    <path class="cls-1" d="M34.33,5.7l-.1-.17c.03.11.07.18.1.17Z"/>
    <path class="cls-1" d="M50.12,9.61c.32-.31.82-.72.39-.6l-.41.17c.11.16.09.3.02.43Z"/>
    <path class="cls-1" d="M41.01,2.51s.01.09.02.14c.09-.13.18-.24.26-.35-.09.06-.18.14-.28.21Z"/>
    <path class="cls-1" d="M40.37,4.19l-.14-.33c.02.11.07.22.14.33Z"/>
    <path class="cls-1" d="M31.66,10.2l.34.32c.09-.22-.15-.21-.34-.32Z"/>
    <path class="cls-1" d="M49.66,19.45c.2-.16.29-.29.33-.42-.28.18-.68.3-.33.42Z"/>
    <path class="cls-1" d="M31.04,2.38c-.04.13-.01.23.05.3.04-.13.03-.23-.05-.3Z"/>
    <path class="cls-1" d="M50.07,18.5s-.07.06-.12.08c.05.15.09.29.04.45.21-.14.35-.31.08-.53Z"/>
    <path class="cls-1" d="M32.01,27.32s0,.04-.02.06c.05-.03.05-.04.02-.06Z"/>
    <path class="cls-1" d="M31.78,34.66c-.06-.03-.12-.11-.18-.18,0,.05.05.11.18.18Z"/>
    <path class="cls-1" d="M49.32,23.43c0,.14.04.03,0,0h0Z"/>
    <path class="cls-1" d="M47.52,23.77s-.1-.07-.2-.09c.1.03.16.06.2.09Z"/>
    <path class="cls-1" d="M47.57,16.78h0c-.09.02-.07.01,0,0Z"/>
    <path class="cls-1" d="M49.09,23.6c.06-.04.12-.09.16-.15-.04.02-.09.07-.16.15Z"/>
    <path class="cls-1" d="M49.3,23.61s-.04.08-.06.11c.07.03.12.02.06-.11Z"/>
    <path class="cls-1" d="M49.33,23.24c0,.08-.04.14-.08.21.03-.02.06-.03.07-.02,0-.04,0-.1,0-.19Z"/>
    <path class="cls-1" d="M27.99,18.27s-.02.01-.04.03c.18.13.15.07.04-.03Z"/>
    <path class="cls-1" d="M44.76,7.8s.02,0,.02,0v-.02s-.02.02-.02.02Z"/>
    <path class="cls-1" d="M44.29,7.65c.54-.16.53-.03.5.13l1.01-.76c-.51.19-1.01.4-1.5.63Z"/>
    <path class="cls-1" d="M32.62,7.64c.16,0,.31,0,.47,0,.36.61.07.65.65.77-.56-.38-.46-.61-.35-.81.11-.21.22-.39-.28-.85.11.02.22.04.32.07-.04.02.01.08-.03.1.69.23-.58-.84-.11-1.01.18-.03.39.05.42.24,0-.16.02-.31.03-.47.09-.04.22.16.13.2.1-.14.21-.26.33-.39l.02.03c-.07-.22-.11-.59-.1-.75.22.09.02.16.14.28l.08-.44c.28.24.25.66.06.72.93,1.03.02-.43.9,0l-.14.27c.5.61.53.28.95.62-.13-.22-.99-.88-.88-1.3.12.06.24.06.29-.26.19.44.29.28.46.18l.21.61c.12-.25,0-.54.04-.86.25-.01.43.45.58.84.37.02-.45-.71-.05-.93.36.17.51-.13.87-.55.25.19,0,.39.1.57.05-.18.1-.36.16-.53.05.01.04.17.04.25.16-.21-.03-.64.25-.83.03-.36.2-.1.37.15.18.24.36.5.57.11.07.19-.08.39-.08.64.51-.47.41-.34.95-.95.09.16.17.32.24.48-.13-.52.31-1.01.78-1.35-.03-.25-.07-.47-.1-.58.21-.05.43-.12.65-.16.03.12-.1.31-.27.53.05-.04.1-.08.15-.11.11.29-.12.6-.36.89-.02-.14-.03-.29-.05-.43-.24.33-.47.72-.55,1.08.05-.06.12-.11.19-.12-.06.09-.11.18-.11.24,0,.07.08-.05.2-.19l-.13.71.11-.26c.13.21.25.4.36.62.64-.51,1.5-1.26,2.34-1.07-.45.33-.5.69-.86,1.2.2-.65-.59-.05-.82-.31.13.14-.05.38-.14.46.27-.09.53-.15.82-.22-.28.42-.1.39-.09.65.47-.9.76-.28,1.15-.35-.2.27-.47.5-.65.25-.22.78,1.09-.64.94.09-.06-.05-.06-.11-.2,0,.34-.11.5.39.21.52l-.06-.05c.29.42.97,1.12,1.72.74-.09.06-.88.52-1.04.6.95-.32,1.93-.54,2.96-.66-.68.29-2.06,1.37-2.62,1.23-.03.15-.08.32.26.41.06-.11.85-.66.96-.58-.58.64-.29.4-.78,1.01.1-.17,1.21-.5,1.26-.27-.17.03-1.05.42-1.18.4.4,0,.81.03,1.22.08-.23-.06-.91.28-1.18.47.2-.11.1.38.23.48l.2-.26c-.04.55,1.68.18,1.73.82-.24-.04-1.44.07-1.53.36.58.02,2.84.24,3.32.86l-.32.14.4.45c-.86-.28-2.72-.89-3.5-1.14-.24.24-.38.1-.32.4-.3.13-.48-.12-.51-.2-.04.23-.09.47-.14.7.67-.08.7.51,1.26.47-.24-.27-.49-.53-.74-.76.67-.1,1.95.34,1.84.94-.27.15-1.2-.09-1.42-.07.23.06.45.51.28.56l-.36-.23c-.25.29.89.51.23.86-.05.13-.88.34-.49.38.78-.16,3.15-.11,3.72.07-.05.05-.78.71-1.17.83-.62.18-1.41-.44-1.93-.29.18.02.4.16.47.21-.17.13-.56-.1-.5.2.68.11-.11.61.56.19.17.32-.17.3-.17.65.45-.07,1.46.48,1.61.81-.17-.04-.4,0-.51.02-.14.62-.49.91-.58,1.48-.17.03-.41.28-.68.11.11.1.32.21.31.39-.64.25-.03-.41-.77-.26.39.08.47.54.67.83.62.02.21-.57,0-.86.83.13,1.64.71,1.92,1.39.12.52-.57.12-.47.22-.3.88,1.32,1.03.59,1.68-.58.2-1.06-.17-1.45-.18-.13-.43.44-.54.47-.81l-.31.28c-.15-.16-.24-.44-.06-.56-.52.17-.36,1.51-.92,2.13.16.16.3.4.53.34l-.03-.23c.46-.13.52.52.77.28.25.35.66.76.34,1.14l-.62-.03c.18.02.41-.21.25-.36.24.22-.93.49-.17.82l.47-.22c.25.35.83.83.57,1.17.63-.06-.05-.1.69-.23-.91.07.21-.94-.77-.73.86-.12.43-.4,1.18-.63-.2-.02-.4.06-.25-.24-.06-.02-.12-.07-.16-.1,0,0,.01-.01.02-.02h-.03s-.03,0,0,.02c-.1.06-.22.1-.33.1-.43-.24-.33-.72-.53-.93.13-.17.21.12.44.06l-.31-.31c.45.05.82-.36,1,.12l.09-.39c.29-.18.44-.49.29-.72.13-.17-.41-.56-.09-.33l-.17-.67h.11c.16-.6-.52-1.37.39-1.97-.08-.23-.19-.47-.01-.8l.39-.02c-.1-.29.49-.79.1-.95,1.08-.18.37-1.35.59-1.84l-.5-.05c.05-.34-.07-.69-.26-1.13h-.45c-.36-.36.34-.93.28-1.55.17.04.13.19.03.3,1-.78-.8-1.48-.16-2.21-.19-.15-.15-.27-.06-.41,0,.02.01.03.03.04,0-.02,0-.04,0-.07.06-.09.14-.18.19-.28-.09.09-.17.18-.2.24-.03-.13-.12-.32-.27-.49l.45-.18s-.01-.03-.02-.04c.13-.24-.26-.1-.59.07-.1-.08-.21-.15-.34-.18.72-.34-.38-.42.36-.86-.42-.01-.61-.88-1.45-.64.1-.05.13-.12.17-.03,0-.23,0-.47-.29-.55l.51-.35c-.32-.03-.64-.04-.95-.04.2-.42.31-.64.87-.62-.99-.24-.53-.38-1.45-.45l.34-.2c-.13-.17-.75-.1-.57-.4.16-.41-.2-.89-.67-1.37-.48-.49-1.05-.98-1.38-1.61-.44,1.1-.2-.76-.73-.01.08-.27,0-.5.31-.6-.69-.09-.68-.87-1.41-.36.04-.28.29-.31.3-.49-.07.03-.29.13-.29-.05,0-.18.18-.17.33-.24-.67-.24-1.04.56-1.34,1.29-.16-.47-.35-.46-.71-.02-.03-.28-.14-.6.26-.58-.18-.12-1.27-.69-1.39-.05-.04-.17-.3-.09-.36-.03-.48-.07-.52-.16-1-.1l.13.11c-.2.77-.39.15-.76.27v-.08c-.9-.5-.32.28-1.26-.25l.12.47c.1,1.02-.83-.47-1.25.05l.24.22c-.14.4-1.12-1.14-1.47-1.15-.09-.06.05-.17.12-.27-.96-.29.11.63-.37.97-.23-.27-.19-.86-.59-.75-.15-.08-.32.28-.5.64-.2.36-.41.68-.81.55.24.16.46.33.35.63-.26.26-1.49-.19-1.26.7-.09-.02-.14-.06-.19-.11-.11.36-.52.94-.31,1.38-.69-.48-.9.03-.98.5-.09.47-.1.91-.74.48-.15.27-.29.54-.42.81l-.12-.1c-.38.45-.15.8.09,1.14-.15.06-.23-.08-.3-.13-.64.58-.62.7-.19,1.59l-.48-.14c.19.27-1.16.72-.9,1.64-.05-.03-.13-.08-.18-.16.23.97-2.02,1.49-.4,2.37l.26.67c.35-.65.72.33,1.09.14.02.29-.72.53-.72.18l.1-.03c-.87-.39-.57.77-1.18.59-.32,1.41-1.08,2.78-1.18,4.25l.74-.13-.06.49c-.17.12-.58.17-.54-.19-.42.18.33.61.5.61-.29.7-.86-.27-.87-.06l.06.3.08-.07c.3.24.61.25.61.67-.13.28-.44.17-.46.28-.05,0-.07.04,0,.17,0,.22-.02.43,0,.65l.54-.32c.31.24.05.58.66.22-.97.55.03,2.31-.17,2.61.51.25.59.61.7,1.05.08-.15.67-.41.72-.03-1.31.31-.32.87-1.08,1.52.48-.51.58.99,1.24.21.04.34-.45.22-.63.58.79.49.45,1.72,1.09,2.48.16-.07.32-.34.64-.3l-.51.88c.17.12.96-.37.62.23.1-.12.25-.3.37-.22.25,2.06,2.63,2.71,2.44,5.12.12-.4.25-.29.37-.15,0-.15.35-.26.52-.42l-.06,1.01c.61-.29.53.62,1.08.3l-.24-.12c.79-.2,1.04-1.37,1.83-1.91-.89.23.44-1.5-.88-1.22.08-.22.31-.1.45-.29-.41.13-.59.04-.64-.33l.1-.03c-.62-.67-.52-1.23-.86-2.21l-.35.33c-.07-.21.03-.33.07-.48-.74.2.31.52-.47.78.63-.77-.84-1.29,0-2.04-.17-.28-.42.37-.58.09l.21-.23-.37.13c-.06-.22.2-.5.41-.63,0,.06.14.09.18.12.15-.41-.48-.6-.44-.74v.36c-.71-.63-.81-1.74-1.71-2.25l-.18.15c-.63-.44.02-.57-.41-1.15h.06c-.25-.05-.42-.19-.46-.38.31.08.37-.47.72-.35-.64-.51-.43-.2-1.36-.41l.33-.2c-.36-.06-.55-.03-.72-.36.37.21.5-.35.98-.14.64-.85-1.03-.9.1-1.41-1.06-.18-.48.7-.72.55-.31.22-.8-.15-.73-.41-.01-.25,1.23-.57,1.18-1.11,0,.06.08.05.08.11.25-.22-.39-.39.03-.66-.62-.13.03-.33-.76-.37.07.18.12.36.19.53-.22-.28-1.15-.59-.68-1.11.16.05.36.21.48.31.24-.14-.15-.29.1-.43.79.08.15.66.76.96.33-.14-.58-.58.28-.42-1.09-.25.15-.52-.65-.96l.47.06c-.07-.06-.28-.21-.26-.32l.59.26c-.49-.36.52-.52.28-.84-.07.6-.59.06-.96.27-.52-.87,1.28-.26,1.21-1.12.04.12-.36.37-.54.15.12-.14.35-.32.61-.36.03-.57-.5-.02-.73-.32.61-.06-.16-.33-.28-.63l.47.12c.48-.57-.93-.43-.4-.93l.57.43-.08-.35.51.22c-.3-.44-.16-.52.09-.79-.35-.03-.82-.31-.73-.61.34-.11.4.26.47-.18.25.19.58.41.1.45.14.07.26.19.4.25.38-.1.25-.5.3-.65-.04.05-.09.11-.16.12l-.41-.82c.21-.03.31.1.42.22,0-.14-.18-.3-.15-.49.35.19.73.32.81.63l-.19-.71c.17.02.55-.11.65.01.33-.21-.39-1.05.06-1.33-.06-.05-.11-.12-.12-.23.25-.34.82-.44.55-1.08l.74.1c.02-.38-.94-.11-.9-.75,0-.47.6.16.84.14-.22-.33-.63-1.04.04-1,.04.17-.09.18-.11.3ZM35.22,4.93c-.03.12,0,.47-.19.24-.18-.53,0-.33.19-.24ZM41.36,3.61c-.12.13-.18.02-.23-.19.09,0,.18.04.23.19ZM49.19,21.91h-.02c.22-.2.14-.13.02,0ZM48.91,22.33c.06.06.12.07.19.06-.11-.05-.1-.15-.05-.26-.13,0-.23.05-.14.21ZM24.79,19.81l.12-.11c.15.21.02.16-.12.11Z"/>
    <path class="cls-1" d="M40.44,4c0-.08.02-.17.04-.26-.05.07-.08.16-.04.26Z"/>
    <path class="cls-1" d="M31.6,10.14s0,0-.01.01c.02.02.05.03.07.05l-.06-.06Z"/>
    <path class="cls-1" d="M45.86,14.84c.08-.08.17-.13.26-.15-.12-.01-.22.02-.26.15Z"/>
    <path class="cls-1" d="M49.29,24.84l-.07-.31c0,.14-.11.17-.2.23.11.01.28-.01.27.08Z"/>
    <path class="cls-1" d="M45.91,26.8c.05.05,0,.09.04.14l.22.03c.02-.18-.14-.34-.26-.17Z"/>
    <path class="cls-1" d="M47.66,24.82c-.4-.05-.3.16-.26.37,0-.01,0-.02,0-.04.55.16.4-.09.26-.33Z"/>
    <path class="cls-1" d="M47.41,25.24c0,.07,0,.13-.02.19.22.06.06-.07.02-.19Z"/>
    <path class="cls-1" d="M49.07,22.94c-.12.08.5.15.33.18.49.2-.5-.74-.33-.18Z"/>
    <polygon class="cls-1" points="46.32 24.75 46.82 24.77 46.45 24.58 46.32 24.75"/>
    <path class="cls-1" d="M46.96,23.23l-.19.3c.08,0,.12.06.15.12.05-.19.19-.39.04-.41Z"/>
    <path class="cls-1" d="M46.92,23.64c-.03.1-.03.2.04.27,0-.06,0-.18-.04-.27Z"/>
    <polygon class="cls-1" points="46.25 24.28 46.37 24.21 46.45 23.99 46.25 24.28"/>
    <path class="cls-1" d="M47.67,19.79l-.08-.38c-.16-.06-.28.02-.24.16.1.1.15.25.32.22Z"/>
    <path class="cls-1" d="M46.13,20.62c.12-.08.23-.06.4-.09l-.61-.12.21.21Z"/>
    <path class="cls-1" d="M46.17,19.58c-.16-.06-.41-.58-.44-.14.16.06.24.43.44.14Z"/>
    <polygon class="cls-1" points="47.59 14.43 47.6 14.52 48.61 14.57 47.59 14.43"/>
    <path class="cls-1" d="M44.97,10.3c-.17.37.64-.04.39.31.25.04.2-.3.42-.25-.29-.16-.17-.29-.81-.06Z"/>
    <path class="cls-1" d="M45.78,10.36s.1.05.17.08c-.07-.05-.13-.07-.17-.08Z"/>
    <polygon class="cls-1" points="31.96 35.79 31.96 36.14 32.12 35.79 31.96 35.79"/>
    <path class="cls-1" d="M32.88,35.75l-.47.45.56-.23c-.06-.03-.18-.09-.09-.22Z"/>
    <path class="cls-1" d="M36.23,5.92l-.04-.15c-.09-.15-.13-.14-.22-.14l.27.29Z"/>
    <polygon class="cls-1" points="33.97 6.78 34.01 6.76 33.54 6.39 33.97 6.78"/>
    <path class="cls-1" d="M33.32,8.91c.07-.07,0-.23.08-.3,0,.22-.73-.04-.08.3Z"/>
  </g>
  <g>
    <path class="cls-1" d="M57.18,49.71c-.11-.04-.09.38-.11.45.19-.09.11-.56.11-.45Z"/>
    <polygon class="cls-1" points="59 48.79 58.97 48.96 59.22 48.54 59 48.79"/>
    <path class="cls-1" d="M60.66,48.74c-.2-.7-.59.15-.9-.1l-.05-.16-.12.58c.36-.1.81-.5,1.07-.32Z"/>
    <path class="cls-1" d="M61.68,50.21c-.08-.27.18-.26-.22-.07.02.03.03.05.04.07.04,0,.09-.01.18,0Z"/>
    <path class="cls-1" d="M61.5,50.21c-.18.04.14.22,0,0h0Z"/>
    <path class="cls-1" d="M62.33,49.97l-.22.27c.07.16.29.17.22.3.24-.16.16-.32,0-.57Z"/>
    <path class="cls-1" d="M62.5,49.43l-.11.12c.03.07.06.09.11-.12Z"/>
    <path class="cls-1" d="M62.15,49.8l.24-.25c-.05-.11-.08-.34-.11.09,0-.21-.03,0-.13.16Z"/>
    <path class="cls-1" d="M61.99,49.7c-.15-.14-.33-.22-.12-.49-.44.14-.33.63.12.49Z"/>
    <path class="cls-1" d="M60.7,48l-.18-.2-.13.25c.07-.12.34.17.31-.05Z"/>
    <path class="cls-1" d="M63.88,50.13c0-.15-.14-.39-.19-.58l-.15.2c.11.09.29.16.34.38Z"/>
    <path class="cls-1" d="M63.69,49.56l.22-.3c-.24,0-.26.13-.22.3Z"/>
    <polygon class="cls-1" points="62.45 48.63 62.09 49.23 62.53 48.62 62.45 48.63"/>
    <polygon class="cls-1" points="64.91 49.97 64.82 50.35 64.99 49.77 64.91 49.97"/>
    <path class="cls-1" d="M65.57,49.77c-.05.31.26.45.18.65.18-.09.28-.37.37-.62-.12.16-.29.16-.55-.02Z"/>
    <path class="cls-1" d="M66.28,49.43c-.06.08-.11.22-.16.37.06-.08.12-.2.16-.37Z"/>
    <path class="cls-1" d="M64.37,49.26c.04.09.12.32.28.39l-.18-.4s-.07,0-.1.01Z"/>
    <path class="cls-1" d="M64.47,49.23h0c.11,0,.19,0,.23,0-.03,0-.1,0-.23,0Z"/>
    <path class="cls-1" d="M64.34,49.26h.03s-.03-.06-.03,0Z"/>
    <path class="cls-1" d="M63.17,48.93c.12-.26.39-.56.04-.88-.06.31.14.48-.04.88Z"/>
    <path class="cls-1" d="M64.12,48.76l-.29-.05c.02.11.1.27.04.39l.24-.34Z"/>
    <polygon class="cls-1" points="64.23 48.6 64.12 48.76 64.23 48.77 64.23 48.6"/>
    <path class="cls-1" d="M65.71,49.15c.08-.21.2-.25.34-.32-.18-.05-.35-.05-.5-.02,0,.14,0,.39.16.33Z"/>
    <path class="cls-1" d="M65.1,49.16l.02-.03s-.04-.04-.02.03Z"/>
    <path class="cls-1" d="M67.49,48.44s-.03-.05-.05-.07l.02.07h.03Z"/>
    <path class="cls-1" d="M65.51,48.74c-.14-.05-.18.06-.22.21.08-.06.17-.11.27-.14,0-.06-.01-.1-.04-.07Z"/>
    <path class="cls-1" d="M66.64,49.13c-.08-.07-.17-.12-.26-.17.09.12.27.29.26.17Z"/>
    <path class="cls-1" d="M65.19,49.24s0,.02-.01.02c.06.08.04.04.01-.02Z"/>
    <path class="cls-1" d="M65.19,49.24c.05-.07.08-.19.1-.29-.06.05-.12.11-.17.18.02.03.04.07.06.11Z"/>
    <path class="cls-1" d="M67.09,45.7c.1.38-.07.82-.44.49-.15.36.35,1.56.79,2.19-.04-.17-.09-.32.11-.62-.16-.18-.72-.31-.6-.72.28-.3.31.05.54.2-.28-.43.21-.82-.1-1.48l-.2.33c-.04-.11,0-.31-.1-.38Z"/>
    <path class="cls-1" d="M66.92,48.48l-.1.08c.14.03.28.17.53.41.13-.24.13-.39.1-.52-.19.04-.37.08-.56.1l.02-.07Z"/>
    <path class="cls-1" d="M66.33,48.7c-.02-.44.19-.69-.08-1.1-.31.11-.13.41-.28.64.49-.24-.09.27.34.41-.09.1-.17.15-.26.18.11.03.21.07.32.12l-.02-.02h0s0,0,0,0c-.04-.05-.05-.08-.02-.05,0,0,0-.01,0-.01-.01-.06-.01-.11-.02-.16.17.05.05.1.02.16v.06s.01,0,.01,0l.47-.37c-.13-.03-.26.02-.5.13Z"/>
    <path class="cls-1" d="M63.33,47.1s.03.07.03.1c.02-.06.03-.09-.03-.1Z"/>
    <path class="cls-1" d="M63.58,47.32c-.03.06-.03.24-.16.21-.12-.11-.03-.2-.06-.34-.05.12-.2.34.05.52l.03-.06c.22.11.58.6.56.67-.13-.37-.23-.64-.42-.99Z"/>
    <path class="cls-1" d="M64.91,47.94l.38-.3-.29-.32.06.22c-.26-.03-.15.23-.14.4Z"/>
    <polygon class="cls-1" points="67.6 48.63 67.68 49.09 67.74 48.39 67.6 48.63"/>
    <polygon class="cls-1" points="68.16 48.41 68.26 48.79 68.33 48.51 68.16 48.41"/>
    <path class="cls-1" d="M75.15,25.83l-.12.08c.05-.02.09-.04.12-.08Z"/>
    <path class="cls-1" d="M75.71,26.1l.1-.17c-.08.08-.12.15-.1.17Z"/>
    <path class="cls-1" d="M79.93,39.69c.42.04,1.03.15.64-.07l-.4-.18c-.01.16-.11.23-.24.25Z"/>
    <path class="cls-1" d="M80.39,29.78s-.09.04-.13.06c.15.04.29.07.42.1-.09-.05-.19-.1-.29-.16Z"/>
    <path class="cls-1" d="M78.59,29.78l.26-.21c-.09.05-.18.12-.26.21Z"/>
    <path class="cls-1" d="M71.62,25.93l-.05.45c.16-.02.06-.23.05-.45Z"/>
    <path class="cls-1" d="M73.64,45.65c.24.05.39.03.5-.02-.31-.09-.65-.31-.5.02Z"/>
    <path class="cls-1" d="M77.2,21.69c-.12.03-.19.1-.22.19.12-.03.2-.09.22-.19Z"/>
    <path class="cls-1" d="M74.56,45.35c-.05-.02-.09-.02-.13-.03-.06.13-.14.25-.28.32.23.07.45.06.41-.28Z"/>
    <path class="cls-1" d="M57.91,33.15s-.04,0-.06-.01c.04.04.05.03.06.01Z"/>
    <path class="cls-1" d="M51.42,34.58c0-.06.05-.14.09-.22-.05.02-.08.08-.09.22Z"/>
    <path class="cls-1" d="M70.48,47.72c-.11.08,0,.05,0,0h0Z"/>
    <path class="cls-1" d="M69.26,46.37c0-.05,0-.12-.04-.21.03.1.04.17.04.21Z"/>
    <path class="cls-1" d="M73.92,42.46h0c-.08-.05-.06-.04,0,0Z"/>
    <path class="cls-1" d="M70.23,47.62c.06.03.13.05.2.05-.04-.02-.1-.04-.2-.05Z"/>
    <path class="cls-1" d="M70.33,47.8s-.08,0-.12,0c.01.07.04.11.12,0Z"/>
    <path class="cls-1" d="M70.64,47.63c-.06.04-.14.04-.21.04.03.02.05.03.05.05.03-.02.08-.05.15-.09Z"/>
    <path class="cls-1" d="M64.3,27.09s-.02-.01-.04-.02c-.01.21.02.16.04.02Z"/>
    <path class="cls-1" d="M77.44,34.89s.01.01.01.02h.02s-.03-.02-.03-.02Z"/>
    <path class="cls-1" d="M77.28,34.44c.44.34.34.4.19.46l1.2.38c-.46-.29-.92-.57-1.39-.84Z"/>
    <path class="cls-1" d="M73.62,25.57c.05.14.1.27.15.41-.33.6-.44.37-.35.93.22-1.36.7-.02,1.04-1.32l.06.31s-.06.05-.09.03c.06.7.46-.9.76-.58.09.14.1.35-.04.48.13-.08.25-.14.38-.21.06.06-.05.26-.11.21.14.02.28.04.42.08l-.02.03c.15-.16.43-.39.56-.47,0,.23-.12.1-.18.26l.38-.16c-.1.35-.45.54-.55.42-.52,1.27.35-.2.27.7l-.25.04c-.34.7-.08.54-.26,1.02.16-.19.45-1.19.82-1.33-.01.12.02.21.29.08-.31.37-.16.35-.03.43l-.45.45c.23-.05.44-.27.72-.41.08.17-.29.51-.59.8.05.24.52-.63.79-.47-.06.32.21.27.7.36-.12.25-.36.15-.5.29.17-.04.34-.07.52-.09,0,.04-.14.09-.22.12.23.03.59-.26.83-.11.34-.1.15.11-.04.33-.18.22-.37.42.05.46-.16.11-.39.06-.62.14.59.24.44.21,1.19.44-.13.12-.25.23-.38.34.46-.26,1.05-.06,1.54.21.23-.1.42-.2.51-.26.13.15.25.31.37.47-.1.06-.32.02-.59-.05.05.03.11.06.16.08-.23.18-.6.09-.96,0,.13-.06.26-.12.39-.17-.39-.09-.83-.15-1.2-.11.07.02.14.06.18.12-.11-.02-.2-.03-.26-.02-.07.02.08.05.24.11l-.71.11h.28c-.14.18-.29.34-.45.5.71.36,1.74.81,1.93,1.53-.49-.24-.84-.16-1.45-.27.67-.07-.21-.5-.06-.78-.08.15-.37.09-.47.04.18.19.36.39.53.6-.5-.08-.39.06-.62.16,1.01.05.59.52.83.81-.33-.06-.66-.19-.52-.44-.8.13,1.06.64.37.8,0-.07.07-.1-.1-.16.26.23-.09.56-.34.39v-.07c-.21.41-.42,1.3.35,1.68-.1-.04-.93-.43-1.09-.52.8.59,1.56,1.22,2.3,1.91-.64-.36-2.33-.83-2.56-1.34-.14.06-.29.12-.16.43.13-.02,1.04.28,1.05.4-.86-.09-.48,0-1.25,0,.19-.03,1.15.6,1.04.76-.14-.11-1.01-.52-1.08-.63.27.3.52.61.77.93-.12-.2-.82-.48-1.14-.56.21.07-.19.31-.17.46l.32-.02c-.4.32,1.08,1.26.73,1.69-.15-.19-1.09-.93-1.35-.81.41.41,1.96,2.05,1.96,2.74l-.32-.13.04.55c-.48-.75-1.52-2.38-1.95-3.04-.32,0-.34-.19-.48.05-.3-.11-.29-.4-.26-.47-.17.13-.34.25-.52.36.55.39.23.79.67,1.13-.03-.33-.07-.66-.11-.97.55.38,1.25,1.5.83,1.81-.28-.08-.85-.85-1.03-.98.14.19.04.61-.11.54l-.14-.38c-.35,0,.39.92-.3.7-.11.05-.84-.38-.57-.09.66.42,2.4,2.04,2.71,2.55-.07,0-.98-.05-1.33-.25-.55-.31-.78-1.23-1.25-1.5.12.14.2.37.22.45-.19-.04-.35-.45-.48-.22.43.53-.41.3.3.51-.05.31-.29.07-.49.28.36.27.76,1.32.67,1.64-.1-.15-.28-.28-.37-.35-.47.27-.87.21-1.28.47-.13-.11-.43-.15-.52-.44.01.14.09.37-.03.46-.56-.33.22-.26-.35-.73.21.34-.01.66-.06.98.38.49.49-.16.52-.49.48.7.65,1.65.37,2.28-.27.41-.44-.37-.44-.23-.77.26.1,1.64-.81,1.42-.49-.36-.49-.95-.72-1.27.21-.33.63.06.82-.07l-.37-.09c.01-.21.14-.44.33-.36-.42-.31-1.21.55-1.95.37-.02.21-.12.45.05.62l.15-.15c.34.32-.09.7.21.78-.12.39-.22.95-.67.86l-.29-.55c.07.16.36.25.39.04-.05.31-.83-.56-.71.25l.4.3c-.14.39-.25,1.11-.65,1.05.35.52.05-.09.52.49-.5-.75.86-.27.21-1.02.53.68.53.17,1.11.69-.09-.18-.26-.31.06-.33-.01-.06-.01-.14,0-.19.01,0,.01,0,.02,0l-.02-.02s0-.04,0,0c-.1-.05-.19-.13-.26-.22-.04-.49.38-.66.42-.94.2.02.03.24.21.4l.06-.42c.21.4.74.47.48.89l.35-.15c.31.13.64.08.72-.18.21,0,.16-.66.19-.27l.38-.53.06.09c.55-.26.62-1.24,1.62-.96.1-.2.18-.43.52-.53l.29.27c.12-.26.86-.17.69-.56.89.63,1.12-.65,1.56-.83l-.34-.38c.25-.19.35-.52.47-.93l-.34-.29c-.04-.48.79-.39,1.1-.82.11.14-.01.21-.15.21,1.19.16.25-1.46,1.15-1.47-.05-.21.05-.26.2-.27,0,.01,0,.03,0,.04.01,0,.03-.03.04-.04.1,0,.21-.01.31-.03-.12-.01-.23-.01-.29,0,.05-.1.09-.27.09-.46l.44.2s0-.02,0-.04c.24-.04-.12-.23-.47-.35-.02-.11-.06-.22-.13-.33.73.3,0-.48.79-.21-.3-.3.14-.85-.59-1.32.1.05.17.03.14.11.16-.11.33-.22.18-.47l.58.2c-.19-.24-.38-.46-.58-.69.43-.05.67-.06,1.01.35-.44-.81-.06-.54-.56-1.23l.36.16c.04-.17-.37-.6-.02-.58.87-.12.65-1.73,1.49-2.59-1.18.02.59-.39-.31-.56.28-.02.45-.15.67.04-.21-.55.51-.79-.23-1.2.28-.05.4.13.57.08-.06-.05-.23-.18-.07-.24.17-.05.23.09.35.18-.03-.59-.89-.64-1.69-.66.37-.27.31-.42-.23-.57.25-.11.51-.29.63.03.04-.18.24-1.23-.4-1.13.15-.09,0-.27-.09-.3-.06-.42-.01-.48-.2-.86l-.06.14c-.78.09-.26-.26-.48-.54l.08-.02c.18-.95-.35-.17-.18-1.16l-.39.28c-.46.23-.41.03-.33-.27.09-.3.15-.7-.14-.76l-.11.3c-.21.02-.04-.33.14-.73.19-.4.39-.88.33-1.03.02-.11.17-.04.28-.02-.13-.96-.51.38-.99.13.15-.32.67-.57.42-.85.01-.16-.38-.14-.76-.12-.38,0-.74-.01-.78-.41-.04.28-.09.55-.39.6-.32-.09-.41-1.33-1.05-.7-.01-.08,0-.15.02-.21-.33.09-.94.03-1.21.42.13-.83-.34-.75-.74-.62-.41.14-.76.32-.64-.44-.27,0-.54-.02-.81,0l.03-.15c-.52-.14-.72.24-.89.6-.11-.11-.03-.25-.02-.33-.73-.3-.84-.22-1.34.6l-.12-.49c-.11.3-1.16-.63-1.73.1,0-.06-.01-.15.02-.23-.59.72-2.23-.8-1.92,1.01l-.31.59c.63-.08.19.77.53.96-.18.18-.77-.29-.53-.48l.08.07c-.24-.92-.84-.03-1.06-.62-1.12.52-2.4.58-3.44,1.07l.46.59-.37.15c-.17-.1-.39-.44-.13-.55-.33-.29-.25.53-.18.68-.63,0-.22-.85-.38-.79l-.18.16.09.05c-.02.35.12.63-.19.77-.26-.02-.32-.34-.41-.32-.03-.05-.06-.05-.12.05l-.47.2.47.4c-.05.36-.42.21.11.66-.81-.7-1.77.68-2.1.54-.03.52-.27.69-.61.87.15.04.57.54.26.66-.7-1.16-.82-.12-1.62-.71.58.36-.65.71.21,1.18-.28.09-.33-.38-.69-.49-.18.82-1.35.7-1.84,1.42.11.13.4.23.46.54l-.93-.31c-.06.18.62.82-.03.61.14.07.34.18.31.3-.86.3-1.29,1.06-1.73,1.77-.44.73-.91,1.38-2.03,1.73.41-.03.36.12.29.28.13-.06.38.22.59.32l-.92.3c.53.42-.29.71.25,1.05v-.25c.55.57,1.66.37,2.49.85-.63-.67,1.45-.03.61-1.03.22.02.22.23.44.3-.29-.31-.28-.47,0-.59l.07.08c.3-.67.83-.69,1.53-1.14l-.41-.25c.16-.1.3-.03.44-.02-.43-.61-.34.35-.84-.29.45.21.65-.03.85-.24.22-.21.44-.4.89-.08.18-.19-.45-.32-.27-.51l.26.15-.23-.31c.17-.08.5.11.68.29-.05,0-.03.13-.05.18.41.09.36-.53.5-.5l-.31.05c.32-.72,1.25-1.01,1.43-1.93l-.18-.14c.18-.67.51-.08.87-.61v.06c-.02-.25.05-.44.2-.52.03.3.53.24.54.6.23-.71.03-.46-.1-1.37l.29.25c-.07-.35-.16-.51.05-.76-.04.41.48.36.47.87.97.32.38-1.21,1.25-.36-.28-1.04-.78-.19-.75-.46-.3-.21-.19-.78.04-.81.19-.1.99.94,1.42.66-.05.02-.01.09-.06.11.3.13.15-.5.57-.25-.18-.61.29-.12-.06-.83l-.34.39c.14-.31-.07-1.25.54-1.08.04.16.02.41,0,.56.23.14.15-.26.39-.11.33.71-.44.43-.4,1.1.28.23.21-.77.49.06-.33-1.06.51-.12.44-1.02l.2.43c.02-.09.02-.34.11-.38l.11.63c.02-.6.69.16.81-.21-.5.26-.37-.46-.74-.66.36-.88.91.93,1.51.4-.06.1-.47-.09-.42-.36.18.03.43.11.61.3.42-.29-.27-.42-.19-.77.39.46.13-.32.27-.58l.19.44c.65.07-.24-.99.39-.84l.04.7.19-.26.15.53c.12-.49.25-.41.56-.37-.17-.3-.26-.84-.02-.93.25.22.05.46.37.29.01.31.05.7-.23.32.04.15.02.31.06.46.27.25.44-.07.56-.1-.05,0-.11-.01-.16-.07.09-.26.19-.52.29-.78.12.15.1.31.08.46.08-.08.09-.31.22-.39.06.39.17.78.03,1.01l.33-.53c.07.16.32.4.3.56.26.18.43-.86.79-.6,0-.08.03-.15.09-.22.32.05.58.52.9-.03.07.23.13.47.18.7.25-.16-.24-.89.2-1.15.33-.21.09.61.18.81.15-.35.53-1.04.73-.42-.11.11-.17,0-.26.04ZM76.6,26.4c-.11.04-.38.24-.25-.02.37-.42.27-.17.25.02ZM79.47,30.4c-.16-.06-.08-.14.1-.24.04.07.02.15-.1.24ZM71.58,46.77s0-.01,0-.03c.27.08.17.04,0,.03ZM71.11,46.78c0,.08.02.14.07.19-.03-.12.06-.17.17-.19-.08-.1-.17-.15-.24,0ZM61.64,24.85l.13.07c-.08.21-.1.08-.13-.07Z"/>
    <path class="cls-1" d="M78.8,29.77c.08-.02.17-.04.26-.05-.08-.02-.18-.01-.26.05Z"/>
    <path class="cls-1" d="M71.63,25.84s-.01,0-.01,0c0,.03,0,.06,0,.09v-.08Z"/>
    <path class="cls-1" d="M73.78,40.06c.1,0,.19.04.27.09-.08-.09-.17-.14-.27-.09Z"/>
    <path class="cls-1" d="M69.33,48.43l.22-.22c-.12.07-.2,0-.29-.06.05.1.15.24.07.28Z"/>
    <path class="cls-1" d="M66.24,46.29c-.02.07-.07.03-.09.09l.07.21c.15-.05.2-.26.02-.31Z"/>
    <path class="cls-1" d="M68.54,47.01c-.16-.37-.26-.19-.41-.06,0,0,.02-.01.03-.01.13.55.26.31.38.07Z"/>
    <path class="cls-1" d="M68.09,46.97s-.1.07-.16.07c.05.22.08.02.16-.07Z"/>
    <path class="cls-1" d="M70.73,47.25c-.13-.06.16.5.05.37.12.51.3-.82-.05-.37Z"/>
    <polygon class="cls-1" points="67.95 45.8 68.18 46.25 68.14 45.83 67.95 45.8"/>
    <path class="cls-1" d="M69.38,45.64l-.31-.02c.04.08.02.13,0,.19.17-.05.38-.03.32-.17Z"/>
    <path class="cls-1" d="M69.06,45.8c-.09.02-.16.07-.18.16.04-.02.14-.08.18-.16Z"/>
    <polygon class="cls-1" points="68.26 45.53 68.37 45.6 68.57 45.56 68.26 45.53"/>
    <path class="cls-1" d="M72.13,44.35l.19-.28c-.06-.16-.19-.21-.25-.09,0,.14-.06.26.06.37Z"/>
    <path class="cls-1" d="M70.66,43.6c.12.05.18.15.3.27l-.29-.55v.28Z"/>
    <path class="cls-1" d="M71.32,43.06c-.06-.16.09-.64-.19-.42.07.16-.11.43.19.42Z"/>
    <polygon class="cls-1" points="75.28 40.99 75.23 41.05 75.95 41.77 75.28 40.99"/>
    <path class="cls-1" d="M75.74,36.61c-.37.12.49.41.08.47.16.2.33-.06.46.12-.11-.3.06-.3-.54-.6Z"/>
    <path class="cls-1" d="M76.28,37.2s.04.1.08.17c-.02-.08-.05-.13-.08-.17Z"/>
    <polygon class="cls-1" points="50.5 35.18 50.19 35.32 50.58 35.32 50.5 35.18"/>
    <path class="cls-1" d="M50.97,35.95l-.62-.21.47.38c0-.06,0-.19.15-.17Z"/>
    <path class="cls-1" d="M76.05,27.64l.11-.11c.1-.14.09-.16.07-.22l-.18.33Z"/>
    <polygon class="cls-1" points="74.75 26.36 74.78 26.38 74.9 25.8 74.75 26.36"/>
    <path class="cls-1" d="M72.98,26.78c.06.03.15-.1.21-.07-.14.1-.2-.67-.21.07Z"/>
  </g>
  <g>
    <path class="cls-1" d="M46.23,64.23c-.02-.12-.38.1-.45.12.17.13.55-.17.45-.12Z"/>
    <polygon class="cls-1" points="47.91 65.46 47.74 65.51 48.24 65.56 47.91 65.46"/>
    <path class="cls-1" d="M48.72,67c.55-.49-.4-.5-.32-.89l.12-.12-.57.14c.26.29.83.54.78.87Z"/>
    <path class="cls-1" d="M47.84,68.59c.21-.19.31.06-.04-.24-.02.03-.03.05-.04.07.02.03.05.08.08.17Z"/>
    <path class="cls-1" d="M47.76,68.42c-.11-.16-.14.22,0,0h0Z"/>
    <path class="cls-1" d="M48.34,69.1l-.34-.09c-.11.13-.03.34-.18.33.25.16.36.02.52-.24Z"/>
    <path class="cls-1" d="M48.91,69.04l-.16-.06c-.05.05-.05.1.16.06Z"/>
    <path class="cls-1" d="M48.42,68.86l.33.12c.08-.09.28-.21-.13-.07.19-.09,0-.03-.2-.06Z"/>
    <path class="cls-1" d="M48.44,68.67c.06-.2.06-.4.4-.31-.32-.36-.72-.05-.4.31Z"/>
    <path class="cls-1" d="M49.41,66.72l.1-.26-.28-.02c.14.01,0,.4.19.28Z"/>
    <path class="cls-1" d="M48.87,70.65c.14-.07.29-.29.44-.41l-.25-.06c-.03.14-.01.34-.2.48Z"/>
    <path class="cls-1" d="M49.31,70.23l.37.09c-.11-.23-.24-.2-.37-.09Z"/>
    <polygon class="cls-1" points="49.61 68.66 48.91 68.56 49.66 68.73 49.61 68.66"/>
    <polygon class="cls-1" points="49.47 71.56 49.08 71.63 49.69 71.57 49.47 71.56"/>
    <path class="cls-1" d="M49.94,72.13c-.31.07-.3.43-.52.43.16.13.47.12.74.11-.2-.06-.28-.22-.22-.54Z"/>
    <path class="cls-1" d="M50.58,72.67c-.11-.02-.26-.01-.42,0,.11.03.24.04.42,0Z"/>
    <path class="cls-1" d="M49.89,70.76c-.06.07-.24.24-.23.43l.29-.33s-.04-.06-.06-.09Z"/>
    <path class="cls-1" d="M49.95,70.84h0c.06.12.1.19.12.22-.01-.03-.05-.09-.11-.22Z"/>
    <path class="cls-1" d="M49.87,70.74v.02s.05-.05,0-.02Z"/>
    <path class="cls-1" d="M49.66,69.48c.29.01.69.15.82-.32-.31.06-.38.33-.82.32Z"/>
    <path class="cls-1" d="M50.24,70.33l-.08-.3c-.09.07-.2.2-.34.2l.42.1Z"/>
    <polygon class="cls-1" points="50.43 70.37 50.24 70.33 50.27 70.44 50.43 70.37"/>
    <path class="cls-1" d="M50.58,72.01c.23,0,.32.1.45.21-.04-.19-.11-.36-.21-.49-.12.06-.36.14-.24.28Z"/>
    <path class="cls-1" d="M50.3,71.42h.04s.02-.04-.04,0Z"/>
    <path class="cls-1" d="M52.04,73.45s.03-.05.04-.07l-.06.04.02.03Z"/>
    <path class="cls-1" d="M50.87,71.66c0-.15-.14-.15-.29-.13.09.05.17.12.24.2.05-.03.09-.05.05-.07Z"/>
    <path class="cls-1" d="M51.02,72.9c.03-.11.04-.22.04-.32-.07.14-.14.38-.04.32Z"/>
    <path class="cls-1" d="M50.27,71.54h-.03c-.05.08-.02.05.03,0Z"/>
    <path class="cls-1" d="M50.27,71.54c.09.02.21,0,.31-.01-.07-.04-.15-.08-.24-.09-.02.03-.04.07-.07.1Z"/>
    <path class="cls-1" d="M54.39,71.98c-.3.25-.8.26-.65-.23-.4,0-1.28.96-1.67,1.63.14-.11.25-.21.63-.14.08-.22-.04-.82.39-.87.4.15.1.32.06.6.26-.44.86-.13,1.33-.69l-.4-.06c.08-.08.29-.12.31-.25Z"/>
    <path class="cls-1" d="M51.74,72.92l-.12-.06c.04.15-.02.33-.13.67.28.03.42-.03.53-.11l-.35-.5h.07Z"/>
    <path class="cls-1" d="M51.28,72.43c.4-.19.72-.08.97-.51-.24-.25-.43.03-.71-.02.44.38-.29.02-.23.49-.13-.04-.21-.11-.28-.18.02.11.03.23.03.36v-.03s0,0,0,0h0c.03-.06.05-.08.04-.04,0,0,.01,0,.01,0,.05-.03.1-.06.14-.08.03.19-.07.09-.14.08l-.05.03h0s.55.31.55.31c-.04-.13-.14-.25-.35-.43Z"/>
    <path class="cls-1" d="M51.41,68.9s-.05.05-.07.07c.06,0,.1,0,.07-.07Z"/>
    <path class="cls-1" d="M51.32,69.23c-.07,0-.23.07-.27-.06.05-.16.17-.11.29-.19-.14,0-.41-.06-.45.26h.07c0,.26-.3.8-.37.8.29-.27.49-.47.72-.8Z"/>
    <path class="cls-1" d="M51.35,70.76l.44.25.16-.41-.17.14c-.08-.26-.27-.05-.43.02Z"/>
    <polygon class="cls-1" points="51.91 73.64 51.53 73.89 52.2 73.68 51.91 73.64"/>
    <polygon class="cls-1" points="52.38 74.08 52.08 74.33 52.37 74.29 52.38 74.08"/>
    <path class="cls-1" d="M79.13,70.86l-.1-.1s.06.07.1.1Z"/>
    <path class="cls-1" d="M78.99,71.48l.19.06c-.1-.05-.17-.08-.19-.06Z"/>
    <path class="cls-1" d="M66.38,80.99c.16.39.35.99.37.55l-.02-.44c-.15.06-.26,0-.35-.11Z"/>
    <path class="cls-1" d="M76.18,77.38l-.1-.1c.01.15.03.3.04.43.02-.1.04-.21.06-.33Z"/>
    <path class="cls-1" d="M75.59,75.68l.31.17c-.09-.07-.19-.12-.31-.17Z"/>
    <path class="cls-1" d="M77.95,67.41l-.44.11c.07.14.24-.02.44-.11Z"/>
    <path class="cls-1" d="M57.69,78.1c.08.23.18.37.28.45-.08-.33-.05-.73-.28-.45Z"/>
    <path class="cls-1" d="M83.64,71.83c-.06-.12-.14-.17-.24-.18.06.11.13.19.24.18Z"/>
    <path class="cls-1" d="M58.45,78.8c0-.05-.03-.09-.04-.14-.15,0-.3-.01-.44-.11.06.24.18.43.48.25Z"/>
    <path class="cls-1" d="M64.27,59.18s-.02-.03-.03-.06c-.02.06,0,.06.03.06Z"/>
    <path class="cls-1" d="M59.7,53.93c.06-.02.15-.01.24,0-.04-.03-.11-.04-.24,0Z"/>
    <path class="cls-1" d="M54.14,76.04c-.13-.07-.05.02,0,0h0Z"/>
    <path class="cls-1" d="M54.79,74.32c.05-.02.11-.05.18-.12-.08.07-.14.11-.18.12Z"/>
    <path class="cls-1" d="M60.76,76.9h0c0-.09,0-.07,0,0Z"/>
    <path class="cls-1" d="M54.11,75.76c0,.07.02.15.05.21,0-.04-.01-.11-.05-.21Z"/>
    <path class="cls-1" d="M53.99,75.93s-.05-.08-.06-.11c-.06.04-.08.09.06.11Z"/>
    <path class="cls-1" d="M54.3,76.15c-.07-.05-.11-.11-.14-.18,0,.04,0,.07-.02.07.04.02.08.06.17.11Z"/>
    <path class="cls-1" d="M73.59,61.45s0-.03,0-.05c-.19.1-.13.1,0,.05Z"/>
    <path class="cls-1" d="M69.83,76.67s0,.02-.01.02l.02.02v-.04Z"/>
    <path class="cls-1" d="M70.22,76.34c-.15.55-.26.49-.39.37l.16,1.25.23-1.62Z"/>
    <path class="cls-1" d="M78.94,69.29l-.35.27c-.68-.15-.48-.33-1-.06.67-.11.75.08.79.26.06.19.09.36.77.36l-.28.15s-.07-.04-.06-.08c-.65.25.98.2.77.59-.12.12-.32.18-.47.08.1.1.21.21.3.32-.04.08-.27.02-.23-.06,0,.14.03.29.02.43h-.04c.19.09.47.32.59.43-.22.06-.12-.1-.29-.12.09.11.16.22.23.34-.37-.03-.61-.32-.53-.45-.67-.09-.61-.04-.48.08.12.11.31.31-.16.34-.03-.08-.04-.16-.08-.24-.76-.19-.57.04-1.06-.02.22.11,1.25.17,1.46.52-.13.02-.19.08-.02.33-.42-.23-.39-.07-.44.08l-.53-.35c.08.23.36.4.53.65-.18.12-.59-.15-.93-.38-.24.16.74.34.62.7-.37.03-.27.34-.29.86-.3-.03-.23-.32-.41-.41l.2.51s-.13-.11-.18-.18c0,.25.4.5.29.8.18.3-.09.19-.36.08-.29-.11-.56-.21-.49.22-.16-.11-.17-.36-.32-.55-.11.67-.12.51-.14,1.32l-.48-.24c.42.33.39.98.29,1.54.18.18.34.32.43.39-.11.18-.22.35-.34.52-.1-.07-.13-.3-.15-.58,0,.06-.02.12-.03.18-.25-.15-.3-.53-.32-.91.1.1.21.2.31.3-.04-.4-.12-.84-.29-1.18,0,.08-.02.16-.06.22-.01-.11-.04-.2-.07-.26-.04-.06-.03.09-.03.27l-.36-.62.08.27c-.23-.07-.45-.14-.67-.22-.13.8-.2,1.93-.85,2.39.06-.55-.16-.84-.29-1.44.34.6.43-.4.78-.36-.19-.02-.23-.31-.22-.42l-.42.73c-.11-.49-.21-.34-.41-.51.34.95-.3.76-.49,1.09-.07-.33-.07-.67.23-.65-.45-.68-.22,1.23-.66.66.07-.02.12.02.12-.15-.13.33-.6.14-.53-.16l.07-.02c-.5-.04-1.49.12-1.55.97,0-.11.03-1.03.05-1.2-.25.96-.54,1.94-.88,2.88.07-.73-.24-2.47.18-2.88-.12-.1-.26-.23-.52.03.08.1.2,1.06.09,1.12-.31-.82-.22-.43-.58-1.14.12.16-.05,1.3-.26,1.26.04-.17.03-1.13.11-1.25-.17.37-.36.74-.55,1.1.14-.2.08-.95,0-1.28.03.22-.41-.05-.54.05l.18.28c-.52-.21-.69,1.53-1.27,1.4.1-.22.34-1.4.09-1.57-.19.56-.97,2.65-1.6,3l-.04-.34-.48.28c.45-.78,1.45-2.46,1.88-3.11-.16-.29,0-.39-.29-.41-.05-.32.23-.44.32-.44l-.63-.31c-.09.67-.64.55-.73,1.11.3-.18.59-.34.87-.54-.08.67-.78,1.8-1.29,1.57-.07-.29.36-1.15.39-1.37-.11.22-.56.33-.57.15l.29-.3c-.2-.31-.65.75-.82.05-.1-.07-.08-.93-.21-.55-.05.79-.65,3.09-.95,3.6-.04-.07-.45-.9-.46-1.31,0-.63.74-1.27.73-1.81-.06.17-.24.36-.3.41-.07-.19.23-.52-.05-.53-.27.63-.49-.24-.31.5-.32.09-.22-.22-.52-.31-.06.45-.81,1.29-1.16,1.36.08-.15.11-.39.12-.49-.5-.29-.65-.69-1.11-.94.03-.17-.09-.46.14-.67-.12.07-.29.24-.44.18.02-.66.35.08.49-.65-.2.34-.62.29-.93.39-.25.57.4.37.71.25-.39.75-1.18,1.34-1.89,1.36-.52-.07.11-.57-.02-.51-.64-.59-1.46.82-1.73-.13.08-.61.63-.87.8-1.22.41.06.26.61.48.73l-.11-.38c.2-.08.48-.06.5.14.07-.52-1.12-.88-1.31-1.65-.2.07-.47.08-.54.3l.21.07c-.13.46-.69.2-.62.53-.42.05-.98.18-1.12-.28l.37-.5c-.12.13-.05.45.16.39-.32.08.12-1.02-.56-.57l-.1.51c-.42.02-1.15.21-1.27-.2-.32.54.11.01-.21.7.46-.78.67.72,1.05-.21-.37.79.11.58-.09,1.35.13-.16.16-.38.34-.08.05-.03.12-.07.17-.09,0,.01,0,.02,0,.03v-.03s.04-.02,0-.01c0-.12.03-.24.08-.34.42-.24.8.09,1.08.01.08.19-.21.13-.27.36l.42-.12c-.27.36-.06.89-.58.82l.32.27c.04.34.26.64.54.6.11.19.69-.13.35.06l.69.13-.06.1c.52.39,1.47.01,1.73,1.06.24,0,.5-.04.76.23l-.1.38c.3,0,.61.69.87.36-.12,1.09,1.18.7,1.57,1.02l.17-.48c.31.12.65.08,1.09,0l.09-.44c.42-.28.76.54,1.31.6-.07.16-.2.09-.27-.03.44,1.14,1.48-.46,1.92.36.17-.14.26-.08.35.05-.01,0-.03,0-.04.02.01,0,.04.01.06.01.05.08.11.18.17.26-.05-.12-.1-.21-.14-.26.11,0,.29-.03.47-.12l.02.49s.03,0,.04,0c.15.19.15-.21.1-.58.09-.07.18-.16.25-.27.06.79.45-.23.57.62.14-.39.86-.26.97-1.11,0,.11.05.17-.04.17.18.1.36.21.52-.03l.07.61.4-.82c.24.37.35.59.11,1.06.57-.72.47-.28.93-1.02v.4c.17-.02.41-.56.54-.25.47.73,1.95-.08,3.11.35-.47-1.09.6.4.43-.5.13.25.32.36.21.64.46-.4.94.18,1.07-.66.15.24.02.42.12.56.02-.07.09-.28.2-.15.11.14,0,.24-.05.39.55-.24.29-1.07.04-1.82.39.25.51.15.48-.41.19.2.45.38.18.61.19-.03,1.26-.18.97-.76.13.11.26-.09.27-.18.39-.19.45-.17.78-.45l-.16-.02c-.29-.72.18-.34.41-.62l.04.07c.98-.07.08-.41,1.1-.47l-.37-.31c-.33-.39-.12-.4.2-.4.32,0,.75,0,.73-.32l-.31-.04c-.15-.4,1.56.29,1.84.07.11,0,.07.16.07.28.93-.35-.47-.43-.31-.97.35.08.68.55.93.23.17-.03.05-.42-.02-.81-.06-.38-.13-.78.27-.92-.29.03-.57.04-.67-.25.01-.19.31-.37.53-.59.2-.22.31-.48-.06-.71.08-.04.15-.05.21-.04-.17-.33-.26-.98-.71-1.15.84-.11.63-.58.38-.96-.25-.38-.53-.68.22-.8-.07-.28-.15-.56-.25-.84h.16c-.03-.59-.46-.67-.85-.73.06-.15.22-.11.3-.12.03-.84-.08-.93-1.03-1.18l.42-.28c-.32,0,.16-1.4-.79-1.74.05-.03.14-.07.23-.06-.49-.2-.53-.81-.69-1.28-.15-.47-.41-.79-1.16-.26-.23-.03-.47-.05-.7-.06.4.57-.61.5-.62.9-.25-.09-.11-.85.18-.7l-.02.1c.73-.61-.4-.81.02-1.28-1.08-.84-1.91-2-3.01-2.65l-.23.71-.36-.25c-.02-.2.14-.58.4-.4.05-.45-.63.06-.71.2-.4-.55.6-.65.45-.75l-.25-.07v.1c-.31.17-.47.45-.78.25-.14-.23.09-.46.02-.52.02-.05,0-.08-.12-.08l-.47-.29-.05.61c-.34.16-.44-.24-.49.46.1-1.08-1.67-1.12-1.75-1.49-.46.27-.76.15-1.12-.04.05.15-.12.77-.41.58.58-1.21-.39-.76-.35-1.76.03.69-1-.17-.9.82-.24-.19.14-.48.03-.85-.82.29-1.37-.78-2.26-.83-.06.17.01.46-.23.67l-.22-.97c-.19.04-.4.95-.55.28,0,.15.02.39-.1.41-.71-.61-1.6-.62-2.46-.69-.86-.07-1.7-.21-2.46-1.11.19.37.03.38-.15.37.11.09-.05.43-.06.67l-.64-.73c-.19.64-.77-.02-.9.6l.23-.09c-.35.72.27,1.69.13,2.64.41-.81.68,1.33,1.33.19.09.21-.14.29-.1.52.18-.39.35-.46.61-.23l-.05.1c.82.02,1.11.47,1.94.91l.02-.48c.18.1.19.25.26.39.36-.66-.53-.15-.18-.88.07.99,1.37.3,1.3,1.41.29.08.04-.55.33-.48v.31s.17-.35.17-.35c.18.11.19.49.13.74-.04-.04-.15.04-.2.05.16.39.72.06.77.19l-.23-.25c.87-.07,1.7.59,2.64.26v-.23c.72-.19.4.38,1.09.43l-.04.04c.2-.16.41-.21.57-.12-.25.19.12.59-.19.78.77-.18.42-.21,1.14-.83l-.04.38c.26-.25.34-.41.69-.37-.38.19-.02.6-.46.88.33,1.01,1.28-.34,1.1.87.72-.81-.32-.76-.07-.89,0-.37.56-.59.72-.41.2.12-.19,1.35.31,1.57-.05-.03-.08.04-.13.01.07.32.52-.14.55.35.41-.49.27.18.68-.5l-.54-.07c.35-.06,1.03-.75,1.24-.12-.11.12-.34.24-.48.29,0,.27.31,0,.32.27-.42.67-.62-.15-1.17.25-.03.36.77-.24.23.45.71-.85.39.37,1.12-.17l-.26.4c.09-.04.3-.17.39-.1l-.48.43c.52-.3.23.67.6.58-.48-.29.2-.55.18-.97.96-.14-.32,1.26.41,1.5-.12,0-.15-.45.11-.54.07.16.11.42.03.68.45.22.23-.44.58-.54-.21.56.34-.03.64-.03l-.31.37c.24.61.77-.67.93-.03l-.62.35.32.05-.41.37c.48-.1.49.04.56.34.2-.28.65-.59.85-.4-.09.33-.4.24-.11.46-.28.14-.61.33-.39-.08-.13.1-.27.15-.4.25-.11.35.23.37.32.46-.02-.05-.03-.1,0-.17.28-.03.55-.04.83-.04-.09.17-.25.21-.4.26.1.04.32-.04.44.06-.34.2-.65.45-.92.42.21.02.4.05.6.08-.12.12-.27.45-.42.48-.08.3.95.08.83.52.08-.02.15-.02.24.01.06.32-.3.72.33.86-.2.14-.4.27-.61.4.23.21.77-.53,1.16-.15.31.27-.55.28-.71.43.38.04,1.15.22.63.6-.14-.08-.06-.17-.12-.25ZM78.88,72.42c-.06-.1-.3-.33-.02-.26.48.28.21.23.02.26ZM75.24,76.75c0-.17.12-.13.28,0-.06.07-.15.08-.28,0ZM55.58,76.69h.02c.07.28.05.17-.02,0ZM55.34,76.24c-.08.03-.12.08-.14.14.1-.08.19-.02.26.08.05-.12.06-.23-.12-.22ZM73.9,57.96l.02.15c-.23.04-.13-.05-.02-.15Z"/>
    <path class="cls-1" d="M75.66,75.88c.05.07.09.15.13.23,0-.09-.04-.17-.13-.23Z"/>
    <path class="cls-1" d="M78.03,67.39s0-.01,0-.01c-.03,0-.06.02-.08.03l.08-.02Z"/>
    <path class="cls-1" d="M62.9,75.68c.05.09.07.19.06.28.04-.11.04-.21-.06-.28Z"/>
    <path class="cls-1" d="M52.92,75.22l.3.12c-.13-.08-.09-.2-.08-.3-.07.09-.15.24-.22.18Z"/>
    <path class="cls-1" d="M53.46,71.39c-.07,0-.06-.06-.13-.05l-.17.15c.12.12.33.09.3-.1Z"/>
    <path class="cls-1" d="M53.86,73.89c.27-.3.05-.33-.14-.42,0,0,.02.01.02.02-.45.35-.16.37.12.39Z"/>
    <path class="cls-1" d="M53.68,73.45c-.06-.03-.1-.07-.13-.13-.18.14.01.09.13.13Z"/>
    <path class="cls-1" d="M54.71,76.08c0-.14-.38.36-.32.2-.41.33.91-.05.32-.2Z"/>
    <polygon class="cls-1" points="54.7 72.84 54.39 73.24 54.75 73.03 54.7 72.84"/>
    <path class="cls-1" d="M55.52,74.13l-.13-.31c-.05.07-.11.08-.17.07.13.14.21.35.3.24Z"/>
    <path class="cls-1" d="M55.22,73.89c-.07-.07-.14-.13-.24-.1.04.03.14.1.24.1Z"/>
    <polygon class="cls-1" points="55.09 73.02 55.08 73.16 55.21 73.33 55.09 73.02"/>
    <path class="cls-1" d="M58.1,76.13l.36.05c.11-.13.09-.27-.05-.27-.13.06-.27.06-.31.22Z"/>
    <path class="cls-1" d="M58.03,74.45c.01.13-.05.23-.1.39l.35-.51-.25.12Z"/>
    <path class="cls-1" d="M58.86,74.81c.12-.13.63-.2.28-.36-.11.13-.45.1-.28.36Z"/>
    <polygon class="cls-1" points="62.84 77.44 62.76 77.42 62.47 78.4 62.84 77.44"/>
    <path class="cls-1" d="M67.26,75.87c-.31-.28-.15.61-.43.27-.11.23.22.28.12.47.24-.23.33-.07.31-.75Z"/>
    <path class="cls-1" d="M66.95,76.62s-.08.08-.13.14c.07-.06.1-.1.13-.14Z"/>
    <polygon class="cls-1" points="58.81 53.29 58.56 53.06 58.7 53.42 58.81 53.29"/>
    <path class="cls-1" d="M58.25,54v-.65s-.21.57-.21.57c.06-.02.18-.07.21.08Z"/>
    <path class="cls-1" d="M77.53,72.17l.13.09c.16.07.18.05.24,0l-.37-.1Z"/>
    <polygon class="cls-1" points="78.51 70.61 78.5 70.64 79.09 70.61 78.51 70.61"/>
    <path class="cls-1" d="M77.59,69.01c0,.07.14.12.13.19-.14-.12.57-.4-.13-.19Z"/>
  </g>
  <g>
    <path class="cls-1" d="M32.08,57.71c.1,0-.08-.38-.1-.45-.12.15.14.55.1.45Z"/>
    <polygon class="cls-1" points="30.94 59.2 30.9 59.03 30.85 59.51 30.94 59.2"/>
    <path class="cls-1" d="M29.56,59.79c.42.59.45-.33.8-.2l.1.13-.12-.57c-.27.21-.5.73-.79.64Z"/>
    <path class="cls-1" d="M28.18,58.72c.16.23-.06.29.21,0-.03-.02-.04-.03-.06-.05-.03.02-.07.04-.15.05Z"/>
    <path class="cls-1" d="M28.33,58.67c.14-.09-.2-.17,0,0h0Z"/>
    <path class="cls-1" d="M27.71,59.14l.09-.32c-.11-.13-.3-.08-.29-.22-.14.22-.03.35.2.53Z"/>
    <path class="cls-1" d="M27.75,59.7l.05-.14c-.05-.05-.08-.06-.05.14Z"/>
    <path class="cls-1" d="M27.93,59.25l-.12.3c.08.09.18.3.06-.12.07.2.03,0,.05-.18Z"/>
    <path class="cls-1" d="M28.09,59.29c.17.09.36.11.27.43.33-.26.06-.69-.27-.43Z"/>
    <path class="cls-1" d="M29.79,60.5l.23.13.02-.27c-.01.14-.35-.05-.25.15Z"/>
    <path class="cls-1" d="M26.34,59.4c.06.14.25.33.35.49l.06-.23c-.12-.05-.3-.07-.41-.26Z"/>
    <path class="cls-1" d="M26.69,59.9l-.09.34c.2-.07.18-.2.09-.34Z"/>
    <polygon class="cls-1" points="28.07 60.43 28.17 59.76 28 60.46 28.07 60.43"/>
    <polygon class="cls-1" points="25.51 59.81 25.47 59.44 25.5 60.02 25.51 59.81"/>
    <path class="cls-1" d="M25,60.16c-.05-.31-.36-.36-.35-.57-.12.13-.13.42-.13.68.06-.18.2-.22.48-.11Z"/>
    <path class="cls-1" d="M24.49,60.66c.02-.09.02-.24.03-.39-.03.09-.04.21-.03.39Z"/>
    <path class="cls-1" d="M26.2,60.36c-.06-.07-.2-.27-.37-.3l.28.33s.06-.02.09-.04Z"/>
    <path class="cls-1" d="M26.13,60.41h0c-.1.03-.16.05-.19.06.03,0,.09-.03.2-.06Z"/>
    <path class="cls-1" d="M26.22,60.35h-.02s.04.05.02,0Z"/>
    <path class="cls-1" d="M27.35,60.35c-.02.27-.15.63.25.83-.04-.3-.28-.42-.25-.83Z"/>
    <path class="cls-1" d="M26.57,60.77l.27-.03c-.06-.1-.17-.22-.16-.36l-.1.39Z"/>
    <polygon class="cls-1" points="26.53 60.95 26.57 60.77 26.48 60.78 26.53 60.95"/>
    <path class="cls-1" d="M25.07,60.79c0,.22-.1.29-.2.38.17,0,.32-.03.44-.1-.05-.13-.11-.37-.24-.28Z"/>
    <path class="cls-1" d="M25.6,60.63v.03s.04.03,0-.03Z"/>
    <polygon class="cls-1" points="23.71 61.86 23.77 61.91 23.74 61.84 23.71 61.86"/>
    <path class="cls-1" d="M25.37,61.13c.13.02.14-.1.13-.25-.05.08-.11.14-.19.19.02.06.04.09.06.06Z"/>
    <path class="cls-1" d="M24.26,61.02c.1.05.19.08.28.11-.12-.09-.32-.22-.28-.11Z"/>
    <path class="cls-1" d="M25.5,60.58v-.02c-.07-.06-.04-.03,0,.02Z"/>
    <path class="cls-1" d="M25.5,60.58c-.02.08,0,.2,0,.3.04-.06.07-.13.09-.21-.03-.02-.06-.05-.09-.09Z"/>
    <path class="cls-1" d="M24.84,64.39c-.2-.34-.16-.8.26-.56.04-.37-.76-1.41-1.33-1.92.08.15.17.29.08.62.19.14.73.14.74.56-.17.34-.3.02-.54-.08.38.35.04.82.49,1.39l.09-.36c.06.09.08.3.2.34Z"/>
    <path class="cls-1" d="M24.2,61.69l.06-.1c-.14,0-.29-.09-.59-.27-.05.26,0,.4.06.52l.46-.22v.07Z"/>
    <path class="cls-1" d="M24.67,61.36c.15.41.03.69.39,1.02.24-.17,0-.41.06-.66-.37.33,0-.28-.43-.32.05-.11.11-.17.17-.23-.1,0-.21-.02-.32-.05l.02.02h0s0,0,0,0c.05.04.07.06.03.05,0,0,0,.01,0,.01.03.05.05.1.06.15-.17,0-.08-.09-.06-.15l-.03-.06h0s-.3.45-.3.45c.12,0,.22-.08.4-.24Z"/>
    <path class="cls-1" d="M27.79,62.12s-.04-.05-.06-.08c0,.06,0,.1.06.08Z"/>
    <path class="cls-1" d="M27.51,61.98c0-.07-.05-.24.07-.25.14.07.09.18.16.31,0-.13.07-.38-.21-.47v.07c-.24-.04-.7-.41-.7-.48.23.32.4.54.68.82Z"/>
    <path class="cls-1" d="M26.14,61.74l-.24.38.36.23-.12-.19c.24-.03.06-.25,0-.42Z"/>
    <polygon class="cls-1" points="23.56 61.7 23.37 61.28 23.5 61.95 23.56 61.7"/>
    <polygon class="cls-1" points="23.13 62.03 22.94 61.68 22.95 61.96 23.13 62.03"/>
    <path class="cls-1" d="M22.87,81.69l.09-.11s-.07.07-.09.11Z"/>
    <path class="cls-1" d="M22.23,81.62l-.03.19c.04-.1.06-.18.03-.19Z"/>
    <path class="cls-1" d="M13.96,71.94c-.42.02-1.04,0-.62.15l.42.12c-.01-.16.07-.23.2-.27Z"/>
    <path class="cls-1" d="M16.33,80.95l.08-.11c-.15.05-.28.1-.41.15.1-.01.21-.02.33-.03Z"/>
    <path class="cls-1" d="M17.83,79.96c-.05.1-.09.2-.13.29.05-.09.09-.19.13-.29Z"/>
    <path class="cls-1" d="M26.58,80.74v-.46c-.17.05-.04.24,0,.46Z"/>
    <path class="cls-1" d="M18.83,65.56c-.23-.02-.38.01-.47.08.31.04.68.22.47-.08Z"/>
    <path class="cls-1" d="M22.4,86.28c.09-.07.12-.16.13-.26-.09.07-.14.15-.13.26Z"/>
    <path class="cls-1" d="M18.04,65.97c.05.01.09,0,.13.01.03-.13.07-.26.19-.34-.23-.03-.43,0-.32.33Z"/>
    <path class="cls-1" d="M37.18,72.99s.04-.01.06-.01c-.05-.03-.06-.01-.06.01Z"/>
    <path class="cls-1" d="M42.74,69.89c.02.05,0,.13-.01.21.04-.03.05-.09.01-.21Z"/>
    <path class="cls-1" d="M21.23,63.11c.08-.09-.01-.05,0,0h0Z"/>
    <path class="cls-1" d="M22.68,64.17c0,.05.03.11.09.2-.05-.09-.08-.15-.09-.2Z"/>
    <path class="cls-1" d="M19.23,68.63h0c.08.04.07.03,0,0Z"/>
    <path class="cls-1" d="M21.49,63.16c-.07-.02-.13-.02-.2-.02.04.01.1.02.2.02Z"/>
    <path class="cls-1" d="M21.35,63.01s.08-.02.11-.03c-.03-.07-.07-.1-.11.03Z"/>
    <path class="cls-1" d="M21.11,63.22s.11-.07.18-.08c-.04-.01-.06-.02-.06-.04-.02.03-.06.06-.12.11Z"/>
    <path class="cls-1" d="M33.46,79.61s.02.01.04.02c-.02-.2-.04-.15-.04-.02Z"/>
    <polygon class="cls-1" points="17.3 76.02 17.29 76 17.27 76.01 17.3 76.02"/>
    <path class="cls-1" d="M17.57,76.37c-.51-.21-.43-.28-.3-.36l-1.25-.14c.51.18,1.03.34,1.54.5Z"/>
    <path class="cls-1" d="M24.48,81.47l-.26-.36c.19-.66.39-.47.13-.99.12,1.36-.78.22-.72,1.57l-.16-.28s.04-.07.08-.06c-.29-.64-.17.99-.56.8-.13-.11-.21-.31-.12-.47l-.29.33c-.08-.03-.05-.27.03-.23-.14.02-.28.06-.43.08v-.04c-.07.21-.25.52-.34.65-.09-.21.07-.14.07-.31l-.28.29c-.04-.36.2-.67.35-.6-.02-1.37-.26.32-.54-.54l.22-.13c.02-.78-.16-.53-.23-1.04-.04.25.12,1.27-.16,1.55-.04-.12-.11-.18-.3.05.12-.46-.02-.39-.17-.4l.2-.61c-.2.14-.29.44-.47.68-.16-.12,0-.6.11-1-.2-.19-.12.81-.47.79-.12-.32-.36-.15-.82.04-.04-.28.22-.32.26-.51l-.39.36s.07-.16.11-.22c-.21.1-.35.54-.63.56-.22.27-.18,0-.14-.28.04-.29.08-.54-.28-.33.08-.18.28-.27.43-.47-.59.17-.45.1-1.17.37.05-.16.1-.32.16-.46-.25.44-.84.64-1.38.69-.14.2-.26.39-.3.49-.18-.05-.37-.11-.55-.18.06-.11.27-.18.53-.27-.06,0-.12.01-.17.02.11-.27.47-.39.82-.5-.08.11-.16.22-.24.34.38-.14.77-.34,1.06-.58-.07.03-.15.03-.2.01.1-.04.18-.09.23-.13.05-.05-.09,0-.25.06l.55-.46-.24.14c.06-.19.11-.37.2-.55-.75.13-1.86.25-2.31-.3.54.01.83-.19,1.44-.33-.6.31.37.28.33.51.02-.14.3-.22.41-.23-.24-.04-.45-.1-.7-.18.49-.13.35-.19.52-.34-.96.32-.72-.16-1.05-.31.33-.05.68-.06.63.16.71-.32-1.21-.15-.6-.49.01.06-.03.09.14.1-.32-.11-.08-.47.21-.39v.05c.1-.36.07-1.12-.75-1.33.11.01,1.01.2,1.17.25-.92-.35-1.8-.79-2.67-1.3.7.22,2.45.38,2.78.78.12-.07.27-.14.06-.39-.11.03-1.06-.1-1.11-.21.85-.04.47-.07,1.22-.16-.17.05-1.25-.39-1.16-.54.15.08,1.08.34,1.18.42-.32-.23-.63-.48-.94-.74.16.17.89.33,1.22.37-.22-.04.13-.3.07-.43l-.3.05c.32-.33-1.28-1.03-1.02-1.47.18.16,1.22.74,1.46.6-.47-.34-2.24-1.69-2.39-2.35l.33.08c-.05-.17-.1-.34-.14-.51.6.66,1.9,2.06,2.43,2.63.31-.03.37.14.46-.1.31.07.35.34.33.41l.44-.39c-.61-.31-.37-.71-.85-.98.07.3.18.61.29.9-.6-.29-1.5-1.28-1.14-1.6.29.05.97.7,1.17.81-.17-.16-.16-.57,0-.52l.21.34c.33-.05-.54-.82.15-.69.1-.06.88.27.56.03-.71-.33-2.68-1.66-3.07-2.1.07,0,.95-.05,1.32.08.58.23.98,1.08,1.48,1.28-.14-.12-.27-.33-.3-.4.19.01.42.38.49.15-.52-.46.35-.32-.38-.45,0-.3.27-.1.42-.32-.4-.22-.98-1.16-.96-1.48.12.13.32.23.42.28.37-.33.79-.29,1.11-.62.15.09.44.07.58.35-.04-.13-.16-.34-.07-.44.6.25-.16.27.48.65-.26-.3-.12-.63-.14-.95-.46-.41-.42.22-.39.54-.6-.61-.94-1.48-.83-2.12.16-.43.49.29.46.15.65-.38-.46-1.54.42-1.48.53.26.68.83.96,1.09-.12.36-.59.04-.75.2l.37.03c.04.2-.04.44-.23.39.47.25,1-.72,1.72-.68-.03-.2,0-.45-.2-.58l-.1.17c-.39-.25-.09-.68-.39-.71.02-.39-.04-.95.39-.95l.4.47c-.11-.14-.4-.18-.37.04-.04-.31.91.39.58-.36l-.44-.22c.03-.39-.07-1.11.3-1.12-.45-.43-.02.1-.6-.37.65.62-.7.43.08,1.02-.66-.55-.53-.07-1.18-.46.13.16.31.25.04.33.02.06.05.13.06.18,0,0-.01,0-.02,0h.03s.01.05,0,.01c.1.03.21.09.29.17.16.46-.18.69-.15.97-.18.02-.09-.22-.29-.35l.05.41c-.29-.35-.79-.34-.65-.77-.1.06-.19.13-.28.2-.31-.07-.6.03-.61.29-.19.03,0,.64-.11.28-.08.19-.16.37-.23.56l-.08-.08c-.43.33-.31,1.25-1.29,1.12-.05.21-.08.44-.38.57l-.32-.22c-.07.25-.77.27-.53.61-.96-.49-.94.74-1.33.97l.39.32c-.2.21-.25.52-.29.92l.38.24c.14.45-.68.47-.9.91-.13-.12-.02-.2.11-.22-1.2-.03.04,1.42-.85,1.51.08.19,0,.24-.15.28,0-.01,0-.03,0-.04-.01,0-.02.03-.03.05-.09.02-.2.04-.3.07.12,0,.23-.02.28-.04-.04.1-.05.26-.01.45l-.47-.14s0,.02,0,.04c-.22.07.16.2.52.28.04.1.1.2.19.3-.77-.19.09.46-.74.32.34.24.03.84.82,1.17-.11-.03-.17,0-.15-.08-.14.13-.28.26-.09.47l-.61-.09c.24.19.47.38.71.55-.41.12-.64.18-1.06-.14.6.69.17.51.81,1.07l-.39-.08c-.01.17.49.48.16.55-.39.15-.46.62-.45,1.19,0,.57.07,1.2-.13,1.81,1.07-.5-.38.63.52.41-.24.14-.34.35-.62.25.43.44-.08,1.02.79,1.04-.21.19-.42.07-.53.2.08.02.3.06.19.19-.11.13-.24.03-.4,0,.35.56,1.12.13,1.8-.26-.18.43-.03.52.49.35-.16.23-.27.53-.55.32.05.18.47,1.15.94.69-.08.16.15.21.23.19.27.3.27.36.61.56l-.02-.15c.58-.52.35.04.66.15l-.05.06c.31.84.37-.07.68.82l.19-.44c.51-.9.26.81.81.6l-.03-.31c.3-.25.07,1.53.29,1.73.02.1-.12.11-.22.15.44.77.27-.57.75-.58,0,.35-.34.8-.04.94.12.32,1.14-.87,1.43-.18-.06-.27-.1-.54.12-.71.29-.05.76,1.07,1.09.26.04.07.05.14.05.21.25-.2.77-.34.89-.79.12.82.49.61.79.37.31-.24.56-.51.65.25l.67-.17v.16c.46.03.55-.36.63-.74.12.08.07.24.08.32.67.18.74.1,1.06-.75l.17.47c.06-.31,1.06.54,1.49-.18,0,.06.02.15,0,.23.47-.73,2,.83,1.67-.97l.27-.57c-.59.06-.19-.76-.51-.97.16-.17.72.31.5.5l-.07-.07c.23.92.78.06,1.01.66,1.05-.47,2.33-.53,3.35-1.14l-.51-.54.35-.18c.18.08.44.4.18.53.36.26.21-.56.12-.69.63-.08.31.82.46.74l.17-.18-.09-.04c-.02-.35-.2-.62.1-.8.26-.02.37.28.45.25.03.04.07.04.12-.07l.44-.29-.53-.3c-.02-.36.38-.28-.23-.62.47.28.86,0,1.18-.3.31-.33.53-.7.72-.68-.13-.51.06-.73.33-.99-.15,0-.69-.35-.46-.55,1.01.88.8-.12,1.75.19-.66-.15.36-.87-.61-1.04.23-.16.44.25.81.24-.13-.8.99-1.07,1.17-1.87-.16-.08-.45-.08-.62-.34h.97c-.02-.19-.87-.54-.21-.56-.15-.02-.38-.05-.39-.17.68-.53.79-1.32.93-2.07.16-.75.36-1.46,1.32-2.01-.38.12-.38-.02-.36-.18-.1.08-.42-.1-.66-.14l.79-.46c-.62-.25.09-.66-.51-.85l.07.21c-.68-.4-1.7.01-2.62-.23.77.46-1.38.41-.31,1.12-.21.05-.28-.16-.51-.16.37.21.42.36.18.56l-.09-.05c-.09.7-.56.88-1.05,1.51l.47.1c-.11.14-.27.12-.4.15.62.42.19-.42.88,0-.98-.1-.41,1.11-1.49.84-.1.23.54.14.44.37l-.3-.05.33.21c-.12.13-.5.05-.73-.04.04-.02-.02-.13-.02-.17-.4.05-.13.57-.26.59l.26-.14c-.02.74-.73,1.25-.55,2.09l.22.08c.08.64-.41.21-.56.75l-.03-.05c.12.22.13.4.02.51-.13-.26-.56-.11-.68-.42.03.67.12.4.54,1.21l-.34-.17c.18.31.3.43.18.71-.08-.38-.53-.25-.68-.72-.94-.15,0,1.17-.99.49.51.93.73.08.78.34.33.15.38.7.17.76-.16.12-1.12-.77-1.42-.48.04-.02-.01-.09.02-.11-.28-.1-.03.48-.44.26.28.57-.23.12.2.79.08-.13.16-.26.23-.39-.05.3.28,1.2-.32,1.05-.06-.15-.07-.39-.07-.53-.22-.13-.1.25-.33.11-.4-.68.33-.42.17-1.05-.28-.21-.04.73-.43-.05.46,1-.41.11-.23.97l-.23-.42c0,.09.03.33-.05.36l-.18-.61c.06.57-.61-.18-.67.17.41-.23.36.46.71.66-.25.85-.88-.93-1.35-.45.05-.09.42.11.39.37-.16-.03-.39-.13-.56-.33-.36.27.26.42.21.76-.37-.47-.11.3-.23.55l-.18-.45c-.6-.1.24.99-.35.81l-.05-.7-.17.25-.14-.53c-.11.48-.23.4-.53.35.17.3.25.84.02.93-.25-.22-.06-.46-.36-.29-.02-.31-.06-.7.22-.32-.04-.15-.02-.31-.06-.46-.27-.26-.43.06-.55.1.05,0,.11.01.16.07l-.27.78c-.13-.15-.11-.31-.09-.46-.08.08-.08.31-.22.39-.07-.39-.19-.77-.05-1.01l-.32.55c-.08-.16-.36-.39-.34-.54-.3-.15-.41.9-.82.69,0,.08-.02.16-.07.23-.33-.01-.69-.43-.94.17l-.33-.66c-.25.21.43.82,0,1.17-.3.27-.22-.57-.36-.75-.1.37-.3,1.13-.66.59.08-.14.17-.04.26-.11ZM21.28,81.7c.08-.09.25-.37.24-.09-.17.53-.17.26-.24.09ZM16.81,80c.16-.04.13.06.02.23-.07-.03-.09-.1-.02-.23ZM20.46,64.19s0,.01,0,.02c-.26-.03-.17-.01,0-.02ZM20.9,64.11c-.01-.08-.05-.13-.11-.17.05.11,0,.18-.11.21.1.08.19.12.22-.04ZM36.31,81.53l-.14-.05c.05-.22.09-.09.14.05Z"/>
    <path class="cls-1" d="M17.66,80.08c-.06.06-.13.12-.2.18.08-.03.15-.09.2-.18Z"/>
    <path class="cls-1" d="M26.57,80.82s.01,0,.01,0c0-.03,0-.06,0-.09v.08Z"/>
    <path class="cls-1" d="M19.82,70.89c-.09.01-.19-.01-.27-.05.09.07.19.11.27.05Z"/>
    <path class="cls-1" d="M22.08,62.24l-.14.24c.09-.09.18-.02.28,0-.07-.09-.2-.2-.14-.25Z"/>
    <path class="cls-1" d="M25.44,63.63c0-.07.06-.04.05-.11l-.12-.19c-.12.09-.11.3.07.3Z"/>
    <path class="cls-1" d="M23.17,63.44c.24.33.29.13.39-.03,0,0-.01.01-.02.02-.27-.5-.32-.24-.36.01Z"/>
    <path class="cls-1" d="M23.58,63.38s.07-.08.12-.09c-.11-.2-.08,0-.12.09Z"/>
    <path class="cls-1" d="M21.12,63.6c.13.03-.27-.45-.13-.34-.24-.47-.07.83.13.34Z"/>
    <polygon class="cls-1" points="24.02 64.48 23.7 64.09 23.85 64.48 24.02 64.48"/>
    <path class="cls-1" d="M22.77,64.9l.29-.04c-.05-.07-.05-.13-.04-.18-.14.08-.34.11-.25.22Z"/>
    <path class="cls-1" d="M23.01,64.68c.07-.04.13-.1.12-.19-.04.03-.11.1-.12.19Z"/>
    <polygon class="cls-1" points="23.82 64.8 23.7 64.75 23.52 64.82 23.82 64.8"/>
    <path class="cls-1" d="M20.52,66.59l-.11.3c.1.15.22.17.25.05-.03-.13,0-.25-.14-.35Z"/>
    <path class="cls-1" d="M22.06,67.07c-.12-.03-.2-.12-.34-.21l.4.48-.06-.26Z"/>
    <path class="cls-1" d="M21.56,67.7c.09.15.05.62.27.37-.1-.14,0-.43-.27-.37Z"/>
    <polygon class="cls-1" points="18.22 70.19 18.26 70.13 17.43 69.53 18.22 70.19"/>
    <path class="cls-1" d="M18.58,74.33c.33-.14-.54-.32-.16-.42-.19-.16-.31.08-.47-.07.16.26,0,.28.64.48Z"/>
    <path class="cls-1" d="M17.94,73.85s-.06-.09-.1-.15c.04.07.07.11.1.15Z"/>
    <polygon class="cls-1" points="43.45 69.2 43.7 69.02 43.34 69.09 43.45 69.2"/>
    <path class="cls-1" d="M42.8,68.62l.65.07-.55-.25c.02.05.05.16-.1.17Z"/>
    <path class="cls-1" d="M21.21,80.33l-.05.15c-.03.17,0,.19.05.23v-.38Z"/>
    <polygon class="cls-1" points="23.09 81.05 23.05 81.04 23.13 81.63 23.09 81.05"/>
    <path class="cls-1" d="M24.91,80.14c-.08-.01-.15.13-.24.12.15-.13.38.6.24-.12Z"/>
  </g>
  <g>
    <path class="cls-1" d="M33.58,40.35c.03.12.38-.11.45-.13-.18-.14-.54.19-.45.13Z"/>
    <polygon class="cls-1" points="31.75 39.23 31.91 39.15 31.41 39.18 31.75 39.23"/>
    <path class="cls-1" d="M30.67,37.89c-.42.59.5.39.5.79l-.09.14.54-.25c-.32-.24-.91-.36-.94-.68Z"/>
    <path class="cls-1" d="M31.11,36.13c-.15.24-.32.02.11.22,0-.04.01-.05.02-.08-.03-.03-.07-.06-.13-.15Z"/>
    <path class="cls-1" d="M31.24,36.27c.16.12.07-.26,0,0h0Z"/>
    <path class="cls-1" d="M30.47,35.76h.36c.07-.17-.08-.35.06-.38-.29-.08-.36.08-.43.38Z"/>
    <path class="cls-1" d="M29.94,36h.17c.03-.06.02-.1-.17,0Z"/>
    <path class="cls-1" d="M30.47,36.02l-.36-.02c-.05.11-.2.28.15.02-.16.14.02.03.21,0Z"/>
    <path class="cls-1" d="M30.51,36.21c0,.21.06.41-.29.41.4.26.71-.15.29-.41Z"/>
    <path class="cls-1" d="M30.07,38.32l-.04.26.28-.05c-.14.03-.08-.37-.24-.21Z"/>
    <path class="cls-1" d="M29.46,34.46c-.1.11-.17.37-.28.54l.25-.02c-.01-.14-.1-.33.02-.52Z"/>
    <path class="cls-1" d="M29.18,35l-.38.05c.18.17.29.1.38-.05Z"/>
    <polygon class="cls-1" points="29.39 36.57 30.08 36.45 29.32 36.52 29.39 36.57"/>
    <polygon class="cls-1" points="28.57 33.81 28.91 33.61 28.37 33.9 28.57 33.81"/>
    <path class="cls-1" d="M27.93,33.48c.26-.19.11-.5.32-.59-.2-.06-.48.07-.72.19.2-.03.34.09.4.4Z"/>
    <path class="cls-1" d="M27.15,33.23c.1-.02.23-.09.38-.16-.11.02-.23.06-.38.16Z"/>
    <path class="cls-1" d="M28.47,34.71c.03-.09.14-.31.07-.48l-.15.41s.05.04.08.07Z"/>
    <path class="cls-1" d="M28.38,34.66h0c-.09-.09-.15-.14-.18-.16.02.02.08.06.18.16Z"/>
    <path class="cls-1" d="M28.49,34.73l-.02-.02s-.02.06.02.02Z"/>
    <path class="cls-1" d="M29.1,35.82c-.27.09-.68.1-.66.57.27-.16.25-.44.66-.57Z"/>
    <path class="cls-1" d="M28.29,35.24l.17.24c.06-.09.12-.26.25-.31l-.42.06Z"/>
    <polygon class="cls-1" points="28.1 35.28 28.29 35.24 28.22 35.15 28.1 35.28"/>
    <path class="cls-1" d="M27.39,33.84c-.2.1-.33.04-.48,0,.1.16.23.28.36.36.09-.1.27-.27.11-.35Z"/>
    <path class="cls-1" d="M27.86,34.26h-.04s0,.06.04,0Z"/>
    <path class="cls-1" d="M25.57,33.14s0,.05-.01.08l.04-.06-.03-.02Z"/>
    <path class="cls-1" d="M27.26,34.27c.06.13.18.08.31,0-.1-.01-.2-.04-.29-.09-.04.05-.06.08-.02.08Z"/>
    <path class="cls-1" d="M26.67,33.21c.02.11.05.21.08.31,0-.15,0-.4-.08-.31Z"/>
    <path class="cls-1" d="M27.85,34.14s.02,0,.03,0c.01-.1,0-.06-.03,0Z"/>
    <path class="cls-1" d="M27.85,34.14c-.09.02-.19.08-.28.13.08.01.16.01.25,0,0-.03.01-.08.03-.12Z"/>
    <path class="cls-1" d="M24.06,35.47c.17-.36.59-.57.63-.08.35-.17.78-1.4.86-2.17-.08.15-.15.3-.49.39,0,.24.33.71-.03.94-.4.04-.2-.25-.27-.51-.07.51-.69.49-.9,1.19l.37-.12c-.04.11-.21.23-.18.36Z"/>
    <path class="cls-1" d="M26.03,33.49h.13c-.09-.11-.1-.3-.13-.65-.26.09-.36.21-.43.32l.49.3-.06.03Z"/>
    <path class="cls-1" d="M26.62,33.74c-.29.34-.61.37-.68.86.3.12.37-.21.64-.28-.53-.16.26-.14.02-.54.13-.01.23.01.32.04-.06-.1-.11-.2-.16-.31v.03s0,0,0,0h0c0,.06-.01.1-.02.06,0,0-.01,0-.01,0-.03.05-.07.09-.1.13-.1-.15.03-.11.1-.13l.04-.05h0s-.6-.05-.6-.05c.08.11.21.16.47.24Z"/>
    <path class="cls-1" d="M27.67,36.97s.03-.06.05-.09c-.06.02-.09.05-.05.09Z"/>
    <path class="cls-1" d="M27.66,36.64c.06-.03.19-.15.26-.04,0,.17-.12.16-.21.28.12-.05.38-.09.33-.4l-.06.02c-.07-.24.02-.83.08-.86-.17.35-.29.61-.41.99Z"/>
    <path class="cls-1" d="M27.14,35.27c-.16-.02-.32-.04-.48-.05v.43s.1-.2.1-.2c.16.2.26-.06.38-.19Z"/>
    <polygon class="cls-1" points="25.61 32.92 25.86 32.54 25.34 33.01 25.61 32.92"/>
    <polygon class="cls-1" points="25.03 32.73 25.21 32.37 24.97 32.53 25.03 32.73"/>
    <path class="cls-1" d="M5.79,44.23l.14.05c-.05-.03-.1-.04-.14-.05Z"/>
    <path class="cls-1" d="M5.53,43.55l-.19.05c.11,0,.19-.02.19-.05Z"/>
    <path class="cls-1" d="M10.94,31.46c-.24-.34-.54-.87-.45-.43l.13.42c.12-.1.22-.06.32.02Z"/>
    <path class="cls-1" d="M3.61,37.65s.09.02.14.03c-.1-.12-.19-.23-.27-.33.04.09.09.19.13.3Z"/>
    <path class="cls-1" d="M5.05,38.72h-.31c.1,0,.2,0,.31,0Z"/>
    <path class="cls-1" d="M8.24,47.45l.41-.19c-.11-.13-.24.07-.41.19Z"/>
    <path class="cls-1" d="M19.12,31.36c-.14-.19-.27-.28-.38-.31.18.27.29.66.38.31Z"/>
    <path class="cls-1" d="M1.42,45.73c.11.05.2.04.29,0-.1-.05-.2-.06-.29,0Z"/>
    <path class="cls-1" d="M18.26,31.01s.05.07.08.11c.13-.06.26-.11.4-.07-.13-.2-.29-.33-.48-.04Z"/>
    <path class="cls-1" d="M21.16,51.74s.03.02.04.05c0-.06-.02-.06-.04-.05Z"/>
    <path class="cls-1" d="M26.93,54.89s-.12.06-.19.09c.05.02.11,0,.19-.09Z"/>
    <path class="cls-1" d="M22.8,31.74c.13,0,.03-.04,0,0h0Z"/>
    <path class="cls-1" d="M22.88,33.56s-.08.09-.11.19c.04-.1.08-.16.11-.19Z"/>
    <path class="cls-1" d="M16.92,33.63h0c.03.08.02.07,0,0Z"/>
    <path class="cls-1" d="M22.93,31.98c-.03-.07-.07-.12-.12-.17.02.04.05.09.12.17Z"/>
    <path class="cls-1" d="M22.96,31.78s.07.05.1.07c.04-.06.04-.11-.1-.07Z"/>
    <path class="cls-1" d="M22.62,31.71c.07.01.13.05.19.1-.02-.03-.02-.06,0-.07-.04,0-.09-.01-.18-.02Z"/>
    <path class="cls-1" d="M12.88,52.38s0,.03,0,.05c.15-.14.1-.13,0-.05Z"/>
    <path class="cls-1" d="M9.01,36.45s0-.02,0-.02h-.02s.01.02.01.02Z"/>
    <path class="cls-1" d="M8.77,36.86c-.02-.56.09-.52.23-.44l-.46-1.17c.07.54.14,1.07.23,1.61Z"/>
    <path class="cls-1" d="M6.72,45.79l.22-.4c.7-.06.61.21.98-.24-1.2.65-.56-.72-1.77-.14l.18-.28s.08.02.09.07c.44-.57-.99.22-.99-.24.03-.17.18-.34.36-.32l-.43-.15c-.01-.09.22-.16.23-.07l-.27-.4h.04c-.22,0-.58-.03-.74-.06.14-.18.16.01.31-.07l-.4-.15c.3-.21.69-.11.7.07,1.21-.65-.4-.1.22-.81l.23.17c.69-.35.39-.43.8-.76-.24.09-1.05.76-1.45.6.08-.1.1-.2-.19-.28.47-.11.33-.21.27-.37l.63-.11c-.21-.13-.53-.06-.83-.12.03-.21.53-.3.94-.38.07-.28-.77.28-.93-.06.23-.27-.04-.4-.41-.72.24-.15.39.05.58,0-.16-.06-.33-.12-.49-.18.02-.04.17,0,.25,0-.18-.15-.64-.08-.78-.32-.34-.08-.07-.17.2-.25.28-.08.52-.14.19-.38.19,0,.36.15.6.21-.4-.46-.28-.35-.8-.93.17-.02.33-.02.49-.02-.5-.08-.91-.56-1.13-1.06-.24-.06-.46-.1-.57-.1-.02-.2,0-.39,0-.6.12.01.26.19.44.41-.03-.06-.05-.11-.07-.16.29,0,.52.31.75.6-.13-.03-.27-.07-.41-.11.26.31.57.61.9.79-.05-.06-.08-.13-.08-.19.07.08.15.14.2.17.06.03-.04-.08-.14-.22l.62.36-.22-.18c.19-.03.41-.02.59-.02-.35-.67-.83-1.7-.45-2.33.17.52.47.71.82,1.23-.52-.44-.16.47-.42.52.15-.04.32.21.36.3-.02-.23-.05-.49-.03-.74.29.41.31.25.52.35-.65-.77-.07-.76-.03-1.12.18.29.29.6.05.66.59.51-.27-1.2.29-.78-.05.04-.11,0-.05.17,0-.34.45-.28.48.02l-.05.03c.42-.08,1.2-.47,1.02-1.3.04.1.26.99.29,1.17-.06-.99-.05-1.98,0-2.99.12.73.83,2.33.58,2.83.13.07.28.16.43-.15-.09-.08-.44-.98-.35-1.07.47.72.3.37.79.97-.14-.13-.27-1.27-.08-1.28,0,.17.25,1.1.21,1.23.06-.4.14-.79.21-1.19-.07.22.16.94.32,1.23-.09-.21.38-.05.48-.18l-.23-.22c.53.08.24-1.65.78-1.67-.03.24.06,1.44.33,1.54.03-.59.15-2.82.6-3.32l.13.32.33-.41c-.16.89-.57,2.77-.79,3.52.22.23.1.38.38.31.14.29-.09.48-.17.51l.66.12c-.11-.67.42-.72.34-1.28l-.63.77c-.12-.66.2-1.94.7-1.87.15.26.02,1.2.05,1.42.04-.24.4-.48.46-.32l-.17.37c.27.23.36-.92.71-.3.11.04.36.85.36.45-.2-.76-.37-3.12-.27-3.71.05.05.66.71.79,1.09.2.6-.24,1.44-.07,1.95,0-.18.09-.41.14-.49.12.15-.04.57.21.48.03-.68.5.06.11-.58.24-.19.26.14.55.11-.09-.44.29-1.49.56-1.68-.02.17.03.4.05.5.52.09.78.41,1.25.46.03.17.24.39.11.67.08-.12.16-.34.31-.34.21.62-.33.05-.19.78.06-.39.43-.5.67-.72.02-.61-.47-.18-.7.05.08-.84.55-1.68,1.14-1.99.46-.14.1.57.19.46.75.27.94-1.33,1.5-.6.15.59-.22,1.05-.25,1.44-.37.12-.44-.44-.67-.46l.23.3c-.14.15-.38.25-.47.07.12.51,1.26.33,1.7.94.15-.15.37-.28.35-.51l-.2.02c-.06-.46.51-.48.33-.74.33-.23.77-.58,1.06-.24l-.13.6c.05-.17-.12-.42-.27-.27.24-.21.27.96.69.26l-.1-.49c.35-.2.92-.7,1.17-.38.08-.62-.1.03-.08-.72-.11.9-.85-.35-.83.64.03-.87-.3-.47-.42-1.24-.05.2,0,.41-.26.22-.03.05-.08.11-.11.15,0,0,0-.01-.01-.02v.03s-.01.03.01,0c.04.11.07.23.06.34-.27.39-.71.27-.91.46-.14-.14.13-.21.09-.44l-.31.29c.09-.44-.27-.83.2-.99l-.36-.1c-.16-.3-.44-.46-.66-.31-.16-.13-.53.4-.31.09-.21.05-.41.11-.62.17v-.11c-.55-.15-1.22.57-1.78-.29-.2.1-.4.21-.71.07l-.04-.39c-.25.12-.72-.43-.84-.02-.24-1.06-1.2-.25-1.62-.41v.51c-.3-.02-.57.13-.92.36l.05.45c-.28.38-.8-.27-1.28-.18.02-.18.14-.14.24-.04-.69-.96-1.13.86-1.73.2-.11.18-.2.14-.31.04.01,0,.02-.01.03-.03-.01,0-.03,0-.05,0-.07-.07-.14-.15-.21-.21.07.1.14.18.19.21-.1.02-.24.1-.37.24l-.14-.47s-.02,0-.03.02c-.17-.15-.08.24.06.59-.06.09-.11.2-.14.32-.25-.75-.33.32-.64-.46-.03.42-.69.45-.59,1.3-.03-.11-.08-.15,0-.17-.18-.06-.37-.12-.46.15l-.21-.58-.15.89c-.31-.3-.46-.48-.37-1-.33.85-.36.38-.58,1.21l-.1-.38c-.16.06-.23.65-.43.38-.63-.58-1.75.56-2.99.62.85.83-.72-.13-.21.63-.22-.18-.44-.19-.45-.5-.27.56-.99.29-.73,1.12-.25-.14-.21-.37-.37-.44,0,.08.04.31-.12.25-.17-.06-.11-.22-.13-.38-.41.55.22,1.12.84,1.64-.46,0-.52.17-.18.61-.26-.06-.59-.05-.48-.41-.07.07-.31.3-.46.55-.14.26-.18.54.11.67-.18,0-.14.24-.09.31-.18.4-.24.43-.28.86l.13-.09c.71.33.1.36.14.71l-.08-.02c-.62.7.22.33-.44,1.05l.48-.04c.51.04.36.18.14.39-.23.2-.52.49-.29.67l.26-.18c.36.16-1.31.81-1.39,1.1-.08.07-.16-.06-.23-.13-.48.77.63-.02.87.41-.31.16-.87.07-.86.41-.23.25,1.29.61.81,1.19.22-.17.44-.33.69-.2.18.25-.63,1.16.25,1.11-.05.06-.11.1-.17.13.29.14.64.56,1.1.49-1.39.94,1.36.88.02,1.59l.44.58-.14.07c.16.45.56.39.95.32-.03.14-.19.16-.26.2.12.73.24.77,1.17.75l-.36.35c.31-.07.03,1.28.94,1.39-.05.03-.12.09-.21.1.47.08.56.64.75,1.07.18.42.46.68,1.12.06.22-.01.44-.03.67-.06-.42-.48.54-.58.51-.97.24.04.18.79-.11.7v-.1c-.63.71.46.71.11,1.24,1.09.64,2.02,1.63,3.17,2.07l.11-.74.37.17c.05.19-.03.59-.31.47.02.45.58-.18.63-.33.47.45-.46.75-.3.82l.25.02-.03-.1c.27-.23.37-.53.7-.41.18.2,0,.47.08.52-.01.05.01.08.13.05l.5.17-.08-.61c.28-.23.46.13.37-.56.13,1.08,1.8.67,1.96.98.36-.39.65-.36,1.03-.29-.09-.12-.11-.77.2-.68-.17,1.34.57.6.84,1.56-.24-.63.95-.17.55-1.07.27.1.03.5.25.81.63-.54,1.48.25,2.28-.02-.01-.18-.17-.43-.04-.71l.54.81c.15-.11,0-1.02.37-.47-.06-.14-.16-.35-.06-.42.84.3,1.6-.02,2.35-.28.75-.26,1.51-.45,2.49.11-.3-.27-.17-.34-.02-.4-.12-.05-.12-.42-.21-.64l.81.45c-.08-.67.65-.25.52-.87l-.16.17c.03-.79-.86-1.47-1.1-2.4-.03.9-1.08-.98-1.19.31-.15-.16,0-.32-.11-.52,0,.43-.12.55-.42.44v-.11c-.69.29-1.1-.03-1.95-.11l.16.45c-.19-.02-.25-.16-.36-.26-.05.75.49-.06.48.75-.43-.89-1.24.24-1.58-.82-.26.04.17.53-.1.56l-.12-.28v.39c-.19-.03-.33-.39-.38-.64.05.02.11-.09.15-.11-.27-.31-.6.2-.69.1l.27.15c-.69.37-1.57.06-2.24.67l.06.22c-.53.43-.43-.24-1.02-.05l.02-.05c-.12.22-.28.32-.44.29.16-.26-.25-.52-.04-.8-.59.41-.29.33-.75,1.13l-.05-.38c-.16.32-.19.49-.51.56.28-.29-.12-.58.2-.97-.47-.87-1.02.68-1.09-.54-.47.96.41.65.22.84.08.36-.36.71-.55.58-.2-.06-.07-1.35-.53-1.44.04.02.07-.06.11-.04-.1-.3-.43.26-.52-.21-.29.56-.26-.12-.52.63.16-.02.32-.03.48-.05-.29.13-.81.95-1.08.38.08-.14.27-.3.39-.38-.04-.26-.27.07-.32-.2.29-.73.57.01.99-.5-.02-.36-.64.41-.26-.37-.52.98-.38-.27-.95.4l.19-.44c-.07.05-.25.22-.33.18l.38-.51c-.43.4-.26-.6-.57-.43.44.18-.13.57-.08.97-.84.31.18-1.27-.49-1.36.11-.02.17.4-.06.54-.07-.14-.14-.38-.08-.64-.42-.13-.18.46-.48.62.16-.58-.31.1-.58.14l.25-.41c-.26-.54-.67.78-.86.19l.54-.44h-.29s.35-.42.35-.42c-.44.19-.46.05-.55-.22-.16.3-.57.67-.77.53.06-.32.36-.29.07-.45.26-.18.55-.42.38,0,.11-.11.25-.19.35-.3.08-.35-.25-.31-.34-.38.02.04.04.09.02.16-.26.07-.52.13-.79.18.07-.18.22-.24.35-.31-.1-.02-.3.09-.43.02.3-.25.58-.54.84-.55-.2,0-.4.02-.6,0,.1-.14.19-.48.33-.54.02-.31-.95.08-.92-.37-.07.03-.15.05-.24.03-.12-.3.11-.79-.53-.79l.47-.56c-.29-.16-.59.73-1.07.46-.38-.18.44-.43.54-.63-.39.05-1.17.14-.83-.43.17.03.12.15.21.21ZM5.01,42.61c.12.04.44.08.19.2-.56.08-.31-.05-.19-.2ZM4.68,37.77c.09.14-.02.14-.22.1,0-.07.07-.12.22-.1ZM21.36,31.78v.02c-.17-.23-.12-.14,0-.02ZM21.73,32.08c.06-.06.07-.12.07-.19-.06.11-.15.1-.25.04,0,.13.03.23.18.15ZM13.17,55.84l-.05-.14c.21-.09.13.02.05.14Z"/>
    <path class="cls-1" d="M4.88,38.6c-.08-.03-.16-.08-.24-.12.06.07.13.11.24.12Z"/>
    <path class="cls-1" d="M8.17,47.48s0,.01,0,.01c.03-.01.05-.03.07-.05l-.08.03Z"/>
    <path class="cls-1" d="M15.46,35.52c-.07-.07-.12-.15-.15-.24,0,.12.03.22.15.24Z"/>
    <path class="cls-1" d="M24.14,31.94l-.31.02c.14.02.15.14.18.24.03-.11.04-.28.12-.26Z"/>
    <path class="cls-1" d="M25.06,35.58c.06-.04.07.03.13,0l.09-.2c-.14-.06-.32.06-.22.21Z"/>
    <path class="cls-1" d="M23.83,33.54c-.12.39.08.31.27.31-.01,0-.02,0-.03-.01.26-.51,0-.41-.24-.3Z"/>
    <path class="cls-1" d="M24.14,33.85c.06,0,.12.02.16.05.11-.2-.05-.07-.16-.05Z"/>
    <path class="cls-1" d="M22.31,31.95c.06.12.19-.49.2-.31.23-.47-.75.44-.2.31Z"/>
    <polygon class="cls-1" points="23.49 34.84 23.61 34.35 23.38 34.69 23.49 34.84"/>
    <path class="cls-1" d="M22.33,34.05l.22.22c.02-.08.07-.12.12-.14-.16-.07-.31-.22-.34-.08Z"/>
    <path class="cls-1" d="M22.67,34.13c.08.04.17.05.24-.01-.05,0-.15-.03-.24.01Z"/>
    <polygon class="cls-1" points="23.09 34.85 23.05 34.72 22.88 34.62 23.09 34.85"/>
    <path class="cls-1" d="M19.44,33.33l-.32.1c-.05.17.01.28.13.23.09-.11.21-.16.18-.33Z"/>
    <path class="cls-1" d="M20.09,34.83c-.06-.12-.04-.23-.05-.4l-.12.61.17-.21Z"/>
    <path class="cls-1" d="M19.25,34.83c-.05.16-.47.43-.12.44.05-.16.35-.26.12-.44Z"/>
    <polygon class="cls-1" points="14.97 33.83 15.04 33.82 15 32.81 14.97 33.83"/>
    <path class="cls-1" d="M11.48,36.63c.36.19-.02-.63.32-.38.04-.25-.28-.21-.23-.43-.16.28-.28.15-.09.8Z"/>
    <path class="cls-1" d="M11.57,35.83s.05-.1.08-.17c-.05.07-.07.12-.08.17Z"/>
    <polygon class="cls-1" points="27.91 55.16 28.2 55.29 27.95 55.01 27.91 55.16"/>
    <path class="cls-1" d="M28.11,54.3l.25.6-.05-.6s-.12.13-.2,0Z"/>
    <path class="cls-1" d="M6.18,41.86l-.16.02c-.16.06-.16.1-.18.17l.33-.19Z"/>
    <polygon class="cls-1" points="6.46 44.18 6.46 44.14 5.96 44.46 6.46 44.18"/>
    <path class="cls-1" d="M8.13,45.7c-.02-.08-.19-.1-.21-.18.18.1-.4.59.21.18Z"/>
  </g>
</svg>