<?xml version="1.0" encoding="UTF-8"?>
<svg id="Layer_1" data-name="Layer 1" xmlns="http://www.w3.org/2000/svg" viewBox="0 0 101.81 17.71">
  <defs>
    <style>
      .cls-1 {
        stroke-width: 5px;
      }

      .cls-1, .cls-2, .cls-3, .cls-4 {
        fill: none;
        stroke-miterlimit: 10;
      }

      .cls-1, .cls-3 {
        stroke: #eeecb4;
      }

      .cls-5 {
        fill: #801a20;
      }

      .cls-2 {
        stroke: #ebefdd;
        stroke-width: .25px;
      }

      .cls-3 {
        stroke-width: 10px;
      }

      .cls-4 {
        stroke: #801a20;
        stroke-width: 2px;
      }
    </style>
  </defs>
  <path class="cls-1" d="M1.06,3.58c17.19-.06,34.44.09,51.63.04,9.8-.03,19.58-.12,29.38-.09,6.38.02,12.85.09,19.08,0"/>
  <path class="cls-3" d="M1.15,10.92c33.27,0,66.55,0,99.82,0"/>
  <path class="cls-4" d="M1.04,15.54l8.13-7.9c.08.09.21-.11.29-.2,1.8-1.89,3.61-3.79,5.41-5.68,1.33,2.96,3.76,5.21,6.15,7.4s3.77,3.01,6.04,5.33c3.03-4.73,7.06-8.44,10.66-12.76,5.46,4.37,9.19,7.61,14.02,12.67,3.48-4.85,8.48-8.21,12.48-12.64,4.9,4.69,7.91,7.54,12.81,12.23,2.71-5.08,7.66-7.81,11.7-11.91,1.33.95,1.72,2.05,2.82,3.26,3.17,3.48,6.34,6.95,9.51,10.43"/>
  <path class="cls-4" d="M2.15,15.45c8.37-.71,16.8-.69,25.17.08"/>
  <path class="cls-4" d="M11.43,14.13c1.9.27,3.83-.01,5.75-.07,2.77-.08,5.4-.8,8.14-.41-1.94-.67-4.03-.75-6.08-.77-5.27-.06-10.55.2-15.79.8"/>
  <path class="cls-4" d="M14.29,3.35c2.12,3.01,3.56,5.15,5.86,8.03-2.24-2.33-5.36-4.59-6.83-7.48,1.5,2.07,3.15,4.04,4.88,5.92,1.37,1.48,2.42,1.51,4.43,1.8"/>
  <path class="cls-4" d="M4.99,12.59c.76.08,1.51-.08,2.26-.23,3.73-.75,7.55-1.03,11.35-.83"/>
  <path class="cls-4" d="M13.62,5.38c-2.31,1.73-4.29,3.89-5.82,6.34,2.16-2.03,4.74-3.62,7.52-4.65-1.02,1.42-2.31,2.61-3.6,3.78.79-.67,1.62-1.34,2.59-1.69.62-.22,1.39-.29,1.88.15s.33,1.48-.33,1.52c.22-.35.44-.69.66-1.04-1.04-.14-2.12.12-2.99.7,1.7-.92,3.78,0,5.48.93.22.12.45.26.52.49.1.33-.2.67-.53.75s-.68-.03-1.01-.12c-3.75-1.1-7.75-1.38-11.61-.79,4.12-1.25,8.57-1.39,12.77-.4.27.06.56.13.83.04.6-.2.55-1.27-.07-1.41,1.76,1.28,3.38,2.76,4.8,4.4"/>
  <path class="cls-4" d="M0,15.07h3"/>
  <path class="cls-4" d="M24.99,13.95c.46.36,1.08.53,1.67.44-.67-.42-1.41-.73-2.19-.91"/>
  <path class="cls-4" d="M14.1,5.69c-.38.51-.57,1.16-.52,1.8"/>
  <path class="cls-4" d="M28.25,13.61c3.72-.74,7.47-1.41,11.26-1.41s6.14.57,9.42,2.46c-3.97.03-7.95-.07-11.9-.4-3.67-.3-6.96,1.22-10.56,1.23,17.31-.08,34.62-.22,51.93-.43,8.06-.1,14.71-.5,22.74.22"/>
  <path class="cls-4" d="M38.06,13.19l5.71.56"/>
  <path class="cls-4" d="M29.63,12.05c1.49-1.31,3.27-2.24,4.96-3.3s3.32-2.31,4.29-4.05c1.8,1.92,2.26,2.28,4.06,4.2.35.38.7.75,1.1,1.08.49.41,1.03.74,1.58,1.07,1.25.76,2.5,1.52,3.76,2.28"/>
  <g>
    <path class="cls-5" d="M40.79,8.28s.21-.32.25-.38c-.06.07-.31.48-.25.38Z"/>
    <polygon class="cls-5" points="40.18 9.02 40.27 8.88 40.04 9.23 40.18 9.02"/>
    <path class="cls-5" d="M40.09,8.96c-.35.62.09-.08-.02.15l-.08.14.3-.49c-.07.06-.29.38-.2.2Z"/>
    <path class="cls-5" d="M40.81,7.59c-.14.24-.13.2-.03.08.01-.03.02-.04.03-.06,0,0,0,0,0-.02Z"/>
    <path class="cls-5" d="M40.81,7.61s.11-.21,0,0h0Z"/>
    <path class="cls-5" d="M40.68,7.72l.14-.21c.08-.14.08-.18.15-.28-.08.11-.16.25-.29.49Z"/>
    <path class="cls-5" d="M40.41,8.16l.06-.09c.03-.06.04-.08-.06.09Z"/>
    <path class="cls-5" d="M40.59,7.89l-.13.18c-.05.1-.17.3.05-.07-.11.18,0,0,.08-.12Z"/>
    <path class="cls-5" d="M40.55,7.99c-.07.14-.11.23-.25.44.08-.07.32-.51.25-.44Z"/>
    <path class="cls-5" d="M39.71,9.59l-.1.19.13-.2c-.06.1.08-.18-.03.02Z"/>
    <path class="cls-5" d="M40.76,7.34c-.07.13-.19.36-.29.53l.1-.15c.04-.09.08-.18.19-.38Z"/>
    <path class="cls-5" d="M40.48,7.87l-.14.22s.06-.07.14-.22Z"/>
    <polygon class="cls-5" points="40.01 8.85 40.31 8.39 40 8.86 40.01 8.85"/>
    <polygon class="cls-5" points="40.7 7.29 40.88 6.99 40.61 7.44 40.7 7.29"/>
    <path class="cls-5" d="M40.63,7.32c.14-.26.23-.43.32-.59-.04.04-.17.25-.28.45.07-.11.07-.07-.03.15Z"/>
    <path class="cls-5" d="M40.49,7.45c.04-.06.1-.17.17-.28-.03.06-.09.14-.17.28Z"/>
    <path class="cls-5" d="M40.34,8.01c.04-.08.16-.29.2-.39l-.2.38h0Z"/>
    <path class="cls-5" d="M40.33,8.01h0s0-.04,0-.04c0,0,0,.02,0,.04Z"/>
    <path class="cls-5" d="M40.34,8.01h0s-.03.05,0,0Z"/>
    <path class="cls-5" d="M40.16,8.49c-.13.2-.27.42-.43.74.15-.25.24-.44.43-.74Z"/>
    <path class="cls-5" d="M40.09,8.48l-.03.09c.06-.1.14-.24.19-.35l-.16.25Z"/>
    <polygon class="cls-5" points="40.02 8.6 40.09 8.48 40.1 8.45 40.02 8.6"/>
    <path class="cls-5" d="M40.33,7.82c-.1.16-.11.17-.13.19-.03.08-.04.13-.03.13.06-.12.18-.33.17-.32Z"/>
    <path class="cls-5" d="M40.32,7.95v.02s-.03.04,0-.02Z"/>
    <path class="cls-5" d="M40.11,7.96s-.02.05-.03.07l.03-.07h0Z"/>
    <path class="cls-5" d="M40.13,8.21c-.03.08.02-.01.09-.13-.03.03-.05.06-.05.06-.03.05-.05.09-.04.07Z"/>
    <path class="cls-5" d="M40.37,7.61c-.04.08-.07.15-.1.21.06-.12.15-.31.1-.21Z"/>
    <path class="cls-5" d="M40.36,7.86s.01-.02.01-.02c.04-.08.02-.04-.01.02Z"/>
    <path class="cls-5" d="M40.36,7.86c-.03.05-.09.14-.13.22.02-.03.04-.07.08-.12.01-.03.03-.07.05-.11Z"/>
    <path class="cls-5" d="M38.83,10.39c.18-.35.36-.67.18-.29.15-.26.74-1.42,1.06-2.07-.08.15-.15.29-.28.49-.09.2-.2.47-.38.78-.11.17.05-.13.13-.32-.23.44-.34.63-.68,1.28l.13-.22c-.05.1-.13.26-.18.35Z"/>
    <path class="cls-5" d="M40.09,8.08l.03-.04c.02-.07.09-.21.22-.49-.1.17-.17.29-.23.41v.07s-.02.05-.02.05Z"/>
    <path class="cls-5" d="M40.15,8.06c-.21.38-.31.53-.52.95.03-.02.18-.31.28-.47-.08.08.12-.21.21-.44.04-.06.06-.08.07-.09.02-.05.04-.11.07-.18v.02s-.01,0-.01,0h0c-.02.05-.04.08-.03.05,0,0,0,0,0,0-.03.05-.05.1-.08.14.03-.08.05-.1.08-.14l.03-.06h0s-.14.19-.14.19c-.02.06,0,.05.03.01Z"/>
    <path class="cls-5" d="M39.27,10.04s.03-.06.05-.09c-.03.05-.05.08-.05.09Z"/>
    <path class="cls-5" d="M39.38,9.81c.03-.05.12-.2.1-.16-.06.11-.1.18-.17.3.06-.1.16-.26.25-.45l-.03.05c.07-.13.31-.61.34-.66-.18.34-.31.59-.49.92Z"/>
    <path class="cls-5" d="M39.72,9.03l-.12.17-.16.33.11-.2c-.03.08.1-.16.18-.31Z"/>
    <polygon class="cls-5" points="40.2 7.77 40.42 7.37 40.1 7.93 40.2 7.77"/>
    <polygon class="cls-5" points="40.14 7.8 40.32 7.45 40.2 7.65 40.14 7.8"/>
    <path class="cls-5" d="M36.88,11.81l-.03.11s.02-.07.03-.11Z"/>
    <path class="cls-5" d="M36.91,11.84l.04-.19c-.02.1-.04.18-.04.19Z"/>
    <path class="cls-5" d="M39.18,7.42c.12-.35.3-.89.15-.48l-.15.41c.04-.07.03-.02,0,.07Z"/>
    <path class="cls-5" d="M37.79,9.69s-.02.08-.03.13c.04-.14.08-.27.12-.4-.03.08-.06.17-.09.27Z"/>
    <path class="cls-5" d="M37.29,11.42l.07-.27c-.02.09-.05.19-.07.27Z"/>
    <path class="cls-5" d="M36.64,12.23l-.08.43s.04-.22.08-.43Z"/>
    <path class="cls-5" d="M39.68,7.76c.06-.16.08-.23.08-.25-.09.23-.23.58-.08.25Z"/>
    <path class="cls-5" d="M37.87,7.31c-.02.08-.04.16-.06.26.02-.07.04-.15.06-.26Z"/>
    <path class="cls-5" d="M39.73,7.49s-.02.06-.04.1c.04-.06.07-.11.07-.08.07-.17.1-.28-.03-.01Z"/>
    <path class="cls-5" d="M36.09,11.82s0-.03,0-.05c0,.06,0,.06,0,.05Z"/>
    <path class="cls-5" d="M35.79,7.44s0-.03.01-.03c0-.03,0-.03-.01.03Z"/>
    <path class="cls-5" d="M40.07,7.55s.02-.04,0,0h0Z"/>
    <path class="cls-5" d="M39.35,9.11s-.05.1-.1.19c.05-.09.08-.15.1-.19Z"/>
    <path class="cls-5" d="M38.58,9.94h0c-.03.08-.03.06,0,0Z"/>
    <path class="cls-5" d="M40,7.73s.03-.09.05-.12c-.01.03-.03.07-.05.12Z"/>
    <path class="cls-5" d="M40.09,7.55s0,.03-.01.04c.03-.06.05-.11.01-.04Z"/>
    <path class="cls-5" d="M40.05,7.57s0,.02,0,.05c.01-.03.02-.05.03-.06,0,0-.01.01-.02.02Z"/>
    <path class="cls-5" d="M36.53,10.68s0-.02,0-.04c-.02.18-.02.15,0,.04Z"/>
    <path class="cls-5" d="M37.49,11.6s0-.01,0-.02h0s-.01.02-.01.02Z"/>
    <path class="cls-5" d="M37.37,11.91c.18-.51.16-.44.13-.34l.4-1.18-.53,1.52Z"/>
    <path class="cls-5" d="M36.79,11.92l-.07.38c-.13.63-.1.41-.19.95.26-1.33.05-.13.33-1.46l-.05.28s-.02.06-.01.05c-.12.64.21-.96.19-.77-.01.1-.05.3-.09.45l.08-.33s-.05.26-.05.23l.04-.1v.04c.04-.21.12-.53.15-.66-.04.19-.03.14-.07.31l.09-.32c-.07.34-.16.68-.16.62-.29,1.32.09-.33-.07.45l-.05.17c-.16.75-.1.48-.2.95.06-.24.26-1.18.34-1.51-.02.1-.03.15.04-.12-.11.47-.08.36-.06.33l-.15.62c.05-.18.13-.49.2-.77,0,.06-.12.55-.22.95-.01.1.18-.77.23-.89-.05.24.02-.01.14-.38-.05.22-.1.38-.14.56l.14-.49s-.04.16-.06.24c.06-.19.16-.62.22-.78.19-.68-.24,1-.02.23-.05.18-.1.38-.17.62.16-.5.11-.36.32-1.04l-.1.41c.12-.47.29-1.01.43-1.45.06-.22.11-.42.13-.51l.12-.32c-.03.1-.09.31-.17.57.02-.05.03-.1.05-.15-.06.23-.16.58-.27.92.03-.12.07-.25.1-.38-.11.37-.23.79-.34,1.14.02-.07.04-.13.05-.16-.03.1-.06.19-.07.25-.02.06.02-.07.07-.23l-.19.69.08-.27-.1.43c.22-.68.54-1.69.66-1.96-.15.5-.25.82-.44,1.41.18-.63-.1.26-.08.13-.01.07-.1.35-.13.45l.2-.56c-.15.48-.11.36-.16.57.29-.96.22-.63.32-.92-.1.32-.21.65-.19.57-.21.72.37-1.12.19-.5,0,0,0-.04-.05.12.1-.28.05-.05-.05.23h0c-.02.13.06.03.34-.77-.04.1-.33.97-.39,1.13l.97-2.69c-.24.69-.81,2.33-.95,2.72-.03.1-.06.22.03-.02.03-.1.34-1,.37-1.06-.25.77-.13.41-.35,1.07.05-.15.43-1.23.43-1.19-.06.16-.38,1.06-.42,1.18l.4-1.05c-.07.19-.32.9-.43,1.2.07-.21,0,.02.05-.08l.08-.25c-.04.17.57-1.48.58-1.41-.09.22-.51,1.34-.55,1.47.21-.54,1.01-2.58,1.2-2.98l-.11.31.16-.34c-.33.8-1.02,2.49-1.28,3.15-.09.25-.14.36-.11.34-.11.29-.17.44-.18.45l-.05.19q.25-.62.47-1.14l-.28.64c.24-.63.71-1.77.69-1.65-.1.25-.44,1.11-.52,1.32.09-.21.18-.4.12-.25l-.14.33c-.08.24.35-.82.12-.22-.01.04-.31.81-.16.44.29-.71,1.18-2.91,1.4-3.44-.02.05-.25.69-.38,1.05-.23.56-.55,1.32-.75,1.8.07-.17.16-.38.19-.44-.06.15-.22.52-.18.45.26-.63,0,.06.23-.53.09-.17-.04.13-.02.11.17-.41.6-1.37.69-1.55-.07.16-.15.37-.19.46,0,.07-.11.36-.09.37-.06.15-.14.34-.26.61.05-.11.15-.32.16-.33-.23.54-.05.08-.33.73.16-.36.24-.49.35-.71.25-.56.02-.12-.09.1.34-.77.72-1.57.92-1.91.11-.18-.22.5-.16.39-.02.15.66-1.32.45-.75-.21.49-.46.97-.62,1.32-.1.18.12-.32.1-.31l-.09.24c-.08.16-.15.28-.09.13-.19.44.03.11-.13.53.08-.16.17-.32.26-.52l-.04.06c.18-.4.28-.53.36-.72.15-.27.38-.69.29-.46l-.27.55c.08-.16.15-.33.06-.17.13-.24-.34.76.03.05l.17-.39c.15-.27.47-.84.4-.66.25-.55-.03.06.27-.58-.38.79-.04-.06-.43.78.35-.74.13-.33.42-.97-.09.18-.16.35-.14.25-.03.05-.06.12-.08.16h0s0,0,0,0c-.01.03-.02.03,0,0-.04.08-.08.18-.13.28-.21.41-.23.39-.35.6.03-.09.1-.21.19-.4l-.17.32c.19-.41.29-.69.43-.91l-.02-.03c.09-.23.12-.33.02-.17.03-.09-.24.44-.08.12l-.15.24.05-.1c-.02-.07-.38.64-.09-.11-.06.1-.13.22-.1.09l.15-.36c-.07.12.1-.38-.06,0,.39-.97,0-.25.05-.43l-.19.47s-.08.09-.18.27l-.17.42c-.16.33.07-.32.02-.29.06-.16.06-.11.02-.01.33-.96-.35.66-.12-.05-.07.15-.05.1-.02-.01,0,0,0,0,.01-.02,0,0,0,0,0,0,.02-.07.05-.16.07-.23-.03.1-.06.19-.07.23-.01,0-.04.05-.09.16l.16-.45s0,0,0,.01c.05-.17-.09.21-.21.55-.03.07-.07.16-.11.27.26-.73-.11.24.16-.55-.14.38-.15.27-.44,1.07.04-.1.05-.16.06-.16.02-.1.04-.19-.04.03l.2-.58-.29.77c.11-.36.17-.56.34-1-.27.67-.12.25-.38.92l.13-.37s-.2.51-.1.2c.21-.72-.08-.13.07-.82-.33,1.12.12-.51-.14.35.08-.26.11-.42.19-.64-.11.25.07-.43-.16.29.08-.27.12-.39.16-.54-.02.06-.08.23-.04.07.04-.16.07-.22.11-.33-.05.03-.29.85-.51,1.61.09-.37.07-.32-.09.18.07-.25.13-.52.18-.6,0-.04.04-.39-.14.23.04-.16,0-.05-.02.02-.01-.04,0-.1-.04-.05l-.02.1c-.21.74-.06.16-.1.25l.02-.08c.1-.55-.08.25.03-.37l-.12.47c-.26,1,.11-.6,0-.22l-.06.27c-.1.34.3-1.37.31-1.5.02-.09.04-.14.06-.2.1-.6-.15.61-.21.74.07-.33.21-.84.2-.9.05-.27-.31,1.06-.19.42-.05.26-.1.51-.16.7-.04.09.16-.98-.04-.18.01-.07.03-.14.04-.2-.06.2-.12.33-.22.77.32-1.63-.25.77.05-.73l-.06.07.03-.15c-.01-.11-.09.25-.17.61.01-.1.04-.24.06-.32.01-.31,0-.25-.17.5l.08-.49c-.06.28.06-.78-.07-.21.01-.06.03-.15.04-.22-.13.57.08-1.38-.2.4l-.09.44c.02.14-.11.78-.14,1.07-.03.1.04-.54.07-.63v.09c.13-.93-.01-.34.07-.97-.08.04-.11-.49-.19-.54l-.06.73-.02-.04c0-.17.05-.57.06-.54.03-.41-.07.34-.08.5,0-.3.1-.85.09-.87l-.02.05v.09c-.05.3-.08.61-.1.57,0-.15.03-.45.03-.48,0-.05,0-.08,0-.02l-.03-.07-.03.58c-.04.28-.03-.03-.07.62.06-1.01-.09-.37-.08-.68-.05.42-.07.41-.09.36,0,.12-.04.77-.05.69.08-1.34,0-.58.02-1.55-.01.64-.07.15-.09,1.06-.01-.11.02-.5.02-.82-.06.52-.09-.34-.15-.17,0,.18,0,.44-.02.71v-.88c-.02.09-.04,1.01-.05.4,0,.15,0,.37,0,.43-.11-.86-.2.7-.34-.91.02.34.01.37,0,.39,0,.08.01.43.02.67l-.06-.66c.01.66-.05.05-.03.68v-.11c.02.75.09,1.66.12,2.62-.01-.85.07,1.26.06.04,0,.2,0,.31.01.53,0-.41,0-.5.02-.31v.1c.03-.1.05.3.09.57v-.47c0,.06,0,.21,0,.33.01-.72-.02-.04-.01-.83,0,.96.06.02.06,1.11.01,0,0-.55.02-.54v.3s0-.38,0-.38c0,.06,0,.43,0,.68,0-.03,0,.07,0,.09,0,.35.03-.12.03,0v-.18c.03-.28.05.11.11-.49v-.22c.05-.41.02.25.05.06v.05c.01-.22.03-.33.03-.31-.01.26-.03.51-.04.8.05-.44.03-.35.1-1.18l-.02.37c.03-.33.04-.51.06-.61-.02.32-.04.56-.07.98-.03.81.1-.81.02.37.1-1.02.02-.57.04-.79.02-.34.07-.76.07-.66,0,.02-.09,1.31-.07,1.29,0,0,0,.06-.01.07-.02.26.05-.35.02.07.06-.62,0,.04.09-.75l-.04.18c.03-.21.13-1.13.11-.68-.02.16-.05.37-.06.48-.02.23.03-.15,0,.09-.08.79-.04.17-.11.77-.03.33.08-.57-.01.28.12-1.08,0,.14.11-.69l-.05.47c0-.07.04-.3.04-.28l-.07.61c.07-.52-.03.46,0,.18-.02.01.06-.57.09-.91.1-.63-.12,1.24-.07,1.01-.01.07.02-.28.05-.5,0,.1-.03.28-.05.53.03-.1.06-.48.1-.77-.07.57.04-.23.07-.41l-.06.48c-.02.31.14-1,.11-.62l-.1.66.03-.17-.08.54c.07-.4.06-.3.05-.14.05-.34.12-.87.14-.88-.03.28-.07.45-.04.39-.05.3-.11.67-.05.23-.02.16-.05.3-.07.45-.04.33,0,.08.01.07,0-.02,0-.04.01-.11l.12-.66c-.03.18-.05.32-.07.46.01-.05.05-.27.06-.31-.06.39-.13.79-.16.97l.08-.43c-.03.17-.07.46-.09.61-.03.23.15-.75.11-.44.01-.07.03-.15.04-.2,0,.09-.08.56.03.04l-.12.69c.04-.16.15-.87.22-1.13.06-.22-.1.59-.14.78.07-.35.22-1.05.13-.49-.03.13-.01.03-.03.08ZM37,11.64c-.03.1-.1.4-.04.12.13-.54.07-.28.04-.12ZM37.57,10.59c-.05.15-.03.08.02-.1.01-.04.01-.02-.02.1ZM39.81,7.86s0,.01-.01.02c.07-.18.04-.11.01-.02ZM39.75,8.06l.09-.18c-.05.11-.06.11-.06.08-.05.12-.09.2-.03.1ZM36.76,7.44v.13c-.03.14-.02.01,0-.13Z"/>
    <path class="cls-5" d="M37.35,11.22c.02-.08.05-.17.07-.25-.02.08-.05.17-.07.25Z"/>
    <polygon class="cls-5" points="36.65 12.15 36.65 12.14 36.64 12.23 36.65 12.15"/>
    <path class="cls-5" d="M37.77,11.66c.03-.06.06-.15.09-.23-.05.11-.08.2-.09.23Z"/>
    <path class="cls-5" d="M40.25,7.4l-.07.1s-.02.08-.05.15c.05-.1.12-.25.13-.25Z"/>
    <path class="cls-5" d="M39.03,10.12s0,0,.04-.06l.1-.2s-.1.17-.14.25Z"/>
    <path class="cls-5" d="M39.55,8.84c-.18.36-.11.24-.07.18h0c.26-.51.16-.34.07-.18Z"/>
    <path class="cls-5" d="M39.49,9.01s.02-.02.01,0c.1-.2.02-.04-.01,0Z"/>
    <path class="cls-5" d="M39.9,7.84c-.04.1.23-.47.16-.31.23-.46-.31.54-.16.31Z"/>
    <polygon class="cls-5" points="38.96 10.04 39.18 9.59 38.99 9.95 38.96 10.04"/>
    <path class="cls-5" d="M39.05,9.67l-.05.13c.04-.07.06-.12.08-.15,0-.02.03-.11-.03.02Z"/>
    <path class="cls-5" d="M39.08,9.65s0,0,.05-.07c0,0-.02.02-.05.07Z"/>
    <polygon class="cls-5" points="38.87 10.16 38.91 10.07 38.92 10.03 38.87 10.16"/>
    <path class="cls-5" d="M38.93,9.51l-.08.12c-.07.16-.11.25-.08.19.05-.11.09-.16.15-.32Z"/>
    <path class="cls-5" d="M38.4,10.78c.04-.1.09-.2.15-.35l-.26.56.11-.21Z"/>
    <path class="cls-5" d="M38.3,10.89c-.07.16-.22.44-.19.41.07-.15.14-.28.19-.41Z"/>
    <polygon class="cls-5" points="38.4 10.08 38.41 10.07 38.8 9.13 38.4 10.08"/>
    <path class="cls-5" d="M37.35,12.28c-.07.23.22-.59.13-.3.08-.23.08-.23.15-.43-.1.23-.05.1-.28.73Z"/>
    <path class="cls-5" d="M37.63,11.56s.03-.08.06-.14c-.02.06-.04.1-.06.14Z"/>
    <polygon class="cls-5" points="35.71 6.9 35.69 6.69 35.71 7.03 35.71 6.9"/>
    <path class="cls-5" d="M35.71,7.65l-.03-.65v.59s.02-.09.03.06Z"/>
    <path class="cls-5" d="M36.72,12.92l.04-.15c.04-.16.04-.18.04-.2l-.08.36Z"/>
    <polygon class="cls-5" points="36.74 12.43 36.74 12.44 36.86 11.87 36.74 12.43"/>
    <path class="cls-5" d="M36.53,13.15s.03-.1.02-.08c-.02.1.11-.64-.02.08Z"/>
  </g>
  <path class="cls-5" d="M31.9,13.19l6.78.07-1.62-2.82c-.25.37-.57.63-.95.86-1.8,1.1-.64,3.99,1.44,3.43,3.71-.99,7.53-.25,11.19.58,1.81.41,3.16-1.75,1.82-3.13-1.71-1.76-4.08-2.57-6.05-3.98-1.83-1.31-3.37-3.02-4.57-4.91-.8-1.27-3.1-1.22-3.43.45-.23,1.19-.76,4.45-2.44,4.24l.95.26-.17-.09.67.67.03.11v1c.05-.32.48-.67.75-.99.22-.26.43-.51.65-.77l.22-.26c.23-.24.21-.24-.07,0h-1c-.48-.44-.61-.48-.39-.13l.12.24c.13.24.26.48.41.71.33.52.71,1.01,1.1,1.49.75.9,1.65,1.64,2.61,2.3.84.57,2.08.16,2.57-.67.54-.93.17-1.99-.67-2.57-.75-.51-1.43-1.15-1.98-1.88-.67-.88-1-2.12-1.96-2.75-1.17-.77-2.5-.38-3.4.59-.82.88-1.87,1.93-2.37,3.03-.56,1.24-.14,2.77,1.2,3.28,1.15.43,2.5,0,3.48-.66,2.1-1.42,2.83-3.8,3.29-6.16l-3.43.45c1.4,2.22,3.15,4.15,5.23,5.74.98.76,2.02,1.41,3.11,2,1.02.55,2.05,1.07,2.87,1.91l1.82-3.13c-4.33-.98-8.81-1.75-13.19-.58l1.44,3.43c.94-.57,1.67-1.3,2.29-2.21.83-1.21-.28-2.81-1.62-2.82l-6.78-.07c-2.41-.02-2.42,3.73,0,3.75h0Z"/>
  <path class="cls-5" d="M55.99,15.42c3.72-2.65,7.07-5.73,9.95-9.27l-3.2-1.33c.17,2.67,1.7,4.72,3.82,6.25s4.76,2.15,7.05,3.39l.95-3.49c-6.99-.79-14-.61-20.96.41-2.07.3-1.6,3.95.5,3.68,1.76-.23,2.7-1.2,3.9-2.4,1.07-1.07,2.22-2.04,3.48-2.88.88-.59,2.43-1.9,3.56-1.66,1.35.28,2.71,1.88,3.72,2.72l1.33-3.2c-2.57-.25-5.11-.12-7.65.3-1,.17-1.56,1.4-1.31,2.31.29,1.06,1.3,1.48,2.31,1.31,2.2-.36,4.44-.39,6.66-.17,1.57.16,2.54-2.19,1.33-3.2-1.35-1.12-2.7-2.51-4.31-3.27-1.88-.88-3.59-.6-5.37.34-1.62.85-3.12,1.91-4.53,3.07-.64.53-1.26,1.09-1.85,1.68-.3.3-.58.64-.9.93-.12.12-.7.43-.35.38l.5,3.68c6.6-.97,13.33-1.02,19.96-.27,1.89.21,2.49-2.65.95-3.49-1.93-1.05-4.06-1.66-5.98-2.72-1.37-.76-2.92-1.99-3.03-3.68-.1-1.45-2.09-2.69-3.2-1.33-2.67,3.28-5.74,6.23-9.19,8.68-.82.59-1.22,1.64-.67,2.57.48.81,1.74,1.26,2.57.67h0Z"/>
  <path class="cls-5" d="M80.97,14.36c2.83-2.9,5.75-5.7,8.78-8.39l-3.2-1.33c.1,2.59,1.72,4.54,3.75,5.98,1.77,1.25,3.91,1.94,5.35,3.62s3.99-.46,2.94-2.27c-.82-1.43-2.09-2.42-3.44-3.33-.56-.38-1.16-.74-1.69-1.15-.61-.47-.97-1.04-1.49-1.57-1.84-1.85-4.1.44-5.64,1.53-1.75,1.24-3.5,2.48-5.24,3.73s-.68,3.8,1.44,3.43c.98-.17,1.92-.61,2.91-.72.93-.1,1.88.09,2.78.28,2.18.48,4.29.99,6.52.51,1.6-.34,1.8-2.66.45-3.43-1.87-1.07-4.01-2.22-6.12-2.7-1.3-.3-2.43.43-2.89,1.64-.23.61-.27,1-.97,1.16-2.35.53-1.36,4.15,1,3.62.92-.21,1.8-.71,2.41-1.42.3-.35.55-.71.74-1.13.1-.22.19-.45.27-.69.02-.09.05-.19.08-.28.07-.23.02-.13-.17.29l-.83.48h-.42c.15.05.3.1.45.15.2.07.4.14.59.22.44.17.88.34,1.3.53.91.41,1.8.87,2.67,1.37l.45-3.43c-1.88.4-3.83-.43-5.67-.73-1.15-.19-2.26-.27-3.42-.1-1.07.16-2.07.57-3.13.76l1.44,3.43c1.33-.95,2.67-1.9,4-2.84.64-.46,1.29-.92,1.93-1.37.32-.23.64-.46.97-.69.18-.13.37-.26.55-.39.37-.2.37-.25-.01-.16l-.95-.26c-.16-.09-.38-.47-.12-.1.16.22.34.44.52.65.23.26.49.51.76.74.61.52,1.26.98,1.93,1.42,1.06.71,2.17,1.37,2.79,2.45l2.94-2.27c-1.35-1.58-3.22-2.48-4.99-3.5-1.26-.73-2.95-1.82-3.02-3.44s-1.98-2.41-3.2-1.33c-3.02,2.69-5.95,5.49-8.78,8.39-1.69,1.73.96,4.38,2.65,2.65h0Z"/>
  <path class="cls-2" d="M73.29,2.86c1.84,1.34,3.64,2.75,5.4,4.2"/>
  <path class="cls-2" d="M73.86,6.96l4.08-4.07"/>
  <path class="cls-2" d="M47.78,2.92c2.16,1.44,4.26,2.97,6.29,4.59"/>
  <path class="cls-2" d="M48.38,7.23l4.59-4"/>
  <path class="cls-2" d="M21.89,3.04c2.22,1.05,4.29,2.41,6.14,4.03"/>
  <path class="cls-2" d="M22.69,7.28l3.74-4.54"/>
  <path class="cls-2" d="M3.14,4.21c.12.02.04.21-.05.29-.73.57-1.46,1.15-2.19,1.72.67.95,1.33,2.3,2,3.25"/>
  <path class="cls-2" d="M98.76,8.38c.52-.88,1.44-2.16,2.37-2.6l-2.43-2.29"/>
</svg>