<?xml version="1.0" encoding="UTF-8"?>
<svg id="Layer_1" data-name="Layer 1" xmlns="http://www.w3.org/2000/svg" viewBox="0 0 114.04 116.4">
  <defs>
    <style>
      .cls-1 {
        fill: #603913;
      }
    </style>
  </defs>
  <path class="cls-1" d="M48.13,37.25c-3.67,8.42-6.07,17.33-6.93,26.48-.4,4.31-.2,8.82,1.94,12.69s5.57,5.72,9.67,6.44c4.69.82,9.91,1.53,14.35-.56,2.18-1.03.28-4.26-1.89-3.24-3.19,1.51-7.26.8-10.62.32-3.55-.51-6.6-1.73-8.36-5.02s-1.67-7.08-1.34-10.63c.37-3.96,1.09-7.89,2.06-11.75,1.1-4.39,2.55-8.69,4.36-12.84.41-.94.27-2-.67-2.57-.79-.47-2.16-.25-2.57.67h0Z"/>
  <path class="cls-1" d="M64.21,81.65c3.46,4.6,8.29,7.62,13.04,10.71,5.55,3.61,11.09,7.23,16.64,10.84,2.03,1.32,3.91-1.92,1.89-3.24-5.27-3.43-10.54-6.87-15.81-10.3-4.41-2.87-9.3-5.63-12.52-9.91-.61-.82-1.61-1.21-2.57-.67-.8.46-1.28,1.76-.67,2.57h0Z"/>
  <path class="cls-1" d="M92.1,102.75c3.95,1.75,7.95,3.39,12,4.91.92.35,2.1-.38,2.31-1.31.24-1.07-.32-1.94-1.31-2.31-3.81-1.43-7.46-2.92-11.1-4.54-.89-.4-2.06-.29-2.57.67-.43.81-.29,2.14.67,2.57h0Z"/>
  <path class="cls-1" d="M106.45,105.28c-.72-7.64-4.57-14.27-8.28-20.81-1.86-3.27-3.57-6.71-5.73-9.8s-4.59-5-8.02-6.19c-4.43-1.54-8.97-2.81-13.45-4.2-2.31-.72-3.3,2.9-1,3.62,4.61,1.43,9.34,2.66,13.86,4.34,3.94,1.47,5.91,4.98,7.88,8.45,2.3,4.05,4.7,8.07,6.84,12.2,2.01,3.87,3.73,8,4.15,12.38.22,2.38,3.98,2.41,3.75,0h0Z"/>
  <path class="cls-1" d="M71.42,66.48c.09-.69.21-1.13.75-1.54.78-.6,1.54-1.16,2.22-1.87,1.28-1.37,2.31-2.96,3.32-4.53,2.11-3.28,4.17-6.66,5.16-10.47.61-2.34-3.01-3.33-3.62-1-.99,3.8-3.18,7.11-5.3,10.37-.93,1.43-1.92,2.89-3.27,3.97-.77.61-1.56,1.09-2.11,1.93-.62.95-.75,2.05-.9,3.15-.13,1.01.96,1.88,1.88,1.88,1.12,0,1.74-.87,1.88-1.88h0Z"/>
  <path class="cls-1" d="M78.64,49.39c2.89,2.31,5.34,5.07,7.19,8.28.47.82.91,1.65,1.3,2.51.36.79.6,1.68,1.23,2.31s1.61.91,2.51.66c1.1-.3,1.69-1.36,2.2-2.29,4.39-7.94,8.78-15.89,13.18-23.83,2.52-4.55,5.03-9.1,7.55-13.65,1.17-2.11-2.07-4.01-3.24-1.89-3.55,6.43-7.11,12.86-10.66,19.28-1.76,3.18-3.51,6.36-5.27,9.53-.88,1.59-1.76,3.18-2.64,4.77-.44.79-.88,1.59-1.32,2.38-.24.43-.48.87-.72,1.3-.13.24-.33.84-.53.97l.95-.26-.33.03.95.26c.08.13.08.13.02,0-.08-.18-.16-.36-.23-.55-.11-.25-.21-.49-.32-.74-.31-.67-.64-1.34-.99-1.99-.68-1.24-1.44-2.44-2.28-3.57-1.7-2.3-3.66-4.38-5.9-6.17-.8-.64-1.87-.76-2.65,0-.66.65-.79,2.02,0,2.65h0Z"/>
  <path class="cls-1" d="M109.48,20.79c-7.12,6.06-14.24,12.12-21.35,18.18-.77.66-.68,1.98,0,2.65.76.76,1.88.66,2.65,0,7.12-6.06,14.24-12.12,21.35-18.18.77-.66.68-1.98,0-2.65-.76-.76-1.88-.66-2.65,0h0Z"/>
  <path class="cls-1" d="M51.54,20.22c-7.81,4.09-15.85,7.74-24.09,10.86-3.48,1.32-7.61,2.31-10.09,5.29-2.65,3.19-2.87,7.82-3.55,11.74-.9,5.21-1.8,10.43-2.71,15.64-.29,1.66,1.79,3.38,3.13,1.82,5.59-6.46,11.06-13.05,16.81-19.38,2.23-2.45,4.79-4.92,8.2-5.47,1.81-.29,3.69-.12,5.52-.17,1.99-.05,3.84-.37,5.65-1.2.93-.42,1.14-1.75.67-2.57-.54-.95-1.65-1.09-2.57-.67-1.77.8-3.8.7-5.7.69s-3.77.01-5.58.51c-3.43.95-6.21,3.35-8.58,5.92-5.88,6.37-11.4,13.12-17.08,19.67l3.13,1.82c.76-4.4,1.52-8.8,2.28-13.2.38-2.2.76-4.4,1.14-6.6.31-1.78.56-3.7,1.47-5.3,1.74-3.05,6.02-3.89,9.05-5.04,3.98-1.51,7.91-3.14,11.8-4.87,4.39-1.95,8.71-4.05,12.96-6.28,2.14-1.12.24-4.36-1.89-3.24h0Z"/>
  <path class="cls-1" d="M31.72,87.29c-1.55,10.8-11.9,16.35-21.55,18.77-2.73.69-5.51,1.16-8.32,1.41-1.96.18-2.72,3.22-.5,3.68,1.79.38,7.34,1.54,7.34-1.8s-5.55-2.18-7.34-1.81-1.77,3.23,0,3.62c5.61,1.23,11.26,2.28,16.94,3.13,2.72.41,5.45.77,8.19,1.09,2.41.28,4.87.69,7.3.7,1.74,0,3.37-.44,4.64-1.67,1.53-1.47,2.37-3.7,3.39-5.53,2.36-4.26,4.89-8.42,7.74-12.37,3.18-4.42,6.79-8.51,10.8-12.19,1.78-1.64-.88-4.28-2.65-2.65-6.81,6.26-12.35,13.72-17.03,21.67-1.22,2.06-2.38,4.16-3.51,6.27-.62,1.16-1.21,2.51-2.57,2.7-1.98.28-4.23-.24-6.2-.45-2.63-.29-5.26-.62-7.89-1-6.09-.88-12.15-1.99-18.16-3.31v3.62c.91-.19,1.82-.34,2.75-.35.09,0,.92-.03.58,0,.1.02.19.04.28.07-.47-.15-.78-.5-.95-1.04v-1c.16-.53.47-.88.93-1.04-.1.03-.19.05-.29.07.33.03-.49,0-.58,0-.92,0-1.82-.16-2.72-.35l-.5,3.68c10.9-.98,23.3-4.68,29.94-14.01,1.88-2.64,3.09-5.73,3.55-8.93.15-1.01-.25-2-1.31-2.31-.88-.25-2.16.31-2.31,1.31h0Z"/>
  <path class="cls-1" d="M42.03,60.84c-.44-.08-.89-.14-1.34-.11s-.89.09-1.31.22c-.87.27-1.59.72-2.28,1.3-.35.29-.55.89-.55,1.33s.2,1.01.55,1.33.83.57,1.33.55l.5-.07c.32-.09.59-.25.83-.48.05-.04.11-.09.16-.13l-.38.29c.3-.23.62-.42.96-.57l-.45.19c.3-.12.6-.21.92-.25l-.5.07c.3-.04.61-.04.91,0l-.5-.07c.05,0,.1.02.15.02.25.08.5.09.75.03.25-.01.48-.09.7-.22.39-.23.76-.67.86-1.12.11-.48.09-1.02-.19-1.44-.25-.39-.65-.78-1.12-.86h0Z"/>
  <path class="cls-1" d="M69.43,22.84c1.47-3.95,1.25-8.27,2.63-12.24.34-.98,1.05-1.87,1.32-2.85.3-1.08-.3-2.3-.93-3.15-.6-.8-1.11-1.16-2.18-1.23s-2.1-.19-3.16-.39c-2-.39-4.01-.9-6.05-.93s-3.84.63-5.64,1.7c-2.88,1.7-4.05,4.51-4.1,7.77-.02,1.74.22,3.46.4,5.19.09.83.17,1.67.21,2.51.03.72.01,1.87-.05,2.31-.14,1,.25,2.01,1.31,2.31.88.24,2.16-.3,2.31-1.31.36-2.5.07-4.93-.2-7.42-.13-1.19-.24-2.38-.23-3.58,0-.28.01-.56.04-.84.03-.39.02-.27.06-.51.05-.26.1-.52.18-.77.02-.07.25-.71.14-.46.43-.97.9-1.38,1.83-1.94,1.24-.75,2.26-1.21,3.75-1.18,3.21.05,6.29,1.29,9.52,1.33l-1.33-.55s.06.05.07.08c.09.25-.08-.14.07.08.09.13.29.38.31.52l.26-.95c-1.41,2.42-2.12,5.06-2.54,7.81s-.68,5.24-1.6,7.73c-.35.95.39,2.05,1.31,2.31,1.05.29,1.95-.36,2.31-1.31h0Z"/>
  <path class="cls-1" d="M49.09,23.03c1.97-.75,3.78-1.9,5.15-3.52.33-.39.55-.8.55-1.33,0-.46-.2-1.01-.55-1.33s-.83-.57-1.33-.55c-.47.02-1.01.17-1.33.55-.47.56-.99,1.06-1.57,1.51l.38-.29c-.73.56-1.52,1.02-2.36,1.37l.45-.19c-.13.05-.26.11-.39.16-.47.18-.86.42-1.12.86-.24.4-.33.99-.19,1.44s.43.89.86,1.12.98.37,1.44.19h0Z"/>
  <path class="cls-1" d="M48.3,39.14c1.58.32,3.04.92,4.31,1.93l-.2-1.51c-1.28,1.93-2.99,3.42-5.04,4.47-.79.41-.84,1.77,0,2.16.77.36,1.52.77,2.19,1.31.25.2.58.42.76.69.23.33.39.13-.13.43-1.52.86-3.15,1.56-4.72,2.34-.35.17-.67.68-.62,1.08.12.91.46,1.59,1.24,2.1.39.25.84.43,1.28.58.4.13,1.14.18,1.4.55.15.21.09-.1-.18.19-.21.23-.44.45-.66.68-.49.51-.99,1.02-1.48,1.53-.99,1.02-1.97,2.04-2.96,3.07-.59.62-.42,1.93.55,2.09,1.97.31,3.93.63,5.9.94l-.87-1.54c-1.22,3.28-2.88,6.36-4.9,9.22-.78,1.1.69,2.22,1.71,1.71,1.45-.72,3-1.21,4.61-1.41l-1.25-1.25c.21,2.53.42,5.05.62,7.58.07.87.74,1.35,1.58,1.21,2.05-.35,3.98-1.12,5.71-2.28l-1.88-1.08c.3,2.66,2.51,5.06,5.38,4.34,1.25-.31,2.25-1.16,2.75-2.35.08-.19.13-.59.31-.61s.43.59.49.7c.35.71.64,1.34,1.14,1.96,1.01,1.25,2.77-.52,1.77-1.77-.79-.98-.89-2.21-2-2.96-.93-.63-2.16-.74-3.06.03-.81.7-.71,2.07-1.76,2.49-1.26.51-2.38-.65-2.51-1.84-.1-.86-1.01-1.66-1.88-1.08-1.57,1.05-3.25,1.71-5.11,2.03l1.58,1.21c-.21-2.53-.42-5.05-.62-7.58-.05-.61-.54-1.34-1.25-1.25-2.08.26-3.99.82-5.87,1.75l1.71,1.71c2.15-3.04,3.85-6.33,5.15-9.82.22-.58-.25-1.44-.87-1.54-1.97-.31-3.93-.63-5.9-.94l.55,2.09c1.09-1.14,2.19-2.27,3.28-3.41.88-.91,2.29-1.93,2.71-3.16.34-1.02-.18-2-.96-2.64-.45-.36-.97-.59-1.51-.77-.15-.05-1.42-.31-1.44-.48l-.62,1.08c1.32-.65,2.63-1.3,3.95-1.95.95-.47,2.05-1,2.38-2.11.67-2.32-2.75-4.24-4.42-5.02v2.16c2.43-1.25,4.43-3.09,5.93-5.37.28-.42.22-1.19-.2-1.51-1.62-1.28-3.38-2.17-5.41-2.58-1.57-.31-2.24,2.09-.66,2.41h0Z"/>
  <path class="cls-1" d="M50.01,42.06l.96-.79-2.13-.88c.01.2,0,.39-.02.59l.04-.33c-.04.29-.12.57-.23.83l.13-.3c-.1.23-.23.45-.38.66-.09.14-.14.3-.15.46-.04.17-.03.33.02.5.08.29.3.6.57.75.29.15.64.23.96.13l.3-.13c.19-.11.34-.26.45-.45.28-.38.49-.83.63-1.28.08-.27.12-.56.15-.84.02-.2.03-.39.02-.59-.01-.22-.06-.44-.17-.63-.14-.24-.35-.41-.6-.51-.1-.06-.2-.08-.32-.09-.11-.03-.22-.03-.33,0-.11,0-.22.03-.32.09-.15.05-.29.14-.4.26l-.96.79c-.12.11-.21.25-.26.4-.08.15-.11.31-.11.48,0,.31.14.67.37.88s.55.38.88.37l.33-.04c.21-.06.4-.17.55-.32h0Z"/>
  <path class="cls-1" d="M49.85,42.18l1.63-.44c.3-.08.59-.3.75-.57.09-.14.14-.3.15-.46.04-.17.03-.33-.02-.5-.1-.3-.29-.59-.57-.75s-.63-.22-.96-.13l-1.63.44c-.3.08-.59.3-.75.57-.09.14-.14.3-.15.46-.04.17-.03.33.02.5.1.3.29.59.57.75s.63.22.96.13h0Z"/>
  <path class="cls-1" d="M48.12,38.83l2.03,2.03c.38.38,1.05.49,1.51.2s.74-.86.57-1.41c-.28-.94-.82-1.83-1.59-2.45l-1.51,1.96c.16.1.31.21.46.32.04.03.09.06.13.1.11.08.09.06-.06-.05,0,0,.2.16.22.18.3.25.57.52.84.8l1.77-1.77c-.16-.13-.3-.28-.43-.43-.1-.11.16.23.04.05-.03-.04-.05-.08-.08-.12-.06-.09-.11-.19-.16-.28-.02-.04-.09-.2-.01-.01s.01.02,0-.02c-.04-.1-.07-.21-.09-.31-.02-.09-.03-.19-.06-.28.09.39.01.02.01-.1l-2.46.33c.29.88.81,1.7,1.54,2.28.4.32.81.58,1.28.78s.97.31,1.5.37c.3.03.68-.16.88-.37.22-.22.38-.57.37-.88s-.12-.66-.37-.88c-.26-.24-.54-.33-.88-.37-.22-.02.34.06,0,0-.09-.02-.17-.04-.26-.06-.06-.02-.13-.04-.19-.06-.04-.01-.08-.03-.12-.04-.12-.05-.08-.03.12.05-.13-.08-.28-.13-.41-.21-.08-.05-.15-.09-.22-.14-.04-.03-.07-.05-.11-.08.16.12.2.15.12.09-.13-.11-.25-.22-.36-.34-.05-.05-.09-.1-.13-.15-.21-.25.11.17,0,0-.08-.13-.17-.26-.24-.39-.04-.08-.07-.16-.11-.24.19.34.04.1,0-.01-.2-.59-.74-.98-1.37-.9-.6.08-1.09.6-1.08,1.23.02,1.23.55,2.48,1.51,3.28.26.22.53.37.88.37.31,0,.67-.14.88-.37.47-.51.48-1.26,0-1.77-.62-.66-1.33-1.24-2.09-1.73-.52-.34-1.25-.15-1.61.32s-.39,1.25.1,1.64c.15.12.29.25.42.4.05.05.09.11.14.16-.26-.26-.04-.05.02.04.09.14.18.29.25.44.02.04.04.09.06.13-.08-.19-.09-.22-.04-.1.03.09.06.18.09.28l2.09-1.22-2.03-2.03c-.46-.46-1.31-.5-1.77,0s-.49,1.27,0,1.77h0Z"/>
  <path class="cls-1" d="M46.66,47.67c.11.03.22.07.32.11l-.3-.13c.17.08.33.17.48.28l-.25-.2c.15.11.28.24.39.39l-.2-.25c.09.12.17.25.23.39l-.13-.3c.05.12.08.23.1.36l-.04-.33c.02.12.02.24,0,.36l.04-.33c-.02.1-.05.2-.09.3l.13-.3c-.05.11-.11.21-.18.31l.2-.25c-.08.1-.17.2-.28.28l.25-.2c-.09.07-.19.13-.3.17l.3-.13c-.09.04-.19.06-.29.08l.33-.04c-.08,0-.15,0-.22,0l.33.04c-.09-.01-.17-.03-.26-.07l.3,2.28c.23-.12.45-.22.69-.32l-.3.13c.69-.29,1.4-.49,2.13-.61l.3-.13.25-.2c.2-.2.31-.45.34-.72.07-.49-.16-.99-.6-1.25-.2-.12-.4-.25-.59-.39l.25.2c-.33-.26-.63-.55-.89-.88-.19-.23-.6-.37-.88-.37-.31,0-.67.14-.88.37s-.38.55-.37.88l.04.33c.06.21.17.4.32.55.47.59,1.08,1.09,1.73,1.47l.3-2.28c-1.09.18-2.14.56-3.12,1.06-.18.09-.35.28-.45.45-.14.24-.19.52-.15.8.03.22.11.41.25.59.18.23.38.34.65.45.07.03.15.05.22.06.18.03.37.07.56.05.38-.03.67-.11,1.01-.27.45-.22.88-.65,1.11-1.1.3-.58.38-1.2.23-1.84-.12-.52-.43-1.02-.81-1.39-.43-.43-.98-.74-1.56-.9-.31-.08-.68-.04-.96.13-.26.15-.51.45-.57.75-.15.66.2,1.36.87,1.54h0Z"/>
  <path class="cls-1" d="M45.5,55.04h-.03c.1.03.2.07.3.12h-.02c.15.14.3.29.45.43v-.02c.03.1.07.2.11.3v-.02c0,.11.02.22.04.33,0-.01,0-.03,0-.04l-.04.33v-.02c-.04.1-.08.2-.12.3,0-.02.01-.03.02-.05l-.2.25s.04-.04.06-.06l-.25.2s.03-.02.05-.03l-.3.13h.03c-.11,0-.22.02-.33.04.02,0,.03,0,.05,0l-.33-.04h.02c-.1-.03-.2-.08-.3-.12l.02.02-.25-.2.03.03-.2-.25s.03.04.04.06l-.13-.3s.01.05.02.07l-.04-.33s0,.05,0,.08l.04-.33s-.02.08-.03.12l.13-.3s-.04.07-.06.11l.2-.25-.03.03,1.96,1.51c.34-.45.68-.91,1.01-1.36l-2.16-1.26c-.29.59-.58,1.18-.87,1.77l2.33.63c0-.05,0-.1,0-.15l-.04.33c.01-.07.03-.15.06-.22l-.13.3c.03-.08.08-.16.13-.23l-.2.25c.06-.08.13-.15.21-.21l-.25.2c.08-.06.17-.11.26-.15l-.3.13c.09-.04.19-.06.29-.08l-.33.04c.09,0,.17,0,.26,0l-.33-.04c.06.01.12.03.18.05l-.3-.13s.07.03.1.05l-.45-1.71c-.06.1-.13.19-.2.29l.2-.25c-.19.24-.4.45-.64.64l.25-.2c-.2.15-.41.29-.64.4l1.84,1.41c.04-.13.09-.27.14-.4l-.13.3c.05-.13.12-.25.2-.36l-.2.25c.06-.07.12-.13.19-.19l-.25.2s.09-.06.14-.08l-.3.13s.09-.03.14-.04l-.33.04c.07,0,.14,0,.21,0l-.33-.04c.06.01.11.03.17.05l-.3-.13c.05.02.1.05.14.09l-.25-.2s.05.04.07.07l-.2-.25s.04.05.05.08l-.13-.3s.02.06.03.09l-.04-.33s0,.07,0,.1h2.5c0-.06,0-.11,0-.17l-.04.33c0-.06.02-.11.04-.16l-.13.3c.03-.06.06-.12.1-.17l-.2.25c.05-.06.11-.12.17-.17l-.25.2c.07-.05.14-.09.21-.12l-.3.13c.08-.03.15-.05.23-.07l-.33.04c.08-.01.16-.01.24,0l-.33-.04c.06,0,.11.02.16.04l-.3-.13c.05.02.1.05.15.09l-.25-.2.03.02c.26.22.53.37.88.37.31,0,.67-.14.88-.37s.38-.55.37-.88c-.01-.31-.12-.67-.37-.88-.39-.32-.78-.5-1.28-.53-.38-.02-.76.1-1.1.28-.64.33-1.17,1.11-1.08,1.85.04.34.11.63.37.88.22.22.57.38.88.37.71-.03,1.21-.55,1.25-1.25.03-.6-.32-1.14-.81-1.45-.43-.28-.98-.34-1.47-.23-.93.22-1.4,1.1-1.66,1.94-.15.48.07,1.02.45,1.31.41.32.93.33,1.39.1.79-.39,1.45-1.03,1.92-1.77.35-.56.13-1.4-.45-1.71-.71-.38-1.58-.36-2.27.07s-1.15,1.15-1.12,1.95c.02.53.37,1.08.92,1.21.22.05.44.05.66,0,.28-.06.62-.32.75-.57.29-.59.58-1.18.87-1.77.15-.31.22-.63.13-.96-.08-.29-.3-.6-.57-.75-.29-.15-.64-.23-.96-.13l-.3.13c-.19.11-.34.26-.45.45-.34.45-.68.91-1.01,1.36-.17.23-.21.69-.13.96s.23.48.45.65.48.28.76.27c.31-.01.69-.11.88-.37s.33-.42.42-.73c.08-.28.08-.54.02-.82-.13-.63-.73-1.11-1.37-1.11-.59,0-1.09.38-1.31.91-.12.29-.15.59-.06.9.06.22.18.4.33.57.17.19.36.25.6.35.28.11.71.02.96-.13s.51-.45.57-.75c.07-.32.06-.68-.13-.96l-.2-.25c-.16-.15-.34-.26-.55-.32h0Z"/>
  <path class="cls-1" d="M44.36,65.75l.62-.61-2.13-.88c.01,1.03.03,2.05.04,3.08,0,.65.57,1.28,1.25,1.25s1.25-.55,1.25-1.25c0-.36,0-.72.03-1.08.01-.2.03-.4.05-.6,0-.08.02-.16.03-.24v-.12c0,.11,0,.13.01.04.12-.73.27-1.45.48-2.16l-2.46-.33c.05.95.03,1.9-.07,2.84-.01.1-.02.2-.03.3-.03.3.02-.12-.02.15-.04.24-.08.48-.12.72-.09.48-.2.95-.33,1.41l2.46.33c-.02-.3-.02-.59,0-.89,0-.05.06-.52.02-.22.02-.15.05-.29.08-.44.06-.29.15-.57.25-.85.03-.07.05-.14.08-.21-.05.13-.05.13,0,0,.07-.13.13-.27.2-.4l-2.28-.3c.02.15.02.14,0-.01,0,.07.02.14.02.21.01.14.02.29.01.43s-.01.29-.02.43c-.02.15-.01.14,0-.01-.01.07-.02.14-.04.21-.06.28-.14.56-.24.83q-.05.13,0,0c-.03.07-.06.13-.09.19-.07.13-.14.25-.21.38l2.28.96c.09-.33.19-.66.3-.99.06-.18.13-.36.19-.54.03-.07.05-.14.08-.21.01-.03.12-.31.07-.17-.05.12.04-.09.05-.11.04-.09.08-.17.12-.26.07-.16.15-.31.22-.47.16-.32.34-.64.52-.96l-2.33-.63c.01.3,0,.59-.02.89-.03.36.06-.24-.02.11-.03.15-.06.29-.1.43-.07.25-.15.5-.24.74.11-.25-.08.16-.11.21-.07.13-.14.26-.22.39l2.33.63c0-.1.02-.2.02-.31.02-.3-.04.2,0-.07.03-.2.07-.4.12-.6s.11-.39.18-.59c.03-.1.07-.19.11-.29-.11.28.02-.04.04-.08.18-.37.39-.71.62-1.06.15-.22-.13.15.05-.07.06-.06.11-.13.17-.19.15-.17.3-.32.47-.48l-2.09-1.22c-.2.74-.44,1.46-.71,2.18-.06.16-.13.33-.2.49.09-.2-.02.04-.04.08-.04.09-.08.18-.12.27-.16.36-.34.71-.52,1.05l2.28.3c.05.31,0,.08,0,0,0-.08-.01-.16-.01-.23,0-.07.06-.43.02-.47-.02.16-.03.19-.01.1,0-.05.02-.09.03-.14.01-.06.03-.12.04-.18.02-.09.05-.18.08-.27.01-.04.11-.28.04-.11s.05-.1.06-.11c.04-.07.07-.14.11-.21s.08-.13.13-.2c.02-.03.19-.24.07-.1s.08-.08.08-.09c.05-.06.11-.11.16-.17s.12-.1.17-.16c.19-.17-.18.13.05-.03l-1.84-1.41c-.16.87-.41,1.72-.73,2.55-.1.25.08-.16-.05.11-.05.1-.09.2-.14.3-.1.2-.2.4-.3.59-.21.39-.44.77-.69,1.13l2.16,1.26c.23-.39.45-.78.68-1.17.31-.54.17-1.24-.32-1.61s-1.19-.34-1.64.1c-.51.49-1.02.97-1.53,1.46l1.96,1.51c.9-1.66,1.8-3.32,2.7-4.98.31-.57.16-1.39-.45-1.71s-1.38-.17-1.71.45c-.9,1.66-1.8,3.32-2.7,4.98-.3.55-.18,1.23.32,1.61s1.19.34,1.64-.1c.51-.49,1.02-.97,1.53-1.46l-1.96-1.51c-.23.39-.45.78-.68,1.17-.33.57-.15,1.39.45,1.71.63.33,1.32.13,1.71-.45,1.07-1.58,1.82-3.4,2.17-5.28.09-.51-.02-.99-.45-1.31-.37-.29-.98-.38-1.39-.1-1.7,1.19-2.51,3.15-2.18,5.19.08.48.6.84,1.04.9.47.06,1.01-.15,1.25-.6.78-1.48,1.4-3.05,1.84-4.66.14-.51-.09-1.15-.57-1.41s-1.09-.2-1.51.2c-1.53,1.43-2.41,3.42-2.52,5.5-.03.52.41,1.09.92,1.21.55.13,1.11-.09,1.41-.57.73-1.2,1.11-2.61,1.05-4.02-.02-.53-.37-1.08-.92-1.21s-1.13.08-1.41.57c-.78,1.35-1.39,2.8-1.8,4.3-.17.6.16,1.24.72,1.47s1.23.02,1.56-.51c.85-1.39,1.09-3,.81-4.59-.08-.48-.6-.84-1.04-.9-.48-.06-1.01.16-1.25.6-.7,1.31-1.06,2.78-.98,4.27.04.63.45,1.14,1.08,1.23s1.2-.29,1.37-.9c.55-1.97.78-4.04.67-6.09-.03-.63-.45-1.14-1.08-1.23s-1.19.29-1.37.9c-.46,1.56-.7,3.2-.69,4.83h2.5c-.01-1.03-.03-2.05-.04-3.08-.01-1.08-1.36-1.65-2.13-.88l-.62.61c-.47.46-.49,1.31,0,1.77s1.27.49,1.77,0h0Z"/>
  <path class="cls-1" d="M43.82,73.82c.43.81.94,1.55,1.5,2.27l1.77-1.77-.04-.05c-.08-.1-.06-.06.08.1-.01-.03-.05-.08-.07-.11-.02-.03-.04-.08-.06-.11.16.21.08.22.04.06-.01-.04-.02-.08-.03-.12-.05-.2.02.15.02.14-.02-.03,0-.16,0-.19v-.06c.02-.13,0-.08-.02.14.02-.05.12-.37.03-.15s.06-.07.09-.12c-.15.25-.14.18-.05.09.1-.11.13-.01-.09.07.03-.01.08-.05.1-.06.18-.12-.28.09-.09.03.05-.01.09-.03.14-.04.13-.04.18.04-.13.01.08,0,.18,0,.26,0,.15,0-.34-.08-.13-.01.04.01.08.02.11.03.21.05-.23-.13-.11-.05.03.02.17.07.17.1,0,.02-.25-.24-.12-.09.02.02.06.07.08.08-.18-.14-.16-.21-.07-.07.06.1-.03.12-.06-.15,0,.03.02.08.03.11.07.21,0-.34-.01-.12,0,.04,0,.08,0,.11.01.21.07-.31.02-.11-.01.04-.02.09-.03.13-.03.13-.12.13.06-.12-.04.05-.2.3-.05.11s-.05.02-.09.07c.18-.2.21-.16.1-.09-.21.13.22-.08.1-.04-.1.03-.2,0,.1,0-.21,0,.07.02.1.03-.26-.06.21.12.09.05-.1-.06-.15-.13.13.11-.19-.17.17.26.06.07-.07-.12.13.34.07.16-.05-.16.08-.07.02.16,0-.02,0-.07,0-.09,0-.14.08-.19-.02.15.02-.06.04-.12.05-.18-.07.31-.12.25-.05.13.02-.03.03-.05.05-.08.08-.14-.1.14-.11.14.01,0,.25-.21,0-.03-.19.14-.06.04-.01.02.11-.06.06.03-.17.07.27-.05-.36.02,0,0,.13,0,.08.09-.14-.02.04.02.11.03.15.04.15.04-.28-.16-.09-.04.05.03.11.08.16.1-.23-.1-.18-.15-.1-.07.04.04.09.12.14.15l-.11-.15s.05.07.08.11c.04.06.07.12.1.18.07.12-.04.07-.05-.11,0,.06.04.13.06.19,0,.03.06.25.02.05s0,.12,0,.17c0,.06,0,.11,0,.17,0,.04,0,.08-.01.13-.01.1,0,.06.02-.12.03.02-.09.43-.1.46-.09.32-.2.63-.32.94l2.28-.3c-.1-.15-.2-.31-.28-.48-.02-.04-.04-.09-.06-.13.02.04.1.27.05.11-.03-.09-.06-.17-.09-.26-.04-.13-.15-.41-.12-.54,0,.03.03.31.02.12,0-.05,0-.09-.01-.14,0-.1,0-.21,0-.31,0-.09,0-.19.01-.28,0-.05.03-.22,0,0s0,.04,0,0c.03-.18.08-.36.13-.54.02-.06.13-.34.04-.14s.04-.08.07-.13c.09-.18.2-.34.31-.5h-2.16c.09.2-.07-.22-.03-.07.01.05.03.09.04.13.03.1.04.21.07.31-.09-.3-.02-.2-.01-.09,0,.06,0,.12,0,.18,0,.11,0,.21-.01.32,0,.16.05-.27.01-.12-.01.06-.02.12-.04.17-.03.1-.06.2-.09.3-.04.14.12-.24.04-.1-.03.05-.05.11-.08.16-.05.09-.28.41-.04.1l2.09.55c-.02-.1-.03-.22-.06-.32.04.11.03.25,0,.05,0-.05,0-.11-.01-.16-.01-.23-.01-.46,0-.69,0-.05.02-.11.02-.16,0,.06-.04.26,0,.09.02-.11.04-.21.07-.32.03-.12.06-.24.1-.35.03-.09.17-.45.03-.12h-2.16c.05.08.1.16.14.25.05.09.14.39.02.02.05.16.11.31.15.47.02.09.04.18.06.28v.07c.03.13.03.09,0-.12-.01.17.03.36.02.53,0,.08,0,.17-.01.25,0,.05,0,.09-.01.14.03-.21.03-.26.01-.12-.03.16-.07.32-.12.48-.02.08-.09.19-.09.27l.07-.17s-.04.09-.06.13c-.08.17-.18.33-.29.49h2.16c-.07-.11-.14-.23-.2-.34-.02-.04-.12-.26-.04-.07s-.01-.05-.02-.07c-.04-.11-.07-.23-.09-.35,0-.04,0-.16-.04-.2l.02.17c0-.05,0-.11-.01-.16l-2.13.88c-.23-.3-.01,0,.03.07.05.09.1.18.15.28.06.12.05.09-.03-.08.02.05.04.1.05.15.03.1.06.2.08.3.15.64.91,1.08,1.54.87.66-.21,1.04-.86.87-1.54s-.5-1.26-.93-1.81c-.12-.15-.37-.27-.55-.32-.27-.07-.56-.05-.81.06-.43.18-.8.65-.77,1.14.05.81.27,1.59.72,2.28.53.82,1.62.79,2.16,0,1.09-1.6,1.11-3.85.1-5.5-.23-.38-.63-.62-1.08-.62-.4,0-.91.23-1.08.62-.29.68-.46,1.31-.54,2.05-.06.62,0,1.26.14,1.87.09.42.47.76.87.87s.95.02,1.22-.32c.3-.38.5-.71.68-1.16.14-.34.19-.68.24-1.05.09-.74-.09-1.45-.4-2.12-.18-.39-.67-.62-1.08-.62-.47,0-.81.25-1.08.62-1.19,1.64-1.21,4.1-.08,5.77.28.42.73.67,1.25.6s.86-.42,1.04-.9c.3-.8.59-1.67.5-2.54-.1-.99-.56-1.83-1.38-2.41-.71-.49-1.8-.57-2.52-.06-.64.46-1.07,1.22-1.03,2.03.05,1.08.84,1.87,1.93,1.92.89.04,1.77-.53,2.14-1.33s.41-1.74-.11-2.47-1.39-1.17-2.29-1.09c-1.1.1-1.98.76-2.33,1.82-.31.97,0,2.08.69,2.8.45.47,1.32.49,1.77,0,.22-.24.38-.55.37-.88-.02-.35-.15-.61-.37-.88-.08-.11-.07-.09.04.05-.03-.05-.07-.09-.1-.14-.05-.07-.1-.14-.15-.21-.11-.15-.21-.31-.31-.46-.21-.33-.4-.66-.58-1-.3-.58-1.16-.8-1.71-.45-.59.38-.77,1.09-.45,1.71h0Z"/>
  <path class="cls-1" d="M51.93,79.78c.29-.42.58-.83.88-1.24s.46-.62.82-1.05c.32-.38.67-.75,1.03-1.09.17-.16.35-.32.54-.47.31-.26-.17.11.16-.12.11-.07.21-.15.32-.22.19-.13.44-.22.62-.36.07-.03.08-.04.02-.02-.25.04-.45-.03-.58-.21-.13-.15-.15-.16-.06-.02l.05.1c.28.55.51,1.14.77,1.7.51,1.12,1.01,2.24,1.52,3.35.28.62,1.17.76,1.71.45.63-.37.73-1.09.45-1.71-.59-1.31-1.19-2.62-1.78-3.94-.29-.63-.51-1.36-1.07-1.81-.76-.62-1.67-.39-2.46.05-2.19,1.23-3.68,3.34-5.09,5.36-.38.56-.1,1.39.45,1.71.62.36,1.32.11,1.71-.45h0Z"/>
  <path class="cls-1" d="M49.77,78.12c.03.07.03.14,0,.22.04-.14.04-.15,0-.02.08-.12.08-.13,0-.02-.11.07-.11.07.02,0h-1.26c.87.49,1.75.98,2.62,1.47,1.05.59,2.41-.63,1.71-1.71-.23-.35-.46-.7-.69-1.06l-1.71,1.71c1.55.79,3.37.98,5.02.38l-1.22-.32,1.45,1.17,1.22-2.09c-.3-.06-.59-.12-.89-.18l.75,1.84c.1-.19-.1.1-.16.13-.06.04-.36.07-.25.07.15,0-.29-.09-.02,0-.14-.05-.28-.11-.36-.24l.45-1.71c-.13.07-.14.09-.04.05-.15.04-.16.04-.04.02-.15,0-.17,0-.05,0,.1.06.08.05-.05-.03l-.96,2.28c.26.06.53.13.79.19.66.16,1.36-.21,1.54-.87s-.21-1.38-.87-1.54c-.26-.06-.53-.13-.79-.19-1.36-.33-2.22,1.56-.96,2.28.84.48,1.89.49,2.71-.04.57-.37.8-1.1.45-1.71-.74-1.3-2.83-1.34-3.53.03-.34.67-.09,1.67.75,1.84.3.06.59.12.89.18.55.11,1.12-.07,1.41-.57.26-.44.23-1.17-.2-1.51-.46-.37-.92-.75-1.39-1.12-.42-.33-.81-.5-1.35-.35-.25.07-.49.15-.74.2-.68.14-1.64-.02-2.29-.36-.5-.25-1.11-.21-1.51.2-.38.38-.5,1.05-.2,1.51.23.35.46.7.69,1.06l1.71-1.71c-.49-.27-.97-.55-1.46-.82-.52-.29-1.18-.82-1.8-.82s-1.22.52-1.52,1.04c-.33.57-.37,1.14-.28,1.78.1.67.94,1.04,1.54.87.72-.2.97-.87.87-1.54h0Z"/>
  <path class="cls-1" d="M61.58,79.83l2.57-5.1-2.28-.3c.59,1.51,1.18,3.02,1.78,4.53l1.21-1.58c-1.99-.04-3.99.29-5.86.97l1.54,1.54c.04-.11.09-.23.13-.34.02-.06.05-.11.07-.17-.07.16-.07.17-.02.05.1-.22.2-.44.32-.66.22-.44.47-.86.74-1.26.14-.2.28-.4.42-.6.08-.11.07-.1-.03.03.04-.05.08-.1.11-.14.08-.1.15-.19.23-.28.32-.37.66-.72,1.01-1.06.48-.45.49-1.32,0-1.77-.51-.47-1.26-.48-1.77,0-1.64,1.54-2.86,3.44-3.64,5.55-.32.86.68,1.85,1.54,1.54s1.76-.56,2.67-.72c.1-.02.2-.03.3-.05.14-.02.14-.02-.03,0,.05,0,.1-.01.15-.02.22-.03.44-.05.66-.06.48-.04.96-.05,1.43-.04.75.01,1.5-.82,1.21-1.58-.59-1.51-1.18-3.02-1.78-4.53-.19-.48-.51-.82-1.04-.9-.47-.06-1.02.15-1.25.6l-2.57,5.1c-.29.58-.17,1.38.45,1.71.57.3,1.4.17,1.71-.45h0Z"/>
  <path class="cls-1" d="M66.55,81.78l2.42-1.13,1.21-.56c.16-.08.39-.14.54-.25.09-.05.18-.08.27-.11l-.4-.29c-.07.07.12,1.06.13,1.14.05.46.09.92.14,1.38.08.84.1,1.71.28,2.54.14.62.47,1.23,1.02,1.56.77.46,1.57.23,2.33-.13s1.45-.78,2.12-1.25c.35-.25.69-.5,1.02-.77.14-.11.28-.23.42-.35.41-.35.29-.12-.02-.32l-.45-.45c.33.45.43,1.48.58,2.07.23.88.46,1.76.69,2.65.45,1.71.89,3.43,1.34,5.14.4,1.56,2.82.9,2.41-.66-.77-2.94-1.53-5.88-2.3-8.82-.15-.56-.24-1.16-.57-1.64-.43-.65-1.21-.87-1.95-.69-.6.14-1.06.57-1.51.96-.51.43-1.05.83-1.62,1.19-.27.17-.55.33-.83.48-.16.09-.32.17-.49.25-.41.12-.33.23.25.33,0,0-.07-.36-.08-.4-.05-.35-.07-.72-.11-1.07-.08-.82-.16-1.64-.25-2.46-.06-.62-.07-1.28-.35-1.84-.74-1.45-2.29-1.09-3.49-.54-1.35.62-2.69,1.25-4.03,1.88-.61.28-.77,1.17-.45,1.71.37.63,1.1.73,1.71.45h0Z"/>
  <path class="cls-1" d="M82.01,92.99c1.57-1.61,3.28-3.09,5.04-4.36l-1.88-1.08c.23,2.65.47,5.29.7,7.94.06.65.53,1.28,1.25,1.25.63-.03,1.31-.55,1.25-1.25-.23-2.65-.47-5.29-.7-7.94-.04-.45-.21-.84-.62-1.08-.36-.21-.91-.25-1.26,0-1.98,1.42-3.85,3-5.55,4.75-.46.47-.5,1.31,0,1.77s1.28.5,1.77,0h0Z"/>
  <path class="cls-1" d="M87.71,96.14c.95-.27,1.88-.64,2.76-1.09.41-.21.81-.44,1.2-.7.19-.12.38-.27.58-.38.08-.06.16-.1.25-.12.2-.04.08-.1-.37-.17-.1.07.51,2.37.56,2.59.19,1.02.36,2.05.49,3.08.09.75.73,1.49,1.58,1.21,2.2-.73,4.46-1.22,6.77-1.41,1.59-.13,1.61-2.63,0-2.5-2.53.21-5.02.7-7.44,1.5l1.58,1.21c-.17-1.34-.37-2.68-.63-4.01-.21-1.09-.31-2.67-1.19-3.47-1.09-.99-2.42-.36-3.46.32s-2.16,1.19-3.36,1.53c-1.54.44-.89,2.86.66,2.41h0Z"/>
  <path class="cls-1" d="M101.86,101.8c1.22.04,1.81-1.39,1.23-2.35-.32-.54-.94-.81-1.56-.73-.53.07-.95.34-1.34.7-.43.39-.44,1.03-.2,1.51.01.02.1.24.12.25-.06-.02-.09-.23,0,0,.06.16.1.32.14.48.02.07.03.15.05.22.04.18,0,.12,0-.02-.02.17.03.37.03.54l2.13-.88c-.14-.18.1.14,0,.01-.03-.05-.07-.09-.1-.14-.08-.11-.15-.22-.22-.33-.15-.23-.29-.48-.41-.72-.06-.12-.11-.24-.17-.36-.07-.15-.02,0,.02.06-.04-.05-.06-.15-.08-.2-.1-.26-.18-.52-.25-.79l-2.09,1.22c.09.07.18.14.26.23.05.05.18.25.23.25-.04,0-.16-.23-.06-.07.03.05.07.11.1.16.06.1.11.2.16.3.08.15-.03-.04-.04-.09,0,.05.04.1.05.14.04.11.06.22.09.33.04.2,0,.03,0-.07,0,.05.01.1.01.15,0,.13,0,.25,0,.38l1.88-1.08c-.49-.31-.97-.63-1.45-.96-.23-.16-.46-.33-.68-.49-.11-.08-.22-.17-.34-.25-.12-.09-.05-.02.03.02-.07-.04-.16-.12-.22-.17-.27-.21-.52-.37-.88-.37-.31,0-.67.14-.88.37-.49.54-.44,1.23,0,1.77.35.43.7.85,1.06,1.28l1.77-1.77c-.86-.9-1.95-1.55-3.14-1.9-.63-.18-1.39.22-1.54.87s.2,1.34.87,1.54c.12.04.24.07.36.11.05.02.1.04.16.06.16.05-.22-.1-.07-.03.23.11.45.22.66.35.09.06.19.12.28.18.05.04.11.1.17.12-.06-.03-.18-.15-.06-.04.19.16.37.33.55.51.45.48,1.32.49,1.77,0,.49-.54.44-1.23,0-1.77-.35-.43-.7-.85-1.06-1.28l-1.77,1.77c1.02.8,2.07,1.56,3.16,2.25.38.23.88.22,1.26,0,.4-.23.59-.63.62-1.08.07-1.3-.52-2.69-1.55-3.5-.43-.34-1.01-.52-1.51-.2-.47.3-.72.86-.57,1.41.35,1.33.99,2.51,1.84,3.58.31.39.95.43,1.37.26.45-.19.78-.64.77-1.14-.01-.96-.25-1.87-.68-2.73l-.2,1.51s.08-.07.12-.11c-.14.11-.16.12-.05.05-.18.06-.2.07-.08.04-.25.08-.46.03-.65-.12-.31-.18-.47-.39-.48-.76,0,.13,0,.06.03-.2.15-.46.49-.72,1-.77-.65-.02-1.28.59-1.25,1.25.03.7.55,1.23,1.25,1.25h0Z"/>
  <path class="cls-1" d="M91.54,93.75h-.03c.22,0,.44,0,.66,0h-.02c.1.04.2.08.3.12h-.02c.15.14.3.29.45.44v-.02c.03.1.07.2.12.3v-.02c0,.11.02.22.04.33,0-.02,0-.03,0-.05l-.04.33s0-.04.02-.05l-.13.3v-.02c-.05.08-.12.17-.18.25l.02-.02-.25.2h.02c-.1.03-.2.07-.3.11h.02c-.11,0-.22.02-.33.04h.03c-.11-.01-.22-.03-.33-.04h.04c-.1-.03-.2-.07-.3-.11l.03.02-.25-.2s.04.03.05.06l-.2-.25s.03.05.04.07l-.13-.3c.11.3.14.66.19.97.07.36.13.72.2,1.08l2.09-1.22c-.12-.1-.22-.21-.32-.33l.2.25c-.1-.14-.19-.28-.26-.44l.13.3c-.08-.19-.13-.38-.16-.59l.04.33c-.02-.17-.02-.34,0-.51l-.04.33c0-.05.02-.1.03-.15l-2.46-.33c0,.67.02,1.34.03,2.01l2.13-.88c-.44-.55-1.12-.95-1.8-1.13s-1.48-.19-2.16.07c-.26.1-.47.22-.65.45-.16.21-.28.48-.27.76,0,.22.07.43.17.63.13.25.47.53.75.57.48.08.96.17,1.45.25.34.06.66.05.96-.13.26-.15.51-.45.57-.75.07-.32.06-.68-.13-.96-.17-.26-.43-.52-.75-.57-.48-.08-.96-.17-1.45-.25v2.41c.17-.06.34-.11.51-.13l-.33.04c.22-.03.45-.03.67,0l-.33-.04c.22.03.44.09.65.18l-.3-.13c.18.08.34.17.5.29l-.25-.2c.15.12.29.25.41.4s.37.27.55.32c.27.07.56.05.81-.06.45-.19.78-.64.77-1.14,0-.67-.02-1.34-.03-2.01,0-.62-.47-1.15-1.08-1.23-.57-.08-1.25.28-1.37.9s-.12,1.2.08,1.77.5,1.08.95,1.46c.22.18.43.31.72.34.27.04.56,0,.8-.15.18-.12.33-.27.45-.45.19-.29.18-.64.13-.96-.07-.39-.14-.78-.22-1.18-.08-.42-.11-.87-.34-1.25-.26-.42-.72-.71-1.22-.71s-.94.27-1.17.68-.25.96-.01,1.39c.11.19.29.37.47.48.16.09.31.13.49.15.18.02.34,0,.52-.03.29-.05.61-.33.75-.57.16-.27.22-.66.13-.96s-.29-.59-.57-.75l-.3-.13c-.22-.06-.44-.06-.66,0h0Z"/>
  <path class="cls-1" d="M83.51,91.96c.06.09.12.18.16.28l-.13-.3c.05.12.09.25.11.38l-.04-.33c.02.13.02.26,0,.39l.04-.33c0,.07-.02.13-.04.19l2.46.33c-.02-.68-.04-1.36-.06-2.03l-.04-.33c-.04-.16-.11-.3-.22-.43-.16-.21-.39-.39-.65-.45-.22-.05-.44-.05-.66,0-.16.04-.3.11-.43.22-.14.09-.24.21-.32.35-.19.39-.37.78-.56,1.17-.09.14-.14.3-.15.46-.04.17-.03.33.02.5.08.29.3.6.57.75.29.15.64.23.96.13.3-.1.61-.28.75-.57.19-.39.37-.78.56-1.17l-2.33-.63c.02.68.04,1.36.06,2.03,0,.31.13.67.37.88l.25.2c.14.09.3.14.46.15.11.03.22.03.33,0,.17,0,.32-.06.46-.15.27-.18.49-.43.57-.75.12-.44.11-.85.03-1.3-.02-.11-.05-.22-.1-.33-.08-.2-.16-.4-.29-.58-.08-.15-.19-.26-.32-.35-.12-.11-.26-.19-.43-.22-.3-.08-.7-.05-.96.13s-.5.43-.57.75-.07.7.13.96h0Z"/>
  <path class="cls-1" d="M76.63,85.58l-.03-.04c.07.1.1.21.1.33.04.29.04-.09,0,.2,0,.12-.04.23-.11.33l.02-.04c.09-.16-.2.21-.09.12s-.25.18-.14.1c.16-.11-.12.04-.15.05.15-.05-.19.02-.2.02-.12,0-.24-.02-.35-.08-.12-.06-.14-.06-.06-.02l-.62-1.08c0,.57.02,1.14.02,1.72,0,.62.47,1.15,1.08,1.23s1.22-.29,1.37-.9c.22-.88.45-1.76.67-2.64l-2.46-.33c.02.19.03.37.03.56,0,.08,0,.16-.01.24-.02.26.05-.3,0,.02-.03.17-.08.34-.13.5-.02.05-.04.1-.05.15l.07-.15s-.12.25-.14.29l2.28.3c-.04-.12-.03-.05.02.21,0-.08,0-.05-.02.09-.02.17-.07.32-.25.52.08-.08.19-.12-.13.09.13-.08.12,0-.15.05.03,0,.1-.02.13-.04-.26.03-.32.04-.2.03.02,0,.05,0,.07,0,.24-.02-.32-.07-.13-.02.18.05-.3-.16-.13-.06s-.25-.22-.12-.08c-.13-.18-.16-.22-.09-.1l.03.06c-.08-.2-.1-.23-.06-.11.02.1.02.09,0-.03-.03-.24,0,.06,0,.11,0,.11-.08.29.01-.05-.02.07-.03.15-.04.22-.04.17-.09.33-.14.49l2.09-.55s-.08-.07-.12-.11c-.15-.16,0,.05.05.07-.04-.02-.06-.11-.08-.14-.07-.1.1.3.04.09-.01-.04-.02-.08-.04-.13-.07-.22,0,.23,0,.11,0-.05,0-.11,0-.16-.01-.22-.06.31-.01.07h-2.41c.19.74.48,1.47.84,2.14.25.47.55,1.01,1.11,1.15.61.15,1.29-.1,1.62-.65s.17-1.44-.45-1.71c-.45-.2-.89-.24-1.32.02-.56.34-.82,1.13-.45,1.71s1.11.81,1.71.45l-.25.1-.96-.13h0c-.15-.57-.3-1.14-.45-1.71,0,.01.51-.46.38-.39l1.47.35-.04-.07c-.05-.1-.11-.19-.16-.28-.11-.2-.21-.41-.31-.61-.02-.04-.09-.21-.02-.04s0,0-.01-.04c-.04-.1-.08-.2-.11-.3-.07-.22-.14-.44-.2-.66-.13-.51-.67-.94-1.21-.92s-1.1.37-1.21.92c-.19.95.05,1.98.8,2.64s1.79.38,2.09-.55c.21-.63.31-1.27.2-1.93-.12-.73-.65-1.36-1.36-1.58-.55-.17-1.19-.08-1.68.21-.65.38-1.03,1.19-.78,1.93.16.48.53.83,1.04.9.47.06,1.01-.16,1.25-.6.46-.87.71-1.88.6-2.87-.04-.33-.11-.65-.37-.88-.21-.19-.44-.31-.72-.34-.6-.08-1.22.29-1.37.9-.22.88-.45,1.76-.67,2.64l2.46.33c0-.48-.01-.96-.02-1.45,0-.55-.11-1.05-.62-1.35-.27-.16-.57-.25-.9-.24-1.26.03-2.28,1.55-1.53,2.68.36.54,1.12.83,1.71.45.54-.35.84-1.13.45-1.71h0Z"/>
  <path class="cls-1" d="M67.39,80.68v.02c.01-.11.03-.22.04-.33,0,0,0,.02,0,.02l.32-.55h0c.08-.06.17-.12.25-.19h0c.1-.04.2-.08.3-.12h0c.11-.01.22-.03.33-.04,0,0-.01,0-.02,0l.33.04s-.02,0-.02,0l.3.13s-.02,0-.02-.01l.25.2s-.03-.03-.04-.04l.2.25s-.02-.02-.02-.04l.13.3s0-.02,0-.03l.04.33h0c-.01.1-.03.21-.04.32,0,0,0-.02,0-.02l-.13.3h0c-.07.07-.13.16-.2.24h.01c-.08.05-.17.12-.25.18.01,0,.02-.02.04-.02l-.3.13s.03-.01.05-.01l-.33.04s.04,0,.05,0l-.33-.04s.04,0,.05.02l-.3-.13s.07.04.1.06l-.25-.2c.19.15.34.36.5.55.17.19.35.39.52.58l-.32-1.22c-.05.25-.1.5-.14.75l2.46.33c0-.46,0-.93.01-1.39h-2.5c0,.47,0,.94.01,1.41l2.46-.33c-.03-.07-.05-.14-.06-.22l.04.33c0-.08,0-.17,0-.25l-.04.33c.01-.08.03-.16.07-.24l-.13.3c.03-.08.08-.15.13-.22l-.2.25s.05-.06.08-.08c.23-.23.37-.56.37-.88s-.14-.67-.37-.88-.55-.38-.88-.37-.65.13-.88.37c-.27.27-.5.65-.58,1.03-.04.19-.08.4-.06.6s.03.42.11.61c.04.16.11.3.22.43.09.14.21.24.35.32l.3.13c.17.05.33.06.5.02.11,0,.22-.03.32-.09.15-.05.29-.14.4-.26.22-.24.37-.55.37-.88,0-.47,0-.94-.01-1.41,0-.32-.14-.66-.37-.88-.22-.22-.57-.38-.88-.37s-.66.12-.88.37-.36.54-.37.88c0,.46,0,.93-.01,1.39,0,.31.14.67.37.88l.25.2c.14.09.3.14.46.15.11.03.22.03.33,0,.17,0,.32-.06.46-.15.26-.17.51-.43.57-.75.04-.2.08-.4.12-.6,0-.05.02-.1.03-.15.06-.22.06-.44,0-.66-.06-.21-.17-.4-.32-.55-.06-.07-.12-.13-.18-.2-.14-.15-.27-.3-.41-.45-.12-.14-.24-.28-.37-.41-.4-.39-.94-.6-1.5-.46-.72.18-1.18.92-.98,1.65.13.46.51.86.98.98.34.09.71.05,1.01-.13.4-.24.62-.67.63-1.13,0-.32-.14-.66-.37-.88s-.57-.38-.88-.37-.66.12-.88.37-.36.54-.37.88h0Z"/>
  <path class="cls-1" d="M42.27,61.97l1.58-2.14c.17-.23.21-.69.13-.96s-.23-.48-.45-.65c-.51-.4-1.16-.31-1.64.1-.92.79-1.84,1.59-2.77,2.38l1.77,1.77c1.13-1.28,2.26-2.57,3.39-3.85.41-.47.49-1.13.1-1.64-.34-.44-1.12-.7-1.61-.32-1.73,1.32-3.3,2.81-4.65,4.53-.21.27-.37.52-.37.88,0,.31.14.67.37.88s.55.38.88.37c.31-.01.68-.11.88-.37.63-.8,1.31-1.56,2.03-2.28.35-.35.72-.69,1.09-1.01.2-.17.4-.34.6-.51.09-.07.18-.15.27-.22.05-.04.12-.07.15-.12l-.13.1s.08-.06.12-.1l-1.51-1.96c-1.13,1.28-2.26,2.57-3.39,3.85-.43.49-.52,1.29,0,1.77s1.24.46,1.77,0c.92-.79,1.84-1.59,2.77-2.38l-1.96-1.51-1.58,2.14c-.18.24-.2.68-.13.96s.3.6.57.75c.29.15.64.23.96.13s.54-.3.75-.57h0Z"/>
  <path class="cls-1" d="M36.49,74.88c1.47-2.97,3.19-5.81,5.15-8.49.4-.55.09-1.39-.45-1.71-.64-.38-1.3-.09-1.71.45-1.64,2.15-3.2,4.35-4.69,6.61l2.16,1.26c1.17-2.52,2.62-4.93,4.35-7.11l-2.09-1.22c-.74,3.1-1.79,6.11-3.17,8.98l2.16,1.26c.97-2.27,1.93-4.54,2.9-6.81l-2.28-.96c-.39,1.61-.79,3.22-1.18,4.83-.34,1.39,1.52,2.16,2.28.96.49-.76.98-1.52,1.46-2.29l-2.28-.96c-.55,1.41-1.05,2.83-1.51,4.27-.2.64.24,1.36.87,1.54.67.19,1.33-.23,1.54-.87.46-1.44.96-2.86,1.51-4.27.22-.57-.2-1.26-.72-1.47-.59-.24-1.22-.03-1.56.51-.49.76-.98,1.52-1.46,2.29l2.28.96c.39-1.61.79-3.22,1.18-4.83.15-.6-.14-1.24-.72-1.47-.52-.21-1.31-.07-1.56.51-.97,2.27-1.93,4.54-2.9,6.81-.26.62-.19,1.34.45,1.71.55.32,1.42.16,1.71-.45,1.47-3.07,2.63-6.27,3.42-9.58.13-.54-.09-1.13-.57-1.41-.44-.26-1.17-.23-1.51.2-1.87,2.35-3.48,4.89-4.74,7.62-.28.61-.17,1.35.45,1.71s1.34.12,1.71-.45c1.49-2.25,3.05-4.46,4.69-6.61l-2.16-1.26c-1.96,2.68-3.68,5.52-5.15,8.49-.3.6-.16,1.35.45,1.71.55.32,1.41.16,1.71-.45h0Z"/>
  <path class="cls-1" d="M36.1,78.39c1.65-3.22,3.3-6.44,4.95-9.66.74-1.44-1.25-2.59-2.16-1.26-1.53,2.24-3.06,4.48-4.59,6.71-.38.56-.11,1.39.45,1.71.62.36,1.33.11,1.71-.45,1.53-2.24,3.06-4.48,4.59-6.71l-2.16-1.26c-1.65,3.22-3.3,6.44-4.95,9.66-.31.6-.16,1.36.45,1.71.56.33,1.4.15,1.71-.45h0Z"/>
  <path class="cls-1" d="M35.27,81.87c2.54-3,4.48-6.42,5.75-10.15.2-.58-.18-1.26-.72-1.47-.61-.24-1.19-.01-1.56.51-1.65,2.36-3.31,4.73-4.96,7.09-.39.55-.1,1.39.45,1.71.62.36,1.32.11,1.71-.45,1.65-2.36,3.31-4.73,4.96-7.09l-2.28-.96c-1.12,3.29-2.86,6.39-5.11,9.04-.44.52-.51,1.26,0,1.77.45.45,1.33.52,1.77,0h0Z"/>
  <path class="cls-1" d="M34.74,89.14c2.8-4.9,5.98-9.59,9.54-13.98.99-1.23-.59-2.91-1.77-1.77-3.42,3.32-6.49,6.98-9.18,10.92l2.16,1.26c2.45-4.36,5.19-8.54,8.21-12.53.87-1.15-.98-2.48-1.96-1.51-2.77,2.73-5.19,5.81-7.2,9.14-.83,1.38,1.33,2.64,2.16,1.26,1.94-3.22,3.89-6.45,5.83-9.67.86-1.42-1.21-2.5-2.16-1.26-2.35,3.08-4.69,6.16-7.04,9.24-.41.54-.08,1.39.45,1.71.64.38,1.3.09,1.71-.45,2.35-3.08,4.69-6.16,7.04-9.24l-2.16-1.26c-1.94,3.22-3.89,6.45-5.83,9.67l2.16,1.26c1.9-3.16,4.18-6.04,6.81-8.63l-1.96-1.51c-3.02,3.99-5.76,8.17-8.21,12.53-.8,1.42,1.26,2.58,2.16,1.26,2.57-3.77,5.51-7.25,8.78-10.42l-1.77-1.77c-3.69,4.56-7.02,9.39-9.93,14.48-.8,1.4,1.36,2.66,2.16,1.26h0Z"/>
  <path class="cls-1" d="M11.39,107.86l-.18-.06.75.57c.25.48.22.78-.1.91-.15.05-.12.08.09.09.24.16.66.22.94.35.57.25,1.11.56,1.69.77.94.34,2.02.43,2.98.1s1.67-1.11,1.92-2.1-.3-2.37.27-3.23l-1.71.45c2.69,1.23,5.48,2.12,8.4,2.62l.33-2.46c-2.02,0-3.83-.59-5.51-1.72l-1.26,2.16c1.9,1.21,3.96,2.12,6.13,2.71.76.21,1.61-.39,1.58-1.21-.08-2.18-.16-4.35-.25-6.53l-1.88,1.08c2.05,1.07,4.29,1.54,6.59,1.27.61-.07,1.34-.52,1.25-1.25-.26-2.24-.84-4.32-1.79-6.37l-1.08,1.88c2.18-.03,4.35.07,6.52.3.81.09,1.42-.87,1.21-1.58-.73-2.43-1.91-4.59-3.51-6.55l-1.22,2.09c2.48.42,4.95.58,7.46.42.75-.05,1.5-.77,1.21-1.58-.97-2.69-2.69-4.88-5.1-6.43l-.96,2.28c2.63.98,5.39,1.47,8.2,1.49.86,0,1.36-.8,1.21-1.58-.61-3.1-1.62-6.08-2.99-8.93l-1.71,1.71c1.93,1.41,3.85,2.82,5.78,4.23.81.59,1.85-.22,1.88-1.08.05-1.31.09-2.63.14-3.94.06-1.61-2.44-1.61-2.5,0-.05,1.31-.09,2.63-.14,3.94l1.88-1.08c-1.93-1.41-3.85-2.82-5.78-4.23-1.11-.81-2.19.71-1.71,1.71,1.27,2.66,2.17,5.44,2.73,8.33l1.21-1.58c-2.6-.02-5.1-.5-7.53-1.4-1.38-.51-2.1,1.55-.96,2.28,1.83,1.18,3.21,2.88,3.95,4.93l1.21-1.58c-2.28.15-4.54.05-6.8-.33-1.26-.22-2.03,1.1-1.22,2.09,1.32,1.61,2.27,3.45,2.87,5.44l1.21-1.58c-2.17-.24-4.34-.34-6.52-.3-1.01.02-1.47,1.03-1.08,1.88.75,1.61,1.24,3.34,1.45,5.11l1.25-1.25c-1.87.22-3.65-.05-5.33-.93-.8-.42-1.92.09-1.88,1.08.08,2.18.16,4.35.25,6.53l1.58-1.21c-1.98-.54-3.8-1.36-5.54-2.46-1.37-.87-2.58,1.27-1.26,2.16,2.02,1.36,4.34,2.05,6.77,2.06,1.36,0,1.76-2.21.33-2.46-2.7-.46-5.31-1.23-7.8-2.37-.64-.29-1.31-.16-1.71.45-.36.55-.53,1.15-.56,1.81-.03.61.25,1.44.04,2.02-.48,1.3-2.81-.24-3.56-.55-1.19-.49-2.55-.74-3.47.37-.8.96-.52,2.23.69,2.62,1.54.49,2.19-1.92.66-2.41h0Z"/>
  <path class="cls-1" d="M46.37,78.14c-.09-.95-.42-1.76-1.09-2.46-.85-.88-2.48.02-2.09,1.22s1.05,2.34,1.92,3.31l1.77-1.77c-1.08-1.16-2.15-2.33-3.23-3.49-.42-.45-1.17-.47-1.64-.1-.44.35-.7,1.11-.32,1.61.92,1.22,1.75,2.51,2.47,3.86l1.96-1.51-2.94-3.15c-.64-.69-1.85-.34-2.09.55-.28,1.06.03,2.3.92,3,.44.35.99.5,1.51.2.46-.27.75-.89.57-1.41-.49-1.5-1.61-2.62-3.11-3.11l-.66,2.41c.21.06.15,0-.18-.14-.08-.12-.08-.12-.01,0-.05-.11-.06-.12-.04-.03.02.09.02.07,0-.05,0,.15,0,.16,0,.01-.05.05-.06.09-.03.11-.09.13-.16.29-.24.43-.42.72-.74,1.41-.76,2.26-.01.72.18,1.43.38,2.12.1.33.2.67.26,1.01.07.39,0-.15.03.25,0,.07,0,.47,0,.39l2.46.33c-.02-.75.12-1.43.4-2.13h-2.41c.25,1.28.49,2.56.74,3.84l2.28-.96c-.65-.96-1.24-1.98-1.68-3.05-.24-.58-.71-1-1.37-.9-.57.09-1.14.6-1.08,1.23.08.95.05,1.89-.14,2.82l2.28-.3c-.44-.8-.73-1.63-.93-2.53l-2.28.96c.28.55.47,1.16.53,1.77l1.88-1.08c-.88-.51-1.82-.78-2.83-.84v2.5c-.56-.01-.57-.98-.02-.98l.33,2.46c.29-.07.58-.13.87-.2.66-.15,1.05-.91.87-1.54-.19-.67-.88-1.03-1.54-.87-.29.07-.58.13-.87.2-1.39.32-1.06,2.46.33,2.46,1.1,0,2.08-.87,2.09-2s-.97-1.99-2.07-2.02c-.68-.02-1.25.59-1.25,1.25,0,.71.57,1.21,1.25,1.25.55.03,1.08.22,1.57.5.76.44,1.97-.11,1.88-1.08-.1-1.08-.38-2.07-.87-3.04-.28-.55-1.02-.75-1.56-.51-.59.26-.86.85-.72,1.47.24,1.09.64,2.14,1.18,3.12.5.91,2.07.76,2.28-.3.24-1.15.33-2.32.23-3.49l-2.46.33c.53,1.28,1.15,2.5,1.93,3.65s2.56.44,2.28-.96c-.25-1.28-.49-2.56-.74-3.84-.1-.53-.69-.92-1.21-.92-.59,0-.99.4-1.21.92-.36.88-.52,1.84-.49,2.79.02.62.46,1.15,1.08,1.23.56.07,1.27-.27,1.37-.9.15-.95.02-1.84-.24-2.76-.11-.4-.24-.81-.32-1.22-.04-.22-.05-.59.03-.81.13-.35.38-.66.55-.99.23-.46.4-.94.4-1.46-.01-.98-.6-1.97-1.6-2.19-1.57-.34-2.2,1.91-.66,2.41.61.2,1.17.76,1.37,1.36l2.09-1.22c-.21-.16-.21-.16-.29-.33.05.11-.06-.26,0-.04v-.13c-.02.11-.01.09.02-.06l-2.09.55,2.94,3.15c.99,1.07,2.62-.29,1.96-1.51-.72-1.35-1.55-2.64-2.47-3.86l-1.96,1.51c1.08,1.16,2.15,2.33,3.23,3.49.46.5,1.3.46,1.77,0,.5-.5.45-1.26,0-1.77-.58-.64-1.01-1.4-1.28-2.21l-2.09,1.22c.19.19.34.52.36.69.06.67.53,1.25,1.25,1.25.63,0,1.31-.57,1.25-1.25h0Z"/>
  <path class="cls-1" d="M36.44,87.95v-.04c0,.11.02.22.03.33,0-.02,0-.04,0-.06l-.04.33c-.11.37-.32.61-.63.72-.13.05-.16.06-.09.05l-.33.04s.07,0,.11,0l-.33-.04c.06,0,.11.03.17.04-.23-.1-.28-.13-.17-.07.07.05.05.03-.05-.05-.2-.16-.02,0,.02.06.07.09.14.18.21.27.24.31.49.62.73.94.5.65,1.01,1.29,1.51,1.94.12.15.37.27.55.32.27.07.56.05.81-.06.44-.19.79-.65.77-1.14-.08-2.16-1.23-4.18-3.07-5.32l-1.26,2.16c.68.42,1.36.84,2.04,1.26.43.26,1,.2,1.39-.1s.62-.85.45-1.31l-.42-1.18c-.18-.5-.63-.94-1.21-.92-.52.02-1.1.37-1.21.92l-.38,2.03h2.41l-.34-.85c-.12-.31-.27-.57-.57-.75-.27-.16-.66-.22-.96-.13s-.59.29-.75.57-.25.66-.13.96l.34.85c.1.26.22.47.45.65.21.16.48.28.76.27.52-.02,1.1-.37,1.21-.92l.38-2.03h-2.41l.42,1.18,1.84-1.41c-.68-.42-1.36-.84-2.04-1.26-.56-.34-1.4-.14-1.71.45s-.14,1.34.45,1.71c.08.05.16.1.24.16.03.02.07.05.1.07.12.09-.22-.18-.1-.08.14.12.28.23.4.36s.25.26.36.4c.16.19-.06-.07-.06-.08,0,0,.07.09.08.1.06.08.11.16.16.24.1.15.19.31.27.47.01.03.09.23.11.23-.01,0-.12-.29-.05-.12.02.05.04.1.06.15.13.35.22.71.27,1.08l-.04-.33c.02.17.04.34.04.51l2.13-.88c-.72-.93-1.44-1.85-2.16-2.78-.18-.23-.33-.45-.56-.62s-.5-.32-.79-.37c-.42-.08-.81-.05-1.19.16-.55.31-.77.99-.6,1.58.18.63.89,1.08,1.54.87s1.06-.86.87-1.54h0Z"/>
  <path class="cls-1" d="M36.57,87.92c-.71-.08-1.42.11-2.06.4s-1.16.8-1.55,1.38l2.16,1.26c.07-.12.15-.24.24-.35l-.2.25c.18-.22.37-.42.6-.59l-.25.2.03-.03c.15-.08.26-.19.35-.32.11-.12.19-.26.22-.43.08-.3.05-.7-.13-.96s-.43-.5-.75-.57-.7-.07-.96.13-.52.39-.73.64-.42.5-.58.78-.21.65-.13.96c.08.29.3.6.57.75.29.15.64.23.96.13s.56-.29.75-.57c.04-.05.07-.1.11-.15l-.2.25c.13-.17.28-.32.45-.45l-.25.2c.19-.15.39-.27.61-.36l-.3.13c.23-.1.47-.16.72-.2l-.33.04c.21-.03.42-.03.64,0,.3.03.68-.16.88-.37.22-.22.38-.57.37-.88s-.12-.66-.37-.88l-.25-.2c-.19-.11-.41-.17-.63-.17h0Z"/>
  <path class="cls-1" d="M33.71,94.75s.03,0,.05,0l-.33-.04s.05.01.07.02l-.3-.13s.06.03.08.05l-.25-.2s.05.04.07.07l-.2-.25s.05.07.06.11l-.13-.3s.03.09.04.14l-.04-.33s0,.08,0,.13l.04-.33s-.01.06-.02.09l.13-.3s-.03.06-.05.08l.2-.25s-.03.04-.05.05l.25-.2s-.04.03-.07.04l.3-.13s-.05.02-.08.02l.33-.04s-.05,0-.08,0l.33.04s-.06-.01-.09-.03l.3.13s-.08-.04-.11-.06l.25.2s-.06-.06-.09-.09l.2.25s-.05-.07-.07-.11l.13.3s-.02-.07-.03-.11l.04.33s0-.05,0-.08l-.04.33s.01-.05.02-.08l-.13.3s.02-.04.03-.06l.13-.3.04-.33-.04-.33c-.04-.16-.11-.3-.22-.43-.06-.09-.13-.17-.22-.22-.08-.08-.17-.13-.28-.16-.1-.06-.2-.08-.32-.09-.17-.04-.33-.03-.5.02-.06.02-.13.05-.19.08s-.12.05-.18.08c-.11.06-.2.14-.29.23-.25.25-.4.62-.4.97,0,.16.02.32.07.47.05.12.09.25.16.36s.16.22.24.32c.04.05.08.09.13.13.09.07.21.18.32.24s.28.13.37.16c.22.08.47.07.7.1l-.33-.04c.12.02.25.04.37.09l-.3-.13s.09.04.13.07l-.25-.2s.04.04.06.06l-.2-.25s.03.04.04.06l-.13-.3s.02.05.02.07l-.04-.33s0,.05,0,.08h2.5c0-.07-.02-.15-.03-.22,0-.07-.01-.15-.03-.22-.03-.13-.1-.26-.16-.38-.08-.16-.2-.31-.33-.43-.34-.31-.79-.53-1.27-.51-.17,0-.33.03-.48.11-.15.05-.29.14-.4.26-.12.11-.21.25-.26.4-.08.15-.11.31-.11.48l.04.33c.06.21.17.4.32.55.24.22.55.38.88.37.03,0,.06,0,.09,0l-.33-.04s.09.02.14.04l-.3-.13s.08.04.12.07l-.25-.2s.07.06.1.1l-.2-.25s.05.08.07.12l-.13-.3s.03.08.03.12l-.04-.33s0,.04,0,.05c.01.33.13.65.37.88.11.12.25.21.4.26.15.08.31.11.48.11l.33-.04c.21-.06.4-.17.55-.32l.2-.25c.11-.19.17-.41.17-.63,0-.02,0-.05,0-.07,0-.1-.03-.26-.05-.36,0-.01,0-.02,0-.03s0-.02-.01-.03c-.03-.09-.09-.23-.13-.31-.06-.1-.19-.25-.22-.3-.01-.02-.03-.03-.04-.04-.09-.08-.19-.16-.29-.23-.12-.08-.31-.15-.42-.19-.3-.12-.63-.12-.95-.16l.33.04s-.08-.02-.11-.03l.3.13c-.05-.02-.1-.05-.14-.08l.25.2c-.05-.04-.1-.08-.14-.14l.2.25s-.05-.07-.07-.12l.13.3s-.02-.06-.03-.09l.04.33s0-.03,0-.05l-.04.33s0-.03.01-.05l-.13.3s.01-.02.02-.03l-.2.25s.01-.01.02-.02l-.25.2s.03-.02.05-.03l-.3.13s.02,0,.04-.01l-1.41-1.84c-.08.12-.13.26-.17.39-.02.07-.02.15-.03.21,0,.07-.03.15-.02.22,0,.12.03.26.05.38,0,.02,0,.04.01.05.04.14.1.28.17.4.04.06.09.12.13.17s.08.11.13.17c.1.11.22.19.34.27.02.01.03.02.05.03.11.06.23.11.34.15.02,0,.03.01.05.02,0,0,.02,0,.03,0,.11.02.24.04.36.05.02,0,.04,0,.05,0,.1,0,.25-.03.35-.05,0,0,.02,0,.03,0,.14-.04.28-.1.4-.17.22-.14.45-.35.56-.59.05-.11.1-.22.14-.33,0-.02,0-.03.01-.05.02-.12.04-.25.05-.37,0-.02,0-.04,0-.06,0-.12-.03-.25-.05-.37,0-.02,0-.03,0-.05-.03-.14-.1-.28-.16-.4-.13-.27-.34-.45-.57-.62-.02-.01-.03-.02-.05-.03,0,0-.01,0-.02-.01-.09-.04-.23-.1-.32-.13-.02,0-.04-.01-.06-.01-.09-.02-.25-.04-.34-.05-.01,0-.03,0-.04,0-.17,0-.33.03-.48.11-.15.05-.29.14-.4.26-.12.11-.21.25-.26.4-.08.15-.11.31-.11.48l.04.33c.06.21.17.4.32.55.24.22.55.37.88.37h0Z"/>
  <path class="cls-1" d="M27.24,98.62c-.29.47-.42.98-.47,1.52-.02.22,0,.43.03.65s.07.44.15.65.17.4.32.55c.2.2.45.31.72.34.23.03.44,0,.65-.09.24-.1.48-.28.6-.51.33-.66.66-1.33.99-1.99l-2.28-.3c.08.44.15.88.23,1.32l2.41-.66c-.02-.06-.03-.12-.04-.18l.04.33c-.02-.13-.02-.27,0-.4l-.04.33c.02-.11.04-.21.08-.31l-.13.3c.02-.05.05-.1.08-.14l-.2.25s.05-.06.09-.09l-.25.2s.04-.03.07-.04l-.3.13s.04-.01.05-.01l-.33.04s.05,0,.08,0l-.33-.04s.06.01.08.03l-.3-.13s.03.01.04.02l-.62-1.08c0,.38.01.75.02,1.13,0,.31.13.67.37.88.21.19.44.31.72.34s.56,0,.8-.15c.25-.16.53-.43.57-.75.04-.26.1-.5.2-.74l-.13.3c.1-.23.22-.44.37-.63l-.2.25s.05-.06.08-.1c.12-.11.21-.25.26-.4.08-.15.11-.31.11-.48,0-.31-.14-.67-.37-.88s-.55-.38-.88-.37c-.31.01-.68.11-.88.37-.48.58-.86,1.26-.97,2.02l2.46.33c0-.38-.01-.75-.02-1.13,0-.43-.23-.87-.62-1.08-.48-.26-1.05-.3-1.54-.03-.14.08-.27.18-.38.3s-.22.26-.29.41c-.16.36-.24.65-.26,1.04-.02.27.02.56.1.81.1.31.29.58.57.75s.66.22.96.13.59-.29.75-.57l.13-.3c.06-.22.06-.44,0-.66-.08-.44-.15-.88-.23-1.32l-.13-.3-.2-.25c-.2-.2-.45-.31-.72-.34-.23-.03-.44,0-.65.09-.24.1-.48.28-.6.51-.33.66-.66,1.33-.99,1.99l2.28.3c-.06-.16-.1-.32-.13-.48l.04.33c-.02-.19-.02-.39,0-.58l-.04.33c.03-.18.08-.35.15-.52l-.13.3c.04-.09.09-.19.14-.27.17-.27.21-.66.13-.96-.08-.29-.3-.6-.57-.75-.29-.15-.64-.23-.96-.13s-.57.29-.75.57h0Z"/>
  <path class="cls-1" d="M22.83,105.76l.82.89.25.2c.14.09.3.14.46.15.11.03.22.03.33,0,.17,0,.32-.06.46-.15.18-.12.33-.27.45-.45.09-.14.14-.3.15-.46.04-.17.03-.33-.02-.5-.08-.46-.16-.92-.23-1.38l-.87,1.54c.42-.07.83-.14,1.25-.21.16-.04.3-.11.43-.22.14-.09.24-.21.32-.35.09-.14.14-.3.15-.46.04-.17.03-.33-.02-.5-.1-.3-.29-.59-.57-.75l-.3-.13c-.22-.06-.44-.06-.66,0-.42.07-.83.14-1.25.21-.16.04-.3.11-.43.22-.14.09-.24.21-.32.35l-.13.3c-.06.22-.06.44,0,.66.08.46.16.92.23,1.38l2.09-1.22-.82-.89c-.21-.23-.57-.37-.88-.37s-.67.14-.88.37-.38.55-.37.88.13.63.37.88h0Z"/>
  <path class="cls-1" d="M16.2,107.49s.04-.06.06-.09l-.2.25s.06-.07.09-.1l-.25.2s.09-.06.14-.08l-.3.13c.06-.03.13-.04.2-.05l-.33.04c.08,0,.17,0,.25,0l-.33-.04c.09.01.17.04.25.07l-.3-.13c.08.03.15.08.22.13l-.25-.2c.06.05.11.1.16.16l-.2-.25c.08.1.14.21.19.33l-.13-.3c.07.18.11.37.14.56l-.04-.33c.03.19.04.39.05.58.03.63.45,1.14,1.08,1.23.27.04.56,0,.8-.15l.25-.2c.15-.16.26-.34.32-.55.38-.96.22-2.15-.33-3.02-.34-.53-.98-.76-1.56-.51-.24.1-.47.27-.6.51l-.13.3c-.06.22-.06.44,0,.66,0,.03,0,.06.01.1l-.04-.33c.04.34.04.69,0,1.03l.04-.33c-.05.34-.14.67-.27.99l.13-.3c-.13.3-.29.59-.49.85l.2-.25s-.04.05-.06.08c-.21.27-.37.53-.37.88,0,.31.14.67.37.88s.55.38.88.37.67-.12.88-.37c.18-.21.35-.41.53-.62.22-.26.37-.54.37-.88,0-.31-.14-.67-.37-.88s-.55-.38-.88-.37-.67.12-.88.37c-.18.21-.35.41-.53.62l1.77,1.77c.48-.6.85-1.24,1.05-1.99s.21-1.51.09-2.27l-2.28.96c.07.11.13.22.18.34l-.13-.3c.07.18.12.37.15.56l-.04-.33c.03.21.03.42,0,.63l.04-.33c-.03.18-.07.35-.14.52l2.46.33c-.02-.45-.05-.91-.18-1.34-.18-.57-.51-1.07-1.02-1.4-.92-.6-2.32-.41-2.88.6-.16.29-.21.64-.13.96.08.29.3.6.57.75.59.31,1.37.16,1.71-.45h0Z"/>
  <path class="cls-1" d="M80.62,48.07c.43-.54.96-.86,1.6-1.1.25-.09.51-.17.77-.25.18-.06.36-.11.55-.15-.21-.26-.28-.28-.18-.05-.1.24.1.94.12,1.21.03.35.05.71.08,1.06.06.95.09,1.89.11,2.84.02,1.12,1.33,1.6,2.13.88,1.23-1.09,2.47-2.19,3.7-3.28l-2.13-.88c-.21,2.83-.22,5.66-.05,8.5.06,1.01,1.36,1.74,2.13.88,1.68-1.85,2.91-3.99,3.65-6.38l-2.09.55c.63.55,1.25,1.11,1.88,1.66s1.92.44,2.09-.55c.48-2.87.95-5.75,1.43-8.62l-1.54.87c.96.32,1.91.64,2.87.95,1.53.51,2.19-1.9.66-2.41-.96-.32-1.91-.64-2.87-.95-.59-.2-1.43.23-1.54.87-.48,2.87-.95,5.75-1.43,8.62l2.09-.55c-.63-.55-1.25-1.11-1.88-1.66-.71-.63-1.8-.38-2.09.55-.61,1.97-1.63,3.75-3.01,5.27l2.13.88c-.18-2.83-.16-5.67.05-8.5.09-1.16-1.39-1.55-2.13-.88-1.23,1.09-2.47,2.19-3.7,3.28l2.13.88c-.03-1.42-.1-2.84-.22-4.26-.09-1.07-.14-2.33-1.15-2.97s-2.21-.22-3.24.15-2.01.87-2.71,1.74c-.42.53-.51,1.25,0,1.77.43.44,1.35.53,1.77,0h0Z"/>
  <path class="cls-1" d="M95.9,47.84l.99-.19-1.54-1.54c-1.25,3.66-2.92,7.15-4.98,10.43l2.28.3c-.17-.41.1-.76.31-1.12.32-.53.17-1.25-.32-1.61-.45-.34-1.25-.4-1.64.1-.29.37-.58.74-.87,1.11l2.09,1.22c.19-.81.48-1.56.89-2.29.8-1.42-1.26-2.58-2.16-1.26-.58.84-1.15,1.69-1.73,2.53l2.16,1.26c.46-1.01.92-2.01,1.38-3.02l-2.28-.96c-.48,1.27-1.23,2.41-2.16,3.39-.47.49-.48,1.28,0,1.77.52.52,1.24.43,1.77,0,.35-.29.7-.58,1.05-.86l-2.13-.88c-.01.13-.15.23-.4.33-.62.26-.76,1.18-.45,1.71.38.64,1.09.71,1.71.45,1.01-.43,1.55-1.44,1.64-2.49.04-.48-.34-.97-.77-1.14-.5-.2-.96-.07-1.37.26-.35.29-.7.58-1.05.86l1.77,1.77c1.25-1.3,2.17-2.81,2.81-4.49.5-1.31-1.7-2.25-2.28-.96l-1.38,3.02c-.66,1.45,1.24,2.61,2.16,1.26.58-.84,1.15-1.69,1.73-2.53l-2.16-1.26c-.51.9-.9,1.87-1.14,2.88-.13.54.08,1.13.57,1.41.44.26,1.18.23,1.51-.2.29-.37.58-.74.87-1.11l-1.96-1.51c-.54.9-1,2.01-.57,3.04.41.96,1.67,1.28,2.28.3,2.17-3.46,3.91-7.16,5.23-11.03.33-.97-.67-1.71-1.54-1.54l-.99.19c-.66.13-1.04.92-.87,1.54.19.69.87,1,1.54.87h0Z"/>
  <path class="cls-1" d="M85.8,52.51c.05,0,.1.02.15.05l-.3-.13c.06.03.12.06.17.1l-.25-.2c.05.04.1.09.14.14l-.2-.25c.05.06.08.12.11.19l-.13-.3c.03.06.04.13.05.19l-.04-.33c0,.07,0,.13,0,.2,0,.23.06.44.17.63.08.15.19.26.32.35.12.11.26.19.43.22.22.06.44.06.66,0,.02,0,.03,0,.05-.02.1-.04.23-.08.32-.14.05-.03.14-.11.14-.11-.11.08.1-.07.13-.1,0,0,0,0,.01-.01.04-.04.17-.22.2-.26,0,0,0-.01,0-.02.01-.02.12-.28.13-.3,0-.01,0-.02.01-.04.01-.05.04-.29.05-.34,0,0,0-.01,0-.02,0,0,0-.01,0-.02,0-.09-.03-.26-.05-.35-.02-.08-.05-.15-.08-.22s-.06-.16-.11-.23c-.17-.25-.32-.4-.57-.57-.07-.05-.15-.07-.23-.11-.18-.07-.21-.08-.4-.11-.07,0-.13-.02-.2-.02,0,0-.02,0-.02,0-.08,0-.26.03-.34.05-.01,0-.03,0-.04.01-.05.02-.16.07-.17.07-.02,0-.12.05-.17.08-.06.04-.12.09-.16.12-.06.04-.12.09-.18.14-.01.02-.03.03-.04.05-.08.1-.17.2-.23.31-.1.17-.18.36-.21.55-.03.22-.07.43-.04.65s.05.45.11.67c.04.16.11.3.22.43.09.14.21.24.35.32.14.09.3.14.46.15.17.04.33.03.5-.02.3-.1.59-.29.75-.57s.21-.63.13-.96c-.03-.1-.05-.21-.06-.32l.04.33c-.01-.11-.02-.23,0-.34l-.04.33c0-.07.03-.13.05-.2l-.13.3s.04-.07.06-.11l-.2.25s.06-.06.09-.09l-.25.2s.04-.03.06-.04l-.3.13s.05-.02.07-.02l-.33.04s.04,0,.06,0l-.33-.04s.06.01.08.02l-.3-.13s.07.04.1.06l-.25-.2s.06.06.09.09l-.2-.25s.04.06.06.1l-.13-.3s.02.05.02.08l-.04-.33s0,.04,0,.06l.04-.33s0,.02-.01.04l.13-.3s0,.02-.01.02l.2-.25s-.02.02-.03.03l.25-.2s-.02.02-.04.02l.3-.13s-.03.01-.05.02l1.58,1.21c0-.05,0-.11,0-.16-.01-.16-.03-.32-.07-.47-.06-.2-.14-.4-.26-.57-.2-.28-.36-.45-.65-.64-.17-.11-.37-.2-.57-.24-.17-.05-.33-.06-.5-.02-.17,0-.32.06-.46.15-.15.08-.26.19-.35.32-.11.12-.19.26-.22.43-.07.32-.06.68.13.96.17.26.43.52.75.57h0Z"/>
  <path class="cls-1" d="M81.03,47.69c.33.06.61.19.63.57l2.46-.33c-.1-.41-.2-.82-.3-1.24-.3-1.25-2.05-1.12-2.41,0l-.35,1.09,1.21-.92c-4.2-.23-6.17,3.83-7.58,7.08-1.57,3.62-3.77,6.89-6.57,9.67-1.14,1.14.63,2.91,1.77,1.77,2.57-2.56,4.74-5.53,6.32-8.79,1.24-2.55,2.4-7.43,6.06-7.23.56.03,1.04-.41,1.21-.92l.35-1.09h-2.41c.1.41.2.82.3,1.24.33,1.36,2.52,1.09,2.46-.33s-1.01-2.71-2.46-2.98c-1.57-.29-2.25,2.12-.66,2.41h0Z"/>
  <path class="cls-1" d="M97.39,45.05c1.41.3,2.17-.88,2.32-2.11.13-1.13.22-2.26.34-3.39l-1.25,1.25c1.09-.03,2.18-.05,3.27-.08.89-.02,1.32-.78,1.21-1.58-.19-1.29-.24-2.6-.19-3.91l-1.25,1.25,3.03-.03c.68,0,1.25-.57,1.25-1.25s-.57-1.26-1.25-1.25l-3.03.03c-.69,0-1.23.57-1.25,1.25-.05,1.53.06,3.05.28,4.57l1.21-1.58c-1.09.03-2.18.05-3.27.08-.73.02-1.18.56-1.25,1.25-.07.74-.15,1.47-.22,2.21-.03.34-.06.68-.1,1.02-.02.21-.02.23,0,.05l-.03.11c.06-.12.06-.12,0,0,.19-.26.48-.36.87-.3-.66-.14-1.35.2-1.54.87-.17.62.21,1.4.87,1.54h0Z"/>
  <path class="cls-1" d="M92.09,53.99l.69-5.65-1.58,1.21c.25.08.51.15.75.27-.29-.14.1.05.15.07.12.06.24.12.35.18.23.12.46.26.68.41.11.07.22.15.33.23.11.08.11.08-.02-.02.28.26.24-.02-.15-.85l.32-.55.71-.31.63.17.19.15.37.88v-.04c-.06-.65-.54-1.28-1.25-1.25-.63.03-1.31.55-1.25,1.25.05.61.37,1.13.98,1.29.49.13,1.04-.02,1.39-.38s.46-.92.31-1.41-.51-.76-.9-1.04c-.88-.66-1.89-1.14-2.94-1.46-.38-.12-.79-.01-1.09.22-.34.26-.44.57-.49.98l-.69,5.65c-.08.65.63,1.28,1.25,1.25.74-.03,1.17-.55,1.25-1.25h0Z"/>
  <path class="cls-1" d="M92.85,55.12c.72-2.84.26-5.93-1.31-8.42-.65-1.02-2.34-.64-2.33.63.02,1.68.02,3.36,0,5.04l2.46-.33c-.48-1.65-.64-3.1-.54-4.85.03-.62-.5-1.15-1.08-1.23s-1.26.28-1.37.9c-.29,1.6-.4,3.21-.26,4.82.06.65.53,1.28,1.25,1.25.63-.03,1.31-.55,1.25-1.25-.12-1.41-.07-2.88.17-4.16l-2.46-.33c-.1,1.86.12,3.73.63,5.52.39,1.35,2.44,1.09,2.46-.33.01-1.68.01-3.36,0-5.04l-2.33.63c.18.28.34.57.49.87.06.11.11.23.16.34.06.14.07.15.02.05.03.08.06.16.09.23.21.57.36,1.16.46,1.75.01.06.02.12.03.19-.02-.13-.02-.11,0,.04.01.17.03.33.04.5.02.29.02.58,0,.88,0,.17-.02.33-.03.5,0,.05-.05.4-.01.16-.05.33-.12.66-.2.98-.16.63.21,1.39.87,1.54s1.37-.19,1.54-.87h0Z"/>
  <path class="cls-1" d="M87.53,51.59l2.27-2.84c.39-.49.51-1.12.1-1.64-.39-.49-1.05-.63-1.61-.32-1.35.74-2.21,2.25-2.15,3.79.02.53.37,1.08.92,1.21.5.11,1.19-.06,1.41-.57.12-.28.25-.55.41-.81.08-.13.16-.26.24-.38.04-.05.07-.11.11-.16-.07.08-.05.06.04-.05.4-.47.8-.83,1.18-1.1.56-.38.81-1.1.45-1.71s-1.1-.74-1.71-.45c-1.07.51-2.05,1.21-2.9,2.04-.48.47-.47,1.29,0,1.77.51.51,1.25.44,1.77,0,.68-.58,1.37-1.16,2.05-1.74.94-.8-.06-2.49-1.22-2.09s-2.11,1.12-2.85,2.12c-.37.49-.13,1.27.32,1.61s1.22.37,1.64-.1c.69-.77,1.58-1.07,2.61-1.08,1.33-.02,2.65.43,3.96.87.62.21,1.39-.24,1.54-.87.16-.69-.21-1.32-.87-1.54-1.56-.52-3.21-1.04-4.88-.95-1.54.09-3.08.63-4.13,1.8l1.96,1.51c-.08.11,0,0,.04-.04.07-.08.14-.16.22-.23.06-.06.12-.12.18-.17.02-.02.24-.18.09-.08.14-.1.28-.19.43-.27.02-.01.3-.15.19-.1-.09.04.21-.08.2-.07l-1.22-2.09c-.68.58-1.37,1.16-2.05,1.74l1.77,1.77c.71-.7,1.44-1.2,2.4-1.65l-1.26-2.16c-1.25.85-2.28,2-2.89,3.39l2.33.63c0-.12,0-.24,0-.36-.01.23.02-.11.03-.15.02-.1.06-.2.09-.29.03-.08.03-.08,0,.02.03-.06.05-.11.09-.16.05-.09.1-.18.16-.26-.13.17.11-.11.12-.12.03-.03.29-.25.12-.12.1-.07.21-.13.31-.19l-1.51-1.96-2.27,2.84c-.42.53-.51,1.25,0,1.77.44.44,1.34.53,1.77,0h0Z"/>
  <path class="cls-1" d="M15.77,108.55c-.7.24-1.14.87-1.04,1.62.09.65.58,1.19,1.23,1.34.41.09.85.09,1.27.12.37.02.74.05,1.11.07s.74.05,1.11.07c.57.04,1.13-.01,1.57-.44.35-.34.47-.81.56-1.28.09-.43.15-.87.2-1.31.1-.83.1-1.67.01-2.5-.05-.53-.35-1.08-.92-1.21-.22-.05-.44-.05-.66,0-.26.06-.64.32-.75.57-.4.92-.8,1.83-1.2,2.75h2.16c.14.33.03.04,0-.04-.02-.09-.04-.18-.06-.27l.04.33c-.03-.21-.02-.42,0-.63l-.04.33c0-.05.02-.1.03-.16.13-.64-.19-1.38-.87-1.54-.63-.14-1.4.19-1.54.87-.07.35-.12.72-.08,1.08.05.48.16.84.35,1.28.36.82,1.8.82,2.16,0,.4-.92.8-1.83,1.2-2.75l-2.33-.63c.09.92.08,1.84-.04,2.76l.04-.33c-.04.27-.08.54-.14.81-.03.12-.06.24-.08.36-.02.16.04-.08.06-.12.07-.13.18-.22.31-.27.22-.1.27-.14.13-.11l.33-.04c-.57.03-1.17-.06-1.74-.1s-1.18-.06-1.77-.12l.33.04c-.16-.02-.16-.09.05.06l.15.12c.21.46.29.59.24.38l.04.33s0-.06,0-.09l-.04.33-.73.72c.62-.21,1.09-.87.87-1.54-.2-.61-.88-1.1-1.54-.87h0Z"/>
  <path class="cls-1" d="M41.93,84c2.58.13,5.16.14,7.74,0,1.23-.07,2.27-.33,3.34-.96s2.2-1.33,3.3-2c1.37-.83.12-3-1.26-2.16-1,.6-1.99,1.21-2.99,1.81s-1.77.77-2.91.82c-2.4.11-4.81.1-7.21-.02-1.61-.08-1.6,2.42,0,2.5h0Z"/>
  <path class="cls-1" d="M48.85,81.11c-.24.54-.31,1.11.02,1.64.28.44.74.73,1.23.9.44.15.95.15,1.41.17.5.03,1.01.05,1.51.05,1.99,0,3.97-.22,5.92-.63.66-.14,1.04-.92.87-1.54-.19-.68-.87-1.01-1.54-.87-1.37.29-2.76.46-4.16.52-.73.03-1.46.03-2.18,0-.33-.01-.67-.02-1.01-.06.17.02-.12-.03-.16-.04.12.05.12.04,0-.02.14.1.25.22.32.37v.66l-.07.12c.27-.62.18-1.34-.45-1.71-.53-.31-1.43-.17-1.71.45h0Z"/>
  <path class="cls-1" d="M14.51,48.32c1.22-.16,2.45-.31,3.67-.47.96-.12,1.96-.23,2.45-1.19s.07-2.42-.04-3.47c-.16-1.39-.31-2.79-.47-4.18l-1.58,1.21c1.94.71,3.94,1.05,6,1.05.56,0,1.05-.39,1.21-.92.6-2.04,1.2-4.09,1.8-6.13l-1.84.75c2.02,1.26,4.32,2.48,6.76,1.72.94-.29,1.84-.88,2.39-1.72.28-.43.46-.91.58-1.4.1-.42.08-1.08.29-1.45.2-.35.12-.34.53-.04.43.32.8.72,1.25,1.02.91.61,1.98.82,3.06.57,2.62-.61,3.7-3.16,4.44-5.46l-2.09.55c1.89,1.55,4.63,2.65,6.96,1.33,2-1.13,2.87-3.54,1.9-5.62l-1.41,1.84c2.19.52,4.12,1.53,5.77,3.06.76.71,2.17.24,2.13-.88-.12-3.42-1.17-6.7-3.13-9.52-.91-1.31-3.08-.06-2.16,1.26,1.71,2.46,2.69,5.25,2.79,8.25l2.13-.88c-1.95-1.82-4.27-3.09-6.87-3.7-1.12-.27-1.87.86-1.41,1.84.43.92-.42,2.02-1.27,2.31-1.27.43-2.69-.26-3.66-1.06-.73-.6-1.78-.4-2.09.55-.5,1.56-1.8,4.96-3.95,3.29-1.27-.99-2.64-2.22-4.27-1.04-1.42,1.04-.71,3.08-1.89,4.12-1.64,1.43-4.07-.2-5.51-1.1-.7-.44-1.61,0-1.84.75-.6,2.04-1.2,4.09-1.8,6.13l1.21-.92c-1.85,0-3.6-.33-5.34-.96-.71-.26-1.67.43-1.58,1.21.21,1.89.42,3.77.63,5.66.03.3-.07,1,.38.61-.16.14-1.15.16-1.36.18l-2.76.35c-1.57.2-1.59,2.7,0,2.5h0Z"/>
  <path class="cls-1" d="M54.99,25.14l.08-.07-.55.32-.55-.07-.45-.45.06.09.75-1.84c.06-.02.27.15,0-.05l-1.26,2.16c.43.25.89.43,1.38.51,1.58.24,2.2-1.84.66-2.41-.46-.17-.91-.34-1.37-.51-.93-.35-1.75.68-1.54,1.54.16.64.68,1.21,1.36,1.31.62.09,1.22-.1,1.47-.72s.02-1.2-.51-1.56c-.63-.43-1.33-.73-2.07-.91-.83-.2-1.53.38-1.58,1.21-.03.41-.24,1.06-.44,1.49-.3.62-.66,1.2-1,1.8-.69,1.22-1.3,2.57-1.15,4.01l1.88-1.08c-1.87-1.18-3.92-2.08-6.05-2.69-1.55-.44-2.21,1.97-.66,2.41,1.94.55,3.75,1.36,5.45,2.44.75.47,1.98-.13,1.88-1.08-.07-.64,0-1.01.24-1.64.19-.48.57-1.11.87-1.64.73-1.26,1.38-2.54,1.48-4.02l-1.58,1.21c.55.13,1,.34,1.47.66l.96-2.28.39.43-1.54,1.54c.46.17.91.34,1.37.51l.66-2.41c-.29-.04-.53-.11-.79-.25-.59-.34-1.37-.14-1.71.45-.38.64-.09,1.3.45,1.71s1.28.49,1.92.31c.72-.21,1.22-1.16.75-1.84-.63-.9-1.68-1.03-2.52-.32-.51.44-.45,1.32,0,1.77.51.51,1.25.44,1.77,0h0Z"/>
  <path class="cls-1" d="M49.54,24.39l-2.55,2.04,1.96,1.51c.04-.07.15-.18.17-.25l-.1.14s.07-.08.1-.11c.05-.05.1-.11.16-.16.04-.03.07-.07.11-.1-.15.11-.18.14-.1.08.14-.09.27-.17.42-.25.22-.12-.25.08-.02.01.1-.03.19-.06.29-.08l-.96-2.28c-1.08.52-2.07,1.18-3.02,1.91l1.96,1.51c.05-.09.1-.18.15-.27.02-.04.18-.22.17-.26-.12.15-.14.17-.05.07.03-.04.07-.08.1-.12.06-.07.12-.13.19-.2s.13-.13.2-.19c.04-.03.08-.07.12-.1-.15.11-.18.13-.07.05.17-.12.34-.23.53-.33l-1.51-1.96c-.11.1-.21.19-.32.28-.07.06-.13.11-.2.16-.03.03-.23.17-.08.06s-.05.03-.08.06c-.06.04-.12.08-.17.12-.13.09-.26.18-.39.26-.24.15-.49.29-.74.43-.14.07-.28.14-.42.21-.06.03-.13.06-.19.09-.23.1.24-.1-.02,0-.31.13-.57.27-.75.57-.16.27-.22.66-.13.96.19.58.89,1.14,1.54.87,1.38-.56,2.62-1.31,3.72-2.32.46-.42.46-1.17.1-1.64-.39-.5-1.06-.62-1.61-.32-.93.5-1.73,1.29-2.23,2.23-.3.55-.18,1.23.32,1.61.21.16.48.28.76.27.35-.02.61-.15.88-.37-.06.05-.17.13-.04.03.06-.04.12-.09.18-.13.11-.08.21-.15.32-.23.22-.15.44-.29.67-.43.45-.28.92-.53,1.39-.76.56-.27.74-1.03.51-1.56-.25-.58-.86-.87-1.47-.72-1.05.25-1.96.95-2.51,1.87-.32.54-.16,1.24.32,1.61.53.41,1.15.3,1.64-.1l2.55-2.04c.23-.19.37-.6.37-.88,0-.31-.14-.67-.37-.88s-.55-.38-.88-.37c-.35.02-.61.15-.88.37h0Z"/>
  <path class="cls-1" d="M35.62,31.76c.86.58,1.73,1.14,2.62,1.68.44.27.89.54,1.34.8.49.28,1.01.56,1.59.57.69,0,1.29-.33,1.62-.93.27-.5.34-1.14.47-1.69.24-1.04.49-2.09.73-3.13.12-.5-.04-1-.45-1.31-.36-.28-.99-.39-1.39-.1-1.09.79-2.19,1.59-3.28,2.38l1.51,1.96c.08-.06.15-.12.23-.19.15-.13-.13.1.03-.02s.32-.24.48-.35c.31-.21.63-.41.95-.6l-1.84-1.41s-.02.09-.04.14c-.03.09-.02.06.04-.08.01.03-.13.22-.14.25.11-.17.03-.06-.06.03.14-.14.06-.05-.06.02l1.51,1.96.38-.49c.21-.27.37-.52.37-.88,0-.31-.14-.67-.37-.88-.45-.41-1.34-.55-1.77,0l-.38.49c-.39.5-.51,1.11-.1,1.64.38.49,1.06.63,1.61.32.7-.39,1.22-1.07,1.41-1.86.25-1.04-.87-1.98-1.84-1.41-.77.45-1.5.98-2.19,1.55-.48.4-.45,1.19-.1,1.64s1.11.69,1.61.32c1.09-.79,2.19-1.59,3.28-2.38l-1.84-1.41c-.21.9-.42,1.79-.63,2.69-.1.44-.21.88-.31,1.31-.03.11-.06.23-.08.34l-.03.09c.03-.11.09-.2.19-.27.12-.17.3-.25.53-.25h-.09c.43.02-.02.02-.02-.04,0,.02.24.11,0-.01-.09-.05-.17-.1-.25-.15-.2-.11-.39-.23-.59-.35-.37-.22-.75-.45-1.12-.68-.78-.48-1.54-.98-2.3-1.48-.54-.37-1.41-.12-1.71.45-.33.63-.13,1.32.45,1.71h0Z"/>
  <path class="cls-1" d="M27.5,35.22c.23.07.46.15.69.23.1.04.19.07.29.11-.28-.12.13.06.17.08.41.19.8.41,1.17.65.19.12.37.25.55.38.04.03.08.06.12.09-.12-.09-.12-.09,0,0,.08.07.16.13.24.2.37.32.71.66,1.03,1.02.65.74,1.82.29,2.09-.55.57-1.75,1.08-3.52,1.53-5.31.13-.52-.08-1.15-.57-1.41s-1.12-.22-1.51.2c-.3.32-.62.63-.95.92-.15.13-.3.27-.46.4-.08.07-.17.14-.26.21-.04.03-.09.07-.13.1.09-.07.1-.08.03-.03-.7.5-1.42.98-2.18,1.39l1.26,2.16c.78-.52,1.56-1.03,2.34-1.55.54-.36.83-1.12.45-1.71-.35-.54-1.13-.83-1.71-.45-.78.52-1.56,1.03-2.34,1.55-.54.36-.83,1.12-.45,1.71s1.09.78,1.71.45c1.65-.88,3.16-2.03,4.45-3.37l-2.09-1.22c-.44,1.79-.95,3.56-1.53,5.31l2.09-.55c-1.42-1.62-3.3-2.8-5.36-3.42-.63-.19-1.39.23-1.54.87s.2,1.33.87,1.54h0Z"/>
  <path class="cls-1" d="M20.44,39.52s.09-.02.14-.02l-.33.04c.24-.03.48-.01.72.01l-.33-.04c.94.13,1.84.41,2.78.14.46-.13.88-.36,1.23-.68.43-.41.61-.93.67-1.5.04-.38-.21-.76-.49-.98-.31-.24-.71-.34-1.09-.22-.26.08-.52.16-.78.24l1.54,1.54c.17-.62.35-1.24.52-1.86s-.16-1.24-.72-1.47-1.21-.01-1.56.51c-.09.14-.19.28-.3.42l.2-.25c-.37.47-.79.89-1.26,1.26l.25-.2c-.34.26-.7.49-1.07.69-.58.3-.8,1.16-.45,1.71.38.59,1.09.77,1.71.45l2.73-1.4c.58-.3.8-1.16.45-1.71-.38-.59-1.09-.77-1.71-.45l-2.73,1.4,1.26,2.16c1.25-.65,2.3-1.64,3.07-2.82l-2.28-.96c-.17.62-.35,1.24-.52,1.86-.25.9.62,1.82,1.54,1.54.26-.08.52-.16.78-.24l-1.58-1.21v.05c0-.11.02-.22.04-.33-.01.08-.03.15-.06.23l.13-.3c-.03.07-.07.14-.12.2l.2-.25c-.07.09-.15.16-.24.23l.25-.2c-.11.08-.22.14-.35.19l.3-.13c-.16.06-.33.11-.5.13l.33-.04c-.23.03-.45.02-.68,0l.33.04c-.36-.05-.72-.13-1.08-.19-.56-.08-1.03-.1-1.6,0-.29.05-.6.33-.75.57-.16.27-.22.66-.13.96s.29.59.57.75c.31.17.62.19.96.13h0Z"/>
  <path class="cls-1" d="M16.47,44.63l.42.65c.11.19.26.34.45.45.19.11.41.17.63.17.23,0,.44-.06.63-.17.19-.11.34-.26.45-.45.1-.23.2-.47.3-.7l-2.33-.63c.01.16,0,.32,0,.47l.04-.33c-.03.2-.08.39-.16.58l.13-.3c-.03.06-.05.12-.08.18-.09.14-.14.3-.15.46-.04.17-.03.33.02.5.04.16.11.3.22.43.09.14.21.24.35.32l.3.13c.22.06.44.06.66,0l.3-.13c.19-.11.34-.26.45-.45.1-.18.18-.38.25-.57.04-.1.07-.21.09-.32.06-.31.11-.64.08-.97l-.04-.33c-.04-.16-.11-.3-.22-.43-.06-.09-.13-.17-.22-.22-.12-.11-.26-.19-.43-.22l-.33-.04-.33.04c-.16.04-.3.11-.43.22-.14.09-.24.21-.32.35-.1.23-.2.47-.3.7h2.16l-.42-.65c-.08-.15-.19-.26-.32-.35-.12-.11-.26-.19-.43-.22-.17-.05-.33-.06-.5-.02-.17,0-.32.06-.46.15l-.25.2c-.15.16-.26.34-.32.55l-.04.33c0,.23.06.44.17.63h0Z"/>
  <path class="cls-1" d="M26.15,34.86c.82.59,1.64,1.19,2.47,1.78.77.56,1.56,1.11,2.41,1.52.57.28,1.21.19,1.61-.32.38-.49.34-1.2-.1-1.64-1.47-1.49-3.4-2.35-5.46-2.58-.52-.06-1.09.43-1.21.92-.13.56.09,1.1.57,1.41,1.22.8,2.48,1.52,3.79,2.18.58.29,1.38.17,1.71-.45.3-.57.18-1.4-.45-1.71-1.3-.65-2.57-1.38-3.79-2.18l-.63,2.33c.14.02.1.01-.1-.02.05,0,.1.02.16.02.1.02.21.04.31.06.21.04.41.09.61.15s.4.13.6.2c.05.02.1.04.15.06-.18-.08-.2-.09-.08-.03.08.04.17.08.25.12.36.18.72.39,1.05.62.04.03.09.06.13.09.11.08.08.06-.07-.05.01.05.2.16.24.2.16.14.31.28.46.43l1.51-1.96c-.86-.42-1.64-.97-2.41-1.52-.82-.59-1.64-1.19-2.47-1.78-.53-.38-1.42-.11-1.71.45-.34.65-.12,1.3.45,1.71h0Z"/>
  <path class="cls-1" d="M18.32,36.97c-1.46.03-2.31,1.06-2.82,2.35-.67,1.69-1.13,3.5-1.68,5.23-.49,1.54,1.92,2.19,2.41.66.68-2.08,1.36-4.17,2.03-6.25.44-1.37-1.57-2.17-2.28-.96-2.26,3.83-3.4,7.94-3.87,12.33-.54,4.92-.98,9.85-1.47,14.78-.16,1.6,2.34,1.59,2.5,0,.46-4.61.91-9.22,1.38-13.83.44-4.29,1.42-8.27,3.63-12.01l-2.28-.96c-.68,2.08-1.36,4.17-2.03,6.25l2.41.66c.34-1.09.69-2.17,1.03-3.26.12-.38.51-2.48,1.06-2.49,1.61-.04,1.61-2.54,0-2.5h0Z"/>
  <path class="cls-1" d="M39.66,64.54l.93-.56c1.16-.7.4-2.81-.96-2.28-1.79.7-2.57,2.23-3.05,4.01-.66,2.48-1.19,5-1.78,7.49-1.21,5.1-2.42,10.19-3.63,15.29l2.46.33c.96-8.46,3.25-16.75,6.77-24.5.34-.75.08-1.58-.75-1.84-2.63-.83-3.89,1.78-4.49,3.84-.82,2.81-1.35,5.69-1.79,8.57-.88,5.7-1.44,11.47-3.19,17-.49,1.54,1.93,2.2,2.41.66,1.47-4.64,2.11-9.45,2.78-14.25.22-1.54,1.82-13.97,3.61-13.41l-.75-1.84c-3.71,8.19-6.09,16.84-7.11,25.77-.16,1.41,2.13,1.69,2.46.33,1.06-4.46,2.12-8.92,3.18-13.38.53-2.23,1.06-4.46,1.59-6.69.3-1.25.51-4.42,1.95-4.98l-.96-2.28-.93.56c-1.38.83-.12,2.99,1.26,2.16h0Z"/>
  <path class="cls-1" d="M97.55,103.04c1.2.35,2.61.71,3.46,1.71.43.5.64,1.16.96,1.73.36.65.84,1.18,1.43,1.63.49.38,1.04.68,1.5,1.08.55.48.68,1.12.92,1.78.5,1.4,1.45,2.61,3.05,2.66.99.03,1.5-1.07,1.08-1.88-2.03-3.93-3.64-8.04-4.84-12.29l-2.41.66c1.65,4.03,3.3,8.05,4.96,12.08l1.84-1.41c-1.13-.86-1.52-2.46-2.62-3.4-.67-.58-1.44-.83-2.3-1.01-.44-.09-.82-.14-1.15-.47-.29-.3-.51-.67-.79-.98-2.3-2.65-6.11-3.07-9.39-3.32-.68-.05-1.24.61-1.25,1.25,0,.74.58,1.17,1.25,1.25,1.41.17,2.73.83,3.76,1.79,1.14,1.06,2.11,2.2,3.51,2.94.65.34,1.33.62,1.95,1.01.55.35,1,.82,1.44,1.28.98,1.02,1.93,1.96,3.3,2.43,1,.35,2.02-.95,1.41-1.84-.99-1.44-2.17-2.68-3.59-3.72s-3.14-1.52-4.53-2.56-2.24-2.45-3.64-3.41c-1.25-.86-2.93-1.39-3.88-2.63l-1.96,1.51c1.25,1.45,3.02,2.09,4.68,2.91s2.74,2.05,3.99,3.38c.6.64,1.24,1.24,1.97,1.73.83.55,1.9.69,2.69,1.28.61.46,1.02,1.18,1.51,1.76.57.68,1.22,1.15,2.04,1.49.63.26,1.37-.28,1.54-.87.21-.71-.25-1.28-.87-1.54s-1.04-.97-1.42-1.45c-.5-.63-1.02-1.24-1.71-1.66-.8-.48-1.73-.64-2.51-1.16-.68-.46-1.25-1.09-1.8-1.7-1.18-1.29-2.35-2.48-3.93-3.29s-3.26-1.29-4.41-2.63c-.91-1.06-2.83.38-1.96,1.51,1.03,1.34,2.38,2.1,3.81,2.93s2.45,2.14,3.71,3.29,2.93,1.71,4.41,2.6,2.72,2.08,3.69,3.49l1.41-1.84c-1.21-.42-1.99-1.65-2.89-2.49-1.17-1.09-2.61-1.54-3.92-2.4s-2.15-2.15-3.39-3.03c-1.32-.94-2.84-1.43-4.43-1.62v2.5c1.58.12,3.16.28,4.67.76.7.22,1.36.52,1.96.93.67.46,1.1,1.08,1.61,1.69.57.67,1.31,1.06,2.16,1.25.7.16,1.32.22,1.82.78,1.01,1.13,1.5,2.49,2.75,3.44.84.63,2.24-.43,1.84-1.41-1.65-4.03-3.3-8.05-4.96-12.08-.59-1.44-2.86-.93-2.41.66,1.26,4.46,2.97,8.77,5.09,12.89l1.08-1.88c-.47-.01-.66-.9-.77-1.24-.25-.74-.51-1.45-1.02-2.05-.78-.92-2.06-1.32-2.75-2.3-.37-.53-.56-1.16-.9-1.7-.38-.62-.86-1.13-1.44-1.56-1.11-.83-2.45-1.26-3.77-1.65-1.55-.45-2.21,1.96-.66,2.41h0Z"/>
  <path class="cls-1" d="M83.84,31.1l-.04.05,1.08-.62h-.04c.29.12.59.25.88.37l.26.65-.17.63.03-.06-.45.45.07-.03-.63.17h.11c-.21-.05-.42-.11-.63-.17-.16-.08-.3-.52-.16-.13.07.18.13.36.2.54.11.3.22.6.34.89.26.68.54,1.36.82,2.04.57,1.36,1.17,2.71,1.82,4.04.27.55,1.03.74,1.56.51.58-.25.87-.85.72-1.47-.79-3.36-1.92-6.62-3.33-9.77-.25-.56-1.05-.74-1.56-.51s-.93.87-.72,1.47c1.08,3.19,2.17,6.39,3.25,9.58.22.64.86,1.06,1.54.87.64-.18,1.07-.89.87-1.54-.52-1.75-1.05-3.5-1.57-5.25-.26-.88-.52-1.75-.79-2.63s-.59-1.63-1.37-2.18c-.45-.32-1.15-.17-1.51.2-.42.42-.43,1-.2,1.51,1.36,3,2.25,6.2,2.72,9.45.1.67.95,1.04,1.54.87.72-.2.97-.87.87-1.54-.5-3.48-1.52-6.84-2.97-10.05l-1.71,1.71c-.11-.08.01.05.03.1,0,0,.09.25.12.34.11.37.22.74.33,1.1l.7,2.35c.47,1.56.94,3.13,1.41,4.69l2.41-.66c-1.08-3.19-2.17-6.39-3.25-9.58l-2.28.96c1.32,2.95,2.33,6.03,3.08,9.17l2.28-.96c-1.03-2.14-1.97-4.33-2.79-6.56-.2-.53-.35-1.08-.77-1.49-.6-.57-1.61-.55-2.13.11-.44.56-.37,1.4.13,1.9.66.67,1.59.42,2.09-.27.39-.55.1-1.39-.45-1.71-.63-.37-1.32-.1-1.71.45h0Z"/>
  <path class="cls-1" d="M65.73,25.29c1.37.94,3.14,1.08,4.71,1.5,1.66.45,3.3.99,4.86,1.73s3.11,1.67,4.75,2.36,3.47,1.25,5.24,1.76c2.32.68,3.31-2.94,1-3.62-1.64-.48-3.31-.95-4.89-1.62s-2.98-1.57-4.51-2.27-3.14-1.31-4.78-1.78c-.77-.22-1.54-.42-2.32-.59s-1.5-.27-2.15-.71c-2-1.36-3.88,1.88-1.89,3.24h0Z"/>
  <path class="cls-1" d="M86.03,32.4l.06-.07-.83.48.08-.02h-1c-.15-.02-.73-.45-.7-.55-.01.04.11.22.14.26.1.2.19.4.28.61.12.25-.11-.29-.01-.04.04.09.07.18.11.28.08.21.16.42.24.63.29.8.54,1.61.82,2.41.57,1.68,1.22,3.39,2.31,4.81.58.75,1.41,1.16,2.34.77.84-.35,1.36-1.31,1.09-2.21-.91-3.03-1.82-6.07-2.73-9.1-.28-.94-1.33-1.63-2.31-1.31s-1.61,1.3-1.31,2.31c.91,3.03,1.82,6.07,2.73,9.1l3.43-1.44c-.3-.39-.57-.8-.81-1.23-.12-.21-.23-.43-.34-.65-.05-.11-.1-.22-.15-.33-.08-.19-.13-.25-.02-.03-.43-.88-.69-1.88-1-2.81-.34-1.03-.71-2.05-1.15-3.04-.26-.59-.52-1.17-1.04-1.58-.82-.63-2.15-.79-2.88.11-.62.76-.8,1.92,0,2.65.68.63,1.99.81,2.65,0h0Z"/>
  <path class="cls-1" d="M50.45,80.67c.71-1.21,3.85.13,4.8.38,2.24.59,4.5,1.13,6.71,1.82,2.06.65,3.93,1.55,5.8,2.63,1.74,1,3.51,1.96,5.5,2.32,1.16.21,2.18-1.16,1.22-2.09-1.76-1.7-2.83-3.79-3.24-6.19-.27-1.58-2.68-.91-2.41.66.48,2.8,1.84,5.33,3.88,7.3l1.22-2.09c-2.33-.42-4.24-1.73-6.28-2.85-2.24-1.23-4.66-2.03-7.12-2.7s-4.94-1.46-7.44-1.94c-1.78-.34-3.78-.23-4.79,1.5-.81,1.39,1.35,2.65,2.16,1.26h0Z"/>
  <path class="cls-1" d="M61.19,19.22c1.54,1.18,3.36,2.01,5.25,2.43.64.14,1.38-.19,1.54-.87.14-.63-.19-1.39-.87-1.54-.44-.1-.88-.22-1.31-.36-.21-.07-.43-.15-.64-.23-.05-.02-.1-.04-.16-.06.17.07.19.08.06.03-.1-.05-.21-.09-.31-.14-.82-.38-1.59-.86-2.31-1.41-.24-.18-.69-.2-.96-.13-.29.08-.6.3-.75.57-.15.29-.23.64-.13.96s.3.54.57.75h0Z"/>
  <path class="cls-1" d="M66.56,13.08c.1.08.2.17.32.24s.25.12.37.16c.03.01.06.02.09.03.13.03.28.05.41.06.17.02.34-.02.51-.05.06-.01.12-.03.18-.05.15-.06.32-.12.45-.21s.27-.19.38-.32c.08-.1.17-.2.24-.32,0-.01.02-.03.02-.04.05-.11.1-.22.14-.33.01-.03.02-.06.03-.09.02-.12.04-.24.05-.36,0-.02,0-.04,0-.06,0-.09-.02-.18-.03-.26-.01-.09-.02-.18-.04-.26-.04-.13-.1-.26-.16-.38-.02-.03-.03-.07-.05-.1-.07-.11-.16-.22-.25-.32-.02-.03-.05-.05-.08-.08-.1-.09-.21-.17-.32-.25-.03-.02-.06-.04-.09-.06-.12-.06-.25-.12-.38-.16-.08-.03-.18-.03-.26-.05-.08-.01-.17-.03-.26-.03-.02,0-.03,0-.05,0-.12.01-.25.03-.38.05-.03,0-.06.02-.09.03-.11.04-.23.09-.33.14-.02,0-.03.01-.05.02-.12.07-.22.16-.32.24-.03.02-.05.04-.08.07-.1.1-.18.22-.26.33-.02.03-.04.06-.06.09-.07.12-.12.26-.17.39-.01.03-.02.07-.03.11,0,.02,0,.04,0,.06-.02.12-.04.25-.05.38,0,.04,0,.07,0,.11.01.12.03.25.05.37,0,.02,0,.04.01.06.04.14.1.27.16.39.08.15.19.26.32.35.12.11.26.19.43.22.17.05.33.06.5.02.17,0,.32-.06.46-.15l.25-.2c.15-.16.26-.34.32-.55l.04-.33c0-.23-.06-.44-.17-.63,0-.01-.01-.03-.02-.04l.13.3s-.03-.09-.04-.14l.04.33c0-.05,0-.11,0-.16l-.04.33c0-.06.03-.12.05-.18l-.13.3c.03-.06.06-.11.1-.17l-.2.25c.04-.05.08-.1.13-.13l-.25.2s.08-.05.13-.07l-.3.13s.09-.03.14-.04l-.33.04c.05,0,.1,0,.15,0l-.33-.04c.05,0,.1.02.15.04l-.3-.13c.05.02.1.05.15.09l-.25-.2s.09.08.13.13l-.2-.25c.04.05.07.1.1.16l-.13-.3c.02.05.04.11.05.16l-.04-.33c0,.05,0,.1,0,.15l.04-.33c0,.05-.02.1-.04.14l.13-.3s-.04.08-.07.12l.2-.25s-.07.08-.12.12l.25-.2s-.1.07-.16.09l.3-.13c-.06.03-.12.04-.19.05l.33-.04c-.06,0-.12,0-.18,0l.33.04c-.06,0-.11-.02-.16-.04l.3.13s-.08-.04-.12-.07l.25.2h-.01c-.11-.13-.25-.22-.4-.27-.15-.08-.31-.11-.48-.11-.17,0-.33.03-.48.11-.15.05-.29.14-.4.26l-.2.25c-.11.19-.17.41-.17.63l.04.33c.06.21.17.4.32.55h0Z"/>
  <path class="cls-1" d="M88.54,96.68l-.89-1.4-1.96,1.51c6.96,7.47,14.89,13.99,23.54,19.4,1.16.73,2.17-.66,1.71-1.71-.55-1.27-1.11-2.55-1.66-3.82l-2.16,1.26c.55.9,1.1,1.8,1.65,2.7.86,1.4,2.8.18,2.16-1.26-1.13-2.53-2.25-5.05-3.38-7.58-.65-1.47-2.81-.2-2.16,1.26,1.13,2.53,2.25,5.05,3.38,7.58l2.16-1.26c-.55-.9-1.1-1.8-1.65-2.7-.86-1.41-2.79-.18-2.16,1.26.55,1.27,1.11,2.55,1.66,3.82l1.71-1.71c-8.48-5.3-16.22-11.69-23.04-19.01-.96-1.03-2.73.31-1.96,1.51l.89,1.4c.86,1.35,3.02.1,2.16-1.26h0Z"/>
  <path class="cls-1" d="M64.95,82.01c1.02-.06,1.62-.85,1.66-1.82.03-.76-.2-1.6-.32-2.36-.23-1.58-.47-3.16-.7-4.73-.12-.79-1.22-1.14-1.84-.75-1.05.67-1.92,1.55-2.6,2.6l2.28.96c-.05.17-.15.3-.31.4-.16.06-.18.06-.04.02-.09.03-.19.03-.28,0l.09.02c-.14-.06-.14-.05,0,.03-.1-.07-.1-.06.01.04.14.24-.03-.09.1.13.35.58.73,1.14,1.07,1.73.69,1.19,1.17,2.22,1.39,3.59.1.61.82.97,1.37.9.58-.08,1.12-.6,1.08-1.23-.14-2.76-.85-5.43-2.08-7.9-.27-.55-1.03-.75-1.56-.51-.57.25-.89.86-.72,1.47.38,1.44.76,2.89,1.14,4.33.17.65.89,1.05,1.54.87s1.04-.88.87-1.54c-.38-1.44-.76-2.89-1.14-4.33l-2.28.96c.51,1.03.9,2.07,1.21,3.24s.47,2.19.53,3.4l2.46-.33c-.3-1.88-1.25-3.58-2.24-5.17-.51-.82-1.04-1.78-2.03-2.08-1.09-.32-2.22.2-2.58,1.29-.19.58.18,1.25.72,1.47.59.24,1.22.03,1.56-.51.26-.41.39-.57.76-.94s.53-.5.94-.76l-1.84-.75c.18,1.21.36,2.42.54,3.63.09.58.17,1.16.26,1.74.05.31.11.63.14.95-.02-.19,0,.06,0,.12l.02-.14c-.14.42.14.24.82-.54-.65.04-1.28.55-1.25,1.25.03.64.55,1.29,1.25,1.25h0Z"/>
  <path class="cls-1" d="M52.08,78.39c.35-.61.71-1.25,1.15-1.8-.08.11.19-.22.23-.26.09-.1.18-.19.27-.28.26-.25.31-.29.63-.49,1.06-.66,2.33-1.2,2.86-2.43l-2.28-.3c.64,1.73,1.27,3.46,1.91,5.18.23.61.86,1.09,1.54.87s1.03-.85.87-1.54c-.29-1.25-.57-2.5-.86-3.75l-2.41.66c.38,1.24.67,2.51.85,3.8l2.09-1.22c-.1-.09-.2-.19-.29-.29.13.17.03.02-.03-.08-.06-.1-.12-.26-.04-.06-.05-.13-.09-.25-.12-.38-.05-.2-.09-.41-.12-.61.05.31-.01-.15-.02-.2-.01-.11-.02-.22-.03-.33-.1-1.12-.21-2.24-.78-3.23-.26-.46-.89-.74-1.41-.57-1.38.45-2.5,1.32-3.58,2.27-1.15,1-2.29,2.02-3.43,3.03-.51.45-.46,1.31,0,1.77.5.5,1.26.45,1.77,0,1.08-.95,2.15-1.9,3.23-2.85.85-.75,1.7-1.49,2.68-1.8l-1.41-.57c.03.05.2.45.1.17.04.1.07.2.1.3.07.24.12.49.16.74-.05-.3.02.16.02.21.01.11.02.22.03.33.02.25.05.51.07.76.14,1.18.41,2.36,1.33,3.18.42.37,1.02.49,1.51.2s.65-.85.57-1.41c-.18-1.29-.47-2.56-.85-3.8-.19-.62-.88-1.09-1.54-.87s-1.03.85-.87,1.54c.29,1.25.57,2.5.86,3.75l2.41-.66c-.64-1.73-1.27-3.46-1.91-5.18-.18-.48-.52-.83-1.04-.9-.44-.06-1.05.15-1.25.6-.06.13-.12.25-.2.38.14-.23-.09.09-.15.15-.05.05-.11.1-.16.14.11-.08.11-.08,0,0-.12.08-.25.16-.37.24-.49.3-1,.55-1.46.89-1.23.9-2.04,2.17-2.79,3.48-.33.57-.15,1.39.45,1.71s1.36.16,1.71-.45h0Z"/>
  <path class="cls-1" d="M46.78,39.32c-.13.19.27-.26.09-.11.1-.08.22-.15.34-.2-.18.07.16-.03.19-.04-.24.05.21,0,.17,0,.33.03.66.17.97.26.4.12.8.23,1.2.35,1.54.44,3.08.89,4.61,1.33,1.18.34,2.13-1.23,1.22-2.09-1.43-1.33-3.15-2.3-5.04-2.79-1.08-.28-1.93.88-1.41,1.84.45.84,1.12,1.54,1.93,2.05.39.25.83.44,1.27.58.2.06.4.1.6.15.07.01.14.03.21.05.1.04.09.02-.03-.04-.16-.18-.71-.79-.08-1,.09-.03-.11.09-.12.09-.12.09-.24.18-.35.27-.21.16-.42.33-.64.49-.42.33-.85.65-1.27.98-.9.69-1.79,1.38-2.69,2.07-.53.41-.82,1.07-.45,1.71.31.53,1.17.86,1.71.45,1.01-.78,2.03-1.56,3.04-2.34.5-.38.99-.76,1.49-1.14.56-.43,1.28-.82,1.51-1.53s0-1.43-.53-1.91c-.49-.45-1.07-.51-1.67-.69-.73-.22-1.37-.76-1.76-1.5l-1.41,1.84c1.48.38,2.82,1.1,3.93,2.14l1.22-2.09c-1.82-.53-3.64-1.05-5.47-1.58-.93-.27-1.84-.57-2.82-.35-.89.2-1.6.76-2.11,1.5-.38.56-.1,1.39.45,1.71.62.36,1.32.11,1.71-.45h0Z"/>
  <path class="cls-1" d="M60.94,2.83c-1.57-.95-3.41-.58-4.91.33-1.79,1.09-3.31,2.55-5.54,1.58-1.66-.72-2.37-2.62-3.95-3.48-1.79-.96-3.81-.44-5.46.55-1.74,1.05-3.19,2.92-5.23,3.4-1.91.44-2.6-1.28-3.49-2.59-.83-1.21-1.89-2.28-3.45-2.31-1.31-.03-2.36.73-3.14,1.72-.84,1.06-1.41,2.64-2.55,3.43-.84.58-1.78.14-2.34-.63-.74-1.01-.73-2.44-.76-3.63-.03-1.61-2.53-1.61-2.5,0,.04,2.01.26,4.22,1.77,5.72,1.27,1.26,3.2,1.75,4.82.86,1.24-.68,2.01-1.94,2.74-3.1.48-.76,1.3-2.35,2.42-1.72,1.21.68,1.72,2.58,2.71,3.54,1.43,1.39,3.38,1.57,5.18.86,2.08-.82,3.5-2.56,5.44-3.6.91-.49,1.96-.8,2.88-.17.81.55,1.33,1.47,2.02,2.14,1.55,1.51,3.77,2.12,5.89,1.66,1.13-.25,2.08-.89,3.01-1.54s2.09-1.54,3.19-.88c1.38.84,2.64-1.32,1.26-2.16h0Z"/>
  <path class="cls-1" d="M14.52,9.12c1.44,2.72,3.99,4.91,7.13,5.3,1.51.18,3.04-.07,4.41-.73.62-.3,1.19-.7,1.69-1.17.28-.26.51-.67.82-.89.39-.27.17-.27.58.15,2.02,2.08,5.02,3.28,7.92,2.89,1.46-.2,2.76-.81,3.86-1.79,1.25-1.11,2.15-2.48,3.85-1.16,1.43,1.11,2.4,2.78,4.29,3.22,1.49.34,3.18-.21,3.88-1.63s-1.45-2.71-2.16-1.26c-.9,1.82-3.41-1.37-4.05-1.94-1.3-1.15-2.97-1.91-4.68-1.26-1.53.58-2.33,2.12-3.74,2.87s-3.25.65-4.77.06c-.83-.32-1.61-.8-2.26-1.39-.59-.54-1.07-1.24-1.88-1.47-1.8-.49-2.63,1.33-3.85,2.19-3.32,2.34-7.23-.15-8.87-3.24-.75-1.42-2.91-.16-2.16,1.26h0Z"/>
  <path class="cls-1" d="M12.93,15.59c2.83,2.46,6.06,4.57,9.86,5.06,1.87.24,3.81.09,5.57-.61,1.5-.59,3.1-2.18,4.79-1.97,1.37.17,2.56,1.27,3.67,2,1.29.85,2.7,1.55,4.28,1.52s2.89-.62,4.24-1.22,2.92-1.45,4.5-.98,2.21-1.96.66-2.41c-3.11-.91-5.54,1.25-8.41,1.97s-5.05-2.31-7.69-3.14c-1.5-.47-2.97-.17-4.34.53-1.72.87-3.13,1.81-5.13,1.92-3.92.21-7.38-1.95-10.23-4.43-1.21-1.05-2.98.71-1.77,1.77h0Z"/>
  <path class="cls-1" d="M49.71,19.9c-5.06,3.22-10.18,6.47-15.98,8.19l.96,2.28c5.33-2.79,10.67-5.59,16-8.38l-1.26-2.16c-7.69,4.28-15.62,8.12-23.76,11.47l.66,2.41c8.46-3.48,16.56-7.71,24.64-11.99,1.43-.76.17-2.86-1.26-2.16-9.02,4.41-18.04,8.82-27.06,13.24l1.26,2.16c9-4.43,18-8.85,27-13.28,1.29-.64.38-2.65-.96-2.28-9.9,2.67-17.73,9.79-27.35,13.12l.96,2.28c5-2.6,10.15-4.9,15.44-6.87,1.49-.56.85-2.97-.66-2.41-5.49,2.05-10.84,4.42-16.04,7.12-1.24.65-.39,2.75.96,2.28,9.61-3.33,17.47-10.46,27.35-13.12l-.96-2.28c-9,4.43-18,8.85-27,13.28-1.44.71-.18,2.86,1.26,2.16,9.02-4.41,18.04-8.82,27.06-13.24l-1.26-2.16c-7.88,4.17-15.79,8.34-24.04,11.74-1.47.6-.82,3.02.66,2.41,8.34-3.43,16.48-7.33,24.36-11.72,1.41-.79.16-2.9-1.26-2.16-5.33,2.79-10.67,5.59-16,8.38-1.26.66-.39,2.69.96,2.28,6.01-1.79,11.33-5.1,16.57-8.44,1.35-.86.1-3.03-1.26-2.16h0Z"/>
</svg>