<?xml version="1.0" encoding="UTF-8"?>
<svg id="Layer_1" data-name="Layer 1" xmlns="http://www.w3.org/2000/svg" viewBox="0 0 200 200">
  <defs>
    <style>
      .cls-1 {
        fill: #231f20;
      }

      .cls-2 {
        fill: #513986;
      }
    </style>
  </defs>
  <rect class="cls-2" width="200" height="200"/>
  <g>
    <path class="cls-1" d="M105.9,99.86c-.64-.27-.54.21-.66.24,1.09.31.67-.36.66-.24Z"/>
    <polygon class="cls-1" points="116.14 105.28 115.87 105.25 117.38 106.24 116.14 105.28"/>
    <path class="cls-1" d="M121.96,114.58c.08-.3.03-.69-.1-1.13-.15-.44-.4-.91-.67-1.41-.27-.49-.63-.98-.91-1.47-.31-.48-.62-.94-.83-1.4-.01-.12-.02-.25-.04-.37l-.99-.39c.19.23.38.47.58.72.18.26.37.52.56.78.4.52.74,1.09,1.08,1.63.66,1.1,1.15,2.21,1.32,3.04Z"/>
    <path class="cls-1" d="M121.54,120.33c.13-.17.2.11.21.14,0-.01,0-.04-.04-.23-.03-.2-.08-.54-.19-1.14-.02.12-.03.16-.04.23.02.21.05.51.06.99Z"/>
    <path class="cls-1" d="M121.49,119.33c-.14-1.04-.16.7,0,0h0Z"/>
    <path class="cls-1" d="M121.32,123.81c.03-.41.05-.81.03-1.23-.18.25-.48,1.21-.5.81-.21,1.11-.02.98.47.42Z"/>
    <path class="cls-1" d="M121.39,125.07c.05-.21.12-.41.16-.63-.1.08-.18.22-.16.63Z"/>
    <path class="cls-1" d="M121.71,123.07c-.02.47-.08.92-.17,1.37.17-.12.4-.08.13-.61.16.17.07-.15.04-.76Z"/>
    <path class="cls-1" d="M121.95,122.3c.24-.7.36-1.73.54-.32.05-1.33-.19-1.92-.29-1.81-.13.1-.15.88-.24,2.13Z"/>
    <path class="cls-1" d="M122.85,114.88c-.05-.4-.13-.79-.2-1.19-.19-.3-.37-.59-.6-.87.33.42.61,2.19.79,2.05Z"/>
    <path class="cls-1" d="M115.87,128.71c-.02.18.59.18.76.31.29-.2.55-.41.81-.63-.48.17-1.41.51-1.57.32Z"/>
    <path class="cls-1" d="M116.63,129.02c-.42.3-.87.59-1.33.86,1.34-.49,1.48-.76,1.33-.86Z"/>
    <path class="cls-1" d="M121.99,125.63c.23-.81.31-1.64.29-2.47-.02.98-.16,1.96-.53,2.89.09-.13.17-.27.23-.42Z"/>
    <path class="cls-1" d="M110.11,130.25c.29-.16.58-.31.85-.48l-1.54.76.69-.28Z"/>
    <path class="cls-1" d="M106,130.64c.67-.31-.94-.47-.22-.67-1.1.04-2.06.28-2.94.41.93-.03,1.89.03,3.16.26Z"/>
    <path class="cls-1" d="M101.36,130.55c.47,0,.96-.09,1.49-.18-.49.02-.98.1-1.49.18Z"/>
    <path class="cls-1" d="M112.64,130.61c-.15-.07-.43-.23-1.34-.16.23.1.47.21.71.3.19-.04.41-.09.63-.13Z"/>
    <path class="cls-1" d="M112.04,130.75h-.02c-.69.13-1.17.19-1.38.21.18-.02.61-.07,1.41-.21Z"/>
    <path class="cls-1" d="M112.8,130.57c-.06.01-.1.02-.16.04.07.03.11.03.16-.04Z"/>
    <path class="cls-1" d="M119.11,128.33c-.54.74-2.23,1.96-.34,1.28.41-.62-.58-.18.34-1.28Z"/>
    <path class="cls-1" d="M113.71,130.88c.57-.13,1.14-.28,1.7-.45-.07-.09-.42-.14-.02-.42-.53.32-1.1.6-1.68.87Z"/>
    <path class="cls-1" d="M112.91,131.24l.8-.35c-.21.05-.43.09-.64.13l-.16.22Z"/>
    <path class="cls-1" d="M104.33,131.2c-.77.19-1.62.09-2.57.05,1.01.17,2.06.32,3.07.32.15-.13.59-.36-.5-.38Z"/>
    <path class="cls-1" d="M108.1,131.24c-.05.01-.12.03-.17.04.11.03.19.03.17-.04Z"/>
    <path class="cls-1" d="M92.7,128.93s.07.08.11.13l.06-.06c-.06-.02-.12-.04-.17-.07Z"/>
    <path class="cls-1" d="M105,131.66c.77.12,1.23-.04,1.67-.17-.57.05-1.18.12-1.84.08-.07.06-.08.1.17.08Z"/>
    <path class="cls-1" d="M98.78,130.33c.37.16.8.33,1.25.48-.36-.2-1.09-.57-1.25-.48Z"/>
    <path class="cls-1" d="M107.67,131.19s.07-.02.11-.03c-.25-.07-.22-.03-.11.03Z"/>
    <path class="cls-1" d="M107.67,131.19c-.39.1-.69.2-1,.3.47-.04.9-.11,1.26-.21-.1-.02-.19-.06-.26-.1Z"/>
    <path class="cls-1" d="M88.88,130.18c.32-.27,2.37.37,3.97,1.38,1.82.37,1.08-1.3-.03-2.5-.12.14-.17.29-1.91-.22.24.22,1.1.76,1.73,1.16.63.39,1.02.71.23.61-1.18-.32-1.61-.61-1.89-.81-.28-.22-.39-.41-.87-.77.34.45-.43.26-1.27.06-.84-.21-1.74-.49-1.69-.04.67.31,1.35.6,2.05.84-.01.12-.81-.08-.31.29Z"/>
    <path class="cls-1" d="M95.98,130.2c.23.06.48.1.71.15-.79-.27-1.3-.62-2.23-1.24-1.18-.24-1.47-.19-1.6-.1l1.66.65,1.7.56-.25-.02Z"/>
    <path class="cls-1" d="M99.89,131.05c-.62.31-2.42.15-1.44.82,2.16.41,1.58-.09,2.89-.07-3.48-.38,1.02-.1-1.43-.69.68.02,1.29.08,1.86.15-.61-.14-1.19-.29-1.73-.44.03.01.05.03.07.04h.02s0,0,0,0c.14.07.18.11.02.06-.01,0-.05,0-.07,0-.03.06-.1.1-.18.14-.96-.29-.14-.13.18-.14.01-.02.04-.04.05-.06h-.01c-1.14-.13-2.28-.28-3.41-.51.35.12.74.23,1.25.36.51.11,1.14.21,1.94.35Z"/>
    <path class="cls-1" d="M117.57,131.33c-.12.02-.13-.01-.15-.04-.19.14-.26.22.15.04Z"/>
    <path class="cls-1" d="M116.09,131.67c.23-.15.36-.38,1.15-.69.71-.21.09.19.18.3.43-.33,1.45-1.08-.06-.55l-.2.16c-1.37.48-3.27.47-3.04.34.5.25.93.42,1.97.43Z"/>
    <path class="cls-1" d="M107.77,132.51c-.98.12-1.97.24-2.96.27.5.15,1.01.27,1.52.37l-.08-.22c1.71.05,1.32-.24,1.52-.42Z"/>
    <polygon class="cls-1" points="92.49 128.6 93.01 128.34 91.25 128.26 92.49 128.6"/>
    <polygon class="cls-1" points="89.16 127.03 89.47 126.75 88.52 126.47 89.16 127.03"/>
    <path class="cls-1" d="M103,158.43l-.94-.02c.44.03.73.03.94.02Z"/>
    <path class="cls-1" d="M109.75,158.97l.17-.19c-.32.09-.45.17-.17.19Z"/>
    <path class="cls-1" d="M122.42,80.34c1.11.73,2.25,1.68,2.24,1.23l-.23-.54c-.87-.19-1.5-.43-2.02-.69Z"/>
    <path class="cls-1" d="M151.3,129.55c.08-.11.16-.22.25-.33-.05-.35-.11-.68-.15-.97-.03.39-.04.84-.09,1.3Z"/>
    <path class="cls-1" d="M152.71,131.01c-.27.54-.57,1.07-.87,1.59.23-.34.54-.85.87-1.59Z"/>
    <path class="cls-1" d="M68.72,145.83c-.39-.07-.77-.16-1.16-.25,1.42.96.92.35,1.16.25Z"/>
    <path class="cls-1" d="M76.49,95.16c.24-.46.51-.85.71-1.22.21-.37.38-.71.57-1.02-.77.99-1.52,1.79-1.28,2.24Z"/>
    <path class="cls-1" d="M106.05,154.12c-.54.03-.77.1-.77.2.56-.02.87-.08.77-.2Z"/>
    <path class="cls-1" d="M79.25,90.35c-.13.13-.24.27-.37.41-.17.34-.34.68-.53,1.03-.17.36-.35.73-.58,1.13.3-.36.58-.76.84-1.18.28-.42.5-.87.64-1.39Z"/>
    <path class="cls-1" d="M91.74,42.43c.1,0,.22-.02.31-.01.02-.06-.12-.04-.31.01Z"/>
    <path class="cls-1" d="M128.37,50.06c-.34-.11-.88-.33-1.39-.54.24.13.65.3,1.39.54Z"/>
    <path class="cls-1" d="M78.93,116.79c.41.65.1.08,0,0h0Z"/>
    <path class="cls-1" d="M79.68,120.93c-.14-.11-.27-.17-.37-.13.12-.01.25.04.37.13Z"/>
    <path class="cls-1" d="M82.59,82.57s.03-.03.06-.05c-.25.1-.2.08-.06.05Z"/>
    <path class="cls-1" d="M79.36,117.88c-.13-.26-.24-.59-.4-.91.06.15.15.44.4.91Z"/>
    <path class="cls-1" d="M79.44,117.64c.14.23.24.41.34.58.11.04.1-.06-.34-.58Z"/>
    <path class="cls-1" d="M78.38,115.87c.2.39.41.74.58,1.1-.05-.15-.06-.21-.03-.18-.11-.19-.31-.45-.55-.92Z"/>
    <path class="cls-1" d="M45.76,91.81c.02-.05.05-.12.07-.18-.02-.89-.06-.51-.07.18Z"/>
    <path class="cls-1" d="M143.81,86.54s-.06-.03-.09-.05c.03.03.06.07.09.1v-.05Z"/>
    <path class="cls-1" d="M146.37,88.5c-1.38-.56-1.84-1.18-2.57-1.92,0,.54-.01,1.07-.06,1.62.85.08,1.73.17,2.62.29Z"/>
    <path class="cls-1" d="M87.31,154.74c.65.37,1.29.75,1.96,1.08-2.74-.23-4.5-1.15-2.71.09.19-.29.8-.26,1.61-.08.82.17,1.85.47,2.88.78,2.08.57,4.18,1.07,4.49.43l1.35.6c-.4-.11-.49-.04-.89-.15,1.31.64,1.88.51,2.56.32.68-.2,1.44-.37,3.22-.03,1.23.28,2.09.59,1.21.63.95.04,1.9-.02,2.85-.04.82.1.6.32-.22.22,1.44.12,2.88.11,4.32.14l-.03.04c.62-.19,2.01-.56,2.68-.7,1.1.18-.54.15-.26.32.79-.1,1.58-.27,2.36-.43.49.14.26.33-.32.49-.57.17-1.48.29-2.31.25,1.13.68,1.65.56,2.46.34.82-.2,1.94-.48,4.41-.41l-2.26.45c.77.3,1.61.32,2.58.29.97-.04,2.07-.22,3.42-.21-.34-.07-1.69-.13-2.63-.28-.94-.16-1.45-.43-.18-.79.74-.04,1.72-.14,3.04-.7.11.46,1.44.04,3.11-.43l.06.65c1.77-.71,1.53-.99,2.48-1.61,1.99-.64,2.57-.38,3.2-.18,3.17-1.28-2.45.23,1.16-1.52,2.63-.99,4.3-2.2,6.76-4.51,1.69-1.04-.03.52.64.23.37-.49.7-1.01,1.03-1.52.33-.27.33-.06.33.04.98-1.11-.3-.54,1.22-2.24-.02-.45.95-1.11,2.09-2.04,1.11-.95,2.36-2.22,2.78-3.63.53-.49.15.5.47.45.85-1.79,1.13-2.58,1.4-3.28.24-.71.43-1.36.76-2.93.49-.75.97-1.52,1.41-2.31-1.18,1.65-.72-.89-.53-3.05-.44.57-.81,1.05-1.02,1.38.25-1.1.5-2.2.68-3.3.21-.36.33.02.44.63,0-.24.02-.46.02-.64.55-1.1.75-.41.85.53-.24.36-.48.72-.72,1.07.11.91.26,1.82.67,1.77,0-.24.08-.67.2-1.14.03.25.07.41.17.33.1-.09.09-.48.09-1.08l.91-.57-.22-.26c.56-1.43,1.04-2.9,1.48-4.39-.05-1.69-.27-3.27-.47-5.05-.22-1.78-.4-3.76-.59-6.29.54,1.25.86.27,1.48.32-.63,1.41.22,4.04-.22,6.72.22-1.39.47-1.06.54-.69-.04-1.62-.13-3.24-.31-4.85.5.12.4-1.02.57-2.31-.49.5-.67-.4-.84-1.66-.16-1.25-.38-2.88-.69-3.82.3-.18.78.23.97,2.65.23-1.37-.19-2.21-.65-2.99-.46-.79-.93-1.53-.97-2.87.16.57.2.88.41,1.07-.3-.64-.63-1.77-.86-2.65-.24-.88-.34-1.54-.07-1.21l.21.56c-.28-.95-.75-2.12-1.36-3.3-.55-1.22-1.34-2.38-2.06-3.45-.77-1.04-1.57-1.91-2.21-2.54-.69-.59-1.21-.93-1.46-.89.05-.11,1.1-.3,1.39-.23l-1.69-.83c-.58-.25-1.16-.47-1.73-.69-1.12-.47-2.31-.79-3.45-1.12.93-.17.2-3.05,2.96-1.28-.66-.67-1.46-1.56-3.23-2.48.46.46.65,1.77-.08,1.33-1.43-2.04-1.05-1.3-3.16-3.46.72.65-.75,1.03-2.01.32.29-.04.44-1.05.98-.89l-1.89-.4c-.63-.12-1.27-.2-1.9-.3.91.21.57-.79-.06-1.44.27.33-2.94-1.32-3.91-1.55.47.25.91.55,1.36.83-3.85-1.68-4.37,0-8.22-1.16.53-.1,1.57-1.07-.43-1.74-.54.15-1.73.56-3.22.95-1.48.35-3.24.74-5,.69l-.62-.42c-.91,0-1.81.03-2.71.07.87-.35,2.53-.85,4.35-1.23.91-.18,1.85-.34,2.75-.47.89-.12,1.73-.18,2.43-.21-1.47-.57-.34-.5-2.65-.91-.76-.45,1.35-.24,2.03-.09-.89-.24-1.78-.44-2.69-.62-.9-.19-1.8-.38-2.7-.53.07.35-.99.37-2.05.41-1.06.03-2.13.1-2.04.38,1.99-.07,3.97-.06,5.96.04.11.69-3.63,1.28-7.38.95-.96-.32.8-1.15.74-1.37-.52.17-3.69.27-4.05.14.55-.12,1.1-.24,1.66-.34-2.19-.29-3.52.86-6.17.46-.89.04-2.84-.5-2.93-.06,1.63.5,2.16,2.84,1.36,3.54-.15,0-1.26-.02-2.47.04-1.21.03-2.51.19-3.04.16-.77-.07-.39-.57.05-1.07.44-.51.94-1.02.26-1.07,0,.19-.72.66-1.02.84-.95.16.18-.7-1.74.14-.09.69-3.84,1.73-.68.91-1.73,1.04-2,.77-4.01,2.03.43-.02.18.59-.34,1.34-.27.36-.57.82-.91,1.23-.34.41-.7.81-1.03,1.16-.02-.21-.5-.1-.73-.04-.79.61-1.4,1.24-2.03,1.77-.57.58-1.15,1.08-1.65,1.64-.5.56-1.03,1.1-1.49,1.74-.24.31-.49.64-.74.98-.23.36-.46.74-.72,1.13-.35.19-1.35,1.73-1.26.9-.15.55-.2,1.09-.64,2.17-1.47,1.86.98-2.45-.37-1.15.15.16-.05.92-.31,1.84-.22.94-.52,2.05-.6,2.9.36-.17.63-1.08.96-2.13.14-.54.31-1.1.47-1.63.16-.54.3-1.05.45-1.44.37.18.42,1.02.31,2.25-.12,1.22-.36,2.85-.57,4.69-.2,1.45-.35,1.74-.5,1.74-.15,0-.27-.32-.24-.05-.45,2.77.04,3.99.36,5.01.2.52.38.99.49,1.62.18.62.21,1.41.33,2.54-.15,1.89-1.02.32-1.32.8-.75-2.4-.29-3.81-.39-5.44-.09.68-.08,1.37-.12,2.07-.12-.38-.25-.99-.33-1.61-.05-.63-.05-1.27.02-1.72-.24.78-.28,3.26.28,6.01.52,2.77,1.64,5.74,2.5,7.83.5.65,1.4,1.7,1.24,1.05-.26-.39-.52-.78-.75-1.19-.1-.67.33-.15.71.31.41.45.75.85.4.06,1.16,1.46,2.67,2.84,4.16,4.87l-.13.78c.11-.18-.87-1.47-1.43-1.95.41.35.92,1.21,1.48,2.06.61.8,1.28,1.6,2.01,1.67-.37-.49-.69-1.02-1.01-1.53,1.49,1.08,3.57,1.97,5.31,3.3-.48-1.07-.49-.2-1.31-1.69.28.74-.87-.05-1.82-.92-.99-.82-1.78-1.71-1.35-.6-.28-.86-.71-1.39-1.13-2-.45-.59-.9-1.27-1.23-2.28-.1.15.08.83-.84-.72-.09-.03-.27-.15-.37-.23-.03-.05-.03-.07-.06-.11.01.03.02.06.04.1-.07-.05-.08-.05.01.04.17.41.28.76.27.94-.44-.24-1.1-.97-1.65-1.79-.59-.79-1.03-1.69-1.39-2.07-.35-1.06.39.33.35-.32l-.92-1.23c.34-.32-.27-2.97.82-.67-.24-.72-.52-1.42-.69-2.16-.17-1.35-.36-3.13-.7-4.22,0-.53-.17-1.18-.3-1.6-.12-.42-.16-.59.01-.13l-.15-1.77c0-.59-.04-1.18-.03-1.78l.12-.02c.2-1.73.41-3.52.92-5.33.5-1.81,1.38-3.61,2.81-5.09.53-1.06,1.14-2.16,2.54-3.59l.55-.02c.45-.62,1.34-1.34,2.13-1.99.82-.62,1.54-1.18,1.7-1.51.96-.08,2.46-1.06,4.14-2,1.68-.93,3.57-1.78,4.85-2.07l-.04-.52c1.78-.46,3.5-.96,5.82-1.39l-.19-.43c2.03-.58,5.31.03,8.57.28-.24.15-1.06.05-1.64-.09,3.79,1.22,8.4.17,11.76,1.74.9.06,1.52.28,2.09.55-.08-.02-.15-.03-.22-.03.09.02.22.06.35.1.36.17.73.36,1.12.57-.32-.22-.64-.41-.93-.52.67.16,1.67.44,2.68.63l.26.59c.08.02.14.04.23.06.88.51.83.06.44-.47.51.1.99.17,1.37.19.5.97,2.61.75,3.31,1.94.4-.05,1.58.44,2.78.87,1.17.48,2.35.93,2.81.69-.02.11.21.3-.28.04.94.66,1.84,1.36,2.84,1.72l.04.79c.81.27,1.68.5,2.49.82.94,1.27,1.26,1.81-.18,1.23,1.62.84,2.17,1.33,2.69,1.73.26.21.51.4.87.64.34.26.76.59,1.41,1.05l-.4.15c.77.76,2.19,1.89,2.33,2.61.21.6.65,1.57,1.29,2.72.53,1.22,1.28,2.64,1.8,4.28,1.14,3.25,1.64,7.25,1.34,10.38.56-.62.47.11.3,1.03-.16.92-.41,2,.04,2.15-.3.36-.5,1.22-.68.19.05,1.6-.18,2.8-.37,3.86-.17,1.07-.32,2-.13,3.16-.33.31-.29-.75-.5-.45.03.26.05,1.04-.18,1.33-.23.28-.13-.5-.15-1.01-.29,1.59-.27,2.5-.09,3.08.19.58.55.83.91,1.04-.41.76-.66,1.34-.79,1.9-.15.55-.17,1.08-.12,1.75-.45.47-1.02,1.29-.44-.68-.2.54-.86,2.17-1.55,3.64-.66,1.48-1.3,2.82-1.05,3.02-.33.23-.81,1.39-.93,1.67-.36.54-.63.95-.86,1.31-.25.34-.46.62-.67.9-.4.57-.83,1.1-1.6,2.1l.52-.48c0,.64-.32,1.08-.8,1.54-.24.23-.51.47-.81.75-.31.27-.65.57-1,.94v-.1c-1.92,1.39-2.29,1.71-2.64,2.07-.36.34-.71.72-2.82,1.7l.47.27c.09.55-.88.99-2.16,1.41-1.28.43-2.84.81-4.02,1.5l1.01-.12c-.62.45-1.72.53-2.82.48-1.11-.05-2.21-.19-2.92-.06-.33,0,.44-.27.84-.47-1.89.26-1.97.37-1.91.63.06.24.27.55-1.11.96-.59-.22.46-.97-1.4-.63-.25-.03-.69.09-1.27.28-.57.19-1.28.45-2.06.64-1.54.46-3.36.73-4.68.49.58.22,1.18.45-.15.72-2.08.14-5.51-.98-7.4-.4-.25-.09-.35-.17-.35-.24-1.58.1-5.11-.33-6.13-.1-.28-.46-1.03-.78-1.98-1.03-.48-.12-1.01-.22-1.57-.32-.55-.1-1.12-.21-1.69-.31-2.25-.38-4.32-.86-4.05-1.57-1.54-.52-3.07-1.04-4.58-1.64l.18-.1c-2.82-1.29-3.96-1.44-5.11-1.6-.6-.41-.07-.31.02-.35-1.99-1.12-3.04-1.8-4.09-2.3-1.05-.5-2.07-.85-3.9-1.55l-.07-.63c-.51-.16-1.8-1.21-3.37-2.55-1.58-1.33-3.43-2.96-5.25-4.24.07-.01.2-.02.51.16-2.05-1.43-3.9-3.8-5.36-5.88-1.49-2.07-2.57-3.88-3.83-4.16-.74-.82-1.35-1.73-2.04-2.61,1.99,3.79-1-.18-.39,1.51-.49-.71-.87-1.77-.99-2.41-.13-.63-.03-.85.47.07l.06.33c.6.12.05-1.09-.48-2.39-.25-.66-.52-1.33-.69-1.84-.15-.52-.18-.89-.03-.91-1.46-3.9-2.26-7.98-2.53-12.01-.25-4.03-.01-8.01.52-11.84l-.84.8c.14-.9.24-1.81.43-2.71.3-.68.73-.84.37,1.06.58-.93.22-3.26.11-3.35,1.14-3.64.5,1.63.78.49l.3-1.54-.16.33c-.02-1.31-.26-1.5.42-3.74.56-1.38.66-.58.87-1.12.05.02.14-.16.32-.83l.6-1.6.7-1.56-1.07,1.04c.34-1.51,1.3-2.98.08-1.77.23-.22.49-.57.76-1.01.29-.43.63-.95.96-1.53.64-1.18,1.47-2.53,2.24-3.87.81-1.32,1.64-2.61,2.34-3.62.73-.99,1.3-1.72,1.57-1.96.48-.98,1.11-1.85,1.79-2.75.69-.9,1.55-1.73,2.46-2.68-.51.41-1.31.2.39-1.35.17.77,1.03.15,2.08-.72,1.07-.86,2.43-1.89,3.41-2.11-.84.25.4-.76,1.55-1.71,1.12-.98,2.26-1.77.92-1.45,1.64-.96.38.35,1.75-.18,3.47-2.91,8.7-4.65,13.84-6.46.03-.19-.94-.18.12-.77l3.04.05c1.03-.32.75-1.21,2.83-1.04-.3-.08-.76-.21-.05-.43,5.41-.67,10.95-1.09,16.53-.73,5.55.37,11.16,1.63,15.92,4.42-1.24-.88-.32-.54.73-.12-.65-.36.18-.4.13-.67.67.41,1.35.77,2,1.2l1.92,1.31c.54-.14,1.61.47,2.64,1.07,1.05.56,1.99,1.21,2.36,1.09-.43-.24-.84-.5-1.28-.71,1.02.2.69-.52.12-1.35-.56-.83-1.32-1.82-.96-2.16-1.18-.23-2.41-1.09-3.82-2.11-1.46-.88-3.13-1.89-5.13-1.87-.73-.45.77-.07.42-.42-1.05.09-2.14-.24-4.17-.94l.26-.04c-.73-.19-1.41-.36-2.04-.52-.64-.14-1.25-.27-1.83-.4-.58-.14-1.14-.27-1.69-.4-.55-.11-1.1-.21-1.65-.32-.55-.11-1.11-.22-1.69-.34-.58-.11-1.19-.18-1.83-.27-.64-.09-1.32-.18-2.05-.28-.73-.05-1.52-.1-2.37-.16l.49.48c-1.45-.09-1.76-.27-2.44-.36-.83.41.19.32,1.23.39,1.04.04,2.09.1,1.32.47-.47-.24-1.35-.41-2.42-.46-1.07-.02-2.33,0-3.57.06-1.24.11-2.45.21-3.46.23-.99.07-1.77.05-2.14-.17-2.23.34.74.44-1.48.78-.21-.07-.42-.11-.64-.17l-.48.5c-1.44.25-2.26.05-2.37-.18.36-.05.98-.29,1.36-.39-.49.02-1.07.11-1.66.23-.59.14-1.2.35-1.77.54-1.14.39-2.12.75-2.44.83.7-.2,1.43-.3,2.14-.45-2.94.95-6.14,2.17-9.2,3.64-.75.39-1.51.77-2.25,1.16-.74.39-1.43.85-2.13,1.28-1.41.83-2.64,1.83-3.79,2.76l.5-.06c-3.39,2.96-3.1,1.87-6.72,5.25l.09-.16c-.56.85-1.45,1.82-2.42,2.76.67-1.1-1.97,1.36-1.06-.04-1.53,1.94-1.85,2.45-1.99,2.85-.15.39-.14.66-.83,2.15-.25.11-.51.22-.75.34-.38,1.09-.31,1.25-1.65,3.28.88-1.83-1.36.96-.41-1.13-1.8,1.91-2.67,3.67-3.29,5.13-.68,1.43-1.07,2.59-2.15,3.39-.14,2.56,2.51-3.75,2.14-2.44.43-.4.34.11.07.9-.25.8-.69,1.87-1.09,2.56-.38.72-.91,1.23-1.62,2.03-.34.41-.74.87-1.1,1.51-.35.64-.72,1.42-1.06,2.41.14-.39.08-.44.22-.83-.82,1.39-.58,3.03-1.54,4.76.36,1.2-.6,2.43.12,2.9.24-1.24.4-2.51.72-3.74-.38,2.16.06,4.28-.85,7.68-.12-.29-.21-1.37-.18-2.1-.44.99-.12,2-.51,3.04-.37-.19-.29-1.36-.09-2.77.11-.7.25-1.46.34-2.2.12-.73.21-1.44.19-2.05-.63,1.03-.32,4.45-.94,3.14.19.47.24.95.2,1.46-.02.51-.11,1.06-.22,1.64-.24,1.15-.41,2.48-.11,3.92l-.46-.21c.04.46.25,1.4.21,2.22l-.57-1.52c.24,1.17.06,2.28-.04,3.39-.06.56-.13,1.11-.16,1.67-.01.56.03,1.11.14,1.67-.2-2.34.02-2.61.18-2.54.19.07.43.47.58-.51.17,1.42.26,2.32.23,3-.03.68-.18,1.12-.3,1.59-.23.94-.59,2.01.14,5.19-.22-.86-.3-3.29.15-1.98.06.61.12,1.32.15,1.99.06.66.09,1.26.06,1.66,1.16,4.15.3-.75,1.02.94-.08.77.13,1.26.44,1.77.3.51.72,1.03,1.13,1.87l-.45.17c.65,2.35,1.09,2.53,1.39,2.68.16.07.32.13.51.43.19.3.43.84.83,1.84-.47-.45-.95-.9-1.38-1.39.33.69.75,1.33,1.13,1.99l-.7-.18c.72,1.04,1.17,1.73,1.59,2.42.41.7.72,1.45,1.35,2.5,0-.67.88-.18,2.11,1.54.64,1.33-.88-.37,1.02,2-.67-.34-1.43-.73-1.85-2.07-.22-.01-.63-.39-.84-.42.6,1.53,2.3,3.3,3.03,4.13-.27-.33-.57-.75-.67-1,1.1,1.02,2.24,1.98,3.4,2.89.34.63-.14.33-.61.03.64.63,1.25.9,2.2,1.79-.52.05-.74.39-2.19-.81,1.09.92,2.2,1.8,3.34,2.63.09.31,1.31,1.79.81,1.53,1.64,1.73,4.93,3.01,7.31,4.93.18.02.48.14,1.06.45,2.37,1.61,4.36,3.33,7.64,4.38l1.43,1.48c2.48,1-1.98-1.9,2.14-.28,2.94,1.06.82,1.04,1.76,1.64,1.6.27,4.34.61,6.91,2.01-.96-.15-1.63-.5-2.48-.76ZM119.83,158.11c-.62.21-1.86.65-2.36.43.66-.64,1.25-.42,2.36-.43ZM153.42,125.21c.07.49-.2,1.18-.57,1.93.1-.59.29-1.23.57-1.93ZM75.49,109.07s-.02-.04-.04-.05c-.08-1.27-.06-.82.04.05ZM75.97,111.68c.15.23.21.19.24.06-.19-.13-.35-.71-.5-1.36-.07.21-.07.57.27,1.3ZM51.12,83.92l-.3.47c.28-1.19.28-.83.3-.47Z"/>
    <path class="cls-1" d="M152.55,130.82c-.13.15-.24.16-.33.17,0,.26.08.3.33-.17Z"/>
    <path class="cls-1" d="M68.93,145.87l-.08-.06c-.06,0-.1,0-.13.02l.21.04Z"/>
    <path class="cls-1" d="M91.81,75.11c.62-.13.98-.15,1.23-.13,0-.12-.3-.13-1.23.13Z"/>
    <path class="cls-1" d="M84.02,122.81l-1.26-1.07c.59.55.71.82.95,1.17.05-.11-.06-.45.31-.09Z"/>
    <path class="cls-1" d="M95.84,132.55c.28,0,.55.13.82.14l-.02-.24c-1.1-.25-1.91-.33-.81.09Z"/>
    <path class="cls-1" d="M84.15,125.05c-.16.4.81.99,1.86,1.64-.06-.04-.12-.08-.18-.12.61-.25-.54-.85-1.68-1.52Z"/>
    <path class="cls-1" d="M86.26,126.84c.33.2.66.4.96.63.24-.11-.36-.3-.96-.63Z"/>
    <path class="cls-1" d="M77.44,114.7c.16.55.63.09.62.44.38.15-.21-.57-.6-1.08-.42-.5-.74-.71-.02.64Z"/>
    <path class="cls-1" d="M84.12,126.72l-.05-.67c-.27-.04-.54-.08-.81-.13.27.29.57.54.86.81Z"/>
    <path class="cls-1" d="M77.59,119.12c.35.58.66,1.19,1.05,1.74.05-.07.25.1.47.33-.78-.97-1.4-2.2-1.52-2.07Z"/>
    <path class="cls-1" d="M79.1,121.18c.38.53.79.99,1.1,1.2-.12-.13-.31-.33-.51-.55-.19-.23-.4-.47-.59-.65Z"/>
    <path class="cls-1" d="M81.87,125.03l-.36-.5c-.33-.35-.68-.69-1-1.05.44.53.9,1.03,1.36,1.56Z"/>
    <path class="cls-1" d="M73.58,98.33c.08-.73.25-1.45.4-2.17-.1-.27-.37.29-.53,1.1-.02.54-.1,1.37.13,1.07Z"/>
    <path class="cls-1" d="M71.68,105.01c.08-.63.2-.67.36-1.02l-.62-.06c.09.37.16.73.26,1.09Z"/>
    <path class="cls-1" d="M72.04,98.26c-.16-.26.31-3.44-.36-.52.12.28-.2,2.59.36.52Z"/>
    <polygon class="cls-1" points="95.72 75.77 95.17 75.9 95.48 76.87 95.72 75.77"/>
    <path class="cls-1" d="M125.92,75.99c-2.57-1.04-.81.39-3.1-.61-.68.04,1.87.81,1.18.83,1.65.24,2.44.64,1.92-.22Z"/>
    <path class="cls-1" d="M124,76.21c-.26-.04-.54-.08-.85-.1.47.08.7.1.85.1Z"/>
    <path class="cls-1" d="M133.43,53.31c.43.34.87.64,1.27,1.02-.22-.3-.46-.58-.7-.85l-.57-.18Z"/>
    <path class="cls-1" d="M136.48,54.36l-.05.75,1.15.07c-.33-.19-.95-.54-1.1-.82Z"/>
    <path class="cls-1" d="M124.99,158.37l.1-.18c-.32-.1-.73,0-1.56.17l1.47.02Z"/>
    <path class="cls-1" d="M100.69,158.75l.41.07c-.23-.23-.45-.46-.67-.7l.26.63Z"/>
    <path class="cls-1" d="M81.12,153.63c.74.37,1.69.62,2.46.95-1.73-.56-2.36-1.72-2.46-.95Z"/>
  </g>
</svg>